<svg width="76" height="76" viewBox="0 0 76 76" fill="none" xmlns="http://www.w3.org/2000/svg">
<mask id="mask0_577_225" style="mask-type:alpha" maskUnits="userSpaceOnUse" x="0" y="0" width="76" height="76">
<rect x="0.398438" y="0.475098" width="75" height="75" fill="#D9D9D9"/>
</mask>
<g mask="url(#mask0_577_225)">
<path d="M67.5031 26.0267C67.0071 19.3759 63.9513 13.1766 58.9784 8.73264C54.0054 4.28869 47.5029 1.94642 40.8384 2.19848C34.1739 2.45053 27.8669 5.27726 23.2438 10.0841C18.6207 14.891 16.0419 21.3034 16.0498 27.9727C16.0542 29.7104 15.5096 31.4051 14.4937 32.8149L8.70121 40.8874C8.43944 41.252 8.27802 41.679 8.23309 42.1257C8.18816 42.5723 8.26129 43.0229 8.44518 43.4324C8.62907 43.8419 8.91726 44.1959 9.28092 44.4591C9.64459 44.7222 10.071 44.8853 10.5174 44.9319L15.6358 45.4664C15.7496 45.4781 15.8549 45.5317 15.9314 45.6167C16.0079 45.7017 16.0501 45.8121 16.0498 45.9264V52.0356C16.0524 54.3148 16.9589 56.4998 18.5705 58.1114C20.1821 59.723 22.3671 60.6295 24.6462 60.6321H31.4683C31.7606 60.6331 32.0407 60.7496 32.2474 60.9564C32.4541 61.1631 32.5707 61.4432 32.5717 61.7355V70.1302C32.5728 71.0952 32.9567 72.0204 33.639 72.7027C34.3214 73.3851 35.2465 73.7689 36.2115 73.7701H55.9353C56.9003 73.7689 57.8255 73.3851 58.5078 72.7027C59.1902 72.0204 59.574 71.0952 59.5752 70.1302V56.0586C59.6228 50.8352 61.1014 45.7247 63.8503 41.2828C66.6306 36.7034 67.9079 31.3687 67.5031 26.0267ZM62.2752 40.3252C59.3503 45.0555 57.7782 50.4973 57.73 56.0586V70.1296C57.7294 70.6054 57.5401 71.0615 57.2037 71.3979C56.8672 71.7344 56.4111 71.9237 55.9353 71.9243H36.2115C35.7357 71.9238 35.2795 71.7346 34.943 71.3981C34.6065 71.0616 34.4173 70.6054 34.4168 70.1296V61.7355C34.4158 60.9538 34.1049 60.2044 33.5521 59.6517C32.9994 59.0989 32.25 58.7879 31.4683 58.787H24.6462C22.8563 58.7849 21.1403 58.0729 19.8746 56.8072C18.609 55.5416 17.897 53.8256 17.8949 52.0356V45.9264C17.8962 45.3556 17.6853 44.8047 17.3031 44.3806C16.921 43.9566 16.395 43.6896 15.8271 43.6317L10.7087 43.0966C10.5837 43.0833 10.4644 43.0375 10.3626 42.9637C10.2608 42.8899 10.1802 42.7907 10.1287 42.676C10.0772 42.5613 10.0567 42.4351 10.0693 42.31C10.0818 42.1849 10.1269 42.0653 10.2001 41.9631L15.9932 33.8906C17.2389 32.1588 17.9046 30.0771 17.8949 27.9438C17.9003 24.664 18.5778 21.4202 19.8856 18.4125C21.1934 15.4047 23.1037 12.697 25.4987 10.4562C29.9085 6.30872 35.7393 4.00768 41.793 4.02595C42.363 4.02595 42.937 4.04645 43.5151 4.08745C47.6004 4.37887 51.5424 5.71455 54.9633 7.96649C58.3843 10.2184 61.1696 13.3112 63.0524 16.9484C64.9353 20.5856 65.8524 24.6454 65.7161 28.7388C65.5798 32.8321 64.3946 36.8219 62.274 40.3258L62.2752 40.3252Z" fill="#3C0A6D"/>
<path d="M52.0083 16.6818C51.3271 14.2724 49.8212 12.1789 47.7537 10.7666C45.6862 9.35428 43.1883 8.71301 40.6962 8.95469C38.204 9.19638 35.8759 10.3057 34.1183 12.0889C32.3607 13.8722 31.2852 16.2161 31.0796 18.7115C30.8184 18.6852 30.5561 18.6721 30.2936 18.6721C28.1922 18.668 26.1707 19.4767 24.652 20.9291C23.1333 22.3815 22.2352 24.3649 22.1456 26.4644C22.056 28.5639 22.7818 30.6166 24.1711 32.1931C25.5605 33.7697 27.5057 34.7478 29.5998 34.9228C29.689 34.9505 29.7819 34.9646 29.8753 34.9646H36.682L38.4078 37.0428H33.8565C33.668 37.0428 33.484 37.1006 33.3293 37.2083C33.1746 37.316 33.0567 37.4686 32.9913 37.6454C32.9259 37.8222 32.9162 38.0148 32.9636 38.1972C33.011 38.3797 33.1131 38.5433 33.2562 38.6659L50.416 53.3489C50.5675 53.4786 50.757 53.5556 50.9561 53.5685C51.1552 53.5814 51.3531 53.5295 51.5201 53.4204C51.6871 53.3114 51.8143 53.1511 51.8826 52.9637C51.9509 52.7762 51.9566 52.5717 51.8988 52.3808L48.6828 41.7516H52.8072C52.9788 41.7515 53.147 41.7035 53.2928 41.613C53.4386 41.5226 53.5563 41.3932 53.6327 41.2396C53.709 41.0859 53.741 40.914 53.725 40.7431C53.7091 40.5723 53.6458 40.4093 53.5422 40.2724L49.5229 34.9628H51.285C53.6498 34.9618 55.9224 34.0459 57.6269 32.4068C59.3315 30.7677 60.3356 28.5327 60.4291 26.1698C60.5226 23.8069 59.6982 21.4995 58.1285 19.7308C56.5588 17.9622 54.3656 16.8696 52.0083 16.6818ZM47.4391 39.9065C47.2951 39.9065 47.1531 39.9403 47.0245 40.0051C46.8959 40.0698 46.7842 40.1638 46.6984 40.2795C46.6127 40.3952 46.5552 40.5293 46.5305 40.6712C46.5059 40.8131 46.5148 40.9588 46.5566 41.0966L49.2203 49.8917L36.3579 38.8861H40.3754C40.5507 38.8862 40.7223 38.8363 40.8703 38.7423C41.0183 38.6484 41.1364 38.5142 41.2109 38.3555C41.2854 38.1968 41.3131 38.0202 41.2908 37.8463C41.2686 37.6724 41.1972 37.5085 41.0851 37.3737L36.6654 32.0548H45.0079L50.9517 39.9065H47.4391ZM51.285 33.1176H48.1262L46.2017 30.5756C46.1157 30.462 46.0047 30.3699 45.8771 30.3064C45.7496 30.2429 45.6091 30.2098 45.4667 30.2097H34.6973C34.522 30.2096 34.3503 30.2595 34.2023 30.3535C34.0544 30.4474 33.9362 30.5816 33.8617 30.7403C33.7873 30.899 33.7595 31.0756 33.7818 31.2495C33.8041 31.4234 33.8755 31.5873 33.9875 31.7221L35.15 33.1176H30.0875C30.035 33.1051 29.9815 33.0973 29.9276 33.0943C29.0538 33.0458 28.1997 32.8156 27.4198 32.4185C26.64 32.0213 25.9515 31.4659 25.3984 30.7877C24.8453 30.1095 24.4396 29.3234 24.2074 28.4796C23.9753 27.6358 23.9216 26.7528 24.0498 25.8871C24.1781 25.0214 24.4855 24.1919 24.9523 23.4517C25.4192 22.7115 26.0353 22.0767 26.7613 21.588C27.4873 21.0993 28.3072 20.7674 29.1687 20.6134C30.0303 20.4594 30.9144 20.4868 31.7648 20.6937C31.9004 20.7261 32.0415 20.7273 32.1777 20.6972C32.3138 20.6672 32.4413 20.6067 32.5507 20.5203C32.6601 20.4338 32.7485 20.3238 32.8092 20.1983C32.8699 20.0728 32.9014 19.9352 32.9014 19.7958C32.9007 19.728 32.8966 19.6602 32.8891 19.5928C32.8871 17.4065 33.6956 15.2971 35.1582 13.6721C36.6209 12.0471 38.6339 11.022 40.8084 10.7947C42.9828 10.5674 45.1644 11.1541 46.9315 12.4415C48.6985 13.7288 49.9258 15.6255 50.376 17.7649C50.4208 17.9726 50.5355 18.1587 50.701 18.2921C50.8664 18.4255 51.0725 18.4982 51.285 18.498C53.2237 18.498 55.083 19.2682 56.4538 20.639C57.8247 22.0099 58.5948 23.8692 58.5948 25.8078C58.5948 27.7465 57.8247 29.6058 56.4538 30.9766C55.083 32.3475 53.2237 33.1176 51.285 33.1176Z" fill="#3C0A6D"/>
</g>
</svg>
