<svg width="76" height="76" viewBox="0 0 76 76" fill="none" xmlns="http://www.w3.org/2000/svg">
<mask id="mask0_577_227" style="mask-type:alpha" maskUnits="userSpaceOnUse" x="0" y="0" width="76" height="76">
<rect x="0.398438" y="0.0517578" width="75" height="75" fill="#D9D9D9"/>
</mask>
<g mask="url(#mask0_577_227)">
<path d="M37.9245 12.6018C38.551 12.6018 39.0576 12.0948 39.0576 11.4679V3.71235C39.0576 3.08549 38.551 2.57849 37.9245 2.57849C37.2981 2.57849 36.7915 3.08549 36.7915 3.71235V11.4696C36.7915 12.0964 37.2981 12.6034 37.9245 12.6034V12.6018Z" fill="#3C0A6D"/>
<path d="M18.1754 19.3887C18.3971 19.6106 18.6868 19.7208 18.9766 19.7208C19.2663 19.7208 19.556 19.6106 19.7778 19.3887C20.2197 18.9465 20.2197 18.2273 19.7778 17.7851L14.4492 12.4527C14.0074 12.0105 13.2887 12.0105 12.8468 12.4527C12.4049 12.895 12.4049 13.6141 12.8468 14.0563L18.1754 19.3887Z" fill="#3C0A6D"/>
<path d="M58.4825 19.7208C58.7722 19.7208 59.062 19.6106 59.2837 19.3887L64.6123 14.0563C65.0542 13.6141 65.0542 12.895 64.6123 12.4527C64.1704 12.0105 63.4517 12.0105 63.0098 12.4527L57.6813 17.7851C57.2394 18.2273 57.2394 18.9465 57.6813 19.3887C57.903 19.6106 58.1928 19.7208 58.4825 19.7208Z" fill="#3C0A6D"/>
<path d="M12.7739 33.1231C12.7739 32.4963 12.2673 31.9893 11.6409 31.9893H4.10448C3.47807 31.9893 2.97144 32.4963 2.97144 33.1231C2.97144 33.75 3.47807 34.257 4.10448 34.257H11.6409C12.2673 34.257 12.7739 33.75 12.7739 33.1231Z" fill="#3C0A6D"/>
<path d="M71.6924 31.9893H64.156C63.5296 31.9893 63.0229 32.4963 63.0229 33.1231C63.0229 33.75 63.5296 34.257 64.156 34.257H71.6924C72.3188 34.257 72.8254 33.75 72.8254 33.1231C72.8254 32.4963 72.3188 31.9893 71.6924 31.9893Z" fill="#3C0A6D"/>
<path d="M38.2062 16.3289C38.1512 16.3289 38.0978 16.3289 38.0444 16.3289C32.0732 16.3289 26.4582 18.6436 22.2173 22.8567C17.9377 27.1087 15.5809 32.7747 15.5809 38.8085C15.5809 39.4629 15.6101 40.1254 15.6667 40.7814L12.1089 49.551C11.8775 50.1211 12.1429 50.7723 12.7078 51.0169L17.1283 52.9363V56.5339C17.1283 56.9 17.3048 57.2434 17.6026 57.4572L19.0966 58.5247C19.2892 58.6623 19.5191 58.7352 19.7554 58.7352H21.9891C22.6155 58.7352 23.1221 58.2282 23.1221 57.6014C23.1221 56.9745 22.6155 56.4675 21.9891 56.4675H20.1196L19.396 55.9492V52.1912C19.396 51.7393 19.1274 51.3311 18.7146 51.1513L14.6259 49.376L17.8713 41.3759C17.9409 41.2058 17.9668 41.0195 17.949 40.8365C17.8826 40.1626 17.8486 39.4807 17.8486 38.8052C17.8486 33.3789 19.9674 28.2863 23.8149 24.4619C27.6268 20.6732 32.677 18.5918 38.046 18.5918C38.0945 18.5918 38.1431 18.5918 38.1917 18.5918C43.5704 18.629 48.6254 20.7801 52.426 24.6466C56.2297 28.5163 58.2951 33.6138 58.2433 39.0012C58.2093 42.5858 57.2236 46.0992 55.3945 49.1622C52.6849 53.6977 51.8109 59.0252 52.9342 64.1664L54.0268 69.17C54.1061 69.5344 53.9507 69.7968 53.8504 69.9216C53.75 70.0463 53.5266 70.2552 53.1543 70.2552H34.8589L34.5546 66.5621C34.5044 65.9514 33.98 65.4898 33.3665 65.5238L23.7032 66.0227C23.4281 66.0389 23.1658 65.9401 22.9668 65.7506C22.7677 65.5611 22.656 65.3035 22.656 65.0281V63.5266C22.656 63.18 22.4974 62.8511 22.2238 62.6357L19.1371 60.2011C18.645 59.814 17.9328 59.8982 17.5459 60.3907C17.1591 60.8831 17.2433 61.5958 17.7353 61.9829L20.3915 64.0773V65.0298C20.3915 65.9206 20.7622 66.7824 21.4064 67.3963C22.0522 68.0102 22.9311 68.3341 23.8214 68.2888L32.3872 67.8466L32.6883 71.4847C32.7368 72.0726 33.2273 72.5246 33.8181 72.5246H53.1576C54.119 72.5246 55.0158 72.0953 55.6179 71.3454C56.22 70.5954 56.4483 69.6267 56.2427 68.6873L55.1501 63.6837C54.1514 59.1078 54.93 54.365 57.3418 50.3269C59.378 46.9204 60.4738 43.0119 60.5127 39.0239C60.5693 33.0307 58.2725 27.3597 54.0446 23.0576C49.8183 18.7586 44.1952 16.3678 38.2111 16.3257L38.2062 16.3289Z" fill="#3C0A6D"/>
<path d="M28.1382 35.7293C27.6963 35.2871 26.9776 35.2871 26.5357 35.7293L24.1175 38.1493C23.9054 38.3615 23.7856 38.6498 23.7856 38.9511C23.7856 39.0288 23.7937 39.105 23.8099 39.1795C23.8099 39.1827 23.8115 39.1876 23.8132 39.1908C23.8196 39.2232 23.8277 39.2556 23.8374 39.2864C23.8423 39.2993 23.8472 39.3123 23.852 39.3269C23.8601 39.3479 23.8666 39.369 23.8747 39.3901C23.8811 39.4063 23.8892 39.4225 23.8973 39.4387C23.9054 39.4548 23.9135 39.4727 23.9216 39.4889C23.9313 39.5051 23.941 39.5213 23.9507 39.5375C23.9605 39.552 23.9686 39.5682 23.9783 39.5828C23.9896 39.6006 24.0025 39.6168 24.0155 39.633C24.0252 39.646 24.0333 39.6589 24.0446 39.6719C24.0673 39.6994 24.0899 39.7254 24.1142 39.7497C24.1142 39.7497 24.1158 39.7529 24.1175 39.7529L26.5341 42.1712C26.7558 42.3932 27.0456 42.5033 27.3353 42.5033C27.6251 42.5033 27.9148 42.3932 28.1365 42.1712C28.5784 41.729 28.5784 41.0099 28.1365 40.5676L27.6542 40.0849H34.0462C34.1287 40.3684 34.242 40.6389 34.3812 40.8932L31.0064 44.2705V43.5853C31.0064 42.9585 30.4998 42.4515 29.8733 42.4515C29.2469 42.4515 28.7403 42.9585 28.7403 43.5853V47.0063C28.7403 47.0436 28.7419 47.0825 28.7468 47.1197C28.7468 47.1311 28.75 47.1424 28.7516 47.1521C28.7549 47.178 28.7581 47.204 28.763 47.2299C28.7662 47.2428 28.7694 47.2558 28.7727 47.2688C28.7775 47.2914 28.784 47.3157 28.7905 47.3384C28.7937 47.3497 28.7986 47.3611 28.8018 47.3724C28.8099 47.3967 28.818 47.4194 28.8277 47.4437C28.8309 47.4534 28.8358 47.4615 28.8407 47.4696C28.852 47.4955 28.8633 47.5198 28.8763 47.5441C28.8795 47.549 28.8827 47.5538 28.886 47.5603C28.9005 47.5878 28.9167 47.6138 28.9345 47.6397C28.9345 47.6397 28.9345 47.6397 28.9361 47.6413C28.9766 47.6996 29.0203 47.7563 29.0721 47.8081C29.1514 47.8875 29.2388 47.9507 29.3311 48.0025C29.3619 48.0187 29.3926 48.0333 29.4234 48.0463C29.4266 48.0463 29.4282 48.0495 29.4315 48.0495C29.4622 48.0625 29.4946 48.0738 29.527 48.0835C29.5302 48.0835 29.5334 48.0851 29.5367 48.0867C29.5723 48.0981 29.6063 48.1062 29.6419 48.1143C29.6419 48.1143 29.6419 48.1143 29.6435 48.1143C29.7179 48.1305 29.7956 48.1386 29.8717 48.1386C29.8766 48.1386 29.8798 48.1386 29.8847 48.1386H33.2903C33.9167 48.1386 34.4233 47.6316 34.4233 47.0047C34.4233 46.3779 33.9167 45.8709 33.2903 45.8709H32.6072L35.9821 42.4936C36.2362 42.6329 36.5065 42.7447 36.7882 42.8289V50.0354L36.3042 49.551C35.8623 49.1088 35.1436 49.1088 34.7017 49.551C34.2598 49.9932 34.2598 50.7124 34.7017 51.1546L37.12 53.5746C37.3417 53.7965 37.6315 53.9067 37.9212 53.9067C38.2109 53.9067 38.5007 53.7965 38.7224 53.5746L41.1407 51.1546C41.5826 50.7124 41.5826 49.9932 41.1407 49.551C40.6988 49.1088 39.9801 49.1088 39.5382 49.551L39.0543 50.0354V42.8289C39.3375 42.7463 39.6078 42.6345 39.8603 42.4936L43.2352 45.8709H42.5521C41.9257 45.8709 41.4191 46.3779 41.4191 47.0047C41.4191 47.6316 41.9257 48.1386 42.5521 48.1386H45.9577C45.9577 48.1386 45.9658 48.1386 45.9707 48.1386C46.0468 48.1386 46.1228 48.1305 46.1989 48.1143C46.1989 48.1143 46.1989 48.1143 46.2005 48.1143C46.2361 48.1062 46.2718 48.0981 46.3057 48.0867C46.309 48.0867 46.3122 48.0851 46.3155 48.0835C46.3478 48.0738 46.3786 48.0625 46.411 48.0495C46.4142 48.0495 46.4158 48.0463 46.4191 48.0463C46.4498 48.0333 46.4806 48.0187 46.5113 48.0025C46.6052 47.9523 46.6926 47.8875 46.7703 47.8081C46.8221 47.7563 46.8674 47.6996 46.9063 47.6413C46.9063 47.6413 46.9063 47.6413 46.9079 47.6397C46.9257 47.6138 46.9419 47.5862 46.9564 47.5603C46.9597 47.5555 46.9629 47.5506 46.9661 47.5441C46.9791 47.5198 46.9904 47.4939 47.0018 47.4696C47.005 47.4615 47.0099 47.4518 47.0147 47.4437C47.0244 47.421 47.0325 47.3967 47.0406 47.3724C47.0438 47.3611 47.0487 47.3497 47.0519 47.3384C47.0584 47.3157 47.0649 47.2914 47.0697 47.2688C47.073 47.2558 47.0762 47.2428 47.0795 47.2299C47.0843 47.204 47.0875 47.178 47.0908 47.1521C47.0908 47.1408 47.094 47.1311 47.0956 47.1197C47.0989 47.0825 47.1021 47.0436 47.1021 47.0063V43.5853C47.1021 42.9585 46.5955 42.4515 45.9691 42.4515C45.3427 42.4515 44.836 42.9585 44.836 43.5853V44.2705L41.4612 40.8932C41.6004 40.6389 41.7137 40.3684 41.7962 40.0849H48.1882L47.7059 40.5676C47.264 41.0099 47.264 41.729 47.7059 42.1712C47.9276 42.3932 48.2174 42.5033 48.5071 42.5033C48.7968 42.5033 49.0866 42.3932 49.3083 42.1712L51.7249 39.7529C51.7249 39.7529 51.7266 39.7497 51.7282 39.748C51.7525 39.7237 51.7767 39.6978 51.7978 39.6703C51.8075 39.6573 51.8172 39.6444 51.8269 39.6314C51.8399 39.6152 51.8528 39.599 51.8641 39.5812C51.8739 39.5666 51.882 39.5504 51.8917 39.5358C51.9014 39.5196 51.9111 39.5034 51.9208 39.4872C51.9305 39.471 51.937 39.4532 51.9451 39.437C51.9532 39.4208 51.9613 39.4046 51.9677 39.3884C51.9758 39.3674 51.9839 39.3463 51.9904 39.3253C51.9953 39.3123 52.0001 39.2993 52.005 39.2848C52.0147 39.254 52.0228 39.2216 52.0292 39.1892C52.0292 39.186 52.0309 39.1811 52.0325 39.1779C52.0471 39.1033 52.0568 39.0272 52.0568 38.9495C52.0568 38.6482 51.937 38.3599 51.7249 38.1477L49.3067 35.7277C48.8648 35.2855 48.1461 35.2855 47.7042 35.7277C47.2624 36.1699 47.2624 36.8891 47.7042 37.3313L48.1882 37.8156H41.7962C41.7137 37.5321 41.6004 37.2616 41.4612 37.0073L44.836 33.6301V34.3136C44.836 34.9405 45.3427 35.4475 45.9691 35.4475C46.5955 35.4475 47.1021 34.9405 47.1021 34.3136V30.8942C47.1021 30.857 47.1005 30.8197 47.0973 30.7808C47.0956 30.7614 47.0924 30.7403 47.0892 30.7209C47.0859 30.7047 47.0843 30.6885 47.0811 30.6723C47.0762 30.648 47.0697 30.6253 47.0649 30.6027C47.0616 30.5897 47.0584 30.5784 47.0552 30.5654C47.0487 30.5411 47.039 30.5184 47.0309 30.4941C47.026 30.4828 47.0228 30.4715 47.0179 30.4617C47.0082 30.4374 46.9969 30.4148 46.9856 30.3921C46.9807 30.3824 46.9759 30.3726 46.971 30.3629C46.9581 30.337 46.9435 30.3127 46.9273 30.2884C46.9224 30.2819 46.9192 30.2738 46.9144 30.2674C46.712 29.9612 46.364 29.7587 45.9691 29.7587H42.5505C41.9241 29.7587 41.4175 30.2657 41.4175 30.8926C41.4175 31.5195 41.9241 32.0265 42.5505 32.0265H43.2352L39.8587 35.4054C39.6046 35.2661 39.3343 35.1527 39.051 35.0701V28.309L39.535 28.7933C39.7567 29.0153 40.0465 29.1254 40.3362 29.1254C40.6259 29.1254 40.9157 29.0153 41.1374 28.7933C41.5793 28.3511 41.5793 27.6319 41.1374 27.1897L38.7192 24.7698C38.2773 24.3276 37.5586 24.3276 37.1167 24.7698L34.6985 27.1897C34.2566 27.6319 34.2566 28.3511 34.6985 28.7933C35.1404 29.2355 35.8591 29.2355 36.3009 28.7933L36.7849 28.309V35.0701C36.5017 35.1527 36.2313 35.2661 35.9772 35.4054L32.6007 32.0265H33.2854C33.9118 32.0265 34.4185 31.5195 34.4185 30.8926C34.4185 30.2657 33.9118 29.7587 33.2854 29.7587H29.8669C29.4719 29.7587 29.1255 29.9612 28.9216 30.2674C28.9167 30.2738 28.9135 30.2819 28.9086 30.2884C28.8941 30.3127 28.8779 30.337 28.8649 30.3629C28.8601 30.3726 28.8552 30.3824 28.8504 30.3921C28.839 30.4148 28.8277 30.4391 28.818 30.4617C28.8131 30.4731 28.8099 30.4844 28.805 30.4941C28.7969 30.5168 28.7872 30.5411 28.7808 30.5654C28.7775 30.5784 28.7743 30.5897 28.771 30.6027C28.7646 30.6253 28.7581 30.648 28.7549 30.6723C28.7516 30.6885 28.75 30.7047 28.7468 30.7209C28.7435 30.7403 28.7403 30.7598 28.7387 30.7808C28.7354 30.8181 28.7338 30.8553 28.7338 30.8942V34.3136C28.7338 34.9405 29.2405 35.4475 29.8669 35.4475C30.4933 35.4475 30.9999 34.9405 30.9999 34.3136V33.6301L34.3748 37.0073C34.2356 37.2616 34.1223 37.5321 34.0397 37.8156H27.6477L28.1317 37.3313C28.5736 36.8891 28.5736 36.1699 28.1317 35.7277L28.1382 35.7293ZM37.9244 37.1758C37.9244 37.1758 37.9293 37.1758 37.9325 37.1758C38.907 37.1807 39.6985 37.9744 39.6985 38.9495C39.6985 38.9495 39.6985 38.9495 39.6985 38.9511C39.6985 39.9294 38.9021 40.7248 37.9244 40.7248C36.9468 40.7248 36.152 39.9294 36.1504 38.9511C36.1504 38.9511 36.1504 38.9511 36.1504 38.9495C36.1504 37.9744 36.9419 37.1807 37.9163 37.1758C37.9196 37.1758 37.9212 37.1758 37.9244 37.1758Z" fill="#3C0A6D"/>
</g>
</svg>
