<svg width="76" height="76" viewBox="0 0 76 76" fill="none" xmlns="http://www.w3.org/2000/svg">
<mask id="mask0_577_228" style="mask-type:alpha" maskUnits="userSpaceOnUse" x="0" y="0" width="76" height="76">
<rect x="0.398438" y="0.0517578" width="75" height="75" fill="#D9D9D9"/>
</mask>
<g mask="url(#mask0_577_228)">
<path d="M20.7081 73.1182C21.3601 73.1182 21.8936 72.5847 21.8936 71.9327V54.5051C21.8936 52.9046 21.1823 51.3041 19.9375 50.1186C16.9143 47.2733 14.4247 43.7759 12.7649 40.0414C12.5278 39.4487 11.8165 39.1523 11.2237 39.4487C10.6309 39.6858 10.3345 40.3971 10.6309 40.9899C12.4092 45.0207 15.0767 48.8145 18.337 51.8376C19.1076 52.549 19.5225 53.4974 19.5225 54.4458V71.9327C19.5225 72.5847 20.056 73.1182 20.7081 73.1182Z" fill="#3C0A6D"/>
<path d="M63.0321 31.8019C63.8027 29.905 64.5733 28.0674 64.5733 26.2891C64.5733 24.6293 60.661 14.8485 59.0605 12.0625C55.5038 5.66055 47.1457 1.98535 36.1202 1.98535C27.2878 1.98535 19.5818 5.42344 14.4246 11.7068C14.0097 12.2403 14.069 12.9517 14.6025 13.3666C15.136 13.7815 15.8473 13.7223 16.2622 13.1888C20.9452 7.49815 27.9992 4.35645 36.1202 4.35645C46.2566 4.35645 53.9034 7.6167 57.0451 13.248C58.7641 16.3305 62.1429 25.2221 62.2022 26.2891C62.2022 27.5932 61.6094 29.1344 60.8388 30.9127C60.4831 31.8019 60.6017 32.8688 61.1352 33.6987L67.1815 42.7682C67.3593 43.0646 67.5371 43.6573 67.5371 43.8944C67.5371 45.3764 66.5294 45.9099 65.5217 45.9099H62.795C62.4393 45.9099 62.1429 46.0284 61.9058 46.3248C61.6687 46.6212 61.5501 46.9176 61.6094 47.2732L62.0836 51.4819C62.0836 51.719 62.0244 51.9562 61.7872 52.0747L60.9574 52.6675C60.4239 53.0231 60.246 53.7938 60.6017 54.3272L61.0759 54.9793C61.2537 55.2164 61.1945 55.5128 61.0166 55.7499L60.0682 56.9354C59.4754 57.7061 59.2976 58.6545 59.5347 59.6029L60.0682 61.4998C60.246 62.1519 60.1868 62.8039 59.9496 63.456C59.4754 64.6415 58.2306 65.2936 56.9858 65.1157L40.8031 62.4482C36.7129 61.7962 33.3341 58.8323 32.2079 54.8607L30.1924 47.866C30.0146 47.214 29.3625 46.8583 28.7105 47.0361C28.0584 47.214 27.7028 47.866 27.8806 48.5181L29.896 55.5128C31.3187 60.3735 35.4088 63.9895 40.3881 64.7601L45.5453 65.5899V71.9326C45.5453 72.5847 46.0788 73.1182 46.7308 73.1182C47.3829 73.1182 47.9163 72.5847 47.9163 71.9326V66.0049L56.5116 67.3683C56.8079 67.4275 57.0451 67.4275 57.3414 67.4275C59.3569 67.4275 61.2537 66.242 62.0836 64.2858C62.5579 63.1596 62.6171 61.9147 62.3207 60.7885L61.7872 58.8916C61.728 58.7138 61.7872 58.5359 61.9058 58.3581L62.8542 57.1726C63.6248 56.2241 63.7434 54.9793 63.2099 53.9716C64.0991 53.3195 64.514 52.3118 64.3954 51.1855L64.0991 48.281H65.5217C68.0706 48.281 69.9082 46.4434 69.9082 43.8944C69.9082 43.3609 69.6711 42.2347 69.1969 41.4641L63.1506 32.3946C63.0321 32.1575 62.9728 31.9797 63.0321 31.8019Z" fill="#3C0A6D"/>
<path d="M17.7441 38.7373C22.3085 38.7373 26.6357 36.8404 29.7182 33.4616L30.1924 32.9874L30.6666 33.4616C33.749 36.8404 38.0763 38.7373 42.6406 38.7373C49.1611 38.7373 54.4961 33.4023 54.4961 26.8818C54.4961 20.3613 49.1611 15.0264 42.6406 15.0264C38.0763 15.0264 33.749 16.9232 30.6666 20.3021L30.1924 20.7763L29.7182 20.3021C26.6357 16.9232 22.3085 15.0264 17.7441 15.0264C11.2236 15.0264 5.88867 20.3613 5.88867 26.8818C5.88867 33.4023 11.2236 38.7373 17.7441 38.7373ZM17.7441 17.3975C21.6564 17.3975 25.3909 19.0572 27.9991 21.9025L28.5919 22.4953L26.1615 25.1035L25.3909 24.2736C23.4348 22.1396 20.6487 20.9541 17.7441 20.9541C14.4839 20.9541 11.8164 23.6216 11.8164 26.8818C11.8164 30.1421 14.4839 32.8096 17.7441 32.8096C20.6487 32.8096 23.4348 31.5647 25.3909 29.49L32.3856 21.9025C34.9938 19.0572 38.7283 17.3975 42.6406 17.3975C47.857 17.3975 52.125 21.6654 52.125 26.8818C52.125 32.0982 47.857 36.3662 42.6406 36.3662C38.7283 36.3662 34.9938 34.7064 32.3856 31.8611L31.7929 31.2091L34.2232 28.6009L34.9938 29.4308C36.95 31.5647 39.736 32.7503 42.6406 32.7503C45.9009 32.7503 48.5684 30.0828 48.5684 26.8226C48.5684 23.5623 45.9009 20.8948 42.6406 20.8948C39.736 20.8948 36.95 22.1396 34.9938 24.2144L27.9991 31.8611C25.3909 34.7064 21.6564 36.3662 17.7441 36.3662C12.5277 36.3662 8.25977 32.0982 8.25977 26.8818C8.25977 21.6654 12.5277 17.3975 17.7441 17.3975ZM23.6719 27.8303C22.1307 29.49 19.9967 30.4385 17.7441 30.4385C15.788 30.4385 14.1875 28.838 14.1875 26.8818C14.1875 24.9257 15.788 23.3252 17.7441 23.3252C19.9967 23.3252 22.1307 24.2736 23.6719 25.9334L24.561 26.8818L23.6719 27.8303ZM36.7129 25.9334C38.2541 24.2736 40.3881 23.3252 42.6406 23.3252C44.5968 23.3252 46.1973 24.9257 46.1973 26.8818C46.1973 28.838 44.5968 30.4385 42.6406 30.4385C40.3881 30.4385 38.2541 29.49 36.7129 27.8303L35.8237 26.8818L36.7129 25.9334Z" fill="#3C0A6D"/>
</g>
</svg>
