<svg width="76" height="76" viewBox="0 0 76 76" fill="none" xmlns="http://www.w3.org/2000/svg">
<mask id="mask0_576_224" style="mask-type:alpha" maskUnits="userSpaceOnUse" x="0" y="0" width="76" height="76">
<rect x="0.398438" y="0.707031" width="75" height="75" fill="#D9D9D9"/>
</mask>
<g mask="url(#mask0_576_224)">
<path d="M65.8696 59.9324L53.8696 47.671C60.3582 37.8262 59.3521 24.3191 50.8396 15.6177C46.1562 10.8353 39.9333 8.20117 33.3107 8.20117C26.6908 8.20117 20.4648 10.8352 15.7839 15.6177C6.11981 25.4923 6.11981 41.5594 15.7839 51.4339C20.4644 56.2164 26.6902 58.8505 33.3107 58.8505C38.3178 58.8505 43.0972 57.3398 47.1569 54.5359L59.151 66.7912C60.0492 67.7089 61.2419 68.2125 62.5105 68.2125C63.7819 68.2125 64.9747 67.706 65.8699 66.7912C66.7681 65.8735 67.261 64.6547 67.261 63.3586C67.261 62.0683 66.7678 60.8501 65.8696 59.9324ZM17.0199 50.1707C8.03814 40.9934 8.03814 26.0591 17.0199 16.881C21.3709 12.4352 27.1565 9.98584 33.3096 9.98584C39.4628 9.98584 45.2484 12.4351 49.5993 16.881C58.5781 26.0583 58.5781 40.9926 49.5993 50.1707C45.2454 54.6165 39.4597 57.0658 33.3096 57.0658C27.1564 57.0658 21.3708 54.6165 17.0199 50.1707ZM64.6326 65.5345C64.0669 66.1125 63.3145 66.4314 62.5096 66.4314C61.7076 66.4314 60.9523 66.1125 60.3865 65.5345L48.5821 53.4699C49.3666 52.8411 50.1218 52.1678 50.8363 51.4347C51.5537 50.7017 52.2128 49.9299 52.8252 49.1314L64.6326 61.196C65.1984 61.7741 65.5104 62.5458 65.5104 63.3653C65.5104 64.1847 65.1984 64.9534 64.6326 65.5345Z" fill="#3C0A6D"/>
<path d="M47.7599 18.7613C43.8988 14.8191 38.7662 12.647 33.3074 12.647C27.8486 12.647 22.7184 14.8192 18.8602 18.7643C14.9991 22.7095 12.8732 27.9508 12.8732 33.5285C12.8732 39.1062 14.9992 44.3482 18.8602 48.2904C22.7184 52.2356 27.8479 54.4077 33.3074 54.4077C38.7669 54.4077 43.8965 52.2355 47.7569 48.2904C51.6151 44.3482 53.7409 39.1039 53.7409 33.5285C53.7439 27.9505 51.618 22.7058 47.7599 18.7613ZM46.5205 47.0273C42.9889 50.6328 38.2965 52.6202 33.3073 52.6202C28.3181 52.6202 23.6253 50.6327 20.0971 47.0273C16.5655 43.4218 14.6205 38.6272 14.6205 33.5293C14.6205 28.431 16.5656 23.6334 20.0971 20.0284C23.6257 16.4229 28.3181 14.4355 33.3073 14.4355C38.2998 14.4355 42.9923 16.423 46.5205 20.0284C50.0491 23.6339 51.9942 28.4284 51.9942 33.5293C51.9942 38.6277 50.049 43.4222 46.5205 47.0273Z" fill="#3C0A6D"/>
<path d="M45.3365 34.0382L43.648 24.0386L36.1012 34.7713L34.1444 26.607L29.6914 38.2848L27.9154 32.1794L23.5119 34.7837H19.0822V36.5715H23.9844L26.8714 34.8641L29.4698 43.7974L33.7654 32.5307L35.308 38.9669L42.6336 28.5439L43.8613 35.8263H47.7136V34.0385L45.3365 34.0382Z" fill="#3C0A6D"/>
</g>
</svg>
