<svg width="76" height="76" viewBox="0 0 76 76" fill="none" xmlns="http://www.w3.org/2000/svg">
<mask id="mask0_577_238" style="mask-type:alpha" maskUnits="userSpaceOnUse" x="0" y="0" width="76" height="76">
<rect x="0.398438" y="0.137207" width="75" height="75" fill="#D9D9D9"/>
</mask>
<g mask="url(#mask0_577_238)">
<path d="M62.8984 15.6372H60.8984C60.3484 15.6372 59.8984 16.0872 59.8984 16.6372C59.8984 17.1872 60.3484 17.6372 60.8984 17.6372H62.8984C63.4484 17.6372 63.8984 18.0872 63.8984 18.6372V47.6372H57.8984V10.6372C57.8984 8.98721 56.5484 7.63721 54.8984 7.63721H20.8984C19.2484 7.63721 17.8984 8.98721 17.8984 10.6372V47.6372H11.8984V18.6372C11.8984 18.0872 12.3484 17.6372 12.8984 17.6372H14.8984C15.4484 17.6372 15.8984 17.1872 15.8984 16.6372C15.8984 16.0872 15.4484 15.6372 14.8984 15.6372H12.8984C11.2484 15.6372 9.89844 16.9872 9.89844 18.6372V54.6372C9.89844 56.2872 11.2484 57.6372 12.8984 57.6372H30.8984V65.6372H27.8984C27.3484 65.6372 26.8984 66.0872 26.8984 66.6372C26.8984 67.1872 27.3484 67.6372 27.8984 67.6372H47.8984C48.4484 67.6372 48.8984 67.1872 48.8984 66.6372C48.8984 66.0872 48.4484 65.6372 47.8984 65.6372H44.8984V57.6372H62.8984C64.5484 57.6372 65.8984 56.2872 65.8984 54.6372V18.6372C65.8984 16.9872 64.5484 15.6372 62.8984 15.6372ZM19.8984 10.6372C19.8984 10.0872 20.3484 9.63721 20.8984 9.63721H54.8984C55.4484 9.63721 55.8984 10.0872 55.8984 10.6372V12.6372H19.8984V10.6372ZM19.8984 14.6372H55.8984V47.6372H19.8984V14.6372ZM42.8984 65.6372H32.8984V57.6372H42.8984V65.6372ZM63.8984 54.6372C63.8984 55.1872 63.4484 55.6372 62.8984 55.6372H12.8984C12.3484 55.6372 11.8984 55.1872 11.8984 54.6372V49.6372H63.8984V54.6372Z" fill="#3C0A6D"/>
<path d="M34.1884 18.9272L33.4184 19.6972C32.3184 18.4372 30.6984 17.6272 28.8984 17.6272C25.5884 17.6272 22.8984 20.3172 22.8984 23.6272C22.8984 26.9372 25.5884 29.6272 28.8984 29.6272C32.2084 29.6272 34.8984 26.9372 34.8984 23.6272C34.8984 22.8572 34.7484 22.1272 34.4884 21.4572L35.6084 20.3372C35.9984 19.9472 35.9984 19.3172 35.6084 18.9272C35.2184 18.5372 34.5884 18.5372 34.1984 18.9272H34.1884ZM32.8984 23.6372C32.8984 25.8472 31.1084 27.6372 28.8984 27.6372C26.6884 27.6372 24.8984 25.8472 24.8984 23.6372C24.8984 21.4272 26.6884 19.6372 28.8984 19.6372C30.1484 19.6372 31.2584 20.2272 31.9884 21.1272L29.8984 23.2172L28.6084 21.9272C28.2184 21.5372 27.5884 21.5372 27.1984 21.9272C26.8084 22.3172 26.8084 22.9472 27.1984 23.3372L29.1984 25.3372C29.3984 25.5372 29.6484 25.6272 29.9084 25.6272C30.1684 25.6272 30.4184 25.5272 30.6184 25.3372L32.8584 23.0972C32.8784 23.2772 32.9084 23.4472 32.9084 23.6272L32.8984 23.6372Z" fill="#3C0A6D"/>
<path d="M34.1884 33.9272L33.4184 34.6972C32.3184 33.4372 30.6984 32.6272 28.8984 32.6272C25.5884 32.6272 22.8984 35.3172 22.8984 38.6272C22.8984 41.9372 25.5884 44.6272 28.8984 44.6272C32.2084 44.6272 34.8984 41.9372 34.8984 38.6272C34.8984 37.8572 34.7484 37.1272 34.4884 36.4572L35.6084 35.3372C35.9984 34.9472 35.9984 34.3172 35.6084 33.9272C35.2184 33.5372 34.5884 33.5372 34.1984 33.9272H34.1884ZM32.8984 38.6372C32.8984 40.8472 31.1084 42.6372 28.8984 42.6372C26.6884 42.6372 24.8984 40.8472 24.8984 38.6372C24.8984 36.4272 26.6884 34.6372 28.8984 34.6372C30.1484 34.6372 31.2584 35.2272 31.9884 36.1272L29.8984 38.2172L28.6084 36.9272C28.2184 36.5372 27.5884 36.5372 27.1984 36.9272C26.8084 37.3172 26.8084 37.9472 27.1984 38.3372L29.1984 40.3372C29.3984 40.5372 29.6484 40.6272 29.9084 40.6272C30.1684 40.6272 30.4184 40.5272 30.6184 40.3372L32.8584 38.0972C32.8784 38.2772 32.9084 38.4472 32.9084 38.6272L32.8984 38.6372Z" fill="#3C0A6D"/>
<path d="M51.8984 19.6372H39.8984C39.3484 19.6372 38.8984 20.0872 38.8984 20.6372C38.8984 21.1872 39.3484 21.6372 39.8984 21.6372H51.8984C52.4484 21.6372 52.8984 21.1872 52.8984 20.6372C52.8984 20.0872 52.4484 19.6372 51.8984 19.6372Z" fill="#3C0A6D"/>
<path d="M51.8984 25.6372H39.8984C39.3484 25.6372 38.8984 26.0872 38.8984 26.6372C38.8984 27.1872 39.3484 27.6372 39.8984 27.6372H51.8984C52.4484 27.6372 52.8984 27.1872 52.8984 26.6372C52.8984 26.0872 52.4484 25.6372 51.8984 25.6372Z" fill="#3C0A6D"/>
<path d="M51.8984 34.6372H39.8984C39.3484 34.6372 38.8984 35.0872 38.8984 35.6372C38.8984 36.1872 39.3484 36.6372 39.8984 36.6372H51.8984C52.4484 36.6372 52.8984 36.1872 52.8984 35.6372C52.8984 35.0872 52.4484 34.6372 51.8984 34.6372Z" fill="#3C0A6D"/>
<path d="M51.8984 40.6372H39.8984C39.3484 40.6372 38.8984 41.0872 38.8984 41.6372C38.8984 42.1872 39.3484 42.6372 39.8984 42.6372H51.8984C52.4484 42.6372 52.8984 42.1872 52.8984 41.6372C52.8984 41.0872 52.4484 40.6372 51.8984 40.6372Z" fill="#3C0A6D"/>
</g>
</svg>
