<svg width="76" height="76" viewBox="0 0 76 76" fill="none" xmlns="http://www.w3.org/2000/svg">
<mask id="mask0_576_207" style="mask-type:alpha" maskUnits="userSpaceOnUse" x="0" y="0" width="76" height="76">
<rect x="0.398438" y="0.0349121" width="75" height="75" fill="#D9D9D9"/>
</mask>
<g mask="url(#mask0_576_207)">
<path d="M37.8984 58.7988C30.9508 58.7909 24.2899 55.9673 19.3772 50.9476C14.4645 45.9279 11.7012 39.122 11.6934 32.0231V31.2356H64.1033V32.0231C64.0956 39.122 61.3322 45.9279 56.4195 50.9476C51.5068 55.9673 44.846 58.7909 37.8984 58.7988ZM13.2472 32.8106C13.4498 39.353 16.1357 45.5582 20.7366 50.1129C25.3375 54.6676 31.4922 57.2145 37.8984 57.2145C44.3045 57.2145 50.4593 54.6676 55.0602 50.1129C59.6611 45.5582 62.347 39.353 62.5495 32.8106H13.2472Z" fill="#3C0A6D"/>
<path d="M37.8985 64.3111C32.2799 64.3111 27.879 61.8895 27.879 58.7985C27.8963 58.277 28.018 57.7648 28.2366 57.2933C28.4551 56.8218 28.766 56.4011 29.1499 56.0571L30.2189 57.1919C29.9855 57.3898 29.7943 57.6344 29.657 57.9107C29.5196 58.187 29.4391 58.4892 29.4204 58.7985C29.4204 60.6609 32.9026 62.7361 37.8985 62.7361C42.8944 62.7361 46.3766 60.6609 46.3766 58.7985C46.355 58.4731 46.2667 58.156 46.1173 57.8678C45.9679 57.5796 45.7608 57.3268 45.5095 57.1258L46.5531 55.9634C46.9631 56.3111 47.2966 56.7434 47.5318 57.232C47.7671 57.7205 47.8987 58.2543 47.9181 58.7985C47.9181 61.8895 43.5172 64.3111 37.8985 64.3111Z" fill="#3C0A6D"/>
<path d="M23.2544 26.5095C23.176 26.5089 23.098 26.4965 23.0232 26.4725C22.8205 26.4055 18.0134 24.7974 15.6095 20.674C13.2056 16.5505 14.2068 11.5899 14.2499 11.3812C14.2725 11.2737 14.3168 11.1721 14.3801 11.0831C14.4434 10.9942 14.5242 10.9197 14.6173 10.8646C14.7105 10.8094 14.8139 10.7749 14.921 10.7631C15.028 10.7513 15.1363 10.7625 15.2388 10.7961C15.4415 10.863 20.2485 12.4712 22.6532 16.5946C25.0595 20.7275 24.0552 25.6787 24.012 25.8874C23.9894 25.9948 23.945 26.0962 23.8816 26.185C23.8183 26.2739 23.7375 26.3482 23.6444 26.4032C23.5261 26.4738 23.3914 26.5105 23.2544 26.5095ZM15.6241 12.6428C15.3233 15.1317 15.7808 17.6548 16.9344 19.8683C18.4651 22.4979 21.2335 24.0005 22.6332 24.6258C22.9352 22.1374 22.4793 19.6144 21.3276 17.4003C19.793 14.7707 17.0246 13.2681 15.6241 12.6428Z" fill="#3C0A6D"/>
<path d="M23.2546 26.5095C23.0709 26.5095 22.8932 26.4424 22.7536 26.3204C22.614 26.1984 22.5217 26.0294 22.4932 25.8439C22.4648 25.6585 22.5021 25.4688 22.5985 25.3089C22.6948 25.1491 22.8439 25.0297 23.0188 24.9723C23.0635 24.9573 27.4813 23.4697 29.5785 19.8683C30.7308 17.6544 31.1869 15.1313 30.8849 12.6428C29.4852 13.2681 26.7167 14.7691 25.1853 17.4003C24.6138 18.4051 24.2193 19.5046 24.0199 20.6488C23.9784 20.8503 23.8612 21.0271 23.6936 21.1414C23.526 21.2557 23.3212 21.2983 23.1232 21.2602C22.9251 21.2221 22.7496 21.1063 22.6341 20.9375C22.5186 20.7688 22.4725 20.5605 22.5055 20.3574C22.7379 19.0317 23.1966 17.7581 23.8604 16.5946C26.262 12.4712 31.0722 10.863 31.2749 10.7961C31.3774 10.7625 31.4857 10.7513 31.5927 10.7631C31.6997 10.7749 31.8031 10.8094 31.8963 10.8646C31.9895 10.9197 32.0703 10.9942 32.1336 11.0831C32.1969 11.1721 32.2412 11.2737 32.2637 11.3812C32.3069 11.5899 33.3111 16.5411 30.9041 20.674C28.4971 24.8069 23.6932 26.4055 23.4905 26.4725C23.4142 26.4971 23.3346 26.5096 23.2546 26.5095Z" fill="#3C0A6D"/>
<path d="M55.7795 32.5258L54.5933 31.5194L61.8529 22.5818C62.3754 21.9387 62.6264 21.1099 62.5508 20.2777C62.4752 19.4454 62.0792 18.678 61.4498 18.1441C60.8204 17.6103 60.0092 17.3537 59.1948 17.431C58.3803 17.5082 57.6292 17.9129 57.1067 18.556L45.76 32.5258L44.5738 31.5194L55.9205 17.5519C56.7038 16.5876 57.83 15.9807 59.0512 15.8648C60.2724 15.7488 61.4887 16.1333 62.4325 16.9337C63.3762 17.7341 63.9702 18.8847 64.0836 20.1325C64.1971 21.3804 63.8208 22.6231 63.0375 23.5875L55.7795 32.5258Z" fill="#3C0A6D"/>
</g>
</svg>
