<svg width="76" height="76" viewBox="0 0 76 76" fill="none" xmlns="http://www.w3.org/2000/svg">
<mask id="mask0_577_236" style="mask-type:alpha" maskUnits="userSpaceOnUse" x="0" y="0" width="76" height="76">
<rect x="0.398438" y="0.983887" width="75" height="75" fill="#D9D9D9"/>
</mask>
<g mask="url(#mask0_577_236)">
<path d="M37.8983 59.7479C30.9507 59.74 24.2899 56.9165 19.3772 51.8968C14.4645 46.8771 11.7011 40.0712 11.6934 32.9722V32.1847H64.1033V32.9722C64.0955 40.0712 61.3322 46.8771 56.4195 51.8968C51.5068 56.9165 44.8459 59.74 37.8983 59.7479ZM13.2472 33.7598C13.4497 40.3021 16.1356 46.5073 20.7365 51.062C25.3374 55.6167 31.4922 58.1636 37.8983 58.1636C44.3045 58.1636 50.4592 55.6167 55.0601 51.062C59.661 46.5073 62.3469 40.3021 62.5495 33.7598H13.2472Z" fill="#3C0A6D"/>
<path d="M37.8985 65.2604C32.2798 65.2604 27.8789 62.8387 27.8789 59.7477C27.8962 59.2263 28.0179 58.714 28.2365 58.2425C28.4551 57.771 28.7659 57.3503 29.1498 57.0064L30.2189 58.1412C29.9855 58.3391 29.7942 58.5837 29.6569 58.86C29.5196 59.1363 29.4391 59.4384 29.4204 59.7477C29.4204 61.6102 32.9026 63.6853 37.8985 63.6853C42.8944 63.6853 46.3765 61.6102 46.3765 59.7477C46.3549 59.4223 46.2666 59.1053 46.1172 58.8171C45.9678 58.5289 45.7607 58.2761 45.5095 58.075L46.553 56.9126C46.963 57.2604 47.2966 57.6927 47.5318 58.1813C47.767 58.6698 47.8986 59.2036 47.918 59.7477C47.918 62.8387 43.5171 65.2604 37.8985 65.2604Z" fill="#3C0A6D"/>
<path d="M23.2543 27.4587C23.1759 27.4582 23.098 27.4457 23.0231 27.4217C22.8204 27.3548 18.0134 25.7466 15.6094 21.6232C13.2055 17.4997 14.2067 12.5391 14.2499 12.3305C14.2724 12.2229 14.3167 12.1213 14.38 12.0324C14.4433 11.9434 14.5241 11.8689 14.6173 11.8138C14.7104 11.7587 14.8139 11.7241 14.9209 11.7123C15.0279 11.7005 15.1362 11.7118 15.2387 11.7453C15.4414 11.8123 20.2485 13.4204 22.6532 17.5438C25.0594 21.6767 24.0551 26.6279 24.012 26.8366C23.9893 26.944 23.9449 27.0454 23.8816 27.1342C23.8183 27.2231 23.7375 27.2974 23.6443 27.3524C23.5261 27.423 23.3913 27.4597 23.2543 27.4587ZM15.6241 13.5921C15.3232 16.0809 15.7807 18.6041 16.9343 20.8176C18.465 23.4471 21.2335 24.9497 22.6331 25.575C22.9351 23.0866 22.4792 20.5636 21.3275 18.3495C19.793 15.7199 17.0245 14.2174 15.6241 13.5921Z" fill="#3C0A6D"/>
<path d="M23.2545 27.4587C23.0708 27.4587 22.8932 27.3916 22.7536 27.2696C22.614 27.1476 22.5216 26.9786 22.4932 26.7932C22.4647 26.6077 22.502 26.418 22.5984 26.2582C22.6948 26.0983 22.8438 25.9789 23.0187 25.9215C23.0634 25.9065 27.4813 24.4189 29.5784 20.8176C30.7307 18.6036 31.1869 16.0805 30.8848 13.5921C29.4852 14.2174 26.7167 15.7184 25.1852 18.3495C24.6137 19.3543 24.2193 20.4538 24.0199 21.598C23.9783 21.7995 23.8612 21.9763 23.6935 22.0906C23.5259 22.2049 23.3211 22.2476 23.1231 22.2095C22.9251 22.1714 22.7495 22.0555 22.634 21.8868C22.5186 21.718 22.4724 21.5097 22.5054 21.3066C22.7379 19.9809 23.1965 18.7073 23.8603 17.5438C26.262 13.4204 31.0721 11.8123 31.2748 11.7453C31.3773 11.7118 31.4856 11.7005 31.5926 11.7123C31.6997 11.7241 31.8031 11.7587 31.8962 11.8138C31.9894 11.8689 32.0702 11.9434 32.1335 12.0324C32.1968 12.1213 32.2411 12.2229 32.2637 12.3305C32.3068 12.5391 33.3111 17.4903 30.9041 21.6232C28.4971 25.7561 23.6931 27.3548 23.4904 27.4217C23.4141 27.4463 23.3346 27.4588 23.2545 27.4587Z" fill="#3C0A6D"/>
<path d="M55.7794 33.4751L54.5933 32.4687L61.8528 23.5311C62.3753 22.888 62.6264 22.0592 62.5508 21.227C62.4752 20.3947 62.0791 19.6273 61.4497 19.0934C60.8203 18.5596 60.0092 18.303 59.1947 18.3803C58.3802 18.4575 57.6291 18.8622 57.1066 19.5053L45.7599 33.4751L44.5737 32.4687L55.9205 18.5012C56.7038 17.5369 57.8299 16.93 59.0511 16.8141C60.2724 16.6981 61.4886 17.0826 62.4324 17.883C63.3762 18.6834 63.9701 19.834 64.0836 21.0819C64.1971 22.3297 63.8207 23.5724 63.0374 24.5368L55.7794 33.4751Z" fill="#3C0A6D"/>
</g>
</svg>
