<svg width="76" height="76" viewBox="0 0 76 76" fill="none" xmlns="http://www.w3.org/2000/svg">
<mask id="mask0_577_234" style="mask-type:alpha" maskUnits="userSpaceOnUse" x="0" y="0" width="76" height="76">
<rect x="0.398438" y="0.830566" width="75" height="75" fill="#D9D9D9"/>
</mask>
<g mask="url(#mask0_577_234)">
<path fill-rule="evenodd" clip-rule="evenodd" d="M56.5127 47.878L51.7546 52.637C51.3486 53.044 50.6737 53.0087 50.3123 52.5571L48.4072 50.1781C48.074 49.7591 48.141 49.1487 48.5591 48.8139C48.9781 48.4807 49.5877 48.5477 49.9225 48.9667L51.1502 50.4983L55.1407 46.5061C55.5202 46.1283 56.1341 46.1283 56.5127 46.5061C56.8922 46.8847 56.8922 47.4985 56.5127 47.878ZM48.2972 47.878C48.6767 47.4985 48.6767 46.8847 48.2972 46.5061C47.9186 46.1283 47.3048 46.1283 46.9253 46.5061L42.9331 50.4983L41.7062 48.9667C41.3714 48.5477 40.7609 48.4807 40.3437 48.8139C39.9247 49.1487 39.8569 49.7591 40.1917 50.1781L42.0951 52.5571C42.4568 53.008 43.1307 53.0446 43.5383 52.637L48.2972 47.878ZM40.081 47.878L35.3212 52.637C34.9134 53.0457 34.2392 53.0065 33.878 52.5571L31.9754 50.1781C31.6415 49.7591 31.7084 49.1487 32.1265 48.8139C32.5455 48.4807 33.1559 48.5477 33.4899 48.9667L34.7159 50.4983L38.709 46.5061C39.0876 46.1275 39.7023 46.1283 40.081 46.5061C40.4596 46.8847 40.4596 47.4985 40.081 47.878ZM54.4951 58.2458C57.4219 56.2987 59.1699 53.056 59.1699 49.5719C59.1699 43.8309 54.5003 39.1603 48.7592 39.1603H39.8174C34.0763 39.1603 29.4058 43.8309 29.4058 49.5719C29.4058 55.3122 34.0763 59.9827 39.8174 59.9827H47.7521C47.9229 59.9827 48.0904 60.0282 48.238 60.1132L54.4805 63.7311L54.0667 59.1405C54.034 58.7868 54.1989 58.4424 54.4951 58.2458ZM35.9797 63.8367H28.0441C27.8733 63.8367 27.7067 63.8822 27.5582 63.9672L21.3174 67.5843L21.7312 62.9936C21.7621 62.6399 21.5982 62.2973 21.302 62.1007C18.3743 60.1535 16.6272 56.9108 16.6272 53.426C16.6272 47.6857 21.2977 43.0152 27.0388 43.0152H29.3552C28.1592 44.9152 27.4663 47.1637 27.4663 49.5719C27.4663 56.3819 33.0065 61.9222 39.8174 61.9222H41.9732C40.2304 63.1559 38.1389 63.8367 35.9797 63.8367ZM29.8153 35.6918L24.4692 36.547C23.651 36.6785 22.9492 35.9984 23.0526 35.1767L23.3754 32.5907C23.4286 32.1615 23.3668 31.764 23.1839 31.3768C23.6117 30.9307 23.5153 30.1967 22.9813 29.876L22.1992 29.4064L21.6471 28.3006C21.4617 27.9314 21.2024 27.6438 20.853 27.4214L18.3743 25.8443C18.2255 25.7503 18.1997 25.5481 18.3211 25.4185L22.4344 21.0124C22.4456 20.9995 22.4559 20.9875 22.4662 20.9746C25.1153 17.7492 23.559 14.9038 25.5286 12.2835C27.3539 9.85557 30.4197 8.39521 33.9389 8.27672C37.5637 8.15482 41.3113 9.51905 43.7229 11.8363C45.7259 13.7603 46.751 16.19 46.769 19.0592C46.8287 28.3849 42.69 30.0071 42.3836 35.5296C42.3733 35.7176 42.3759 36.0876 42.4626 37.2209H39.8174C36.87 37.2209 34.1613 38.2597 32.0355 39.988L31.7874 37.4201C31.8029 36.9264 31.614 36.4714 31.2482 36.1288C30.8602 35.7682 30.3382 35.6085 29.8153 35.6918ZM61.1094 49.5719C61.1094 42.7611 55.5692 37.2209 48.7592 37.2209H44.408C44.3162 36.0584 44.3153 35.7305 44.3205 35.6386C44.5898 30.807 48.7719 28.7488 48.7085 19.0455C48.6862 15.6826 47.4275 12.706 45.0665 10.4368C42.29 7.76932 38.0016 6.19902 33.8728 6.33812C29.7655 6.47633 26.1579 8.22005 23.9781 11.1185C22.7718 12.7231 22.5623 14.3527 22.3769 15.7899C22.1923 17.2279 22.0318 18.4702 20.9989 19.7074L16.9028 24.0963C15.9533 25.1127 16.1597 26.7338 17.3338 27.4816L19.8115 29.057C19.8622 29.0896 19.8845 29.1145 19.9111 29.1686L20.5903 30.526C20.7083 30.7613 20.8506 30.8593 21.0556 30.9827C20.9241 31.6023 21.4857 32.0596 21.4505 32.3503L21.1268 34.9363C20.8635 37.0387 22.683 38.7964 24.7756 38.4624L29.8608 37.6476L30.1931 41.0758H27.0388C20.2288 41.0758 14.6877 46.616 14.6877 53.426C14.6877 57.3667 16.5688 61.0456 19.7489 63.3791L19.2174 69.2756C19.1443 70.0645 20.0016 70.588 20.6692 70.2011L28.3051 65.7762H35.9797C39.3555 65.7762 42.5888 64.3767 44.9223 61.9222H47.4911L55.1287 66.3479C55.8048 66.74 56.6513 66.2045 56.5805 65.4207L56.0491 59.5259C59.2283 57.1907 61.1094 53.5127 61.1094 49.5719ZM32.421 20.6673C32.421 22.1542 33.6316 23.364 35.1186 23.364C36.6064 23.364 37.817 22.1542 37.817 20.6673C37.817 19.1785 36.6064 17.9689 35.1186 17.9689C33.6316 17.9689 32.421 19.1785 32.421 20.6673ZM39.7564 20.6673C39.7564 18.1097 37.6753 16.0294 35.1186 16.0294C32.5618 16.0294 30.4816 18.1097 30.4816 20.6673C30.4816 23.2232 32.5618 25.3034 35.1186 25.3034C37.6753 25.3034 39.7564 23.2232 39.7564 20.6673ZM30.4773 25.5653C30.7529 25.5069 31.0413 25.5713 31.2654 25.7421C31.693 26.0667 32.1583 26.3371 32.6511 26.544C32.9112 26.6522 33.1104 26.8694 33.198 27.1373L33.793 28.9703H36.4433L37.0391 27.1373C37.1267 26.8694 37.3267 26.6522 37.5852 26.544C38.078 26.3354 38.545 26.0667 38.9709 25.7421C39.1967 25.5713 39.4834 25.5069 39.7599 25.5653L41.6478 25.9671L42.9734 23.6704L41.6813 22.2384C41.4941 22.0289 41.4057 21.7481 41.4409 21.4674C41.5056 20.9484 41.5065 20.385 41.4409 19.8654C41.4049 19.5864 41.4941 19.3056 41.6813 19.0961L42.9734 17.6623L41.6478 15.3675L39.7599 15.7684C39.4834 15.8276 39.1967 15.7624 38.9709 15.5907C38.545 15.2661 38.078 14.9974 37.5852 14.7905C37.325 14.6806 37.1267 14.4634 37.0391 14.1955L36.4433 12.3625H33.793L33.198 14.1955C33.1104 14.4634 32.9112 14.6806 32.6511 14.7905C32.1583 14.9974 31.693 15.2661 31.2654 15.5907C31.0413 15.7624 30.7529 15.8276 30.4773 15.7684L28.5902 15.3675L27.2646 17.6623L28.555 19.0961C28.7439 19.3056 28.8314 19.5864 28.7971 19.8654C28.7296 20.4066 28.7294 20.926 28.7971 21.4674C28.8314 21.7465 28.7439 22.0289 28.555 22.2384L27.2646 23.6704L28.5902 25.9671L30.4773 25.5653ZM32.166 30.24C32.2957 30.6401 32.6683 30.9097 33.0881 30.9097H37.1482C37.568 30.9097 37.9406 30.6401 38.0703 30.24L38.7519 28.1435C39.1057 27.9709 39.4482 27.7734 39.7753 27.5511L41.9337 28.0096C42.345 28.098 42.7648 27.9108 42.9743 27.5459L45.0039 24.0302C45.2151 23.667 45.1661 23.2094 44.8854 22.896L43.4087 21.2571V20.0766L44.8854 18.4367C45.1661 18.1251 45.2151 17.6675 45.0039 17.3026L42.9743 13.7869C42.7648 13.4237 42.3432 13.2348 41.9337 13.3233L39.7753 13.7817C39.4482 13.5611 39.1057 13.3636 38.7519 13.1902L38.0703 11.0945C37.9406 10.6944 37.568 10.4231 37.1482 10.4231H33.0881C32.6683 10.4231 32.2957 10.6944 32.166 11.0945L31.4852 13.1902C31.1306 13.3636 30.7881 13.5611 30.4627 13.7817L28.3043 13.3233C27.893 13.2348 27.4723 13.4237 27.262 13.7869L25.2324 17.3026C25.0229 17.6675 25.0702 18.1251 25.3526 18.4367L26.8276 20.0766V21.2571L25.3526 22.896C25.0702 23.2094 25.0229 23.667 25.2324 24.0302L27.262 27.5459C27.4723 27.9108 27.893 28.098 28.3043 28.0096L30.4627 27.5511C30.7881 27.7734 31.1306 27.9709 31.4852 28.1435L32.166 30.24Z" fill="#3C0A6D"/>
</g>
</svg>
