<svg width="75" height="75" viewBox="0 0 75 75" fill="none" xmlns="http://www.w3.org/2000/svg">
<mask id="mask0_1291_709" style="mask-type:alpha" maskUnits="userSpaceOnUse" x="0" y="0" width="75" height="75">
<rect width="75" height="75" fill="#D9D9D9"/>
</mask>
<g mask="url(#mask0_1291_709)">
<path d="M62.3571 29.1295C62.6417 28.4085 63.4546 28.0548 64.1744 28.3399C64.8942 28.6251 65.2472 29.4393 64.9626 30.1604C64.6807 30.8732 64.3578 31.5998 63.9965 32.3373C63.6489 33.0419 63.2712 33.7382 62.8634 34.4237C62.4693 35.0871 61.6099 35.301 60.9476 34.9062C60.2852 34.5114 60.0718 33.6505 60.4659 32.987C60.8271 32.3811 61.172 31.7479 61.4895 31.0981C61.7933 30.4812 62.0834 29.8232 62.3571 29.1295ZM40.1389 41.5053C40.1991 41.5382 40.2511 41.5738 40.3031 41.615C42.1204 42.7993 44.1101 43.7808 46.2449 44.5046C48.4974 43.7369 50.5884 42.6924 52.485 41.4176C54.5651 40.0221 56.4152 38.347 57.9917 36.4662C58.4871 35.8768 59.3683 35.8 59.9568 36.2962C60.5453 36.7925 60.6218 37.6752 60.1265 38.2647C58.3776 40.3484 56.3331 42.199 54.0369 43.7425C51.8063 45.2421 49.3349 46.4512 46.6661 47.312C46.3787 47.4053 46.0804 47.397 45.8121 47.312C44.0687 46.7527 42.4129 46.0399 40.8529 45.1983V48.8611C40.8529 50.2785 40.2891 51.5698 39.3804 52.5267L39.2956 52.6199L39.1314 52.7789L39.2956 52.9352C40.2562 53.8975 40.8529 55.2271 40.8529 56.6912V65.6812C40.8529 67.1452 40.2563 68.4777 39.2956 69.44L39.2025 69.525C38.2473 70.438 36.9556 71 35.5433 71H12.3099C10.8538 71 9.52367 70.3996 8.56302 69.4345C7.5969 68.4749 7.00023 67.1425 7.00023 65.6812V56.6912C7.00023 55.2272 7.59687 53.8975 8.55755 52.9352L8.72177 52.7789L8.55755 52.6199C7.5969 51.6493 7.00023 50.3224 7.00023 48.8611V47.186C7.00023 46.4101 7.62697 45.7823 8.40152 45.7823C9.17606 45.7823 9.80281 46.4101 9.80281 47.186V48.8611C9.80281 49.552 10.0847 50.1825 10.539 50.6349C10.9879 51.0818 11.6037 51.3642 12.2797 51.3724H35.5762C36.2522 51.3642 36.868 51.0818 37.3141 50.6322L37.3744 50.5746C37.7931 50.125 38.0504 49.5191 38.0504 48.8583V43.4738C35.5872 41.7603 33.425 39.6904 31.6214 37.36H12.3123C11.6253 37.36 10.9959 37.6452 10.5416 38.1003C10.0872 38.5554 9.80258 39.186 9.80258 39.8741V42.6842C9.80258 43.4601 9.17583 44.0879 8.40129 44.0879C7.62675 44.0879 7 43.4601 7 42.6842V39.8741C7 38.4101 7.59664 37.0776 8.55732 36.1153L8.72154 35.9563L8.55732 35.7973C7.59667 34.835 7 33.5053 7 32.0385V23.0485C7 21.5845 7.59664 20.252 8.55732 19.2897C9.51798 18.3274 10.8454 17.7297 12.3096 17.7297H25.5154C25.5893 16.4274 25.7508 15.1142 26.0026 13.8037C26.1339 13.1128 26.7497 12.6384 27.4285 12.6659C30.7265 12.5754 33.9587 11.8845 36.9776 10.6563C40.0266 9.41708 42.8455 7.63501 45.2866 5.37048C45.8257 4.8715 46.6577 4.87973 47.186 5.37596C49.6245 7.63782 52.4463 9.41983 55.49 10.6563C58.5362 11.8955 61.8013 12.5864 65.1267 12.6686C65.7972 12.6823 66.3446 13.1703 66.4651 13.8037C66.8592 15.8215 67.0289 17.8503 66.996 19.8571C66.9632 21.9134 66.7169 23.9312 66.2735 25.8804C66.1066 26.6344 65.3567 27.1087 64.604 26.9387C63.8514 26.7715 63.3779 26.0203 63.5476 25.2663C63.9526 23.4898 64.1771 21.6584 64.2072 19.8133C64.2291 18.3657 64.1333 16.8962 63.9061 15.4103C60.63 15.2047 57.4333 14.4699 54.439 13.2499C51.4804 12.0464 48.7079 10.3685 46.2337 8.26016C43.7623 10.3685 40.9871 12.049 38.0285 13.2499C35.0343 14.4672 31.8404 15.2047 28.5613 15.4103C28.3752 16.6495 28.2767 17.8832 28.263 19.1087V19.2019C28.2302 24.0957 29.5549 28.8138 31.9605 32.888C33.994 36.326 36.7939 39.2897 40.1273 41.497L40.1389 41.5053ZM25.4989 20.5402H12.3184C11.6314 20.5402 11.0019 20.8254 10.5476 21.2805C10.0933 21.7356 9.80864 22.3662 9.80864 23.0543V32.0443C9.80864 32.7325 10.0933 33.363 10.5476 33.8181C11.0019 34.2732 11.6314 34.5583 12.3184 34.5583H29.7028L29.5659 34.3281C27.1246 30.1992 25.6933 25.4728 25.4989 20.5458L25.4989 20.5402ZM12.2854 54.1772C11.6094 54.1855 10.9936 54.4678 10.5502 54.9147C10.0959 55.3699 9.81124 56.0004 9.81124 56.6885V65.6786C9.81124 66.3667 10.0959 66.9973 10.5502 67.4524C10.9991 67.9102 11.6286 68.1926 12.3209 68.1926H35.5544C36.2167 68.1926 36.8188 67.9349 37.2649 67.5154L37.3251 67.4524C37.7795 66.9973 38.0641 66.3667 38.0641 65.6786V56.6885C38.0641 56.0004 37.7795 55.3698 37.3251 54.9148C36.879 54.4679 36.2632 54.1855 35.5899 54.1772L12.2854 54.1772Z" fill="#3C0A6D"/>
</g>
</svg>
