<svg width="76" height="76" viewBox="0 0 76 76" fill="none" xmlns="http://www.w3.org/2000/svg">
<mask id="mask0_577_226" style="mask-type:alpha" maskUnits="userSpaceOnUse" x="0" y="0" width="76" height="76">
<rect x="0.398438" y="0.475098" width="75" height="75" fill="#D9D9D9"/>
</mask>
<g mask="url(#mask0_577_226)">
<path fill-rule="evenodd" clip-rule="evenodd" d="M24.6336 24.7104V39.1809C24.6336 43.434 27.7785 46.9515 31.8688 47.5364V50.0337H22.2219C17.56 50.0337 13.7808 53.8129 13.7808 58.4748C13.7808 63.9507 13.7808 70.5336 13.7808 70.5336C13.7808 71.1992 14.321 71.7394 14.9866 71.7394H60.8098C61.4754 71.7394 62.0156 71.1992 62.0156 70.5336V58.4748C62.0156 53.8129 58.2364 50.0337 53.5745 50.0337H43.9276V47.5364C48.0179 46.9515 51.1628 43.434 51.1628 39.1809V27.4068C51.9032 26.7447 52.3687 25.7812 52.3687 24.7104V19.8869C52.3687 19.2213 51.8284 18.6811 51.1628 18.6811H30.663C29.064 18.6811 27.5301 19.3166 26.399 20.4465C25.2691 21.5776 24.6336 23.1115 24.6336 24.7104ZM31.9894 52.4455H22.2219C18.8925 52.4455 16.1925 55.1454 16.1925 58.4748V69.3277H36.6923V57.1484C34.33 56.6684 32.4694 54.8078 31.9894 52.4455ZM43.807 52.4455C43.327 54.8078 41.4664 56.6684 39.1041 57.1484V69.3277H59.6039V58.4748C59.6039 55.1454 56.9039 52.4455 53.5745 52.4455H43.807ZM45.1334 64.5042H53.5745C54.2402 64.5042 54.7804 63.964 54.7804 63.2983C54.7804 62.6327 54.2402 62.0925 53.5745 62.0925H45.1334C44.4678 62.0925 43.9276 62.6327 43.9276 63.2983C43.9276 63.964 44.4678 64.5042 45.1334 64.5042ZM34.2806 47.622H41.5158V51.2396C41.5158 53.2377 39.8963 54.8572 37.8982 54.8572C35.9001 54.8572 34.2806 53.2377 34.2806 51.2396V47.622ZM27.0453 28.3281V39.1809C27.0453 42.5103 29.7453 45.2103 33.0747 45.2103C36.1256 45.2103 39.6708 45.2103 42.7217 45.2103C46.0511 45.2103 48.751 42.5103 48.751 39.1809V28.3281H27.0453ZM34.2806 41.5926C34.2806 39.5957 35.9013 37.975 37.8982 37.975C39.8951 37.975 41.5158 39.5957 41.5158 41.5926C41.5158 42.2583 42.056 42.7985 42.7217 42.7985C43.3873 42.7985 43.9276 42.2583 43.9276 41.5926C43.9276 38.2644 41.2264 35.5633 37.8982 35.5633C34.57 35.5633 31.8688 38.2644 31.8688 41.5926C31.8688 42.2583 32.4091 42.7985 33.0747 42.7985C33.7403 42.7985 34.2806 42.2583 34.2806 41.5926ZM57.7951 34.4611L55.6329 32.299C55.1627 31.8287 54.3981 31.8287 53.9278 32.299C53.4576 32.7693 53.4576 33.5338 53.9278 34.0041L56.09 36.1662L53.9278 38.3283C53.4576 38.7986 53.4576 39.5632 53.9278 40.0334C54.3981 40.5037 55.1627 40.5037 55.6329 40.0334L57.7951 37.8713L59.9572 40.0334C60.4275 40.5037 61.192 40.5037 61.6623 40.0334C62.1326 39.5632 62.1326 38.7986 61.6623 38.3283L59.5002 36.1662L61.6623 34.0041C62.1326 33.5338 62.1326 32.7693 61.6623 32.299C61.192 31.8287 60.4275 31.8287 59.9572 32.299L57.7951 34.4611ZM18.0061 34.4623L15.8392 32.2978C15.3677 31.8275 14.6032 31.8287 14.1329 32.299C13.6626 32.7705 13.6638 33.535 14.1341 34.0053L16.2998 36.1662L14.1341 38.3271C13.6638 38.7974 13.6626 39.562 14.1329 40.0334C14.6032 40.5037 15.3677 40.5049 15.8392 40.0347L18.0061 37.8701L20.1743 40.0347C20.6446 40.5049 21.4091 40.5037 21.8794 40.0334C22.3497 39.562 22.3485 38.7974 21.8782 38.3271L19.7125 36.1662L21.8782 34.0053C22.3485 33.535 22.3497 32.7705 21.8794 32.299C21.4091 31.8287 20.6446 31.8275 20.1743 32.2978L18.0061 34.4623ZM49.9569 21.0928V24.7104C49.9569 25.3761 49.4167 25.9163 48.751 25.9163H27.0453V24.7104C27.0453 23.7506 27.4264 22.8305 28.1053 22.1528C28.783 21.4739 29.7031 21.0928 30.663 21.0928H49.9569ZM18.7321 21.6318C18.9817 22.1323 19.5424 22.3952 20.0875 22.2661C20.6313 22.1383 21.016 21.6523 21.016 21.0928V16.2693H25.8395C26.2784 16.2693 26.6812 16.0318 26.8946 15.6483C27.1068 15.2648 27.0948 14.7958 26.8621 14.4244L20.8327 4.77738C20.5481 4.32156 19.9946 4.10933 19.4773 4.25765C18.96 4.40597 18.6042 4.87867 18.6042 5.41649V10.24H14.9866C14.5682 10.24 14.1811 10.4558 13.9604 10.8116C13.741 11.1673 13.7217 11.6111 13.9086 11.9849L18.7321 21.6318ZM54.7804 21.0928C54.7804 21.6523 55.1651 22.1383 55.7089 22.2661C56.254 22.3952 56.8147 22.1323 57.0643 21.6318L61.8878 11.9849C62.0747 11.6111 62.0554 11.1673 61.836 10.8116C61.6153 10.4558 61.2282 10.24 60.8098 10.24H57.1921V5.41649C57.1921 4.87867 56.8364 4.40597 56.3191 4.25765C55.8018 4.10933 55.2483 4.32156 54.9637 4.77738L48.9343 14.4244C48.7016 14.7958 48.6895 15.2648 48.9018 15.6483C49.1152 16.0318 49.518 16.2693 49.9569 16.2693H54.7804V21.0928ZM57.1921 15.9847V15.0635C57.1921 14.3978 56.6519 13.8576 55.9863 13.8576H52.1323L54.7804 9.62136V11.4458C54.7804 12.1115 55.3206 12.6517 55.9863 12.6517H58.8587L57.1921 15.9847ZM18.6042 15.9847L16.9377 12.6517H19.8101C20.4758 12.6517 21.016 12.1115 21.016 11.4458V9.62136L23.6641 13.8576H19.8101C19.1445 13.8576 18.6042 14.3978 18.6042 15.0635V15.9847Z" fill="#3C0A6D"/>
</g>
</svg>
