<svg width="66" height="68" viewBox="0 0 66 68" fill="none" xmlns="http://www.w3.org/2000/svg">
<path d="M37.5164 17.3318C37.4654 17.0413 37.6589 16.7644 37.9489 16.7131C38.0233 16.6999 39.7856 16.4022 41.116 17.3413C41.3567 17.5111 41.4144 17.8444 41.2447 18.0854C41.1409 18.2329 40.9759 18.3118 40.8085 18.3118C40.7024 18.3118 40.5952 18.2803 40.5019 18.2143C39.5456 17.5393 38.1479 17.7624 38.1341 17.7651C37.844 17.8159 37.5676 17.6223 37.5164 17.3318ZM35.4751 25.7878C35.7584 25.7075 35.9231 25.4123 35.8429 25.1286C35.7626 24.845 35.4679 24.6794 35.1847 24.7602C34.2173 25.0346 33.2436 25.0346 32.2762 24.7602C31.9926 24.6795 31.6983 24.845 31.6181 25.1286C31.5378 25.4124 31.7026 25.7076 31.9858 25.7878C32.564 25.9518 33.151 26.035 33.7304 26.035C34.3101 26.0348 34.8971 25.9517 35.4751 25.7878ZM55.8975 67.1568C55.9219 67.311 55.8775 67.4683 55.7762 67.5871C55.6749 67.706 55.5268 67.7742 55.3709 67.7742L12.0877 67.774C11.9317 67.774 11.7836 67.7057 11.6823 67.587C11.581 67.4682 11.5368 67.311 11.5611 67.1567C14.4486 48.8457 25.1305 43.272 29.9977 41.6662V38.6984C26.5129 37.4236 23.7661 34.6476 22.6104 32.7181C22.3022 32.2035 22.0122 31.5761 21.7443 30.8544C20.1914 30.8229 18.683 29.643 18.0472 27.8985C17.5206 26.4539 17.6926 24.9291 18.3833 23.8259C18.0858 22.7041 16.9681 17.9106 18.0604 12.7937C19.4216 6.4169 24.2293 1.41472 29.7517 0.62967C34.6821 -0.0712711 37.4862 1.92835 38.2242 2.55198C38.7792 2.51233 40.1897 2.47548 41.898 2.91447C43.9018 3.42929 46.7089 4.72396 48.7028 7.96819C52.1816 13.6282 49.6146 22.2299 49.085 23.842C49.7675 24.944 49.9353 26.461 49.4113 27.8987C48.8615 29.4072 47.6586 30.4924 46.3392 30.7795C46.626 31.2366 46.9642 31.8652 47.2309 32.6285C47.9834 34.7816 47.8019 36.9699 46.7061 38.9568C45.1909 41.7044 42.275 42.5109 40.0022 42.6891C45.3619 45.2349 53.4437 51.5962 55.8975 67.1568ZM45.4904 31.4234C45.2869 31.9099 45.0722 32.344 44.848 32.7182C43.6923 34.6477 40.9455 37.4237 37.4607 38.6985V41.5856C38.9584 41.7372 43.8435 41.9388 45.7727 38.4405C47.4504 35.3983 46.277 32.6958 45.4904 31.4234ZM47.2834 23.5523C47.0211 25.906 46.6082 28.0239 46.0856 29.7469C47.0647 29.5524 47.9808 28.7087 48.4097 27.5323C49.0007 25.9109 48.4937 24.1817 47.2834 23.5523ZM19.2541 22.8725C19.4716 22.7105 19.7091 22.5745 19.9665 22.4711C20.1317 22.4049 20.2975 22.356 20.4822 22.3174C28.4701 19.3338 34.2133 13.8992 37.5521 6.16363C37.6468 5.944 37.8759 5.81423 38.1122 5.84614C38.3488 5.87791 38.5355 6.06323 38.5692 6.29995C39.1433 10.3252 41.2404 13.2702 43.4609 16.3882C44.7884 18.2524 46.1585 20.1784 47.1958 22.3707C47.2971 22.3993 47.3946 22.4321 47.4919 22.4711C47.7687 22.5823 48.0228 22.7309 48.2532 22.9093C48.9603 20.4774 50.6865 13.233 47.7948 8.52814C46.3517 6.18005 44.2921 4.64292 41.673 3.95947C39.6971 3.44398 38.1246 3.63317 38.1087 3.6349C37.9455 3.65573 37.7809 3.59926 37.6645 3.4827C37.5609 3.3807 35.0357 0.956642 29.9015 1.68709C24.8132 2.41073 20.3727 7.06965 19.1031 13.0172C18.223 17.1401 18.8766 21.1433 19.2541 22.8725ZM21.3728 29.7469C20.8502 28.0239 20.4373 25.906 20.175 23.5523C18.9649 24.1817 18.4577 25.9111 19.0487 27.5323C19.4775 28.7087 20.394 29.5524 21.3728 29.7469ZM33.7292 38.318C38.4799 38.318 42.5096 34.5461 43.9336 32.1687C45.0002 30.388 45.8734 26.9395 46.2778 22.9243C45.2757 20.7776 43.9127 18.8617 42.5928 17.0083C40.686 14.3307 38.7228 11.574 37.8384 8.09209C34.3579 15.1982 28.7701 20.2679 21.2072 23.1825C21.6223 27.0872 22.4811 30.4263 23.5248 32.1687C24.9488 34.5461 28.9786 38.318 33.7292 38.318ZM29.7003 42.9012C30.0829 43.7527 31.177 45.4948 33.7292 45.4948C36.2814 45.4948 37.3755 43.7527 37.7581 42.9012C37.4038 42.7709 37.0727 42.6599 36.7709 42.567C36.5471 42.4981 36.3944 42.2911 36.3944 42.0566V39.0315C35.5384 39.2562 34.6467 39.3861 33.7291 39.3861C32.8114 39.3861 31.9198 39.2562 31.0637 39.0315V42.0566C31.0637 42.2911 30.911 42.4983 30.6872 42.567C30.3857 42.6601 30.0546 42.771 29.7003 42.9012ZM21.4852 48.1934V66.7059H45.9732V48.1934C43.4202 45.6685 40.803 44.1705 38.7423 43.292C38.2607 44.3554 36.8816 46.563 33.7292 46.563C30.5768 46.563 29.1977 44.3554 28.7161 43.292C26.6555 44.1705 24.0383 45.6685 21.4852 48.1934ZM12.7156 66.7059H20.419V49.3158C17.1391 52.9826 14.1156 58.4801 12.7156 66.7059ZM54.7429 66.7061C53.3428 58.4801 50.3193 52.9826 47.0395 49.3158V66.7061H54.7429ZM28.3977 21.7795C28.2855 21.7795 28.1774 21.7971 28.0757 21.8293C27.9965 21.7849 27.9328 21.724 27.8872 21.6452C27.7394 21.3901 27.4133 21.3033 27.1586 21.4512C26.9038 21.5991 26.8172 21.9261 26.9649 22.1811C27.0287 22.2914 27.1063 22.3894 27.192 22.4786C27.0907 22.4582 26.9986 22.4283 26.9285 22.3866C26.6753 22.2352 26.3482 22.3188 26.1977 22.5723C26.0471 22.8256 26.1301 23.1535 26.3831 23.3042C26.6782 23.4802 27.1372 23.5781 27.5865 23.5781C27.5979 23.5781 27.6089 23.5773 27.6203 23.5771C27.8149 23.7851 28.0908 23.916 28.3979 23.916C28.9867 23.916 29.4642 23.4377 29.4642 22.8479C29.464 22.2578 28.9867 21.7795 28.3977 21.7795ZM40.5299 22.3865C40.4598 22.4283 40.3677 22.4583 40.2663 22.4787C40.352 22.3895 40.4297 22.2915 40.4935 22.1811C40.6412 21.9261 40.5546 21.5993 40.2998 21.4512C40.045 21.3034 39.719 21.3901 39.5712 21.6452C39.5254 21.7241 39.4619 21.7849 39.3827 21.8293C39.2811 21.7971 39.173 21.7795 39.0607 21.7795C38.4718 21.7795 37.9944 22.2578 37.9944 22.8476C37.9944 23.4375 38.4718 23.9157 39.0607 23.9157C39.3678 23.9157 39.6437 23.785 39.8383 23.5769C39.8496 23.577 39.8607 23.5778 39.872 23.5778C40.3213 23.5778 40.7803 23.4801 41.0754 23.304C41.3284 23.1531 41.4115 22.8253 41.2608 22.5721C41.1101 22.3186 40.783 22.2353 40.5299 22.3865ZM9.23173 43.4961C9.39727 44.7996 9.33316 46.4083 8.26114 47.2193C6.81457 48.3135 4.3361 47.9406 3.35644 47.7349L3.12932 48.1465C2.84889 48.6548 2.31454 48.9704 1.73488 48.9704C1.23505 48.9704 0.77401 48.7424 0.469982 48.3449C0.165955 47.9473 0.0663897 47.4421 0.196478 46.9586L0.631793 45.3422C0.850117 44.5315 1.61572 43.9948 2.45009 44.0692L2.90513 44.109C2.51407 42.6199 2.03051 39.3944 4.40448 37.3863C6.80631 35.3547 9.98 35.9624 11.3141 36.3501C11.5193 35.2338 12.0794 32.9759 13.3636 31.998C15.0728 30.6968 18.345 30.7441 20.2291 32.0974C22.1827 33.5009 22.6257 36.6022 21.916 38.6707C21.2357 40.6533 19.4395 42.9326 17.6115 43.3154C16.8419 43.4768 16.1363 43.3183 15.5813 43.0852L16.0352 44.8282C16.0872 45.0278 16.2324 45.1925 16.4235 45.2693L17.4607 45.6848C18.1102 45.9452 18.5298 46.5661 18.5298 47.2667C18.5298 48.2061 17.7669 48.9703 16.8291 48.9703H14.4033C13.6998 48.9703 13.0603 48.5273 12.8121 47.868L11.1655 43.496H9.23173V43.4961ZM8.80188 41.5522C8.83733 41.6606 8.9385 41.9833 9.04046 42.428H10.7628L10.2662 41.1095C10.1622 40.8335 10.3014 40.5253 10.5769 40.4213C10.8524 40.3171 11.16 40.4566 11.264 40.7324L13.8095 47.4911C13.9021 47.7372 14.1406 47.9023 14.403 47.9023H16.8288C17.1787 47.9023 17.4633 47.6173 17.4633 47.2668C17.4633 47.0055 17.3067 46.7739 17.0643 46.6767L16.0272 46.2612C15.523 46.0592 15.1402 45.6242 15.0032 45.0979L13.7583 40.3177C13.6839 40.0323 13.8547 39.7407 14.1396 39.6662C14.4243 39.5914 14.7157 39.7627 14.7901 40.048L15.2042 41.638C15.5002 41.868 16.4002 42.478 17.3932 42.27C18.6547 42.0057 20.2642 40.1985 20.9075 38.3235C21.4957 36.6094 21.1137 34.0473 19.6077 32.9652C18.0861 31.8724 15.3652 31.8154 14.0089 32.8482C12.8953 33.6962 12.3781 36.2173 12.2728 37.1174C12.2535 37.2825 12.1584 37.4295 12.0157 37.5145C11.8729 37.5993 11.6989 37.6129 11.5448 37.5512C11.5068 37.536 7.65228 36.0371 5.09237 38.2022C2.56792 40.3375 4.13164 44.4754 4.14777 44.5171C4.21441 44.6891 4.18762 44.8833 4.07699 45.0309C3.96636 45.1784 3.78829 45.259 3.60422 45.2422L2.35733 45.133C2.0377 45.1055 1.74501 45.31 1.66143 45.6203L1.22612 47.2368C1.18307 47.3966 1.21612 47.5637 1.31662 47.6952C1.41712 47.8267 1.5696 47.9022 1.73501 47.9022C1.92681 47.9022 2.10355 47.7978 2.19631 47.6297L2.61843 46.8647C2.73733 46.6492 2.98791 46.5432 3.22489 46.6075C4.0594 46.8333 6.47682 47.2306 7.61883 46.3667C8.68539 45.56 8.08346 42.7907 7.7885 41.8841C7.69733 41.6037 7.85008 41.3024 8.12985 41.2108C8.40948 41.1191 8.71031 41.2718 8.80188 41.5522ZM60.7549 14.8589L60.4522 16.4333C60.9998 17.0028 62.4243 18.626 62.6197 20.2811C62.8181 21.963 62.4667 24.948 62.3732 25.686L64.7695 30.444C65.3614 31.6194 64.9958 33.075 63.9192 33.8298C63.7025 33.9818 63.4663 34.0979 63.2196 34.1788C63.642 35.3065 64.5143 37.7546 64.7207 39.2623C64.8947 40.5338 65.146 44.6099 65.3261 47.8052C65.3667 48.5256 65.1165 49.2109 64.6219 49.7352C64.127 50.2597 63.4576 50.5485 62.7371 50.5485C61.4449 50.5485 60.3401 49.5811 60.1673 48.2982L59.268 41.6165C58.0988 43.3957 56.391 45.7211 54.9136 47.6804C54.4718 48.2661 53.8005 48.6464 53.0717 48.7238C52.9789 48.7337 52.886 48.7385 52.7934 48.7385C52.1578 48.7385 51.5351 48.5093 51.0505 48.0902C49.963 47.1494 49.8231 45.4824 50.7385 44.3741C53.2681 41.3108 54.8477 39.0546 55.072 38.1842C55.2154 37.628 55.2254 35.7121 55.1617 33.2474C55.0322 33.3487 54.8914 33.4378 54.7403 33.5125C54.4043 33.6782 54.044 33.7616 53.6817 33.7617C53.4057 33.7617 53.1286 33.7133 52.8601 33.6155C52.2553 33.3958 51.7728 32.9525 51.5018 32.368C51.2307 31.7833 51.2039 31.1283 51.4264 30.5235L54.5665 21.9845C54.0613 20.8257 53.71 19.889 53.6131 19.3436C53.165 16.8207 54.931 15.3454 55.5191 14.9313L56.1679 12.8634C55.5941 11.9479 53.5472 8.43147 54.3347 6.02237C55.2689 3.16454 57.9529 1.46292 60.8628 1.88429C63.7303 2.29964 65.6567 5.05761 65.6567 7.37259C65.6567 9.16646 64.991 13.4574 63.013 14.5242C62.2842 14.9171 61.4758 14.9578 60.7549 14.8589ZM55.1004 31.289C55.0216 29.106 54.9044 26.6968 54.7804 24.4928L52.4269 30.8928C52.3033 31.2291 52.3182 31.5931 52.4688 31.9182C52.6194 32.2432 52.8877 32.4894 53.224 32.6117C53.569 32.7372 53.9402 32.7169 54.2691 32.5543C54.5983 32.3918 54.8406 32.1094 54.9515 31.7592L55.1004 31.289ZM59.5817 38.9542C60.2465 37.2281 60.0372 33.4902 59.992 32.805C58.7965 30.5703 57.1761 27.4846 55.864 24.7797C56.1093 29.1912 56.4777 37.0038 56.1045 38.4512C55.8307 39.5129 54.3018 41.7348 51.5601 45.055C51.0116 45.7191 51.0957 46.7179 51.7475 47.2819C52.0851 47.574 52.5157 47.7091 52.959 47.6619C53.4022 47.6147 53.7941 47.3927 54.0625 47.0366C57.188 42.8923 59.1995 39.9463 59.5817 38.9542ZM63.6642 39.4073C63.4574 37.8965 62.4749 35.222 62.124 34.2978C62.0071 34.2859 61.8905 34.2672 61.7749 34.2397C61.5412 34.1839 61.3203 34.0941 61.1135 33.9804C61.155 35.5029 61.1197 37.9284 60.5765 39.3386C60.49 39.5633 60.3443 39.8523 60.1521 40.1909L61.224 48.1556C61.3257 48.9109 61.9762 49.4806 62.7371 49.4806C63.1613 49.4806 63.5556 49.3106 63.847 49.0017C64.1382 48.693 64.2854 48.2895 64.2615 47.8656C64.1147 45.2654 63.8424 40.7092 63.6642 39.4073ZM59.3516 16.5092L59.7152 14.6183C59.1129 14.4242 58.6985 14.1989 58.6577 14.1764C58.3999 14.0338 58.3064 13.7088 58.4487 13.4506C58.5908 13.1925 58.9147 13.0988 59.1723 13.2409C59.1921 13.2517 61.1562 14.3126 62.5074 13.5837C63.7979 12.8879 64.5903 9.49717 64.5903 7.37259C64.5903 5.75054 63.2418 3.3082 60.7101 2.94144C58.323 2.59417 56.1179 3.99913 55.3479 6.35482C54.74 8.21478 56.4746 11.4121 57.1942 12.4873C57.2843 12.6219 57.3086 12.7903 57.2601 12.9449L56.4795 15.4325C56.4401 15.5584 56.3553 15.6652 56.2419 15.7323C56.1628 15.7797 54.2703 16.9464 54.6628 19.1565C54.7492 19.6429 55.0987 20.5708 55.6818 21.8802L55.6929 21.8795C55.6934 21.8883 55.6942 21.8997 55.6947 21.9093C56.7504 24.2757 58.5651 27.8802 60.9857 32.4014C61.2011 32.8036 61.5787 33.095 62.0219 33.2007C62.4652 33.3066 62.9338 33.2169 63.3074 32.9549C63.9528 32.5023 64.1719 31.6297 63.8171 30.9251L58.8651 21.0922C58.7325 20.8288 58.8381 20.5077 59.101 20.3748C59.364 20.2423 59.6844 20.3477 59.8172 20.6112L61.4877 23.9281C61.589 22.785 61.6712 21.3444 61.5606 20.4067C61.3688 18.7814 59.5271 17.0159 59.5085 16.9983C59.3767 16.8727 59.3172 16.6882 59.3516 16.5092Z" fill="#3C0A6D"/>
</svg>
