<svg width="76" height="76" viewBox="0 0 76 76" fill="none" xmlns="http://www.w3.org/2000/svg">
<mask id="mask0_577_230" style="mask-type:alpha" maskUnits="userSpaceOnUse" x="0" y="0" width="76" height="76">
<rect x="0.398438" y="0.628418" width="75" height="75" fill="#D9D9D9"/>
</mask>
<g mask="url(#mask0_577_230)">
<path d="M42.5164 21.3318C42.4654 21.0413 42.6589 20.7644 42.9489 20.7131C43.0233 20.6999 44.7856 20.4022 46.116 21.3413C46.3567 21.5111 46.4144 21.8444 46.2447 22.0854C46.1409 22.2329 45.9759 22.3118 45.8085 22.3118C45.7024 22.3118 45.5952 22.2803 45.5019 22.2143C44.5456 21.5393 43.1479 21.7624 43.1341 21.7651C42.844 21.8159 42.5676 21.6223 42.5164 21.3318ZM40.4751 29.7878C40.7584 29.7075 40.9231 29.4123 40.8429 29.1286C40.7626 28.845 40.4679 28.6794 40.1847 28.7602C39.2173 29.0346 38.2436 29.0346 37.2762 28.7602C36.9926 28.6795 36.6983 28.845 36.6181 29.1286C36.5378 29.4124 36.7026 29.7076 36.9858 29.7878C37.564 29.9518 38.151 30.035 38.7304 30.035C39.3101 30.0348 39.8971 29.9517 40.4751 29.7878ZM60.8975 71.1568C60.9219 71.311 60.8775 71.4683 60.7762 71.5871C60.6749 71.706 60.5268 71.7742 60.3709 71.7742L17.0877 71.774C16.9317 71.774 16.7836 71.7057 16.6823 71.587C16.581 71.4682 16.5368 71.311 16.5611 71.1567C19.4486 52.8457 30.1305 47.272 34.9977 45.6662V42.6984C31.5129 41.4236 28.7661 38.6476 27.6104 36.7181C27.3022 36.2035 27.0122 35.5761 26.7443 34.8544C25.1914 34.8229 23.683 33.643 23.0472 31.8985C22.5206 30.4539 22.6926 28.9291 23.3833 27.8259C23.0858 26.7041 21.9681 21.9106 23.0604 16.7937C24.4216 10.4169 29.2293 5.41472 34.7517 4.62967C39.6821 3.92873 42.4862 5.92835 43.2242 6.55198C43.7792 6.51233 45.1897 6.47548 46.898 6.91447C48.9018 7.42929 51.7089 8.72396 53.7028 11.9682C57.1816 17.6282 54.6146 26.2299 54.085 27.842C54.7675 28.944 54.9353 30.461 54.4113 31.8987C53.8615 33.4072 52.6586 34.4924 51.3392 34.7795C51.626 35.2366 51.9642 35.8652 52.2309 36.6285C52.9834 38.7816 52.8019 40.9699 51.7061 42.9568C50.1909 45.7044 47.275 46.5109 45.0022 46.6891C50.3619 49.2349 58.4437 55.5962 60.8975 71.1568ZM50.4904 35.4234C50.2869 35.9099 50.0722 36.344 49.848 36.7182C48.6923 38.6477 45.9455 41.4237 42.4607 42.6985V45.5856C43.9584 45.7372 48.8435 45.9388 50.7727 42.4405C52.4504 39.3983 51.277 36.6958 50.4904 35.4234ZM52.2834 27.5523C52.0211 29.906 51.6082 32.0239 51.0856 33.7469C52.0647 33.5524 52.9808 32.7087 53.4097 31.5323C54.0007 29.9109 53.4937 28.1817 52.2834 27.5523ZM24.2541 26.8725C24.4716 26.7105 24.7091 26.5745 24.9665 26.4711C25.1317 26.4049 25.2975 26.356 25.4822 26.3174C33.4701 23.3338 39.2133 17.8992 42.5521 10.1636C42.6468 9.944 42.8759 9.81423 43.1122 9.84614C43.3488 9.87791 43.5355 10.0632 43.5692 10.2999C44.1433 14.3252 46.2404 17.2702 48.4609 20.3882C49.7884 22.2524 51.1585 24.1784 52.1958 26.3707C52.2971 26.3993 52.3946 26.4321 52.4919 26.4711C52.7687 26.5823 53.0228 26.7309 53.2532 26.9093C53.9603 24.4774 55.6865 17.233 52.7948 12.5281C51.3517 10.1801 49.2921 8.64292 46.673 7.95947C44.6971 7.44398 43.1246 7.63317 43.1087 7.6349C42.9455 7.65573 42.7809 7.59926 42.6645 7.4827C42.5609 7.3807 40.0357 4.95664 34.9015 5.68709C29.8132 6.41073 25.3727 11.0696 24.1031 17.0172C23.223 21.1401 23.8766 25.1433 24.2541 26.8725ZM26.3728 33.7469C25.8502 32.0239 25.4373 29.906 25.175 27.5523C23.9649 28.1817 23.4577 29.9111 24.0487 31.5323C24.4775 32.7087 25.394 33.5524 26.3728 33.7469ZM38.7292 42.318C43.4799 42.318 47.5096 38.5461 48.9336 36.1687C50.0002 34.388 50.8734 30.9395 51.2778 26.9243C50.2757 24.7776 48.9127 22.8617 47.5928 21.0083C45.686 18.3307 43.7228 15.574 42.8384 12.0921C39.3579 19.1982 33.7701 24.2679 26.2072 27.1825C26.6223 31.0872 27.4811 34.4263 28.5248 36.1687C29.9488 38.5461 33.9786 42.318 38.7292 42.318ZM34.7003 46.9012C35.0829 47.7527 36.177 49.4948 38.7292 49.4948C41.2814 49.4948 42.3755 47.7527 42.7581 46.9012C42.4038 46.7709 42.0727 46.6599 41.7709 46.567C41.5471 46.4981 41.3944 46.2911 41.3944 46.0566V43.0315C40.5384 43.2562 39.6467 43.3861 38.7291 43.3861C37.8114 43.3861 36.9198 43.2562 36.0637 43.0315V46.0566C36.0637 46.2911 35.911 46.4983 35.6872 46.567C35.3857 46.6601 35.0546 46.771 34.7003 46.9012ZM26.4852 52.1934V70.7059H50.9732V52.1934C48.4202 49.6685 45.803 48.1705 43.7423 47.292C43.2607 48.3554 41.8816 50.563 38.7292 50.563C35.5768 50.563 34.1977 48.3554 33.7161 47.292C31.6555 48.1705 29.0383 49.6685 26.4852 52.1934ZM17.7156 70.7059H25.419V53.3158C22.1391 56.9826 19.1156 62.4801 17.7156 70.7059ZM59.7429 70.7061C58.3428 62.4801 55.3193 56.9826 52.0395 53.3158V70.7061H59.7429ZM33.3977 25.7795C33.2855 25.7795 33.1774 25.7971 33.0757 25.8293C32.9965 25.7849 32.9328 25.724 32.8872 25.6452C32.7394 25.3901 32.4133 25.3033 32.1586 25.4512C31.9038 25.5991 31.8172 25.9261 31.9649 26.1811C32.0287 26.2914 32.1063 26.3894 32.192 26.4786C32.0907 26.4582 31.9986 26.4283 31.9285 26.3866C31.6753 26.2352 31.3482 26.3188 31.1977 26.5723C31.0471 26.8256 31.1301 27.1535 31.3831 27.3042C31.6782 27.4802 32.1372 27.5781 32.5865 27.5781C32.5979 27.5781 32.6089 27.5773 32.6203 27.5771C32.8149 27.7851 33.0908 27.916 33.3979 27.916C33.9867 27.916 34.4642 27.4377 34.4642 26.8479C34.464 26.2578 33.9867 25.7795 33.3977 25.7795ZM45.5299 26.3865C45.4598 26.4283 45.3677 26.4583 45.2663 26.4787C45.352 26.3895 45.4297 26.2915 45.4935 26.1811C45.6412 25.9261 45.5546 25.5993 45.2998 25.4512C45.045 25.3034 44.719 25.3901 44.5712 25.6452C44.5254 25.7241 44.4619 25.7849 44.3827 25.8293C44.2811 25.7971 44.173 25.7795 44.0607 25.7795C43.4718 25.7795 42.9944 26.2578 42.9944 26.8476C42.9944 27.4375 43.4718 27.9157 44.0607 27.9157C44.3678 27.9157 44.6437 27.785 44.8383 27.5769C44.8496 27.577 44.8607 27.5778 44.872 27.5778C45.3213 27.5778 45.7803 27.4801 46.0754 27.304C46.3284 27.1531 46.4115 26.8253 46.2608 26.5721C46.1101 26.3186 45.783 26.2353 45.5299 26.3865ZM14.2317 47.4961C14.3973 48.7996 14.3332 50.4083 13.2611 51.2193C11.8146 52.3135 9.3361 51.9406 8.35644 51.7349L8.12932 52.1465C7.84889 52.6548 7.31454 52.9704 6.73488 52.9704C6.23505 52.9704 5.77401 52.7424 5.46998 52.3449C5.16596 51.9473 5.06639 51.4421 5.19648 50.9586L5.63179 49.3422C5.85012 48.5315 6.61572 47.9948 7.45009 48.0692L7.90513 48.109C7.51407 46.6199 7.03051 43.3944 9.40448 41.3863C11.8063 39.3547 14.98 39.9624 16.3141 40.3501C16.5193 39.2338 17.0794 36.9759 18.3636 35.998C20.0728 34.6968 23.345 34.7441 25.2291 36.0974C27.1827 37.5009 27.6257 40.6022 26.916 42.6707C26.2357 44.6533 24.4395 46.9326 22.6115 47.3154C21.8419 47.4768 21.1363 47.3183 20.5813 47.0852L21.0352 48.8282C21.0872 49.0278 21.2324 49.1925 21.4235 49.2693L22.4607 49.6848C23.1102 49.9452 23.5298 50.5661 23.5298 51.2667C23.5298 52.2061 22.7669 52.9703 21.8291 52.9703H19.4033C18.6998 52.9703 18.0603 52.5273 17.8121 51.868L16.1655 47.496H14.2317V47.4961ZM13.8019 45.5522C13.8373 45.6606 13.9385 45.9833 14.0405 46.428H15.7628L15.2662 45.1095C15.1622 44.8335 15.3014 44.5253 15.5769 44.4213C15.8524 44.3171 16.16 44.4566 16.264 44.7324L18.8095 51.4911C18.9021 51.7372 19.1406 51.9023 19.403 51.9023H21.8288C22.1787 51.9023 22.4633 51.6173 22.4633 51.2668C22.4633 51.0055 22.3067 50.7739 22.0643 50.6767L21.0272 50.2612C20.523 50.0592 20.1402 49.6242 20.0032 49.0979L18.7583 44.3177C18.6839 44.0323 18.8547 43.7407 19.1396 43.6662C19.4243 43.5914 19.7157 43.7627 19.7901 44.048L20.2042 45.638C20.5002 45.868 21.4002 46.478 22.3932 46.27C23.6547 46.0057 25.2642 44.1985 25.9075 42.3235C26.4957 40.6094 26.1137 38.0473 24.6077 36.9652C23.0861 35.8724 20.3652 35.8154 19.0089 36.8482C17.8953 37.6962 17.3781 40.2173 17.2728 41.1174C17.2535 41.2825 17.1584 41.4295 17.0157 41.5145C16.8729 41.5993 16.6989 41.6129 16.5448 41.5512C16.5068 41.536 12.6523 40.0371 10.0924 42.2022C7.56792 44.3375 9.13164 48.4754 9.14777 48.5171C9.21441 48.6891 9.18762 48.8833 9.07699 49.0309C8.96636 49.1784 8.78829 49.259 8.60422 49.2422L7.35733 49.133C7.0377 49.1055 6.74501 49.31 6.66143 49.6203L6.22612 51.2368C6.18307 51.3966 6.21612 51.5637 6.31662 51.6952C6.41712 51.8267 6.5696 51.9022 6.73501 51.9022C6.92681 51.9022 7.10355 51.7978 7.19631 51.6297L7.61843 50.8647C7.73733 50.6492 7.98791 50.5432 8.22489 50.6075C9.0594 50.8333 11.4768 51.2306 12.6188 50.3667C13.6854 49.56 13.0835 46.7907 12.7885 45.8841C12.6973 45.6037 12.8501 45.3024 13.1298 45.2108C13.4095 45.1191 13.7103 45.2718 13.8019 45.5522ZM65.7549 18.8589L65.4522 20.4333C65.9998 21.0028 67.4243 22.626 67.6197 24.2811C67.8181 25.963 67.4667 28.948 67.3732 29.686L69.7695 34.444C70.3614 35.6194 69.9958 37.075 68.9192 37.8298C68.7025 37.9818 68.4663 38.0979 68.2196 38.1788C68.642 39.3065 69.5143 41.7546 69.7207 43.2623C69.8947 44.5338 70.146 48.6099 70.3261 51.8052C70.3667 52.5256 70.1165 53.2109 69.6219 53.7352C69.127 54.2597 68.4576 54.5485 67.7371 54.5485C66.4449 54.5485 65.3401 53.5811 65.1673 52.2982L64.268 45.6165C63.0988 47.3957 61.391 49.7211 59.9136 51.6804C59.4718 52.2661 58.8005 52.6464 58.0717 52.7238C57.9789 52.7337 57.886 52.7385 57.7934 52.7385C57.1578 52.7385 56.5351 52.5093 56.0505 52.0902C54.963 51.1494 54.8231 49.4824 55.7385 48.3741C58.2681 45.3108 59.8477 43.0546 60.072 42.1842C60.2154 41.628 60.2254 39.7121 60.1617 37.2474C60.0322 37.3487 59.8914 37.4378 59.7403 37.5125C59.4043 37.6782 59.044 37.7616 58.6817 37.7617C58.4057 37.7617 58.1286 37.7133 57.8601 37.6155C57.2553 37.3958 56.7728 36.9525 56.5018 36.368C56.2307 35.7833 56.2039 35.1283 56.4264 34.5235L59.5665 25.9845C59.0613 24.8257 58.71 23.889 58.6131 23.3436C58.165 20.8207 59.931 19.3454 60.5191 18.9313L61.1679 16.8634C60.5941 15.9479 58.5472 12.4315 59.3347 10.0224C60.2689 7.16454 62.9529 5.46292 65.8628 5.88429C68.7303 6.29964 70.6567 9.05761 70.6567 11.3726C70.6567 13.1665 69.991 17.4574 68.013 18.5242C67.2842 18.9171 66.4758 18.9578 65.7549 18.8589ZM60.1004 35.289C60.0216 33.106 59.9044 30.6968 59.7804 28.4928L57.4269 34.8928C57.3033 35.2291 57.3182 35.5931 57.4688 35.9182C57.6194 36.2432 57.8877 36.4894 58.224 36.6117C58.569 36.7372 58.9402 36.7169 59.2691 36.5543C59.5983 36.3918 59.8406 36.1094 59.9515 35.7592L60.1004 35.289ZM64.5817 42.9542C65.2465 41.2281 65.0372 37.4902 64.992 36.805C63.7965 34.5703 62.1761 31.4846 60.864 28.7797C61.1093 33.1912 61.4777 41.0038 61.1045 42.4512C60.8307 43.5129 59.3018 45.7348 56.5601 49.055C56.0116 49.7191 56.0957 50.7179 56.7475 51.2819C57.0851 51.574 57.5157 51.7091 57.959 51.6619C58.4022 51.6147 58.7941 51.3927 59.0625 51.0366C62.188 46.8923 64.1995 43.9463 64.5817 42.9542ZM68.6642 43.4073C68.4574 41.8965 67.4749 39.222 67.124 38.2978C67.0071 38.2859 66.8905 38.2672 66.7749 38.2397C66.5412 38.1839 66.3203 38.0941 66.1135 37.9804C66.155 39.5029 66.1197 41.9284 65.5765 43.3386C65.49 43.5633 65.3443 43.8523 65.1521 44.1909L66.224 52.1556C66.3257 52.9109 66.9762 53.4806 67.7371 53.4806C68.1613 53.4806 68.5556 53.3106 68.847 53.0017C69.1382 52.693 69.2854 52.2895 69.2615 51.8656C69.1147 49.2654 68.8424 44.7092 68.6642 43.4073ZM64.3516 20.5092L64.7152 18.6183C64.1129 18.4242 63.6985 18.1989 63.6577 18.1764C63.3999 18.0338 63.3064 17.7088 63.4487 17.4506C63.5908 17.1925 63.9147 17.0988 64.1723 17.2409C64.1921 17.2517 66.1562 18.3126 67.5074 17.5837C68.7979 16.8879 69.5903 13.4972 69.5903 11.3726C69.5903 9.75054 68.2418 7.3082 65.7101 6.94144C63.323 6.59417 61.1179 7.99913 60.3479 10.3548C59.74 12.2148 61.4746 15.4121 62.1942 16.4873C62.2843 16.6219 62.3086 16.7903 62.2601 16.9449L61.4795 19.4325C61.4401 19.5584 61.3553 19.6652 61.2419 19.7323C61.1628 19.7797 59.2703 20.9464 59.6628 23.1565C59.7492 23.6429 60.0987 24.5708 60.6818 25.8802L60.6929 25.8795C60.6934 25.8883 60.6942 25.8997 60.6947 25.9093C61.7504 28.2757 63.5651 31.8802 65.9857 36.4014C66.2011 36.8036 66.5787 37.095 67.0219 37.2007C67.4652 37.3066 67.9338 37.2169 68.3074 36.9549C68.9528 36.5023 69.1719 35.6297 68.8171 34.9251L63.8651 25.0922C63.7325 24.8288 63.8381 24.5077 64.101 24.3748C64.364 24.2423 64.6844 24.3477 64.8172 24.6112L66.4877 27.9281C66.589 26.785 66.6712 25.3444 66.5606 24.4067C66.3688 22.7814 64.5271 21.0159 64.5085 20.9983C64.3767 20.8727 64.3172 20.6882 64.3516 20.5092Z" fill="#3C0A6D"/>
</g>
</svg>
