<svg width="75" height="75" viewBox="0 0 75 75" fill="none" xmlns="http://www.w3.org/2000/svg">
<mask id="mask0_1291_697" style="mask-type:alpha" maskUnits="userSpaceOnUse" x="0" y="0" width="75" height="75">
<rect width="75" height="75" fill="#D9D9D9"/>
</mask>
<g mask="url(#mask0_1291_697)">
<path fill-rule="evenodd" clip-rule="evenodd" d="M57.8455 20.0965C57.9492 16.8532 57.2656 13.9266 55.9811 11.5455C53.4929 6.93318 48.9019 4.58223 43.6132 5.5222C40.1398 6.13962 36.2965 8.17382 32.3915 12.0235C32.1752 12.2361 31.884 12.3553 31.5806 12.3553C31.2772 12.3553 30.986 12.2361 30.7696 12.0235C24.5874 5.92913 18.5608 4.38362 13.9356 5.80431C7.25042 7.85823 4.75208 15.1817 5.41857 21.5907C6.393 30.9604 13.7717 42.4631 31.582 51.2377C33.1605 50.4605 34.608 49.6911 36.0909 48.8341C32.6485 45.8257 30.4747 41.6242 30.0078 37.0766C29.5409 32.529 30.8156 27.9735 33.5749 24.3284C36.3342 20.6834 40.373 18.2199 44.8769 17.4345C49.3809 16.6492 54.0152 17.6004 57.8455 20.0965ZM45.8216 39.7682C45.3617 37.5468 43.7389 29.493 43.7389 26.8546C43.7389 23.8266 46.7512 21.671 49.5496 22.8278C50.3419 23.1608 51.0177 23.7209 51.4918 24.4376C51.966 25.1543 52.2172 25.9953 52.2137 26.8546C52.2137 29.5087 50.5692 37.66 50.1183 39.8213H50.1207C49.72 41.6859 47.5293 42.2681 46.3471 40.8776C46.0791 40.5591 45.8979 40.1769 45.8208 39.768L45.8216 39.7682ZM47.2441 35.0133C46.905 33.2061 46.0586 28.5868 46.0586 26.8545C46.0559 26.5792 46.1086 26.3063 46.2136 26.0519C46.3185 25.7975 46.4736 25.5667 46.6696 25.3735C47.9086 24.1624 49.894 25.1035 49.894 26.8545C49.894 29.1524 48.4223 36.5673 47.977 38.7607C47.8243 38.0105 47.5444 36.6139 47.2441 35.0133ZM47.9763 42.1747C50.5365 42.1747 51.8292 45.2849 50.0158 47.0981C48.2023 48.9114 45.0919 47.619 45.0919 45.0589C45.0921 44.294 45.396 43.5605 45.9369 43.0197C46.4778 42.4788 47.2113 42.1749 47.9763 42.1747ZM48.3757 44.6595C48.9017 45.1854 48.103 45.9842 47.577 45.4583C47.051 44.9323 47.8496 44.1335 48.3757 44.6595ZM38.0867 50.3456C36.1899 51.473 34.0997 52.594 32.0833 53.5679C31.9265 53.6438 31.7546 53.6832 31.5804 53.6832C31.4063 53.6832 31.2344 53.6438 31.0776 53.5679C12.0512 44.3507 4.17114 31.9636 3.11697 21.8262C2.33247 14.2828 5.47004 5.98567 13.2559 3.59412C18.43 2.00469 24.9813 3.47597 31.5799 9.59901C35.5752 5.89187 39.554 3.88971 43.2145 3.23895C49.4864 2.12414 55.0662 4.97422 58.0198 10.4491C59.7038 13.5707 60.487 17.4827 60.0465 21.7864C61.9475 23.4935 63.4647 25.5845 64.4979 27.9212C65.5311 30.2579 66.0569 32.7871 66.0404 35.342C66.024 37.8968 65.4657 40.4191 64.4025 42.7423C63.3393 45.0655 61.7953 47.1368 59.8725 48.8194L62.0966 52.6712C63.062 52.2189 64.1027 52.5262 64.6119 53.406L71.745 65.7273C71.997 66.1631 72.0656 66.681 71.9357 67.1673C71.8058 67.6536 71.4881 68.0684 71.0524 68.3205L65.1187 71.7454C64.6826 71.9971 64.1643 72.0656 63.6778 71.9356C63.1912 71.8057 62.7761 71.4881 62.5235 71.0524L55.3965 58.7407C55.1477 58.3151 55.074 57.8094 55.1911 57.3304C55.3083 56.8515 55.6069 56.4369 56.0241 56.174L53.8012 52.3244C51.2035 53.209 48.4384 53.4905 45.7157 53.1477C42.993 52.8048 40.384 51.8466 38.0867 50.3456ZM58.0181 50.2367L60.0902 53.8253L58.0275 55.016L55.9558 51.4278C56.6699 51.0786 57.359 50.6806 58.0184 50.2367H58.0181ZM52.0528 20.0179C54.0512 20.5499 55.9249 21.4715 57.566 22.7298C59.2071 23.9882 60.5834 25.5584 61.6157 27.3502C65.9904 34.9162 63.3485 44.5089 55.8585 48.8621C55.2062 49.2379 54.5284 49.5677 53.8302 49.8494C51.5141 50.7764 49.0108 51.14 46.5266 50.9101C44.0424 50.6803 41.6483 49.8637 39.5415 48.5275C37.4348 47.1913 35.6756 45.3737 34.409 43.2246C33.1424 41.0754 32.4045 38.6561 32.2561 36.1659C32.1077 33.6757 32.5531 31.1859 33.5556 28.9016C34.5581 26.6173 36.0889 24.6037 38.0221 23.0268C39.9553 21.45 42.2354 20.3549 44.6748 19.8317C47.1141 19.3086 49.6429 19.3724 52.0528 20.0179ZM62.2515 55.2496L57.6033 57.9329L64.3193 69.5348L69.532 66.5255L62.8158 54.9237L62.2515 55.2496Z" fill="#3C0A6D"/>
</g>
</svg>
