<svg width="76" height="76" viewBox="0 0 76 76" fill="none" xmlns="http://www.w3.org/2000/svg">
<mask id="mask0_577_235" style="mask-type:alpha" maskUnits="userSpaceOnUse" x="0" y="0" width="76" height="76">
<rect x="0.398438" y="0.983887" width="75" height="75" fill="#D9D9D9"/>
</mask>
<g mask="url(#mask0_577_235)">
<path d="M22.0018 22.922L22.0018 22.9219C22.001 21.7404 22.9452 20.784 24.0998 20.784C25.2526 20.784 26.1961 21.7403 26.1961 22.922C26.1961 24.0963 25.2525 25.0485 24.0998 25.0485C22.9446 25.0485 22.0018 24.0963 22.0018 22.922ZM24.0998 25.7672C25.6495 25.7672 26.9091 24.491 26.9091 22.9211C26.9091 21.341 25.6499 20.0644 24.0998 20.0644C22.5465 20.0644 21.288 21.341 21.288 22.9211C21.288 24.4919 22.5469 25.7672 24.0998 25.7672Z" fill="#3C0A6D" stroke="#3C0A6D" stroke-width="0.3"/>
<path d="M37.9014 25.7672C39.4528 25.7672 40.7108 24.4909 40.7108 22.9211C40.7108 21.3411 39.4532 20.0644 37.9014 20.0644C36.3455 20.0644 35.0912 21.3412 35.0912 22.9211C35.0912 24.4917 36.3459 25.7672 37.9014 25.7672Z" fill="#3C0A6D" stroke="#3C0A6D" stroke-width="0.3"/>
<path d="M17.2041 39.6264C17.2134 39.6264 17.2216 39.6258 17.2274 39.6252L17.2415 39.6237L17.2473 39.623C17.2474 39.623 17.2475 39.623 17.2475 39.623C17.2475 39.623 17.2457 39.6232 17.2429 39.6232V39.4732V39.3232C17.2273 39.3232 17.2128 39.3248 17.2065 39.3255C17.2059 39.3255 17.2054 39.3256 17.2049 39.3256L17.1982 39.3263C17.1971 39.3264 17.1968 39.3264 17.1968 39.3264C17.1968 39.3264 17.1968 39.3264 17.1968 39.3264V39.4764V39.6264H17.1968H17.1968H17.1968H17.1969H17.1969H17.1969H17.1969H17.1969H17.1969H17.197H17.197H17.197H17.197H17.197H17.1971H17.1971H17.1971H17.1971H17.1971H17.1971H17.1972H17.1972H17.1972H17.1972H17.1972H17.1972H17.1973H17.1973H17.1973H17.1973H17.1973H17.1973H17.1974H17.1974H17.1974H17.1974H17.1974H17.1974H17.1975H17.1975H17.1975H17.1975H17.1975H17.1975H17.1976H17.1976H17.1976H17.1976H17.1976H17.1976H17.1977H17.1977H17.1977H17.1977H17.1977H17.1977H17.1977H17.1978H17.1978H17.1978H17.1978H17.1978H17.1978H17.1979H17.1979H17.1979H17.1979H17.1979H17.1979H17.1979H17.198H17.198H17.198H17.198H17.198H17.198H17.198H17.1981H17.1981H17.1981H17.1981H17.1981H17.1981H17.1981H17.1982H17.1982H17.1982H17.1982H17.1982H17.1982H17.1982H17.1983H17.1983H17.1983H17.1983H17.1983H17.1983H17.1983H17.1983H17.1984H17.1984H17.1984H17.1984H17.1984H17.1984H17.1984H17.1984H17.1985H17.1985H17.1985H17.1985H17.1985H17.1985H17.1985H17.1986H17.1986H17.1986H17.1986H17.1986H17.1986H17.1986H17.1986H17.1987H17.1987H17.1987H17.1987H17.1987H17.1987H17.1987H17.1987H17.1987H17.1988H17.1988H17.1988H17.1988H17.1988H17.1988H17.1988H17.1988H17.1989H17.1989H17.1989H17.1989H17.1989H17.1989H17.1989H17.1989H17.1989H17.199H17.199H17.199H17.199H17.199H17.199H17.199H17.199H17.1991H17.1991H17.1991H17.1991H17.1991H17.1991H17.1991H17.1991H17.1991H17.1992H17.1992H17.1992H17.1992H17.1992H17.1992H17.1992H17.1992H17.1992H17.1993H17.1993H17.1993H17.1993H17.1993H17.1993H17.1993H17.1993H17.1993H17.1994H17.1994H17.1994H17.1994H17.1994H17.1994H17.1994H17.1994H17.1994H17.1994H17.1995H17.1995H17.1995H17.1995H17.1995H17.1995H17.1995H17.1995H17.1995H17.1996H17.1996H17.1996H17.1996H17.1996H17.1996H17.1996H17.1996H17.1996H17.1997H17.1997H17.1997H17.1997H17.1997H17.1997H17.1997H17.1997H17.1997H17.1997H17.1998H17.1998H17.1998H17.1998H17.1998H17.1998H17.1998H17.1998H17.1998H17.1999H17.1999H17.1999H17.1999H17.1999H17.1999H17.1999H17.1999H17.1999H17.1999H17.2H17.2H17.2H17.2H17.2H17.2H17.2H17.2H17.2H17.2001H17.2001H17.2001H17.2001H17.2001H17.2001H17.2001H17.2001H17.2001H17.2001H17.2002H17.2002H17.2002H17.2002H17.2002H17.2002H17.2002H17.2002H17.2002H17.2003H17.2003H17.2003H17.2003H17.2003H17.2003H17.2003H17.2003H17.2003H17.2004H17.2004H17.2004H17.2004H17.2004H17.2004H17.2004H17.2004H17.2004H17.2005H17.2005H17.2005H17.2005H17.2005H17.2005H17.2005H17.2005H17.2005H17.2006H17.2006H17.2006H17.2006H17.2006H17.2006H17.2006H17.2006H17.2006H17.2007H17.2007H17.2007H17.2007H17.2007H17.2007H17.2007H17.2007H17.2007H17.2008H17.2008H17.2008H17.2008H17.2008H17.2008H17.2008H17.2008H17.2009H17.2009H17.2009H17.2009H17.2009H17.2009H17.2009H17.2009H17.201H17.201H17.201H17.201H17.201H17.201H17.201H17.201H17.2011H17.2011H17.2011H17.2011H17.2011H17.2011H17.2011H17.2011H17.2012H17.2012H17.2012H17.2012H17.2012H17.2012H17.2012H17.2012H17.2013H17.2013H17.2013H17.2013H17.2013H17.2013H17.2013H17.2014H17.2014H17.2014H17.2014H17.2014H17.2014H17.2014H17.2014H17.2015H17.2015H17.2015H17.2015H17.2015H17.2015H17.2015H17.2016H17.2016H17.2016H17.2016H17.2016H17.2016H17.2016H17.2017H17.2017H17.2017H17.2017H17.2017H17.2017H17.2017H17.2018H17.2018H17.2018H17.2018H17.2018H17.2018H17.2019H17.2019H17.2019H17.2019H17.2019H17.2019H17.2019H17.202H17.202H17.202H17.202H17.202H17.202H17.2021H17.2021H17.2021H17.2021H17.2021H17.2021H17.2021H17.2022H17.2022H17.2022H17.2022H17.2022H17.2022H17.2023H17.2023H17.2023H17.2023H17.2023H17.2023H17.2024H17.2024H17.2024H17.2024H17.2024H17.2025H17.2025H17.2025H17.2025H17.2025H17.2025H17.2026H17.2026H17.2026H17.2026H17.2026H17.2026H17.2027H17.2027H17.2027H17.2027H17.2027H17.2028H17.2028H17.2028H17.2028H17.2028H17.2029H17.2029H17.2029H17.2029H17.2029H17.2029H17.203H17.203H17.203H17.203H17.203H17.2031H17.2031H17.2031H17.2031H17.2031H17.2032H17.2032H17.2032H17.2032H17.2032H17.2033H17.2033H17.2033H17.2033H17.2033H17.2034H17.2034H17.2034H17.2034H17.2035H17.2035H17.2035H17.2035H17.2035H17.2036H17.2036H17.2036H17.2036H17.2037H17.2037H17.2037H17.2037H17.2037H17.2038H17.2038H17.2038H17.2038H17.2039H17.2039H17.2039H17.2039H17.2039H17.204H17.204H17.204H17.204H17.2041Z" fill="#3C0A6D" stroke="#3C0A6D" stroke-width="0.3"/>
<path d="M17.9965 38.8041L18.2604 38.9467C18.2606 38.9464 18.261 38.9456 18.2617 38.9446C18.2664 38.9369 18.2816 38.9118 18.2933 38.8828C18.3003 38.8682 18.3074 38.8523 18.3138 38.8357L18.0374 38.7195L18.0213 38.7546L18.0171 38.7638L18.0164 38.766C18.0134 38.7719 18.0101 38.7782 18.0064 38.7853C18.0034 38.791 18.0001 38.7972 17.9965 38.8041Z" fill="#3C0A6D" stroke="#3C0A6D" stroke-width="0.3"/>
<path d="M10.2985 25.7672C11.8485 25.7672 13.1047 24.4908 13.1047 22.9211C13.1047 21.3413 11.8489 20.0644 10.2985 20.0644C8.74358 20.0644 7.48672 21.341 7.48672 22.9211C7.48672 24.4918 8.74399 25.7672 10.2985 25.7672ZM10.2985 20.784C11.4498 20.784 12.3949 21.7411 12.3949 22.922C12.3949 24.0963 11.4505 25.0485 10.2985 25.0485C9.14074 25.0485 8.19733 24.0961 8.19733 22.922C8.19733 21.7414 9.14223 20.784 10.2985 20.784Z" fill="#3C0A6D" stroke="#3C0A6D" stroke-width="0.3"/>
<path d="M51.6971 25.7672C53.2506 25.7672 54.5113 24.4912 54.5113 22.9211C54.5113 21.3408 53.251 20.0644 51.6971 20.0644C50.1493 20.0644 48.8893 21.3411 48.8893 22.9211C48.8893 24.4918 50.1497 25.7672 51.6971 25.7672ZM51.6971 20.784C52.8541 20.784 53.7975 21.7405 53.7975 22.922C53.7975 24.0962 52.854 25.0485 51.6971 25.0485C50.5444 25.0485 49.6015 24.0964 49.6015 22.922C49.6023 21.7402 50.546 20.784 51.6971 20.784Z" fill="#3C0A6D" stroke="#3C0A6D" stroke-width="0.3"/>
<path d="M58.5515 39.623L58.5569 39.6237C58.5572 39.6237 58.5576 39.6237 58.558 39.6238C58.5642 39.6246 58.579 39.6264 58.5954 39.6264H58.5954H58.5954H58.5954H58.5954H58.5954H58.5955H58.5955H58.5955H58.5955H58.5955H58.5955H58.5955H58.5955H58.5955H58.5955H58.5956H58.5956H58.5956H58.5956H58.5956H58.5956H58.5956H58.5956H58.5956H58.5956H58.5957H58.5957H58.5957H58.5957H58.5957H58.5957H58.5957H58.5957H58.5957H58.5957H58.5958H58.5958H58.5958H58.5958H58.5958H58.5958H58.5958H58.5958H58.5958H58.5958H58.5959H58.5959H58.5959H58.5959H58.5959H58.5959H58.5959H58.5959H58.5959H58.5959H58.596H58.596H58.596H58.596H58.596H58.596H58.596H58.596H58.596H58.5961H58.5961H58.5961H58.5961H58.5961H58.5961H58.5961H58.5961H58.5961H58.5962H58.5962H58.5962H58.5962H58.5962H58.5962H58.5962H58.5962H58.5962H58.5963H58.5963H58.5963H58.5963H58.5963H58.5963H58.5963H58.5963H58.5963H58.5964H58.5964H58.5964H58.5964H58.5964H58.5964H58.5964H58.5964H58.5964H58.5965H58.5965H58.5965H58.5965H58.5965H58.5965H58.5965H58.5965H58.5965H58.5966H58.5966H58.5966H58.5966H58.5966H58.5966H58.5966H58.5966H58.5967H58.5967H58.5967H58.5967H58.5967H58.5967H58.5967H58.5967H58.5967H58.5968H58.5968H58.5968H58.5968H58.5968H58.5968H58.5968H58.5968H58.5969H58.5969H58.5969H58.5969H58.5969H58.5969H58.5969H58.5969H58.5969H58.597H58.597H58.597H58.597H58.597H58.597H58.597H58.597H58.5971H58.5971H58.5971H58.5971H58.5971H58.5971H58.5971H58.5971H58.5972H58.5972H58.5972H58.5972H58.5972H58.5972H58.5972H58.5972H58.5973H58.5973H58.5973H58.5973H58.5973H58.5973H58.5973H58.5973H58.5974H58.5974H58.5974H58.5974H58.5974H58.5974H58.5974H58.5974H58.5975H58.5975H58.5975H58.5975H58.5975H58.5975H58.5975H58.5976H58.5976H58.5976H58.5976H58.5976H58.5976H58.5976H58.5976H58.5977H58.5977H58.5977H58.5977H58.5977H58.5977H58.5977H58.5978H58.5978H58.5978H58.5978H58.5978H58.5978H58.5978H58.5978H58.5979H58.5979H58.5979H58.5979H58.5979H58.5979H58.5979H58.598H58.598H58.598H58.598H58.598H58.598H58.598H58.598H58.5981H58.5981H58.5981H58.5981H58.5981H58.5981H58.5981H58.5982H58.5982H58.5982H58.5982H58.5982H58.5982H58.5982H58.5983H58.5983H58.5983H58.5983H58.5983H58.5983H58.5983H58.5984H58.5984H58.5984H58.5984H58.5984H58.5984H58.5984H58.5985H58.5985H58.5985H58.5985H58.5985H58.5985H58.5985H58.5986H58.5986H58.5986H58.5986H58.5986H58.5986H58.5986H58.5987H58.5987H58.5987H58.5987H58.5987H58.5987H58.5987H58.5988H58.5988H58.5988H58.5988H58.5988H58.5988H58.5988H58.5989H58.5989H58.5989H58.5989H58.5989H58.5989H58.599H58.599H58.599H58.599H58.599H58.599H58.599H58.5991H58.5991H58.5991H58.5991H58.5991H58.5991H58.5991H58.5992H58.5992H58.5992H58.5992H58.5992H58.5992H58.5993H58.5993H58.5993H58.5993H58.5993H58.5993H58.5993H58.5994H58.5994H58.5994H58.5994H58.5994H58.5994H58.5995H58.5995H58.5995H58.5995H58.5995H58.5995H58.5995H58.5996H58.5996H58.5996H58.5996H58.5996H58.5996H58.5997H58.5997H58.5997H58.5997H58.5997H58.5997H58.5998H58.5998H58.5998H58.5998H58.5998H58.5998H58.5998H58.5999H58.5999H58.5999H58.5999H58.5999H58.5999H58.6H58.6H58.6H58.6H58.6H58.6H58.6001H58.6001H58.6001H58.6001H58.6001H58.6001H58.6002H58.6002H58.6002H58.6002H58.6002H58.6002H58.6003H58.6003H58.6003H58.6003H58.6003H58.6003H58.6004H58.6004H58.6004H58.6004H58.6004H58.6004H58.6005H58.6005H58.6005H58.6005H58.6005H58.6005H58.6006H58.6006H58.6006H58.6006H58.6006H58.6006H58.6007H58.6007H58.6007H58.6007H58.6007H58.6007H58.6008H58.6008H58.6008H58.6008H58.6008H58.6008H58.6009H58.6009H58.6009H58.6009H58.6009H58.6009H58.601H58.601H58.601H58.601H58.601H58.601H58.6011H58.6011H58.6011H58.6011H58.6011H58.6012H58.6012H58.6012H58.6012H58.6012H58.6012H58.6013H58.6013H58.6013H58.6013H58.6013H58.6013H58.6014H58.6014H58.6014H58.6014H58.6014H58.6015H58.6015H58.6015H58.6015H58.6015H58.6015H58.6016H58.6016H58.6016H58.6016H58.6016H58.6016H58.6017H58.6017H58.6017H58.6017H58.6017H58.6018H58.6018H58.6018H58.6018H58.6018H58.6018H58.6019H58.6019H58.6019H58.6019H58.6019H58.602H58.602H58.602H58.602H58.602H58.602H58.6021H58.6021H58.6021H58.6021H58.6021H58.6022H58.6022H58.6022H58.6022H58.6022H58.6022H58.6023H58.6023H58.6023H58.6023H58.6023H58.6024H58.6024H58.6024H58.6024H58.6024H58.6025H58.6025H58.6025H58.6025H58.6025H58.6025H58.6026H58.6026H58.6026H58.6026H58.6026H58.6027H58.6027H58.6027V39.4764V39.3264C58.6028 39.3264 58.603 39.3264 58.603 39.3264C58.603 39.3264 58.6016 39.3263 58.5953 39.3256C58.5949 39.3256 58.5946 39.3256 58.5942 39.3255C58.5868 39.3247 58.5724 39.3232 58.5557 39.3232V39.4732V39.6232C58.5555 39.6232 58.5554 39.6232 58.5554 39.6232C58.5554 39.6232 58.5554 39.6232 58.5555 39.6232C58.5532 39.6232 58.5518 39.623 58.5515 39.623ZM58.5515 39.623L58.5515 39.623L58.5515 39.623Z" fill="#3C0A6D" stroke="#3C0A6D" stroke-width="0.3"/>
<mask id="path-9-outside-1_577_235" maskUnits="userSpaceOnUse" x="1.34912" y="25.2793" width="73" height="32" fill="black">
<rect fill="white" x="1.34912" y="25.2793" width="73" height="32"/>
<path d="M73.3696 38.008C73.3696 38.008 68.8809 27.1511 68.8793 27.1502C68.7555 26.947 68.547 26.8131 68.3337 26.7462C68.3337 26.7462 66.7839 26.2817 65.4977 26.2817C64.2196 26.2817 62.665 26.7462 62.665 26.7462C62.4549 26.8131 62.1929 26.9943 62.1194 27.1511C62.1162 27.1511 59.9178 32.4795 58.6013 35.6711C58.6771 35.858 58.7546 36.0376 58.8241 36.2106C60.3475 32.5195 62.3559 27.6539 62.4893 27.338C62.5244 27.2923 62.6618 27.1853 62.7848 27.1486C62.7952 27.1445 64.2955 26.7005 65.4977 26.7005C66.7112 26.7005 68.2019 27.1445 68.2178 27.1502C68.3401 27.1886 68.4519 27.2621 68.5118 27.3502C68.7874 28.0106 72.9478 38.0668 72.9886 38.1696C73.118 38.4929 72.9646 38.87 72.6443 39.0063C72.57 39.0381 72.4917 39.0544 72.4094 39.0544C72.1482 39.0544 71.9189 38.9002 71.8247 38.6626L68.833 31.4217C68.7698 31.2625 68.6189 31.1637 68.4567 31.1637C68.4255 31.1637 68.3968 31.1678 68.3656 31.1727C68.1715 31.2184 68.0373 31.4013 68.0445 31.6029L68.3385 38.4006C68.3552 38.8496 68.4128 39.5319 68.4743 39.9523L70.8085 55.9451C70.8253 56.0496 70.7917 56.1149 70.7606 56.1557C70.7111 56.2137 70.6424 56.2488 70.5585 56.2512L69.0782 56.3271C69.0734 56.3304 69.0662 56.3304 69.0598 56.3304C68.8521 56.3304 68.654 56.1704 68.6157 55.9672L66.0921 42.9798C66.0529 42.8043 65.9587 42.3635 65.5672 42.3431C65.5601 42.3431 65.5545 42.3431 65.5481 42.3431C65.5393 42.3431 65.5321 42.3431 65.5241 42.3431C65.3332 42.3537 65.0903 42.4753 65.0049 42.9839L62.4765 55.9647C62.4397 56.1639 62.2344 56.3304 62.0339 56.3304C62.0235 56.3304 62.0195 56.3304 62.0148 56.3271L60.5337 56.2504C60.4498 56.2479 60.3787 56.2128 60.334 56.1565C60.3044 56.1173 60.2693 56.0488 60.2852 55.9492L62.6187 39.9515C62.685 39.4993 62.7433 38.8096 62.7657 38.4039L63.0501 31.3556C63.0573 31.1507 62.9222 30.9719 62.7281 30.9303C62.6994 30.9221 62.6666 30.9189 62.6395 30.9189C62.4765 30.9189 62.3247 31.0176 62.2592 31.1735L59.5111 37.8652C59.5271 37.9068 59.5407 37.9362 59.5503 37.9615C59.2435 37.222 55.0791 27.1519 55.0783 27.1478C54.9545 26.9486 54.7476 26.8123 54.5319 26.7462C54.5319 26.7462 52.9829 26.2801 51.6976 26.2801C50.4186 26.2801 48.8664 26.7462 48.8664 26.7462C48.6523 26.8123 48.3935 26.9935 48.3176 27.1519C48.3144 27.1519 46.116 32.4763 44.7995 35.667C43.483 32.4763 41.2853 27.1502 41.2805 27.1502C41.2086 26.9935 40.9474 26.8123 40.7341 26.7462C40.7341 26.7462 39.1827 26.2809 37.9014 26.2809C36.6184 26.2809 35.0679 26.7462 35.0679 26.7462C34.8538 26.8123 34.6453 26.9462 34.5222 27.1478C34.5214 27.1494 32.319 32.4779 31.0001 35.6686C29.6836 32.4779 27.4836 27.1511 27.4812 27.1511C27.4045 26.9927 27.1464 26.8115 26.9323 26.7454C26.9323 26.7454 25.3794 26.2793 24.0988 26.2793C22.8159 26.2793 21.2677 26.7454 21.2677 26.7454C21.0512 26.8115 20.8427 26.9478 20.7205 27.147C20.7197 27.1502 18.5148 32.4771 17.1951 35.6678C15.8802 32.4755 13.681 27.1486 13.677 27.1486C13.6027 26.9919 13.3423 26.8107 13.1314 26.7437C13.1314 26.7437 11.576 26.2793 10.2978 26.2793C9.01409 26.2793 7.46192 26.7437 7.46192 26.7437C7.25022 26.8107 7.04252 26.9445 6.9179 27.1478C6.9163 27.1486 2.42755 38.0056 2.42755 38.0056C2.20947 38.5467 2.4619 39.1646 2.98994 39.394C3.11856 39.4471 3.25436 39.474 3.38777 39.474C3.79918 39.474 4.18902 39.2275 4.35438 38.8136L7.3389 31.5808L7.04572 38.3778C7.03214 38.7981 6.97542 39.474 6.9163 39.8878L4.57886 55.8831C4.51655 56.2969 4.80654 56.6487 5.21794 56.6724L6.69902 56.7483C6.7126 56.7483 6.72458 56.7483 6.74135 56.7483C7.13918 56.7483 7.51065 56.4479 7.58894 56.0439L10.1101 43.0598C10.1517 42.8696 10.1972 42.7651 10.2507 42.7627C10.3042 42.7651 10.357 42.8696 10.3889 43.0598L12.9221 56.0439C12.99 56.4479 13.375 56.7483 13.7697 56.7483C13.7816 56.7483 13.7928 56.7483 13.8072 56.7483L15.2883 56.6724C15.6997 56.6495 15.9849 56.2969 15.9226 55.8831L13.5875 39.8895C13.5292 39.4756 13.4693 38.7998 13.4469 38.3794L13.1617 31.3368L16.2197 38.7802C16.1974 38.7214 16.1982 38.6569 16.1878 38.5973C16.2501 38.9369 16.4578 39.2487 16.7925 39.3956C16.9243 39.4487 17.0585 39.4756 17.1927 39.4756C17.3094 39.4756 17.4244 39.4511 17.5354 39.4111C17.5291 39.4136 17.5235 39.4193 17.5155 39.4217C17.5442 39.4136 17.5754 39.4071 17.6041 39.3964C17.6377 39.3826 17.6625 39.354 17.6936 39.3369C17.74 39.3124 17.7799 39.2838 17.8222 39.252C17.839 39.2381 17.8614 39.2316 17.8782 39.2144C17.8638 39.225 17.8478 39.2307 17.8358 39.2397C17.9716 39.1295 18.0875 38.9916 18.1562 38.8169L21.1423 31.5825L20.8491 38.3818C20.8347 38.8038 20.778 39.4756 20.7197 39.8895L18.3814 55.8831C18.3175 56.2969 18.6083 56.6504 19.0197 56.6724L20.5016 56.7483C20.5136 56.7483 20.5287 56.7532 20.5407 56.7532C20.9394 56.7532 21.3148 56.4479 21.3875 56.0439L23.9151 43.0598C23.9558 42.8696 23.9998 42.7676 24.0541 42.7643C24.1052 42.7676 24.1603 42.8696 24.1915 43.0598L26.7222 56.0439C26.7925 56.4479 27.1768 56.7532 27.5706 56.7532C27.5818 56.7532 27.597 56.7483 27.6098 56.7483L29.0908 56.6724C29.5007 56.6512 29.7874 56.2969 29.7243 55.8831L27.3885 39.8895C27.331 39.4756 27.2711 38.8038 27.2471 38.3818L26.9643 31.3368L30.0327 38.8055C30.0431 38.83 30.0591 38.8496 30.071 38.8749C30.1158 38.9647 30.1677 39.0471 30.2308 39.1189C30.2604 39.1524 30.2963 39.1801 30.3315 39.2095C30.3914 39.2618 30.4545 39.3083 30.524 39.3442C30.5496 39.3581 30.5671 39.3834 30.5967 39.3948C30.6151 39.403 30.6358 39.3997 30.6566 39.4071C30.7533 39.443 30.8547 39.4634 30.9578 39.4675C30.9689 39.4683 30.9801 39.4748 30.9937 39.4748C30.9961 39.4748 30.9977 39.474 31.0001 39.474C31.0017 39.474 31.0033 39.4748 31.0057 39.4748C31.0177 39.4748 31.0289 39.4683 31.04 39.4675C31.1455 39.4626 31.2453 39.4438 31.3436 39.4079C31.3644 39.4005 31.3859 39.403 31.4083 39.3948C31.4379 39.3818 31.457 39.3548 31.4858 39.3401C31.5529 39.3058 31.6104 39.2609 31.6687 39.2112C31.7047 39.1818 31.7398 39.154 31.7718 39.1206C31.8485 39.0348 31.9156 38.9353 31.9603 38.8234C31.9611 38.821 31.9643 38.8194 31.9659 38.8169L34.9456 31.5825L34.6517 38.3794C34.6373 38.8039 34.5806 39.4756 34.523 39.8895L32.1856 55.8831C32.1217 56.2969 32.4125 56.6528 32.8231 56.6724L34.3026 56.7483C34.3185 56.7483 34.3313 56.7483 34.3457 56.7483C34.7443 56.7483 35.1182 56.4479 35.1917 56.0439L37.7161 43.0598C37.7568 42.8696 37.8007 42.7651 37.8591 42.7643C37.9102 42.7651 37.9637 42.8696 37.9965 43.0598L40.5264 56.0439C40.5951 56.4479 40.981 56.7483 41.3732 56.7483C41.3868 56.7483 41.4004 56.7483 41.4123 56.7483L42.8926 56.6724C43.3048 56.6536 43.5916 56.2969 43.5277 55.8831L41.1951 39.8895C41.1343 39.4756 41.0744 38.8039 41.0521 38.3794L40.7685 31.3368L43.8377 38.8194C43.8864 38.932 43.9535 39.0308 44.0294 39.1173C44.0637 39.154 44.1029 39.1842 44.142 39.2169C44.1971 39.2642 44.2523 39.305 44.3138 39.3385C44.3441 39.354 44.3633 39.3818 44.3953 39.3948C44.4184 39.4038 44.4408 39.4005 44.4624 39.4079C44.559 39.4438 44.6573 39.4626 44.7611 39.4675C44.7731 39.4675 44.7851 39.4748 44.7979 39.4748C44.8003 39.4748 44.8019 39.474 44.8043 39.474C44.8067 39.474 44.8083 39.4748 44.8115 39.4748C44.8258 39.4748 44.8378 39.4675 44.8506 39.4675C44.9513 39.4617 45.0495 39.4438 45.143 39.4087C45.167 39.4005 45.1909 39.4038 45.2117 39.3948C45.2452 39.3809 45.2644 39.3524 45.2948 39.3369C45.3531 39.3058 45.4066 39.2658 45.4585 39.2218C45.5009 39.1859 45.5448 39.1516 45.5824 39.1108C45.6319 39.0528 45.671 38.9834 45.7078 38.9132C45.7301 38.8749 45.7573 38.8389 45.7733 38.7965L48.8385 31.3352L48.5565 38.3802C48.5333 38.8022 48.4734 39.474 48.4135 39.8878L46.0792 55.8815C46.0137 56.2953 46.3029 56.6487 46.7127 56.6708L48.1938 56.7467C48.2066 56.7467 48.221 56.7516 48.2329 56.7516C48.6252 56.7516 49.011 56.4463 49.0773 56.0423L51.6121 43.0581C51.6424 42.868 51.6976 42.7659 51.7487 42.7627C51.803 42.7659 51.8509 42.868 51.8885 43.0581L54.4145 56.0423C54.4888 56.4463 54.8634 56.7516 55.2628 56.7516C55.2748 56.7516 55.2884 56.7467 55.302 56.7467L56.7831 56.6708C57.1953 56.6495 57.4861 56.2953 57.4197 55.8815L55.0831 39.8878C55.0248 39.474 54.9681 38.8022 54.9521 38.3802L54.6589 31.5808L57.6434 38.8153C57.6442 38.8177 57.6466 38.8194 57.6474 38.8218C57.6546 38.8389 57.6642 38.8561 57.6722 38.8708C57.665 38.8561 57.657 38.8422 57.6506 38.8267C57.7209 38.9957 57.8344 39.1303 57.967 39.2381C57.955 39.2283 57.939 39.2226 57.9246 39.2128C57.9414 39.2291 57.9646 39.2365 57.9797 39.2503C58.0229 39.2814 58.0636 39.3107 58.11 39.3352C58.1419 39.3532 58.1651 39.3818 58.1994 39.3948C58.2266 39.4062 58.2593 39.412 58.2873 39.4201C58.2777 39.4177 58.2713 39.4103 58.2641 39.4079C58.3768 39.4487 58.4926 39.474 58.6108 39.474C58.7426 39.474 58.8785 39.4479 59.0111 39.394C59.3498 39.2454 59.5583 38.9296 59.6174 38.5826C59.607 38.6479 59.607 38.7149 59.5838 38.7769L62.6418 31.3352L62.3567 38.3778C62.3351 38.8022 62.2736 39.474 62.2153 39.8878L59.8818 55.8815C59.8171 56.2953 60.1039 56.6512 60.5129 56.6708L61.9956 56.7467C62.01 56.7467 62.0203 56.7467 62.0363 56.7467C62.4286 56.7467 62.8104 56.4463 62.8823 56.0423L65.4139 43.0581C65.4442 42.868 65.4969 42.7635 65.5513 42.761C65.604 42.7635 65.6511 42.868 65.6927 43.0581L68.217 56.0423C68.2921 56.4463 68.6636 56.7467 69.0638 56.7467C69.0782 56.7467 69.0902 56.7467 69.1054 56.7467L70.584 56.6708C70.997 56.652 71.287 56.2953 71.2239 55.8815L68.8873 39.8878C68.8282 39.474 68.769 38.8022 68.7563 38.3778L68.4631 31.5808L71.4476 38.8136C71.6106 39.2291 72.002 39.474 72.4158 39.474C72.5476 39.474 72.6834 39.4479 72.812 39.394C73.3329 39.1671 73.5885 38.5492 73.3696 38.008ZM16.1822 38.2521C16.1742 38.3019 16.155 38.3525 16.1542 38.4039C16.155 38.3516 16.175 38.301 16.1822 38.2521ZM16.2876 37.8643L13.5404 31.1744C13.4765 31.0184 13.3239 30.9197 13.1601 30.9197C13.1322 30.9197 13.1018 30.9229 13.0715 30.9311C12.8773 30.9736 12.7407 31.1523 12.7487 31.3564L13.0339 38.4047C13.0547 38.8104 13.1162 39.5009 13.1793 39.9523L15.5144 55.95C15.5311 56.0496 15.4976 56.1182 15.4656 56.1573C15.4193 56.2137 15.3498 56.2463 15.2643 56.2512L13.7848 56.3279C13.7792 56.3312 13.7729 56.3312 13.7681 56.3312C13.5644 56.3312 13.3582 56.1647 13.3223 55.9655L10.7939 42.9847C10.7085 42.4762 10.4656 42.3545 10.2747 42.3439C10.2659 42.3439 10.2603 42.3439 10.2499 42.3439C10.2427 42.3439 10.2379 42.3439 10.2299 42.3439C9.83851 42.3643 9.74504 42.8051 9.7059 42.9806L7.18232 55.968C7.14478 56.1712 6.94666 56.3312 6.74135 56.3312C6.73177 56.3312 6.72458 56.3312 6.71979 56.3279L5.23871 56.2512C5.15483 56.2463 5.08454 56.212 5.0374 56.1557C5.00465 56.1149 4.9735 56.0471 4.98947 55.9451L7.32372 39.9523C7.38523 39.5311 7.44275 38.8487 7.45952 38.4006L7.7511 31.6029C7.76069 31.4013 7.62648 31.2176 7.43236 31.1727C7.40121 31.1678 7.37245 31.1637 7.34129 31.1637C7.18152 31.1637 7.02814 31.2625 6.96503 31.4217L3.97493 38.6586C3.87667 38.9002 3.6482 39.0544 3.39017 39.0544C3.30629 39.0544 3.2264 39.0381 3.15531 39.0063C2.83177 38.87 2.67919 38.4929 2.8094 38.1696C2.85254 38.0668 7.00977 28.0106 7.28298 27.3502C7.34689 27.2621 7.45553 27.1886 7.58255 27.1502C7.59693 27.1445 9.08838 26.7005 10.2994 26.7005C11.5033 26.7005 13.0012 27.1445 13.0131 27.1486C13.1346 27.1862 13.2736 27.2931 13.3079 27.3404C13.4421 27.6539 15.4496 32.5187 16.9739 36.2098C16.6447 37.004 16.3939 37.6072 16.2876 37.8643ZM26.9643 30.9189C26.9331 30.9189 26.902 30.9197 26.8748 30.9287C26.6791 30.9727 26.5465 31.1507 26.5521 31.3556L26.8365 38.4039C26.8573 38.8096 26.9188 39.5001 26.9827 39.9515L29.3185 55.9476C29.3313 56.0512 29.2993 56.1173 29.2682 56.1565C29.2219 56.2112 29.1516 56.2479 29.0693 56.2504L27.5858 56.3271C27.5802 56.3271 27.5738 56.3271 27.569 56.3271C27.3653 56.3271 27.1608 56.1639 27.1241 55.9647L24.5965 42.9839C24.5094 42.4753 24.2674 42.3537 24.0773 42.3431C24.0701 42.3415 24.0597 42.3415 24.0533 42.3415C24.0485 42.3415 24.0373 42.3415 24.0317 42.3431C23.6427 42.3635 23.5468 42.8043 23.5085 42.9814L20.9833 55.9672C20.9465 56.1688 20.7492 56.3271 20.5407 56.3271C20.5343 56.3271 20.5287 56.3271 20.5224 56.3271L19.0405 56.2504C18.9582 56.2479 18.8863 56.2112 18.8408 56.1549C18.8088 56.1141 18.7769 56.0488 18.7912 55.9459L21.1271 39.9515C21.187 39.5303 21.2453 38.8479 21.2605 38.4023L21.5561 31.6021C21.5649 31.4005 21.4291 31.2168 21.2349 31.1719C21.207 31.167 21.175 31.1646 21.1439 31.1646C20.9833 31.1646 20.8291 31.2633 20.766 31.4192L17.7783 38.6618C17.6816 38.8993 17.4548 39.0536 17.1935 39.0536C17.1113 39.0536 17.029 39.0373 16.9547 39.0063C16.6351 38.8683 16.4826 38.492 16.6112 38.1688C16.6559 38.066 20.8123 28.0106 21.0879 27.3494C21.1495 27.2612 21.2597 27.1853 21.3835 27.1502C21.3995 27.1437 22.8894 26.6997 24.1012 26.6997C25.3067 26.6997 26.8037 27.1437 26.8141 27.1478C26.9387 27.1853 27.0769 27.2947 27.1105 27.3396C27.2463 27.6522 29.2514 32.5155 30.7772 36.2082C30.4505 37.0008 30.2005 37.604 30.095 37.8619L27.3454 31.1744C27.2767 31.0168 27.1249 30.9189 26.9643 30.9189ZM58.8481 39.0079C58.7714 39.0389 58.6899 39.0553 58.6076 39.0553C58.3464 39.0553 58.1195 38.901 58.0213 38.6635L55.0352 31.4209C54.9721 31.265 54.8187 31.1662 54.6549 31.1662C54.6262 31.1662 54.595 31.1686 54.5654 31.1735C54.3697 31.2192 54.2355 31.4021 54.2451 31.6037L54.5391 38.4023C54.5551 38.8487 54.6134 39.5311 54.6733 39.9515L57.0091 55.9459C57.0235 56.0488 56.99 56.1141 56.9588 56.1549C56.9141 56.2112 56.8422 56.2479 56.7591 56.2504L55.278 56.3271C55.2708 56.3271 55.2636 56.3271 55.2597 56.3271C55.0512 56.3271 54.853 56.1688 54.8155 55.9672L52.2911 42.9814C52.2528 42.8043 52.1569 42.3635 51.7663 42.3431C51.7615 42.3415 51.7503 42.3415 51.7455 42.3415C51.7359 42.3415 51.7287 42.3415 51.7207 42.3431C51.5322 42.3537 51.2894 42.4753 51.2031 42.9839L48.6731 55.9647C48.6388 56.1639 48.4319 56.3271 48.2305 56.3271C48.2234 56.3271 48.2186 56.3271 48.2114 56.3271L46.7319 56.2504C46.6488 56.2479 46.5793 56.2112 46.5322 56.1565C46.5018 56.1173 46.4699 56.0512 46.4827 55.9476L48.8177 39.9515C48.8832 39.4993 48.9415 38.8096 48.9647 38.4039L49.2491 31.3556C49.2563 31.1507 49.1213 30.9719 48.9263 30.9287C48.8976 30.9197 48.868 30.9189 48.8361 30.9189C48.6739 30.9189 48.5237 31.016 48.4574 31.1752L45.7086 37.8652C45.6023 37.608 45.3531 37.0032 45.0264 36.209C46.5514 32.5163 48.5565 27.653 48.6907 27.3404C48.7258 27.2947 48.8656 27.1862 48.9863 27.1486C48.9974 27.1445 50.4969 26.7005 51.6992 26.7005C52.9102 26.7005 54.4041 27.1445 54.4185 27.1511C54.5423 27.1862 54.6525 27.2621 54.7148 27.3502C54.9896 28.0114 59.1469 38.0668 59.1892 38.1696C59.3178 38.4937 59.1644 38.87 58.8481 39.0079ZM59.5679 38.008C59.6198 38.1378 59.643 38.2725 59.6438 38.4055C59.643 38.2725 59.6206 38.1378 59.5679 38.008Z"/>
</mask>
<path d="M73.3696 38.008C73.3696 38.008 68.8809 27.1511 68.8793 27.1502C68.7555 26.947 68.547 26.8131 68.3337 26.7462C68.3337 26.7462 66.7839 26.2817 65.4977 26.2817C64.2196 26.2817 62.665 26.7462 62.665 26.7462C62.4549 26.8131 62.1929 26.9943 62.1194 27.1511C62.1162 27.1511 59.9178 32.4795 58.6013 35.6711C58.6771 35.858 58.7546 36.0376 58.8241 36.2106C60.3475 32.5195 62.3559 27.6539 62.4893 27.338C62.5244 27.2923 62.6618 27.1853 62.7848 27.1486C62.7952 27.1445 64.2955 26.7005 65.4977 26.7005C66.7112 26.7005 68.2019 27.1445 68.2178 27.1502C68.3401 27.1886 68.4519 27.2621 68.5118 27.3502C68.7874 28.0106 72.9478 38.0668 72.9886 38.1696C73.118 38.4929 72.9646 38.87 72.6443 39.0063C72.57 39.0381 72.4917 39.0544 72.4094 39.0544C72.1482 39.0544 71.9189 38.9002 71.8247 38.6626L68.833 31.4217C68.7698 31.2625 68.6189 31.1637 68.4567 31.1637C68.4255 31.1637 68.3968 31.1678 68.3656 31.1727C68.1715 31.2184 68.0373 31.4013 68.0445 31.6029L68.3385 38.4006C68.3552 38.8496 68.4128 39.5319 68.4743 39.9523L70.8085 55.9451C70.8253 56.0496 70.7917 56.1149 70.7606 56.1557C70.7111 56.2137 70.6424 56.2488 70.5585 56.2512L69.0782 56.3271C69.0734 56.3304 69.0662 56.3304 69.0598 56.3304C68.8521 56.3304 68.654 56.1704 68.6157 55.9672L66.0921 42.9798C66.0529 42.8043 65.9587 42.3635 65.5672 42.3431C65.5601 42.3431 65.5545 42.3431 65.5481 42.3431C65.5393 42.3431 65.5321 42.3431 65.5241 42.3431C65.3332 42.3537 65.0903 42.4753 65.0049 42.9839L62.4765 55.9647C62.4397 56.1639 62.2344 56.3304 62.0339 56.3304C62.0235 56.3304 62.0195 56.3304 62.0148 56.3271L60.5337 56.2504C60.4498 56.2479 60.3787 56.2128 60.334 56.1565C60.3044 56.1173 60.2693 56.0488 60.2852 55.9492L62.6187 39.9515C62.685 39.4993 62.7433 38.8096 62.7657 38.4039L63.0501 31.3556C63.0573 31.1507 62.9222 30.9719 62.7281 30.9303C62.6994 30.9221 62.6666 30.9189 62.6395 30.9189C62.4765 30.9189 62.3247 31.0176 62.2592 31.1735L59.5111 37.8652C59.5271 37.9068 59.5407 37.9362 59.5503 37.9615C59.2435 37.222 55.0791 27.1519 55.0783 27.1478C54.9545 26.9486 54.7476 26.8123 54.5319 26.7462C54.5319 26.7462 52.9829 26.2801 51.6976 26.2801C50.4186 26.2801 48.8664 26.7462 48.8664 26.7462C48.6523 26.8123 48.3935 26.9935 48.3176 27.1519C48.3144 27.1519 46.116 32.4763 44.7995 35.667C43.483 32.4763 41.2853 27.1502 41.2805 27.1502C41.2086 26.9935 40.9474 26.8123 40.7341 26.7462C40.7341 26.7462 39.1827 26.2809 37.9014 26.2809C36.6184 26.2809 35.0679 26.7462 35.0679 26.7462C34.8538 26.8123 34.6453 26.9462 34.5222 27.1478C34.5214 27.1494 32.319 32.4779 31.0001 35.6686C29.6836 32.4779 27.4836 27.1511 27.4812 27.1511C27.4045 26.9927 27.1464 26.8115 26.9323 26.7454C26.9323 26.7454 25.3794 26.2793 24.0988 26.2793C22.8159 26.2793 21.2677 26.7454 21.2677 26.7454C21.0512 26.8115 20.8427 26.9478 20.7205 27.147C20.7197 27.1502 18.5148 32.4771 17.1951 35.6678C15.8802 32.4755 13.681 27.1486 13.677 27.1486C13.6027 26.9919 13.3423 26.8107 13.1314 26.7437C13.1314 26.7437 11.576 26.2793 10.2978 26.2793C9.01409 26.2793 7.46192 26.7437 7.46192 26.7437C7.25022 26.8107 7.04252 26.9445 6.9179 27.1478C6.9163 27.1486 2.42755 38.0056 2.42755 38.0056C2.20947 38.5467 2.4619 39.1646 2.98994 39.394C3.11856 39.4471 3.25436 39.474 3.38777 39.474C3.79918 39.474 4.18902 39.2275 4.35438 38.8136L7.3389 31.5808L7.04572 38.3778C7.03214 38.7981 6.97542 39.474 6.9163 39.8878L4.57886 55.8831C4.51655 56.2969 4.80654 56.6487 5.21794 56.6724L6.69902 56.7483C6.7126 56.7483 6.72458 56.7483 6.74135 56.7483C7.13918 56.7483 7.51065 56.4479 7.58894 56.0439L10.1101 43.0598C10.1517 42.8696 10.1972 42.7651 10.2507 42.7627C10.3042 42.7651 10.357 42.8696 10.3889 43.0598L12.9221 56.0439C12.99 56.4479 13.375 56.7483 13.7697 56.7483C13.7816 56.7483 13.7928 56.7483 13.8072 56.7483L15.2883 56.6724C15.6997 56.6495 15.9849 56.2969 15.9226 55.8831L13.5875 39.8895C13.5292 39.4756 13.4693 38.7998 13.4469 38.3794L13.1617 31.3368L16.2197 38.7802C16.1974 38.7214 16.1982 38.6569 16.1878 38.5973C16.2501 38.9369 16.4578 39.2487 16.7925 39.3956C16.9243 39.4487 17.0585 39.4756 17.1927 39.4756C17.3094 39.4756 17.4244 39.4511 17.5354 39.4111C17.5291 39.4136 17.5235 39.4193 17.5155 39.4217C17.5442 39.4136 17.5754 39.4071 17.6041 39.3964C17.6377 39.3826 17.6625 39.354 17.6936 39.3369C17.74 39.3124 17.7799 39.2838 17.8222 39.252C17.839 39.2381 17.8614 39.2316 17.8782 39.2144C17.8638 39.225 17.8478 39.2307 17.8358 39.2397C17.9716 39.1295 18.0875 38.9916 18.1562 38.8169L21.1423 31.5825L20.8491 38.3818C20.8347 38.8038 20.778 39.4756 20.7197 39.8895L18.3814 55.8831C18.3175 56.2969 18.6083 56.6504 19.0197 56.6724L20.5016 56.7483C20.5136 56.7483 20.5287 56.7532 20.5407 56.7532C20.9394 56.7532 21.3148 56.4479 21.3875 56.0439L23.9151 43.0598C23.9558 42.8696 23.9998 42.7676 24.0541 42.7643C24.1052 42.7676 24.1603 42.8696 24.1915 43.0598L26.7222 56.0439C26.7925 56.4479 27.1768 56.7532 27.5706 56.7532C27.5818 56.7532 27.597 56.7483 27.6098 56.7483L29.0908 56.6724C29.5007 56.6512 29.7874 56.2969 29.7243 55.8831L27.3885 39.8895C27.331 39.4756 27.2711 38.8038 27.2471 38.3818L26.9643 31.3368L30.0327 38.8055C30.0431 38.83 30.0591 38.8496 30.071 38.8749C30.1158 38.9647 30.1677 39.0471 30.2308 39.1189C30.2604 39.1524 30.2963 39.1801 30.3315 39.2095C30.3914 39.2618 30.4545 39.3083 30.524 39.3442C30.5496 39.3581 30.5671 39.3834 30.5967 39.3948C30.6151 39.403 30.6358 39.3997 30.6566 39.4071C30.7533 39.443 30.8547 39.4634 30.9578 39.4675C30.9689 39.4683 30.9801 39.4748 30.9937 39.4748C30.9961 39.4748 30.9977 39.474 31.0001 39.474C31.0017 39.474 31.0033 39.4748 31.0057 39.4748C31.0177 39.4748 31.0289 39.4683 31.04 39.4675C31.1455 39.4626 31.2453 39.4438 31.3436 39.4079C31.3644 39.4005 31.3859 39.403 31.4083 39.3948C31.4379 39.3818 31.457 39.3548 31.4858 39.3401C31.5529 39.3058 31.6104 39.2609 31.6687 39.2112C31.7047 39.1818 31.7398 39.154 31.7718 39.1206C31.8485 39.0348 31.9156 38.9353 31.9603 38.8234C31.9611 38.821 31.9643 38.8194 31.9659 38.8169L34.9456 31.5825L34.6517 38.3794C34.6373 38.8039 34.5806 39.4756 34.523 39.8895L32.1856 55.8831C32.1217 56.2969 32.4125 56.6528 32.8231 56.6724L34.3026 56.7483C34.3185 56.7483 34.3313 56.7483 34.3457 56.7483C34.7443 56.7483 35.1182 56.4479 35.1917 56.0439L37.7161 43.0598C37.7568 42.8696 37.8007 42.7651 37.8591 42.7643C37.9102 42.7651 37.9637 42.8696 37.9965 43.0598L40.5264 56.0439C40.5951 56.4479 40.981 56.7483 41.3732 56.7483C41.3868 56.7483 41.4004 56.7483 41.4123 56.7483L42.8926 56.6724C43.3048 56.6536 43.5916 56.2969 43.5277 55.8831L41.1951 39.8895C41.1343 39.4756 41.0744 38.8039 41.0521 38.3794L40.7685 31.3368L43.8377 38.8194C43.8864 38.932 43.9535 39.0308 44.0294 39.1173C44.0637 39.154 44.1029 39.1842 44.142 39.2169C44.1971 39.2642 44.2523 39.305 44.3138 39.3385C44.3441 39.354 44.3633 39.3818 44.3953 39.3948C44.4184 39.4038 44.4408 39.4005 44.4624 39.4079C44.559 39.4438 44.6573 39.4626 44.7611 39.4675C44.7731 39.4675 44.7851 39.4748 44.7979 39.4748C44.8003 39.4748 44.8019 39.474 44.8043 39.474C44.8067 39.474 44.8083 39.4748 44.8115 39.4748C44.8258 39.4748 44.8378 39.4675 44.8506 39.4675C44.9513 39.4617 45.0495 39.4438 45.143 39.4087C45.167 39.4005 45.1909 39.4038 45.2117 39.3948C45.2452 39.3809 45.2644 39.3524 45.2948 39.3369C45.3531 39.3058 45.4066 39.2658 45.4585 39.2218C45.5009 39.1859 45.5448 39.1516 45.5824 39.1108C45.6319 39.0528 45.671 38.9834 45.7078 38.9132C45.7301 38.8749 45.7573 38.8389 45.7733 38.7965L48.8385 31.3352L48.5565 38.3802C48.5333 38.8022 48.4734 39.474 48.4135 39.8878L46.0792 55.8815C46.0137 56.2953 46.3029 56.6487 46.7127 56.6708L48.1938 56.7467C48.2066 56.7467 48.221 56.7516 48.2329 56.7516C48.6252 56.7516 49.011 56.4463 49.0773 56.0423L51.6121 43.0581C51.6424 42.868 51.6976 42.7659 51.7487 42.7627C51.803 42.7659 51.8509 42.868 51.8885 43.0581L54.4145 56.0423C54.4888 56.4463 54.8634 56.7516 55.2628 56.7516C55.2748 56.7516 55.2884 56.7467 55.302 56.7467L56.7831 56.6708C57.1953 56.6495 57.4861 56.2953 57.4197 55.8815L55.0831 39.8878C55.0248 39.474 54.9681 38.8022 54.9521 38.3802L54.6589 31.5808L57.6434 38.8153C57.6442 38.8177 57.6466 38.8194 57.6474 38.8218C57.6546 38.8389 57.6642 38.8561 57.6722 38.8708C57.665 38.8561 57.657 38.8422 57.6506 38.8267C57.7209 38.9957 57.8344 39.1303 57.967 39.2381C57.955 39.2283 57.939 39.2226 57.9246 39.2128C57.9414 39.2291 57.9646 39.2365 57.9797 39.2503C58.0229 39.2814 58.0636 39.3107 58.11 39.3352C58.1419 39.3532 58.1651 39.3818 58.1994 39.3948C58.2266 39.4062 58.2593 39.412 58.2873 39.4201C58.2777 39.4177 58.2713 39.4103 58.2641 39.4079C58.3768 39.4487 58.4926 39.474 58.6108 39.474C58.7426 39.474 58.8785 39.4479 59.0111 39.394C59.3498 39.2454 59.5583 38.9296 59.6174 38.5826C59.607 38.6479 59.607 38.7149 59.5838 38.7769L62.6418 31.3352L62.3567 38.3778C62.3351 38.8022 62.2736 39.474 62.2153 39.8878L59.8818 55.8815C59.8171 56.2953 60.1039 56.6512 60.5129 56.6708L61.9956 56.7467C62.01 56.7467 62.0203 56.7467 62.0363 56.7467C62.4286 56.7467 62.8104 56.4463 62.8823 56.0423L65.4139 43.0581C65.4442 42.868 65.4969 42.7635 65.5513 42.761C65.604 42.7635 65.6511 42.868 65.6927 43.0581L68.217 56.0423C68.2921 56.4463 68.6636 56.7467 69.0638 56.7467C69.0782 56.7467 69.0902 56.7467 69.1054 56.7467L70.584 56.6708C70.997 56.652 71.287 56.2953 71.2239 55.8815L68.8873 39.8878C68.8282 39.474 68.769 38.8022 68.7563 38.3778L68.4631 31.5808L71.4476 38.8136C71.6106 39.2291 72.002 39.474 72.4158 39.474C72.5476 39.474 72.6834 39.4479 72.812 39.394C73.3329 39.1671 73.5885 38.5492 73.3696 38.008ZM16.1822 38.2521C16.1742 38.3019 16.155 38.3525 16.1542 38.4039C16.155 38.3516 16.175 38.301 16.1822 38.2521ZM16.2876 37.8643L13.5404 31.1744C13.4765 31.0184 13.3239 30.9197 13.1601 30.9197C13.1322 30.9197 13.1018 30.9229 13.0715 30.9311C12.8773 30.9736 12.7407 31.1523 12.7487 31.3564L13.0339 38.4047C13.0547 38.8104 13.1162 39.5009 13.1793 39.9523L15.5144 55.95C15.5311 56.0496 15.4976 56.1182 15.4656 56.1573C15.4193 56.2137 15.3498 56.2463 15.2643 56.2512L13.7848 56.3279C13.7792 56.3312 13.7729 56.3312 13.7681 56.3312C13.5644 56.3312 13.3582 56.1647 13.3223 55.9655L10.7939 42.9847C10.7085 42.4762 10.4656 42.3545 10.2747 42.3439C10.2659 42.3439 10.2603 42.3439 10.2499 42.3439C10.2427 42.3439 10.2379 42.3439 10.2299 42.3439C9.83851 42.3643 9.74504 42.8051 9.7059 42.9806L7.18232 55.968C7.14478 56.1712 6.94666 56.3312 6.74135 56.3312C6.73177 56.3312 6.72458 56.3312 6.71979 56.3279L5.23871 56.2512C5.15483 56.2463 5.08454 56.212 5.0374 56.1557C5.00465 56.1149 4.9735 56.0471 4.98947 55.9451L7.32372 39.9523C7.38523 39.5311 7.44275 38.8487 7.45952 38.4006L7.7511 31.6029C7.76069 31.4013 7.62648 31.2176 7.43236 31.1727C7.40121 31.1678 7.37245 31.1637 7.34129 31.1637C7.18152 31.1637 7.02814 31.2625 6.96503 31.4217L3.97493 38.6586C3.87667 38.9002 3.6482 39.0544 3.39017 39.0544C3.30629 39.0544 3.2264 39.0381 3.15531 39.0063C2.83177 38.87 2.67919 38.4929 2.8094 38.1696C2.85254 38.0668 7.00977 28.0106 7.28298 27.3502C7.34689 27.2621 7.45553 27.1886 7.58255 27.1502C7.59693 27.1445 9.08838 26.7005 10.2994 26.7005C11.5033 26.7005 13.0012 27.1445 13.0131 27.1486C13.1346 27.1862 13.2736 27.2931 13.3079 27.3404C13.4421 27.6539 15.4496 32.5187 16.9739 36.2098C16.6447 37.004 16.3939 37.6072 16.2876 37.8643ZM26.9643 30.9189C26.9331 30.9189 26.902 30.9197 26.8748 30.9287C26.6791 30.9727 26.5465 31.1507 26.5521 31.3556L26.8365 38.4039C26.8573 38.8096 26.9188 39.5001 26.9827 39.9515L29.3185 55.9476C29.3313 56.0512 29.2993 56.1173 29.2682 56.1565C29.2219 56.2112 29.1516 56.2479 29.0693 56.2504L27.5858 56.3271C27.5802 56.3271 27.5738 56.3271 27.569 56.3271C27.3653 56.3271 27.1608 56.1639 27.1241 55.9647L24.5965 42.9839C24.5094 42.4753 24.2674 42.3537 24.0773 42.3431C24.0701 42.3415 24.0597 42.3415 24.0533 42.3415C24.0485 42.3415 24.0373 42.3415 24.0317 42.3431C23.6427 42.3635 23.5468 42.8043 23.5085 42.9814L20.9833 55.9672C20.9465 56.1688 20.7492 56.3271 20.5407 56.3271C20.5343 56.3271 20.5287 56.3271 20.5224 56.3271L19.0405 56.2504C18.9582 56.2479 18.8863 56.2112 18.8408 56.1549C18.8088 56.1141 18.7769 56.0488 18.7912 55.9459L21.1271 39.9515C21.187 39.5303 21.2453 38.8479 21.2605 38.4023L21.5561 31.6021C21.5649 31.4005 21.4291 31.2168 21.2349 31.1719C21.207 31.167 21.175 31.1646 21.1439 31.1646C20.9833 31.1646 20.8291 31.2633 20.766 31.4192L17.7783 38.6618C17.6816 38.8993 17.4548 39.0536 17.1935 39.0536C17.1113 39.0536 17.029 39.0373 16.9547 39.0063C16.6351 38.8683 16.4826 38.492 16.6112 38.1688C16.6559 38.066 20.8123 28.0106 21.0879 27.3494C21.1495 27.2612 21.2597 27.1853 21.3835 27.1502C21.3995 27.1437 22.8894 26.6997 24.1012 26.6997C25.3067 26.6997 26.8037 27.1437 26.8141 27.1478C26.9387 27.1853 27.0769 27.2947 27.1105 27.3396C27.2463 27.6522 29.2514 32.5155 30.7772 36.2082C30.4505 37.0008 30.2005 37.604 30.095 37.8619L27.3454 31.1744C27.2767 31.0168 27.1249 30.9189 26.9643 30.9189ZM58.8481 39.0079C58.7714 39.0389 58.6899 39.0553 58.6076 39.0553C58.3464 39.0553 58.1195 38.901 58.0213 38.6635L55.0352 31.4209C54.9721 31.265 54.8187 31.1662 54.6549 31.1662C54.6262 31.1662 54.595 31.1686 54.5654 31.1735C54.3697 31.2192 54.2355 31.4021 54.2451 31.6037L54.5391 38.4023C54.5551 38.8487 54.6134 39.5311 54.6733 39.9515L57.0091 55.9459C57.0235 56.0488 56.99 56.1141 56.9588 56.1549C56.9141 56.2112 56.8422 56.2479 56.7591 56.2504L55.278 56.3271C55.2708 56.3271 55.2636 56.3271 55.2597 56.3271C55.0512 56.3271 54.853 56.1688 54.8155 55.9672L52.2911 42.9814C52.2528 42.8043 52.1569 42.3635 51.7663 42.3431C51.7615 42.3415 51.7503 42.3415 51.7455 42.3415C51.7359 42.3415 51.7287 42.3415 51.7207 42.3431C51.5322 42.3537 51.2894 42.4753 51.2031 42.9839L48.6731 55.9647C48.6388 56.1639 48.4319 56.3271 48.2305 56.3271C48.2234 56.3271 48.2186 56.3271 48.2114 56.3271L46.7319 56.2504C46.6488 56.2479 46.5793 56.2112 46.5322 56.1565C46.5018 56.1173 46.4699 56.0512 46.4827 55.9476L48.8177 39.9515C48.8832 39.4993 48.9415 38.8096 48.9647 38.4039L49.2491 31.3556C49.2563 31.1507 49.1213 30.9719 48.9263 30.9287C48.8976 30.9197 48.868 30.9189 48.8361 30.9189C48.6739 30.9189 48.5237 31.016 48.4574 31.1752L45.7086 37.8652C45.6023 37.608 45.3531 37.0032 45.0264 36.209C46.5514 32.5163 48.5565 27.653 48.6907 27.3404C48.7258 27.2947 48.8656 27.1862 48.9863 27.1486C48.9974 27.1445 50.4969 26.7005 51.6992 26.7005C52.9102 26.7005 54.4041 27.1445 54.4185 27.1511C54.5423 27.1862 54.6525 27.2621 54.7148 27.3502C54.9896 28.0114 59.1469 38.0668 59.1892 38.1696C59.3178 38.4937 59.1644 38.87 58.8481 39.0079ZM59.5679 38.008C59.6198 38.1378 59.643 38.2725 59.6438 38.4055C59.643 38.2725 59.6206 38.1378 59.5679 38.008Z" fill="#3C0A6D"/>
<path d="M73.3696 38.008C73.3696 38.008 68.8809 27.1511 68.8793 27.1502C68.7555 26.947 68.547 26.8131 68.3337 26.7462C68.3337 26.7462 66.7839 26.2817 65.4977 26.2817C64.2196 26.2817 62.665 26.7462 62.665 26.7462C62.4549 26.8131 62.1929 26.9943 62.1194 27.1511C62.1162 27.1511 59.9178 32.4795 58.6013 35.6711C58.6771 35.858 58.7546 36.0376 58.8241 36.2106C60.3475 32.5195 62.3559 27.6539 62.4893 27.338C62.5244 27.2923 62.6618 27.1853 62.7848 27.1486C62.7952 27.1445 64.2955 26.7005 65.4977 26.7005C66.7112 26.7005 68.2019 27.1445 68.2178 27.1502C68.3401 27.1886 68.4519 27.2621 68.5118 27.3502C68.7874 28.0106 72.9478 38.0668 72.9886 38.1696C73.118 38.4929 72.9646 38.87 72.6443 39.0063C72.57 39.0381 72.4917 39.0544 72.4094 39.0544C72.1482 39.0544 71.9189 38.9002 71.8247 38.6626L68.833 31.4217C68.7698 31.2625 68.6189 31.1637 68.4567 31.1637C68.4255 31.1637 68.3968 31.1678 68.3656 31.1727C68.1715 31.2184 68.0373 31.4013 68.0445 31.6029L68.3385 38.4006C68.3552 38.8496 68.4128 39.5319 68.4743 39.9523L70.8085 55.9451C70.8253 56.0496 70.7917 56.1149 70.7606 56.1557C70.7111 56.2137 70.6424 56.2488 70.5585 56.2512L69.0782 56.3271C69.0734 56.3304 69.0662 56.3304 69.0598 56.3304C68.8521 56.3304 68.654 56.1704 68.6157 55.9672L66.0921 42.9798C66.0529 42.8043 65.9587 42.3635 65.5672 42.3431C65.5601 42.3431 65.5545 42.3431 65.5481 42.3431C65.5393 42.3431 65.5321 42.3431 65.5241 42.3431C65.3332 42.3537 65.0903 42.4753 65.0049 42.9839L62.4765 55.9647C62.4397 56.1639 62.2344 56.3304 62.0339 56.3304C62.0235 56.3304 62.0195 56.3304 62.0148 56.3271L60.5337 56.2504C60.4498 56.2479 60.3787 56.2128 60.334 56.1565C60.3044 56.1173 60.2693 56.0488 60.2852 55.9492L62.6187 39.9515C62.685 39.4993 62.7433 38.8096 62.7657 38.4039L63.0501 31.3556C63.0573 31.1507 62.9222 30.9719 62.7281 30.9303C62.6994 30.9221 62.6666 30.9189 62.6395 30.9189C62.4765 30.9189 62.3247 31.0176 62.2592 31.1735L59.5111 37.8652C59.5271 37.9068 59.5407 37.9362 59.5503 37.9615C59.2435 37.222 55.0791 27.1519 55.0783 27.1478C54.9545 26.9486 54.7476 26.8123 54.5319 26.7462C54.5319 26.7462 52.9829 26.2801 51.6976 26.2801C50.4186 26.2801 48.8664 26.7462 48.8664 26.7462C48.6523 26.8123 48.3935 26.9935 48.3176 27.1519C48.3144 27.1519 46.116 32.4763 44.7995 35.667C43.483 32.4763 41.2853 27.1502 41.2805 27.1502C41.2086 26.9935 40.9474 26.8123 40.7341 26.7462C40.7341 26.7462 39.1827 26.2809 37.9014 26.2809C36.6184 26.2809 35.0679 26.7462 35.0679 26.7462C34.8538 26.8123 34.6453 26.9462 34.5222 27.1478C34.5214 27.1494 32.319 32.4779 31.0001 35.6686C29.6836 32.4779 27.4836 27.1511 27.4812 27.1511C27.4045 26.9927 27.1464 26.8115 26.9323 26.7454C26.9323 26.7454 25.3794 26.2793 24.0988 26.2793C22.8159 26.2793 21.2677 26.7454 21.2677 26.7454C21.0512 26.8115 20.8427 26.9478 20.7205 27.147C20.7197 27.1502 18.5148 32.4771 17.1951 35.6678C15.8802 32.4755 13.681 27.1486 13.677 27.1486C13.6027 26.9919 13.3423 26.8107 13.1314 26.7437C13.1314 26.7437 11.576 26.2793 10.2978 26.2793C9.01409 26.2793 7.46192 26.7437 7.46192 26.7437C7.25022 26.8107 7.04252 26.9445 6.9179 27.1478C6.9163 27.1486 2.42755 38.0056 2.42755 38.0056C2.20947 38.5467 2.4619 39.1646 2.98994 39.394C3.11856 39.4471 3.25436 39.474 3.38777 39.474C3.79918 39.474 4.18902 39.2275 4.35438 38.8136L7.3389 31.5808L7.04572 38.3778C7.03214 38.7981 6.97542 39.474 6.9163 39.8878L4.57886 55.8831C4.51655 56.2969 4.80654 56.6487 5.21794 56.6724L6.69902 56.7483C6.7126 56.7483 6.72458 56.7483 6.74135 56.7483C7.13918 56.7483 7.51065 56.4479 7.58894 56.0439L10.1101 43.0598C10.1517 42.8696 10.1972 42.7651 10.2507 42.7627C10.3042 42.7651 10.357 42.8696 10.3889 43.0598L12.9221 56.0439C12.99 56.4479 13.375 56.7483 13.7697 56.7483C13.7816 56.7483 13.7928 56.7483 13.8072 56.7483L15.2883 56.6724C15.6997 56.6495 15.9849 56.2969 15.9226 55.8831L13.5875 39.8895C13.5292 39.4756 13.4693 38.7998 13.4469 38.3794L13.1617 31.3368L16.2197 38.7802C16.1974 38.7214 16.1982 38.6569 16.1878 38.5973C16.2501 38.9369 16.4578 39.2487 16.7925 39.3956C16.9243 39.4487 17.0585 39.4756 17.1927 39.4756C17.3094 39.4756 17.4244 39.4511 17.5354 39.4111C17.5291 39.4136 17.5235 39.4193 17.5155 39.4217C17.5442 39.4136 17.5754 39.4071 17.6041 39.3964C17.6377 39.3826 17.6625 39.354 17.6936 39.3369C17.74 39.3124 17.7799 39.2838 17.8222 39.252C17.839 39.2381 17.8614 39.2316 17.8782 39.2144C17.8638 39.225 17.8478 39.2307 17.8358 39.2397C17.9716 39.1295 18.0875 38.9916 18.1562 38.8169L21.1423 31.5825L20.8491 38.3818C20.8347 38.8038 20.778 39.4756 20.7197 39.8895L18.3814 55.8831C18.3175 56.2969 18.6083 56.6504 19.0197 56.6724L20.5016 56.7483C20.5136 56.7483 20.5287 56.7532 20.5407 56.7532C20.9394 56.7532 21.3148 56.4479 21.3875 56.0439L23.9151 43.0598C23.9558 42.8696 23.9998 42.7676 24.0541 42.7643C24.1052 42.7676 24.1603 42.8696 24.1915 43.0598L26.7222 56.0439C26.7925 56.4479 27.1768 56.7532 27.5706 56.7532C27.5818 56.7532 27.597 56.7483 27.6098 56.7483L29.0908 56.6724C29.5007 56.6512 29.7874 56.2969 29.7243 55.8831L27.3885 39.8895C27.331 39.4756 27.2711 38.8038 27.2471 38.3818L26.9643 31.3368L30.0327 38.8055C30.0431 38.83 30.0591 38.8496 30.071 38.8749C30.1158 38.9647 30.1677 39.0471 30.2308 39.1189C30.2604 39.1524 30.2963 39.1801 30.3315 39.2095C30.3914 39.2618 30.4545 39.3083 30.524 39.3442C30.5496 39.3581 30.5671 39.3834 30.5967 39.3948C30.6151 39.403 30.6358 39.3997 30.6566 39.4071C30.7533 39.443 30.8547 39.4634 30.9578 39.4675C30.9689 39.4683 30.9801 39.4748 30.9937 39.4748C30.9961 39.4748 30.9977 39.474 31.0001 39.474C31.0017 39.474 31.0033 39.4748 31.0057 39.4748C31.0177 39.4748 31.0289 39.4683 31.04 39.4675C31.1455 39.4626 31.2453 39.4438 31.3436 39.4079C31.3644 39.4005 31.3859 39.403 31.4083 39.3948C31.4379 39.3818 31.457 39.3548 31.4858 39.3401C31.5529 39.3058 31.6104 39.2609 31.6687 39.2112C31.7047 39.1818 31.7398 39.154 31.7718 39.1206C31.8485 39.0348 31.9156 38.9353 31.9603 38.8234C31.9611 38.821 31.9643 38.8194 31.9659 38.8169L34.9456 31.5825L34.6517 38.3794C34.6373 38.8039 34.5806 39.4756 34.523 39.8895L32.1856 55.8831C32.1217 56.2969 32.4125 56.6528 32.8231 56.6724L34.3026 56.7483C34.3185 56.7483 34.3313 56.7483 34.3457 56.7483C34.7443 56.7483 35.1182 56.4479 35.1917 56.0439L37.7161 43.0598C37.7568 42.8696 37.8007 42.7651 37.8591 42.7643C37.9102 42.7651 37.9637 42.8696 37.9965 43.0598L40.5264 56.0439C40.5951 56.4479 40.981 56.7483 41.3732 56.7483C41.3868 56.7483 41.4004 56.7483 41.4123 56.7483L42.8926 56.6724C43.3048 56.6536 43.5916 56.2969 43.5277 55.8831L41.1951 39.8895C41.1343 39.4756 41.0744 38.8039 41.0521 38.3794L40.7685 31.3368L43.8377 38.8194C43.8864 38.932 43.9535 39.0308 44.0294 39.1173C44.0637 39.154 44.1029 39.1842 44.142 39.2169C44.1971 39.2642 44.2523 39.305 44.3138 39.3385C44.3441 39.354 44.3633 39.3818 44.3953 39.3948C44.4184 39.4038 44.4408 39.4005 44.4624 39.4079C44.559 39.4438 44.6573 39.4626 44.7611 39.4675C44.7731 39.4675 44.7851 39.4748 44.7979 39.4748C44.8003 39.4748 44.8019 39.474 44.8043 39.474C44.8067 39.474 44.8083 39.4748 44.8115 39.4748C44.8258 39.4748 44.8378 39.4675 44.8506 39.4675C44.9513 39.4617 45.0495 39.4438 45.143 39.4087C45.167 39.4005 45.1909 39.4038 45.2117 39.3948C45.2452 39.3809 45.2644 39.3524 45.2948 39.3369C45.3531 39.3058 45.4066 39.2658 45.4585 39.2218C45.5009 39.1859 45.5448 39.1516 45.5824 39.1108C45.6319 39.0528 45.671 38.9834 45.7078 38.9132C45.7301 38.8749 45.7573 38.8389 45.7733 38.7965L48.8385 31.3352L48.5565 38.3802C48.5333 38.8022 48.4734 39.474 48.4135 39.8878L46.0792 55.8815C46.0137 56.2953 46.3029 56.6487 46.7127 56.6708L48.1938 56.7467C48.2066 56.7467 48.221 56.7516 48.2329 56.7516C48.6252 56.7516 49.011 56.4463 49.0773 56.0423L51.6121 43.0581C51.6424 42.868 51.6976 42.7659 51.7487 42.7627C51.803 42.7659 51.8509 42.868 51.8885 43.0581L54.4145 56.0423C54.4888 56.4463 54.8634 56.7516 55.2628 56.7516C55.2748 56.7516 55.2884 56.7467 55.302 56.7467L56.7831 56.6708C57.1953 56.6495 57.4861 56.2953 57.4197 55.8815L55.0831 39.8878C55.0248 39.474 54.9681 38.8022 54.9521 38.3802L54.6589 31.5808L57.6434 38.8153C57.6442 38.8177 57.6466 38.8194 57.6474 38.8218C57.6546 38.8389 57.6642 38.8561 57.6722 38.8708C57.665 38.8561 57.657 38.8422 57.6506 38.8267C57.7209 38.9957 57.8344 39.1303 57.967 39.2381C57.955 39.2283 57.939 39.2226 57.9246 39.2128C57.9414 39.2291 57.9646 39.2365 57.9797 39.2503C58.0229 39.2814 58.0636 39.3107 58.11 39.3352C58.1419 39.3532 58.1651 39.3818 58.1994 39.3948C58.2266 39.4062 58.2593 39.412 58.2873 39.4201C58.2777 39.4177 58.2713 39.4103 58.2641 39.4079C58.3768 39.4487 58.4926 39.474 58.6108 39.474C58.7426 39.474 58.8785 39.4479 59.0111 39.394C59.3498 39.2454 59.5583 38.9296 59.6174 38.5826C59.607 38.6479 59.607 38.7149 59.5838 38.7769L62.6418 31.3352L62.3567 38.3778C62.3351 38.8022 62.2736 39.474 62.2153 39.8878L59.8818 55.8815C59.8171 56.2953 60.1039 56.6512 60.5129 56.6708L61.9956 56.7467C62.01 56.7467 62.0203 56.7467 62.0363 56.7467C62.4286 56.7467 62.8104 56.4463 62.8823 56.0423L65.4139 43.0581C65.4442 42.868 65.4969 42.7635 65.5513 42.761C65.604 42.7635 65.6511 42.868 65.6927 43.0581L68.217 56.0423C68.2921 56.4463 68.6636 56.7467 69.0638 56.7467C69.0782 56.7467 69.0902 56.7467 69.1054 56.7467L70.584 56.6708C70.997 56.652 71.287 56.2953 71.2239 55.8815L68.8873 39.8878C68.8282 39.474 68.769 38.8022 68.7563 38.3778L68.4631 31.5808L71.4476 38.8136C71.6106 39.2291 72.002 39.474 72.4158 39.474C72.5476 39.474 72.6834 39.4479 72.812 39.394C73.3329 39.1671 73.5885 38.5492 73.3696 38.008ZM16.1822 38.2521C16.1742 38.3019 16.155 38.3525 16.1542 38.4039C16.155 38.3516 16.175 38.301 16.1822 38.2521ZM16.2876 37.8643L13.5404 31.1744C13.4765 31.0184 13.3239 30.9197 13.1601 30.9197C13.1322 30.9197 13.1018 30.9229 13.0715 30.9311C12.8773 30.9736 12.7407 31.1523 12.7487 31.3564L13.0339 38.4047C13.0547 38.8104 13.1162 39.5009 13.1793 39.9523L15.5144 55.95C15.5311 56.0496 15.4976 56.1182 15.4656 56.1573C15.4193 56.2137 15.3498 56.2463 15.2643 56.2512L13.7848 56.3279C13.7792 56.3312 13.7729 56.3312 13.7681 56.3312C13.5644 56.3312 13.3582 56.1647 13.3223 55.9655L10.7939 42.9847C10.7085 42.4762 10.4656 42.3545 10.2747 42.3439C10.2659 42.3439 10.2603 42.3439 10.2499 42.3439C10.2427 42.3439 10.2379 42.3439 10.2299 42.3439C9.83851 42.3643 9.74504 42.8051 9.7059 42.9806L7.18232 55.968C7.14478 56.1712 6.94666 56.3312 6.74135 56.3312C6.73177 56.3312 6.72458 56.3312 6.71979 56.3279L5.23871 56.2512C5.15483 56.2463 5.08454 56.212 5.0374 56.1557C5.00465 56.1149 4.9735 56.0471 4.98947 55.9451L7.32372 39.9523C7.38523 39.5311 7.44275 38.8487 7.45952 38.4006L7.7511 31.6029C7.76069 31.4013 7.62648 31.2176 7.43236 31.1727C7.40121 31.1678 7.37245 31.1637 7.34129 31.1637C7.18152 31.1637 7.02814 31.2625 6.96503 31.4217L3.97493 38.6586C3.87667 38.9002 3.6482 39.0544 3.39017 39.0544C3.30629 39.0544 3.2264 39.0381 3.15531 39.0063C2.83177 38.87 2.67919 38.4929 2.8094 38.1696C2.85254 38.0668 7.00977 28.0106 7.28298 27.3502C7.34689 27.2621 7.45553 27.1886 7.58255 27.1502C7.59693 27.1445 9.08838 26.7005 10.2994 26.7005C11.5033 26.7005 13.0012 27.1445 13.0131 27.1486C13.1346 27.1862 13.2736 27.2931 13.3079 27.3404C13.4421 27.6539 15.4496 32.5187 16.9739 36.2098C16.6447 37.004 16.3939 37.6072 16.2876 37.8643ZM26.9643 30.9189C26.9331 30.9189 26.902 30.9197 26.8748 30.9287C26.6791 30.9727 26.5465 31.1507 26.5521 31.3556L26.8365 38.4039C26.8573 38.8096 26.9188 39.5001 26.9827 39.9515L29.3185 55.9476C29.3313 56.0512 29.2993 56.1173 29.2682 56.1565C29.2219 56.2112 29.1516 56.2479 29.0693 56.2504L27.5858 56.3271C27.5802 56.3271 27.5738 56.3271 27.569 56.3271C27.3653 56.3271 27.1608 56.1639 27.1241 55.9647L24.5965 42.9839C24.5094 42.4753 24.2674 42.3537 24.0773 42.3431C24.0701 42.3415 24.0597 42.3415 24.0533 42.3415C24.0485 42.3415 24.0373 42.3415 24.0317 42.3431C23.6427 42.3635 23.5468 42.8043 23.5085 42.9814L20.9833 55.9672C20.9465 56.1688 20.7492 56.3271 20.5407 56.3271C20.5343 56.3271 20.5287 56.3271 20.5224 56.3271L19.0405 56.2504C18.9582 56.2479 18.8863 56.2112 18.8408 56.1549C18.8088 56.1141 18.7769 56.0488 18.7912 55.9459L21.1271 39.9515C21.187 39.5303 21.2453 38.8479 21.2605 38.4023L21.5561 31.6021C21.5649 31.4005 21.4291 31.2168 21.2349 31.1719C21.207 31.167 21.175 31.1646 21.1439 31.1646C20.9833 31.1646 20.8291 31.2633 20.766 31.4192L17.7783 38.6618C17.6816 38.8993 17.4548 39.0536 17.1935 39.0536C17.1113 39.0536 17.029 39.0373 16.9547 39.0063C16.6351 38.8683 16.4826 38.492 16.6112 38.1688C16.6559 38.066 20.8123 28.0106 21.0879 27.3494C21.1495 27.2612 21.2597 27.1853 21.3835 27.1502C21.3995 27.1437 22.8894 26.6997 24.1012 26.6997C25.3067 26.6997 26.8037 27.1437 26.8141 27.1478C26.9387 27.1853 27.0769 27.2947 27.1105 27.3396C27.2463 27.6522 29.2514 32.5155 30.7772 36.2082C30.4505 37.0008 30.2005 37.604 30.095 37.8619L27.3454 31.1744C27.2767 31.0168 27.1249 30.9189 26.9643 30.9189ZM58.8481 39.0079C58.7714 39.0389 58.6899 39.0553 58.6076 39.0553C58.3464 39.0553 58.1195 38.901 58.0213 38.6635L55.0352 31.4209C54.9721 31.265 54.8187 31.1662 54.6549 31.1662C54.6262 31.1662 54.595 31.1686 54.5654 31.1735C54.3697 31.2192 54.2355 31.4021 54.2451 31.6037L54.5391 38.4023C54.5551 38.8487 54.6134 39.5311 54.6733 39.9515L57.0091 55.9459C57.0235 56.0488 56.99 56.1141 56.9588 56.1549C56.9141 56.2112 56.8422 56.2479 56.7591 56.2504L55.278 56.3271C55.2708 56.3271 55.2636 56.3271 55.2597 56.3271C55.0512 56.3271 54.853 56.1688 54.8155 55.9672L52.2911 42.9814C52.2528 42.8043 52.1569 42.3635 51.7663 42.3431C51.7615 42.3415 51.7503 42.3415 51.7455 42.3415C51.7359 42.3415 51.7287 42.3415 51.7207 42.3431C51.5322 42.3537 51.2894 42.4753 51.2031 42.9839L48.6731 55.9647C48.6388 56.1639 48.4319 56.3271 48.2305 56.3271C48.2234 56.3271 48.2186 56.3271 48.2114 56.3271L46.7319 56.2504C46.6488 56.2479 46.5793 56.2112 46.5322 56.1565C46.5018 56.1173 46.4699 56.0512 46.4827 55.9476L48.8177 39.9515C48.8832 39.4993 48.9415 38.8096 48.9647 38.4039L49.2491 31.3556C49.2563 31.1507 49.1213 30.9719 48.9263 30.9287C48.8976 30.9197 48.868 30.9189 48.8361 30.9189C48.6739 30.9189 48.5237 31.016 48.4574 31.1752L45.7086 37.8652C45.6023 37.608 45.3531 37.0032 45.0264 36.209C46.5514 32.5163 48.5565 27.653 48.6907 27.3404C48.7258 27.2947 48.8656 27.1862 48.9863 27.1486C48.9974 27.1445 50.4969 26.7005 51.6992 26.7005C52.9102 26.7005 54.4041 27.1445 54.4185 27.1511C54.5423 27.1862 54.6525 27.2621 54.7148 27.3502C54.9896 28.0114 59.1469 38.0668 59.1892 38.1696C59.3178 38.4937 59.1644 38.87 58.8481 39.0079ZM59.5679 38.008C59.6198 38.1378 59.643 38.2725 59.6438 38.4055C59.643 38.2725 59.6206 38.1378 59.5679 38.008Z" stroke="#3C0A6D" stroke-width="0.6" mask="url(#path-9-outside-1_577_235)"/>
<path d="M65.4985 25.7672C67.0539 25.7672 68.3103 24.491 68.3103 22.9211C68.3103 21.3411 67.0543 20.0644 65.4985 20.0644C63.9499 20.0644 62.6916 21.3412 62.6916 22.9211C62.6916 24.4917 63.9503 25.7672 65.4985 25.7672ZM65.4985 20.784C66.6565 20.784 67.6013 21.7414 67.6013 22.922C67.6013 24.096 66.6564 25.0485 65.4985 25.0485C64.3459 25.0485 63.4038 24.0965 63.4038 22.922C63.4038 21.741 64.3466 20.784 65.4985 20.784Z" fill="#3C0A6D" stroke="#3C0A6D" stroke-width="0.3"/>
</g>
</svg>
