<svg width="76" height="76" viewBox="0 0 76 76" fill="none" xmlns="http://www.w3.org/2000/svg">
<mask id="mask0_576_219" style="mask-type:alpha" maskUnits="userSpaceOnUse" x="0" y="0" width="76" height="76">
<rect x="0.398438" y="0.859375" width="75" height="75" fill="#D9D9D9"/>
</mask>
<g mask="url(#mask0_576_219)">
<path d="M22.1643 22.9557L22.1643 22.9556C22.1636 21.787 23.0975 20.841 24.2395 20.841C25.3797 20.841 26.313 21.7869 26.313 22.9557C26.313 24.1173 25.3797 25.0591 24.2395 25.0591C23.0969 25.0591 22.1643 24.1173 22.1643 22.9557ZM24.2395 25.7736C25.7743 25.7736 27.0219 24.5096 27.0219 22.9549C27.0219 21.39 25.7747 20.1257 24.2395 20.1257C22.7011 20.1257 21.4547 21.39 21.4547 22.9549C21.4547 24.5105 22.7015 25.7736 24.2395 25.7736Z" fill="#3C0A6D" stroke="#3C0A6D" stroke-width="0.3"/>
<path d="M37.9011 25.7736C39.4376 25.7736 40.6835 24.5096 40.6835 22.9549C40.6835 21.3901 39.438 20.1257 37.9011 20.1257C36.3602 20.1257 35.1179 21.3902 35.1179 22.9549C35.1179 24.5103 36.3606 25.7736 37.9011 25.7736Z" fill="#3C0A6D" stroke="#3C0A6D" stroke-width="0.3"/>
<path d="M17.4564 39.4888C17.4561 39.4888 17.4551 39.4889 17.4537 39.4889C17.4538 39.4889 17.4538 39.4889 17.4538 39.4889C17.4538 39.4889 17.4529 39.4889 17.4518 39.4889V39.3389V39.1889C17.4364 39.1889 17.422 39.1905 17.4158 39.1912C17.4153 39.1913 17.4148 39.1913 17.4143 39.1914C17.4086 39.192 17.4071 39.1921 17.4068 39.1921H17.4068H17.4068H17.4067C17.4067 39.1921 17.4067 39.1921 17.4067 39.1921V39.3421V39.4921H17.4068H17.4068H17.4068H17.4068H17.4068H17.4068H17.4069H17.4069H17.4069H17.4069H17.4069H17.407H17.407H17.407H17.407H17.407H17.407H17.4071H17.4071H17.4071H17.4071H17.4071H17.4071H17.4072H17.4072H17.4072H17.4072H17.4072H17.4072H17.4073H17.4073H17.4073H17.4073H17.4073H17.4073H17.4074H17.4074H17.4074H17.4074H17.4074H17.4074H17.4075H17.4075H17.4075H17.4075H17.4075H17.4075H17.4076H17.4076H17.4076H17.4076H17.4076H17.4076H17.4076H17.4077H17.4077H17.4077H17.4077H17.4077H17.4077H17.4077H17.4078H17.4078H17.4078H17.4078H17.4078H17.4078H17.4078H17.4079H17.4079H17.4079H17.4079H17.4079H17.4079H17.4079H17.408H17.408H17.408H17.408H17.408H17.408H17.408H17.4081H17.4081H17.4081H17.4081H17.4081H17.4081H17.4081H17.4082H17.4082H17.4082H17.4082H17.4082H17.4082H17.4082H17.4082H17.4083H17.4083H17.4083H17.4083H17.4083H17.4083H17.4083H17.4083H17.4084H17.4084H17.4084H17.4084H17.4084H17.4084H17.4084H17.4084H17.4085H17.4085H17.4085H17.4085H17.4085H17.4085H17.4085H17.4085H17.4086H17.4086H17.4086H17.4086H17.4086H17.4086H17.4086H17.4086H17.4087H17.4087H17.4087H17.4087H17.4087H17.4087H17.4087H17.4087H17.4087H17.4088H17.4088H17.4088H17.4088H17.4088H17.4088H17.4088H17.4088H17.4088H17.4089H17.4089H17.4089H17.4089H17.4089H17.4089H17.4089H17.4089H17.409H17.409H17.409H17.409H17.409H17.409H17.409H17.409H17.409H17.409H17.4091H17.4091H17.4091H17.4091H17.4091H17.4091H17.4091H17.4091H17.4091H17.4092H17.4092H17.4092H17.4092H17.4092H17.4092H17.4092H17.4092H17.4092H17.4093H17.4093H17.4093H17.4093H17.4093H17.4093H17.4093H17.4093H17.4093H17.4093H17.4094H17.4094H17.4094H17.4094H17.4094H17.4094H17.4094H17.4094H17.4094H17.4095H17.4095H17.4095H17.4095H17.4095H17.4095H17.4095H17.4095H17.4095H17.4095H17.4096H17.4096H17.4096H17.4096H17.4096H17.4096H17.4096H17.4096H17.4096H17.4096H17.4097H17.4097H17.4097H17.4097H17.4097H17.4097H17.4097H17.4097H17.4097H17.4098H17.4098H17.4098H17.4098H17.4098H17.4098H17.4098H17.4098H17.4098H17.4098H17.4099H17.4099H17.4099H17.4099H17.4099H17.4099H17.4099H17.4099H17.4099H17.4099H17.41H17.41H17.41H17.41H17.41H17.41H17.41H17.41H17.41H17.4101H17.4101H17.4101H17.4101H17.4101H17.4101H17.4101H17.4101H17.4101H17.4101H17.4102H17.4102H17.4102H17.4102H17.4102H17.4102H17.4102H17.4102H17.4102H17.4103H17.4103H17.4103H17.4103H17.4103H17.4103H17.4103H17.4103H17.4103H17.4104H17.4104H17.4104H17.4104H17.4104H17.4104H17.4104H17.4104H17.4104H17.4105H17.4105H17.4105H17.4105H17.4105H17.4105H17.4105H17.4105H17.4105H17.4106H17.4106H17.4106H17.4106H17.4106H17.4106H17.4106H17.4106H17.4106H17.4107H17.4107H17.4107H17.4107H17.4107H17.4107H17.4107H17.4107H17.4107H17.4108H17.4108H17.4108H17.4108H17.4108H17.4108H17.4108H17.4108H17.4109H17.4109H17.4109H17.4109H17.4109H17.4109H17.4109H17.4109H17.411H17.411H17.411H17.411H17.411H17.411H17.411H17.411H17.4111H17.4111H17.4111H17.4111H17.4111H17.4111H17.4111H17.4111H17.4112H17.4112H17.4112H17.4112H17.4112H17.4112H17.4112H17.4112H17.4113H17.4113H17.4113H17.4113H17.4113H17.4113H17.4113H17.4114H17.4114H17.4114H17.4114H17.4114H17.4114H17.4114H17.4115H17.4115H17.4115H17.4115H17.4115H17.4115H17.4115H17.4115H17.4116H17.4116H17.4116H17.4116H17.4116H17.4116H17.4117H17.4117H17.4117H17.4117H17.4117H17.4117H17.4117H17.4118H17.4118H17.4118H17.4118H17.4118H17.4118H17.4118H17.4119H17.4119H17.4119H17.4119H17.4119H17.4119H17.412H17.412H17.412H17.412H17.412H17.412H17.4121H17.4121H17.4121H17.4121H17.4121H17.4121H17.4121H17.4122H17.4122H17.4122H17.4122H17.4122H17.4122H17.4123H17.4123H17.4123H17.4123H17.4123H17.4124H17.4124H17.4124H17.4124H17.4124H17.4124H17.4125H17.4125H17.4125H17.4125H17.4125H17.4125H17.4126H17.4126H17.4126H17.4126H17.4126H17.4127H17.4127H17.4127H17.4127H17.4127H17.4127H17.4128H17.4128H17.4128H17.4128H17.4128H17.4129H17.4129H17.4129H17.4129H17.4129H17.413H17.413H17.413H17.413H17.413H17.4131H17.4131H17.4131H17.4131H17.4131H17.4132H17.4132H17.4132H17.4132H17.4132H17.4133H17.4133H17.4133H17.4133H17.4133H17.4134H17.4134H17.4134H17.4134H17.4135H17.4135H17.4135H17.4135H17.4135H17.4136H17.4136H17.4136H17.4136H17.4137H17.4137H17.4137H17.4137H17.4137H17.4138H17.4138H17.4138H17.4138H17.4139C17.4232 39.4921 17.4313 39.4915 17.437 39.491L17.4509 39.4894L17.4564 39.4888ZM17.4564 39.4888C17.4566 39.4888 17.4566 39.4888 17.4564 39.4888L17.4564 39.4888Z" fill="#3C0A6D" stroke="#3C0A6D" stroke-width="0.3"/>
<path d="M18.1971 38.6764L18.461 38.819C18.4612 38.8187 18.4617 38.8179 18.4623 38.8169C18.4669 38.8093 18.4821 38.7843 18.4938 38.7554C18.5008 38.7408 18.5079 38.7249 18.5142 38.7084L18.2377 38.5923L18.2218 38.6271L18.2176 38.6364L18.2169 38.6385C18.2139 38.6443 18.2106 38.6506 18.2069 38.6576C18.204 38.6633 18.2007 38.6695 18.1971 38.6764Z" fill="#3C0A6D" stroke="#3C0A6D" stroke-width="0.3"/>
<path d="M10.5787 25.7736C12.1138 25.7736 13.3579 24.5094 13.3579 22.9549C13.3579 21.3903 12.1141 20.1257 10.5787 20.1257C9.03866 20.1257 7.79391 21.39 7.79391 22.9549C7.79391 24.5105 9.03907 25.7736 10.5787 25.7736ZM10.5787 20.841C11.7174 20.841 12.6522 21.7877 12.6522 22.9557C12.6522 24.1173 11.7181 25.0591 10.5787 25.0591C9.43351 25.0591 8.50035 24.1171 8.50035 22.9557C8.50035 21.7879 9.43499 20.841 10.5787 20.841Z" fill="#3C0A6D" stroke="#3C0A6D" stroke-width="0.3"/>
<path d="M51.5564 25.7736C53.095 25.7736 54.3435 24.5099 54.3435 22.9549C54.3435 21.3898 53.0954 20.1257 51.5564 20.1257C50.0235 20.1257 48.7756 21.3901 48.7756 22.9549C48.7756 24.5105 50.0239 25.7736 51.5564 25.7736ZM51.5564 20.841C52.7008 20.841 53.6339 21.787 53.6339 22.9557C53.6339 24.1172 52.7007 25.0591 51.5564 25.0591C50.4163 25.0591 49.4836 24.1174 49.4836 22.9557C49.4844 21.7867 50.4178 20.841 51.5564 20.841Z" fill="#3C0A6D" stroke="#3C0A6D" stroke-width="0.3"/>
<path d="M58.3413 39.4888L58.3465 39.4894C58.3468 39.4894 58.3471 39.4895 58.3475 39.4895C58.3536 39.4903 58.3682 39.4921 58.3844 39.4921H58.3845H58.3845H58.3845H58.3845H58.3845H58.3845H58.3845H58.3845H58.3845H58.3845H58.3846H58.3846H58.3846H58.3846H58.3846H58.3846H58.3846H58.3846H58.3846H58.3846H58.3846H58.3847H58.3847H58.3847H58.3847H58.3847H58.3847H58.3847H58.3847H58.3847H58.3847H58.3848H58.3848H58.3848H58.3848H58.3848H58.3848H58.3848H58.3848H58.3848H58.3848H58.3849H58.3849H58.3849H58.3849H58.3849H58.3849H58.3849H58.3849H58.3849H58.3849H58.385H58.385H58.385H58.385H58.385H58.385H58.385H58.385H58.385H58.385H58.3851H58.3851H58.3851H58.3851H58.3851H58.3851H58.3851H58.3851H58.3851H58.3852H58.3852H58.3852H58.3852H58.3852H58.3852H58.3852H58.3852H58.3852H58.3852H58.3853H58.3853H58.3853H58.3853H58.3853H58.3853H58.3853H58.3853H58.3853H58.3854H58.3854H58.3854H58.3854H58.3854H58.3854H58.3854H58.3854H58.3854H58.3855H58.3855H58.3855H58.3855H58.3855H58.3855H58.3855H58.3855H58.3855H58.3856H58.3856H58.3856H58.3856H58.3856H58.3856H58.3856H58.3856H58.3856H58.3857H58.3857H58.3857H58.3857H58.3857H58.3857H58.3857H58.3857H58.3857H58.3858H58.3858H58.3858H58.3858H58.3858H58.3858H58.3858H58.3858H58.3859H58.3859H58.3859H58.3859H58.3859H58.3859H58.3859H58.3859H58.3859H58.386H58.386H58.386H58.386H58.386H58.386H58.386H58.386H58.3861H58.3861H58.3861H58.3861H58.3861H58.3861H58.3861H58.3861H58.3862H58.3862H58.3862H58.3862H58.3862H58.3862H58.3862H58.3862H58.3862H58.3863H58.3863H58.3863H58.3863H58.3863H58.3863H58.3863H58.3863H58.3864H58.3864H58.3864H58.3864H58.3864H58.3864H58.3864H58.3864H58.3865H58.3865H58.3865H58.3865H58.3865H58.3865H58.3865H58.3865H58.3866H58.3866H58.3866H58.3866H58.3866H58.3866H58.3866H58.3867H58.3867H58.3867H58.3867H58.3867H58.3867H58.3867H58.3867H58.3868H58.3868H58.3868H58.3868H58.3868H58.3868H58.3868H58.3868H58.3869H58.3869H58.3869H58.3869H58.3869H58.3869H58.3869H58.387H58.387H58.387H58.387H58.387H58.387H58.387H58.387H58.3871H58.3871H58.3871H58.3871H58.3871H58.3871H58.3871H58.3872H58.3872H58.3872H58.3872H58.3872H58.3872H58.3872H58.3872H58.3873H58.3873H58.3873H58.3873H58.3873H58.3873H58.3873H58.3874H58.3874H58.3874H58.3874H58.3874H58.3874H58.3874H58.3875H58.3875H58.3875H58.3875H58.3875H58.3875H58.3875H58.3876H58.3876H58.3876H58.3876H58.3876H58.3876H58.3876H58.3877H58.3877H58.3877H58.3877H58.3877H58.3877H58.3877H58.3878H58.3878H58.3878H58.3878H58.3878H58.3878H58.3878H58.3879H58.3879H58.3879H58.3879H58.3879H58.3879H58.3879H58.388H58.388H58.388H58.388H58.388H58.388H58.388H58.3881H58.3881H58.3881H58.3881H58.3881H58.3881H58.3881H58.3882H58.3882H58.3882H58.3882H58.3882H58.3882H58.3883H58.3883H58.3883H58.3883H58.3883H58.3883H58.3883H58.3884H58.3884H58.3884H58.3884H58.3884H58.3884H58.3884H58.3885H58.3885H58.3885H58.3885H58.3885H58.3885H58.3886H58.3886H58.3886H58.3886H58.3886H58.3886H58.3886H58.3887H58.3887H58.3887H58.3887H58.3887H58.3887H58.3888H58.3888H58.3888H58.3888H58.3888H58.3888H58.3888H58.3889H58.3889H58.3889H58.3889H58.3889H58.3889H58.389H58.389H58.389H58.389H58.389H58.389H58.3891H58.3891H58.3891H58.3891H58.3891H58.3891H58.3892H58.3892H58.3892H58.3892H58.3892H58.3892H58.3892H58.3893H58.3893H58.3893H58.3893H58.3893H58.3893H58.3894H58.3894H58.3894H58.3894H58.3894H58.3894H58.3895H58.3895H58.3895H58.3895H58.3895H58.3895H58.3896H58.3896H58.3896H58.3896H58.3896H58.3896H58.3897H58.3897H58.3897H58.3897H58.3897H58.3897H58.3898H58.3898H58.3898H58.3898H58.3898H58.3898H58.3899H58.3899H58.3899H58.3899H58.3899H58.3899H58.39H58.39H58.39H58.39H58.39H58.39H58.3901H58.3901H58.3901H58.3901H58.3901H58.3901H58.3902H58.3902H58.3902H58.3902H58.3902H58.3902H58.3903H58.3903H58.3903H58.3903H58.3903H58.3903H58.3904H58.3904H58.3904H58.3904H58.3904H58.3905H58.3905H58.3905H58.3905H58.3905H58.3905H58.3906H58.3906H58.3906H58.3906H58.3906H58.3906H58.3907H58.3907H58.3907H58.3907H58.3907H58.3908H58.3908H58.3908H58.3908H58.3908H58.3908H58.3909H58.3909H58.3909H58.3909H58.3909H58.3909H58.391H58.391H58.391H58.391H58.391H58.3911H58.3911H58.3911H58.3911H58.3911H58.3911H58.3912H58.3912H58.3912H58.3912H58.3912H58.3913H58.3913H58.3913H58.3913H58.3913H58.3913H58.3914H58.3914H58.3914H58.3914H58.3914H58.3915H58.3915H58.3915H58.3915H58.3915H58.3915H58.3916V39.3421V39.1921C58.3918 39.1921 58.392 39.1921 58.392 39.1921C58.392 39.1921 58.3906 39.192 58.3847 39.1914C58.3844 39.1913 58.384 39.1913 58.3836 39.1913C58.3765 39.1905 58.3623 39.1889 58.3457 39.1889V39.3389V39.4889C58.3455 39.4889 58.3453 39.4889 58.3453 39.4889C58.3453 39.4889 58.3453 39.4889 58.3454 39.4889C58.343 39.4889 58.3415 39.4888 58.3413 39.4888ZM58.3413 39.4888L58.3413 39.4888L58.3413 39.4888Z" fill="#3C0A6D" stroke="#3C0A6D" stroke-width="0.3"/>
<mask id="path-9-outside-1_576_219" maskUnits="userSpaceOnUse" x="1.70984" y="25.279" width="72" height="32" fill="black">
<rect fill="white" x="1.70984" y="25.279" width="72" height="32"/>
<path d="M73.0091 37.8886C73.0091 37.8886 68.566 27.1419 68.5644 27.1411C68.4418 26.9399 68.2354 26.8074 68.0243 26.7411C68.0243 26.7411 66.4903 26.2814 65.2172 26.2814C63.952 26.2814 62.4132 26.7411 62.4132 26.7411C62.2053 26.8074 61.9459 26.9868 61.8731 27.1419C61.87 27.1419 59.6939 32.4163 58.3907 35.5754C58.4659 35.7604 58.5426 35.9382 58.6113 36.1095C60.1193 32.4559 62.1072 27.6396 62.2393 27.3269C62.2741 27.2817 62.4101 27.1758 62.5318 27.1395C62.5421 27.1354 64.0271 26.6959 65.2172 26.6959C66.4183 26.6959 67.8938 27.1354 67.9097 27.1411C68.0306 27.1791 68.1413 27.2518 68.2007 27.339C68.4735 27.9927 72.5916 37.9468 72.632 38.0486C72.7601 38.3685 72.6082 38.7418 72.2912 38.8767C72.2176 38.9082 72.1401 38.9244 72.0587 38.9244C71.8001 38.9244 71.5732 38.7717 71.4799 38.5366L68.5185 31.3692C68.4561 31.2116 68.3066 31.1138 68.1461 31.1138C68.1152 31.1138 68.0868 31.1179 68.0559 31.1227C67.8638 31.168 67.7309 31.349 67.7381 31.5485L68.0291 38.2772C68.0457 38.7216 68.1026 39.3971 68.1635 39.8132L70.474 55.6436C70.4906 55.747 70.4574 55.8116 70.4266 55.852C70.3776 55.9094 70.3096 55.9441 70.2265 55.9465L68.7613 56.0217C68.7565 56.0249 68.7494 56.0249 68.7431 56.0249C68.5375 56.0249 68.3414 55.8666 68.3034 55.6654L65.8055 42.8099C65.7668 42.6362 65.6735 42.1999 65.286 42.1797C65.2789 42.1797 65.2733 42.1797 65.267 42.1797C65.2583 42.1797 65.2512 42.1797 65.2433 42.1797C65.0543 42.1902 64.8139 42.3106 64.7293 42.8139L62.2266 55.6629C62.1902 55.8601 61.987 56.0249 61.7885 56.0249C61.7783 56.0249 61.7743 56.0249 61.7696 56.0217L60.3035 55.9457C60.2205 55.9433 60.1501 55.9086 60.1058 55.8528C60.0766 55.814 60.0418 55.7462 60.0576 55.6476L62.3674 39.8124C62.433 39.3647 62.4907 38.682 62.5129 38.2805L62.7944 31.3037C62.8015 31.1009 62.6678 30.924 62.4757 30.8828C62.4472 30.8747 62.4148 30.8714 62.3879 30.8714C62.2266 30.8714 62.0764 30.9692 62.0115 31.1235L59.2914 37.7472C59.3072 37.7884 59.3206 37.8175 59.3301 37.8425C59.0265 37.1105 54.9044 27.1427 54.9036 27.1387C54.781 26.9415 54.5762 26.8066 54.3627 26.7411C54.3627 26.7411 52.8295 26.2798 51.5572 26.2798C50.2912 26.2798 48.7548 26.7411 48.7548 26.7411C48.5429 26.8066 48.2867 26.986 48.2115 27.1427C48.2084 27.1427 46.0323 32.413 44.7291 35.5714C43.426 32.413 41.2506 27.1411 41.2459 27.1411C41.1747 26.986 40.9162 26.8066 40.705 26.7411C40.705 26.7411 39.1694 26.2806 37.9011 26.2806C36.6311 26.2806 35.0963 26.7411 35.0963 26.7411C34.8844 26.8066 34.678 26.9391 34.5562 27.1387C34.5555 27.1403 32.3754 32.4147 31.0699 35.573C29.7667 32.4147 27.589 27.1419 27.5867 27.1419C27.5108 26.9852 27.2553 26.8058 27.0434 26.7403C27.0434 26.7403 25.5062 26.279 24.2387 26.279C22.9687 26.279 21.4363 26.7403 21.4363 26.7403C21.222 26.8058 21.0156 26.9407 20.8946 27.1379C20.8938 27.1411 18.7114 32.4138 17.4051 35.5722C16.1035 32.4122 13.9266 27.1395 13.9227 27.1395C13.8491 26.9843 13.5914 26.805 13.3826 26.7387C13.3826 26.7387 11.843 26.279 10.5778 26.279C9.30713 26.279 7.77072 26.7387 7.77072 26.7387C7.56117 26.805 7.35558 26.9375 7.23222 27.1387C7.23064 27.1395 2.78747 37.8862 2.78747 37.8862C2.5716 38.4219 2.82148 39.0335 3.34416 39.2605C3.47146 39.313 3.60589 39.3397 3.73794 39.3397C4.14517 39.3397 4.53106 39.0957 4.69474 38.6861L7.64894 31.5267L7.35874 38.2546C7.3453 38.6707 7.28916 39.3397 7.23064 39.7493L4.91694 55.5822C4.85526 55.9918 5.1423 56.34 5.54953 56.3634L7.01556 56.4386C7.029 56.4386 7.04086 56.4386 7.05747 56.4386C7.45126 56.4386 7.81895 56.1413 7.89644 55.7413L10.392 42.8891C10.4331 42.7008 10.4782 42.5974 10.5312 42.595C10.5842 42.5974 10.6364 42.7008 10.668 42.8891L13.1754 55.7413C13.2426 56.1413 13.6238 56.4386 14.0144 56.4386C14.0263 56.4386 14.0373 56.4386 14.0516 56.4386L15.5176 56.3634C15.9248 56.3408 16.2071 55.9918 16.1454 55.5822L13.8341 39.7509C13.7764 39.3413 13.7171 38.6723 13.6949 38.2562L13.4126 31.2851L16.4396 38.6529C16.4175 38.5948 16.4183 38.5309 16.408 38.4719C16.4696 38.8081 16.6752 39.1167 17.0066 39.2621C17.137 39.3146 17.2699 39.3413 17.4027 39.3413C17.5182 39.3413 17.632 39.3171 17.742 39.2775C17.7356 39.2799 17.7301 39.2856 17.7222 39.288C17.7506 39.2799 17.7815 39.2734 17.81 39.2629C17.8432 39.2492 17.8677 39.2209 17.8985 39.204C17.9444 39.1797 17.9839 39.1514 18.0258 39.1199C18.0424 39.1062 18.0646 39.0997 18.0812 39.0828C18.0669 39.0933 18.0511 39.0989 18.0393 39.1078C18.1737 38.9987 18.2884 38.8622 18.3564 38.6893L21.3121 31.5283L21.0219 38.2586C21.0077 38.6764 20.9516 39.3413 20.8938 39.7509L18.5793 55.5822C18.5161 55.9918 18.8039 56.3416 19.2111 56.3634L20.678 56.4386C20.6898 56.4386 20.7049 56.4434 20.7167 56.4434C21.1113 56.4434 21.4829 56.1413 21.5549 55.7413L24.0568 42.8891C24.0971 42.7008 24.1406 42.5998 24.1944 42.5966C24.245 42.5998 24.2996 42.7008 24.3304 42.8891L26.8355 55.7413C26.905 56.1413 27.2854 56.4434 27.6752 56.4434C27.6863 56.4434 27.7013 56.4386 27.714 56.4386L29.18 56.3634C29.5857 56.3424 29.8695 55.9918 29.8071 55.5822L27.4949 39.7509C27.438 39.3413 27.3787 38.6764 27.355 38.2586L27.0751 31.2851L30.1123 38.678C30.1226 38.7022 30.1384 38.7216 30.1502 38.7467C30.1945 38.8355 30.2459 38.9171 30.3084 38.9882C30.3376 39.0214 30.3732 39.0488 30.408 39.0779C30.4673 39.1296 30.5298 39.1757 30.5986 39.2112C30.6239 39.225 30.6413 39.25 30.6705 39.2613C30.6887 39.2694 30.7093 39.2662 30.7299 39.2734C30.8255 39.309 30.926 39.3292 31.028 39.3332C31.039 39.334 31.0501 39.3405 31.0635 39.3405C31.0659 39.3405 31.0675 39.3397 31.0699 39.3397C31.0715 39.3397 31.073 39.3405 31.0754 39.3405C31.0873 39.3405 31.0983 39.334 31.1094 39.3332C31.2138 39.3284 31.3126 39.3098 31.4099 39.2742C31.4304 39.267 31.4518 39.2694 31.4739 39.2613C31.5032 39.2484 31.5222 39.2217 31.5506 39.2072C31.6171 39.1733 31.674 39.1288 31.7317 39.0795C31.7673 39.0504 31.8021 39.023 31.8337 38.9898C31.9096 38.905 31.9761 38.8064 32.0203 38.6957C32.0211 38.6933 32.0243 38.6917 32.0259 38.6893L34.9753 31.5283L34.6843 38.2562C34.6701 38.6764 34.614 39.3413 34.557 39.7509L32.2433 55.5822C32.1801 55.9918 32.4679 56.3441 32.8743 56.3634L34.3388 56.4386C34.3546 56.4386 34.3673 56.4386 34.3815 56.4386C34.7761 56.4386 35.1461 56.1413 35.2189 55.7413L37.7176 42.8891C37.7579 42.7008 37.8014 42.5974 37.8592 42.5966C37.9098 42.5974 37.9628 42.7008 37.9952 42.8891L40.4994 55.7413C40.5675 56.1413 40.9494 56.4386 41.3376 56.4386C41.3511 56.4386 41.3645 56.4386 41.3764 56.4386L42.8416 56.3634C43.2496 56.3449 43.5335 55.9918 43.4703 55.5822L41.1613 39.7509C41.1012 39.3413 41.0419 38.6764 41.0198 38.2562L40.739 31.2851L43.7771 38.6917C43.8253 38.8032 43.8917 38.901 43.9668 38.9866C44.0008 39.023 44.0396 39.0529 44.0783 39.0852C44.1329 39.132 44.1875 39.1724 44.2483 39.2056C44.2784 39.2209 44.2974 39.2484 44.329 39.2613C44.3519 39.2702 44.3741 39.267 44.3954 39.2742C44.4911 39.3098 44.5884 39.3284 44.6912 39.3332C44.703 39.3332 44.7149 39.3405 44.7275 39.3405C44.7299 39.3405 44.7315 39.3397 44.7339 39.3397C44.7362 39.3397 44.7378 39.3405 44.741 39.3405C44.7552 39.3405 44.7671 39.3332 44.7797 39.3332C44.8794 39.3276 44.9766 39.3098 45.0691 39.2751C45.0929 39.267 45.1166 39.2702 45.1371 39.2613C45.1703 39.2476 45.1893 39.2193 45.2194 39.204C45.2771 39.1733 45.3301 39.1337 45.3815 39.09C45.4234 39.0545 45.4669 39.0206 45.504 38.9802C45.5531 38.9228 45.5918 38.8541 45.6282 38.7846C45.6503 38.7467 45.6772 38.7111 45.693 38.6691L48.7271 31.2835L48.448 38.257C48.425 38.6747 48.3657 39.3397 48.3064 39.7493L45.9959 55.5805C45.931 55.9902 46.2173 56.34 46.6229 56.3618L48.089 56.437C48.1016 56.437 48.1159 56.4418 48.1277 56.4418C48.516 56.4418 48.8979 56.1396 48.9635 55.7397L51.4725 42.8875C51.5026 42.6992 51.5572 42.5982 51.6078 42.595C51.6615 42.5982 51.709 42.6992 51.7461 42.8875L54.2465 55.7397C54.32 56.1396 54.6909 56.4418 55.0862 56.4418C55.0981 56.4418 55.1115 56.437 55.125 56.437L56.591 56.3618C56.999 56.3408 57.2869 55.9902 57.2212 55.5805L54.9083 39.7493C54.8506 39.3397 54.7944 38.6747 54.7786 38.257L54.4884 31.5267L57.4426 38.6877C57.4434 38.6901 57.4458 38.6917 57.4466 38.6941C57.4537 38.7111 57.4632 38.7281 57.4711 38.7426C57.464 38.7281 57.4561 38.7143 57.4497 38.699C57.5193 38.8662 57.6316 38.9995 57.7629 39.1062C57.751 39.0965 57.7352 39.0908 57.721 39.0811C57.7376 39.0973 57.7605 39.1046 57.7755 39.1183C57.8182 39.149 57.8586 39.1781 57.9044 39.2023C57.9361 39.2201 57.959 39.2484 57.993 39.2613C58.0199 39.2726 58.0523 39.2783 58.08 39.2864C58.0705 39.2839 58.0642 39.2767 58.057 39.2742C58.1685 39.3146 58.2832 39.3397 58.4002 39.3397C58.5307 39.3397 58.6651 39.3138 58.7964 39.2605C59.1317 39.1135 59.338 38.8008 59.3965 38.4574C59.3863 38.522 59.3863 38.5883 59.3633 38.6497L62.3903 31.2835L62.108 38.2546C62.0866 38.6747 62.0258 39.3397 61.968 39.7493L59.6583 55.5805C59.5942 55.9902 59.8781 56.3424 60.283 56.3618L61.7506 56.437C61.7648 56.437 61.7751 56.437 61.7909 56.437C62.1792 56.437 62.5571 56.1396 62.6283 55.7397L65.1342 42.8875C65.1642 42.6992 65.2164 42.5958 65.2702 42.5934C65.3224 42.5958 65.369 42.6992 65.4101 42.8875L67.9089 55.7397C67.9832 56.1396 68.3509 56.437 68.7471 56.437C68.7613 56.437 68.7731 56.437 68.7882 56.437L70.2518 56.3618C70.6606 56.3433 70.9477 55.9902 70.8852 55.5805L68.5723 39.7493C68.5138 39.3397 68.4553 38.6747 68.4426 38.2546L68.1524 31.5267L71.1066 38.6861C71.2679 39.0973 71.6554 39.3397 72.065 39.3397C72.1955 39.3397 72.3299 39.3138 72.4572 39.2605C72.9728 39.0359 73.2258 38.4243 73.0091 37.8886ZM16.4024 38.1302C16.3945 38.1795 16.3756 38.2296 16.3748 38.2805C16.3756 38.2287 16.3953 38.1787 16.4024 38.1302ZM16.5068 37.7464L13.7875 31.1243C13.7242 30.97 13.5732 30.8723 13.4111 30.8723C13.3834 30.8723 13.3533 30.8755 13.3233 30.8836C13.1311 30.9256 12.9959 31.1025 13.0038 31.3045L13.2861 38.2813C13.3067 38.6828 13.3676 39.3664 13.43 39.8132L15.7414 55.6484C15.758 55.747 15.7248 55.8148 15.6931 55.8536C15.6473 55.9094 15.5785 55.9417 15.4939 55.9465L14.0294 56.0225C14.0239 56.0257 14.0176 56.0257 14.0128 56.0257C13.8112 56.0257 13.6072 55.8609 13.5716 55.6638L11.0689 42.8147C10.9843 42.3114 10.7439 42.191 10.5549 42.1805C10.5462 42.1805 10.5407 42.1805 10.5304 42.1805C10.5233 42.1805 10.5185 42.1805 10.5106 42.1805C10.1232 42.2007 10.0307 42.637 9.99191 42.8107L7.49396 55.6662C7.45679 55.8674 7.26069 56.0257 7.05747 56.0257C7.04798 56.0257 7.04086 56.0257 7.03612 56.0225L5.57009 55.9465C5.48706 55.9417 5.41748 55.9078 5.37082 55.852C5.3384 55.8116 5.30756 55.7445 5.32338 55.6436L7.63392 39.8132C7.69481 39.3963 7.75174 38.7208 7.76835 38.2772L8.05696 31.5485C8.06645 31.349 7.93361 31.1672 7.74146 31.1227C7.71062 31.1179 7.68215 31.1138 7.65132 31.1138C7.49317 31.1138 7.34135 31.2116 7.27888 31.3692L4.31914 38.5325C4.22188 38.7717 3.99572 38.9244 3.74032 38.9244C3.65729 38.9244 3.57821 38.9082 3.50784 38.8767C3.18759 38.7418 3.03656 38.3685 3.16545 38.0486C3.20815 37.9468 7.32316 27.9927 7.59359 27.339C7.65685 27.2518 7.76439 27.1791 7.89012 27.1411C7.90435 27.1354 9.38066 26.6959 10.5794 26.6959C11.7711 26.6959 13.2537 27.1354 13.2656 27.1395C13.3858 27.1766 13.5234 27.2825 13.5574 27.3293C13.6902 27.6396 15.6773 32.4551 17.1861 36.1087C16.8603 36.8948 16.612 37.4919 16.5068 37.7464ZM27.0751 30.8714C27.0442 30.8714 27.0134 30.8723 26.9865 30.8811C26.7928 30.9248 26.6615 31.1009 26.667 31.3037L26.9485 38.2805C26.9691 38.682 27.03 39.3655 27.0932 39.8124L29.4054 55.646C29.418 55.7486 29.3864 55.814 29.3555 55.8528C29.3097 55.907 29.2401 55.9433 29.1587 55.9457L27.6903 56.0217C27.6847 56.0217 27.6784 56.0217 27.6736 56.0217C27.472 56.0217 27.2696 55.8601 27.2332 55.6629L24.7313 42.8139C24.6451 42.3106 24.4055 42.1902 24.2173 42.1797C24.2102 42.1781 24.1999 42.1781 24.1936 42.1781C24.1889 42.1781 24.1778 42.1781 24.1722 42.1797C23.7872 42.1999 23.6923 42.6362 23.6543 42.8115L21.1548 55.6654C21.1184 55.8649 20.9231 56.0217 20.7167 56.0217C20.7104 56.0217 20.7049 56.0217 20.6985 56.0217L19.2317 55.9457C19.1503 55.9433 19.0791 55.907 19.034 55.8512C19.0024 55.8108 18.9708 55.7462 18.985 55.6444L21.2971 39.8124C21.3564 39.3954 21.4141 38.72 21.4292 38.2788L21.7217 31.5477C21.7304 31.3481 21.596 31.1664 21.4039 31.1219C21.3762 31.1171 21.3446 31.1146 21.3137 31.1146C21.1548 31.1146 21.0022 31.2124 20.9397 31.3667L17.9823 38.5358C17.8867 38.7709 17.6621 38.9236 17.4035 38.9236C17.3221 38.9236 17.2406 38.9074 17.1671 38.8767C16.8508 38.7402 16.6998 38.3677 16.8271 38.0478C16.8713 37.946 20.9856 27.9927 21.2584 27.3382C21.3193 27.251 21.4284 27.1758 21.5509 27.1411C21.5668 27.1346 23.0415 26.6951 24.241 26.6951C25.4343 26.6951 26.9161 27.1346 26.9264 27.1387C27.0498 27.1758 27.1865 27.2841 27.2198 27.3285C27.3542 27.638 29.3389 32.4518 30.8493 36.107C30.5258 36.8916 30.2783 37.4887 30.174 37.744L27.4522 31.1243C27.3842 30.9684 27.234 30.8714 27.0751 30.8714ZM58.6351 38.8783C58.5592 38.909 58.4785 38.9252 58.3971 38.9252C58.1385 38.9252 57.9139 38.7725 57.8167 38.5374L54.8609 31.3683C54.7984 31.214 54.6466 31.1163 54.4845 31.1163C54.456 31.1163 54.4252 31.1187 54.3959 31.1235C54.2022 31.1688 54.0693 31.3498 54.0788 31.5493L54.3698 38.2788C54.3856 38.7208 54.4434 39.3963 54.5027 39.8124L56.8148 55.6444C56.829 55.7462 56.7958 55.8108 56.765 55.8512C56.7207 55.907 56.6495 55.9433 56.5673 55.9457L55.1012 56.0217C55.0941 56.0217 55.087 56.0217 55.0831 56.0217C54.8767 56.0217 54.6806 55.8649 54.6434 55.6654L52.1447 42.8115C52.1067 42.6362 52.0118 42.1999 51.6252 42.1797C51.6204 42.1781 51.6093 42.1781 51.6046 42.1781C51.5951 42.1781 51.588 42.1781 51.5801 42.1797C51.3935 42.1902 51.1531 42.3106 51.0677 42.8139L48.5634 55.6629C48.5294 55.8601 48.3246 56.0217 48.1253 56.0217C48.1182 56.0217 48.1135 56.0217 48.1064 56.0217L46.6419 55.9457C46.5597 55.9433 46.4909 55.907 46.4442 55.8528C46.4142 55.814 46.3825 55.7486 46.3952 55.646L48.7065 39.8124C48.7714 39.3647 48.8291 38.682 48.852 38.2805L49.1335 31.3037C49.1407 31.1009 49.007 30.924 48.8141 30.8811C48.7856 30.8723 48.7564 30.8714 48.7247 30.8714C48.5642 30.8714 48.4155 30.9676 48.3499 31.1251L45.629 37.7472C45.5238 37.4927 45.2771 36.894 44.9537 36.1078C46.4632 32.4526 48.448 27.6388 48.5808 27.3293C48.6156 27.2841 48.754 27.1766 48.8734 27.1395C48.8845 27.1354 50.3687 26.6959 51.5587 26.6959C52.7575 26.6959 54.2362 27.1354 54.2504 27.1419C54.373 27.1766 54.4821 27.2518 54.5438 27.339C54.8158 27.9935 58.9308 37.9468 58.9727 38.0486C59.1 38.3693 58.9482 38.7418 58.6351 38.8783ZM59.3475 37.8886C59.3989 38.0171 59.4219 38.1504 59.4226 38.2821C59.4219 38.1504 59.3997 38.0171 59.3475 37.8886Z"/>
</mask>
<path d="M73.0091 37.8886C73.0091 37.8886 68.566 27.1419 68.5644 27.1411C68.4418 26.9399 68.2354 26.8074 68.0243 26.7411C68.0243 26.7411 66.4903 26.2814 65.2172 26.2814C63.952 26.2814 62.4132 26.7411 62.4132 26.7411C62.2053 26.8074 61.9459 26.9868 61.8731 27.1419C61.87 27.1419 59.6939 32.4163 58.3907 35.5754C58.4659 35.7604 58.5426 35.9382 58.6113 36.1095C60.1193 32.4559 62.1072 27.6396 62.2393 27.3269C62.2741 27.2817 62.4101 27.1758 62.5318 27.1395C62.5421 27.1354 64.0271 26.6959 65.2172 26.6959C66.4183 26.6959 67.8938 27.1354 67.9097 27.1411C68.0306 27.1791 68.1413 27.2518 68.2007 27.339C68.4735 27.9927 72.5916 37.9468 72.632 38.0486C72.7601 38.3685 72.6082 38.7418 72.2912 38.8767C72.2176 38.9082 72.1401 38.9244 72.0587 38.9244C71.8001 38.9244 71.5732 38.7717 71.4799 38.5366L68.5185 31.3692C68.4561 31.2116 68.3066 31.1138 68.1461 31.1138C68.1152 31.1138 68.0868 31.1179 68.0559 31.1227C67.8638 31.168 67.7309 31.349 67.7381 31.5485L68.0291 38.2772C68.0457 38.7216 68.1026 39.3971 68.1635 39.8132L70.474 55.6436C70.4906 55.747 70.4574 55.8116 70.4266 55.852C70.3776 55.9094 70.3096 55.9441 70.2265 55.9465L68.7613 56.0217C68.7565 56.0249 68.7494 56.0249 68.7431 56.0249C68.5375 56.0249 68.3414 55.8666 68.3034 55.6654L65.8055 42.8099C65.7668 42.6362 65.6735 42.1999 65.286 42.1797C65.2789 42.1797 65.2733 42.1797 65.267 42.1797C65.2583 42.1797 65.2512 42.1797 65.2433 42.1797C65.0543 42.1902 64.8139 42.3106 64.7293 42.8139L62.2266 55.6629C62.1902 55.8601 61.987 56.0249 61.7885 56.0249C61.7783 56.0249 61.7743 56.0249 61.7696 56.0217L60.3035 55.9457C60.2205 55.9433 60.1501 55.9086 60.1058 55.8528C60.0766 55.814 60.0418 55.7462 60.0576 55.6476L62.3674 39.8124C62.433 39.3647 62.4907 38.682 62.5129 38.2805L62.7944 31.3037C62.8015 31.1009 62.6678 30.924 62.4757 30.8828C62.4472 30.8747 62.4148 30.8714 62.3879 30.8714C62.2266 30.8714 62.0764 30.9692 62.0115 31.1235L59.2914 37.7472C59.3072 37.7884 59.3206 37.8175 59.3301 37.8425C59.0265 37.1105 54.9044 27.1427 54.9036 27.1387C54.781 26.9415 54.5762 26.8066 54.3627 26.7411C54.3627 26.7411 52.8295 26.2798 51.5572 26.2798C50.2912 26.2798 48.7548 26.7411 48.7548 26.7411C48.5429 26.8066 48.2867 26.986 48.2115 27.1427C48.2084 27.1427 46.0323 32.413 44.7291 35.5714C43.426 32.413 41.2506 27.1411 41.2459 27.1411C41.1747 26.986 40.9162 26.8066 40.705 26.7411C40.705 26.7411 39.1694 26.2806 37.9011 26.2806C36.6311 26.2806 35.0963 26.7411 35.0963 26.7411C34.8844 26.8066 34.678 26.9391 34.5562 27.1387C34.5555 27.1403 32.3754 32.4147 31.0699 35.573C29.7667 32.4147 27.589 27.1419 27.5867 27.1419C27.5108 26.9852 27.2553 26.8058 27.0434 26.7403C27.0434 26.7403 25.5062 26.279 24.2387 26.279C22.9687 26.279 21.4363 26.7403 21.4363 26.7403C21.222 26.8058 21.0156 26.9407 20.8946 27.1379C20.8938 27.1411 18.7114 32.4138 17.4051 35.5722C16.1035 32.4122 13.9266 27.1395 13.9227 27.1395C13.8491 26.9843 13.5914 26.805 13.3826 26.7387C13.3826 26.7387 11.843 26.279 10.5778 26.279C9.30713 26.279 7.77072 26.7387 7.77072 26.7387C7.56117 26.805 7.35558 26.9375 7.23222 27.1387C7.23064 27.1395 2.78747 37.8862 2.78747 37.8862C2.5716 38.4219 2.82148 39.0335 3.34416 39.2605C3.47146 39.313 3.60589 39.3397 3.73794 39.3397C4.14517 39.3397 4.53106 39.0957 4.69474 38.6861L7.64894 31.5267L7.35874 38.2546C7.3453 38.6707 7.28916 39.3397 7.23064 39.7493L4.91694 55.5822C4.85526 55.9918 5.1423 56.34 5.54953 56.3634L7.01556 56.4386C7.029 56.4386 7.04086 56.4386 7.05747 56.4386C7.45126 56.4386 7.81895 56.1413 7.89644 55.7413L10.392 42.8891C10.4331 42.7008 10.4782 42.5974 10.5312 42.595C10.5842 42.5974 10.6364 42.7008 10.668 42.8891L13.1754 55.7413C13.2426 56.1413 13.6238 56.4386 14.0144 56.4386C14.0263 56.4386 14.0373 56.4386 14.0516 56.4386L15.5176 56.3634C15.9248 56.3408 16.2071 55.9918 16.1454 55.5822L13.8341 39.7509C13.7764 39.3413 13.7171 38.6723 13.6949 38.2562L13.4126 31.2851L16.4396 38.6529C16.4175 38.5948 16.4183 38.5309 16.408 38.4719C16.4696 38.8081 16.6752 39.1167 17.0066 39.2621C17.137 39.3146 17.2699 39.3413 17.4027 39.3413C17.5182 39.3413 17.632 39.3171 17.742 39.2775C17.7356 39.2799 17.7301 39.2856 17.7222 39.288C17.7506 39.2799 17.7815 39.2734 17.81 39.2629C17.8432 39.2492 17.8677 39.2209 17.8985 39.204C17.9444 39.1797 17.9839 39.1514 18.0258 39.1199C18.0424 39.1062 18.0646 39.0997 18.0812 39.0828C18.0669 39.0933 18.0511 39.0989 18.0393 39.1078C18.1737 38.9987 18.2884 38.8622 18.3564 38.6893L21.3121 31.5283L21.0219 38.2586C21.0077 38.6764 20.9516 39.3413 20.8938 39.7509L18.5793 55.5822C18.5161 55.9918 18.8039 56.3416 19.2111 56.3634L20.678 56.4386C20.6898 56.4386 20.7049 56.4434 20.7167 56.4434C21.1113 56.4434 21.4829 56.1413 21.5549 55.7413L24.0568 42.8891C24.0971 42.7008 24.1406 42.5998 24.1944 42.5966C24.245 42.5998 24.2996 42.7008 24.3304 42.8891L26.8355 55.7413C26.905 56.1413 27.2854 56.4434 27.6752 56.4434C27.6863 56.4434 27.7013 56.4386 27.714 56.4386L29.18 56.3634C29.5857 56.3424 29.8695 55.9918 29.8071 55.5822L27.4949 39.7509C27.438 39.3413 27.3787 38.6764 27.355 38.2586L27.0751 31.2851L30.1123 38.678C30.1226 38.7022 30.1384 38.7216 30.1502 38.7467C30.1945 38.8355 30.2459 38.9171 30.3084 38.9882C30.3376 39.0214 30.3732 39.0488 30.408 39.0779C30.4673 39.1296 30.5298 39.1757 30.5986 39.2112C30.6239 39.225 30.6413 39.25 30.6705 39.2613C30.6887 39.2694 30.7093 39.2662 30.7299 39.2734C30.8255 39.309 30.926 39.3292 31.028 39.3332C31.039 39.334 31.0501 39.3405 31.0635 39.3405C31.0659 39.3405 31.0675 39.3397 31.0699 39.3397C31.0715 39.3397 31.073 39.3405 31.0754 39.3405C31.0873 39.3405 31.0983 39.334 31.1094 39.3332C31.2138 39.3284 31.3126 39.3098 31.4099 39.2742C31.4304 39.267 31.4518 39.2694 31.4739 39.2613C31.5032 39.2484 31.5222 39.2217 31.5506 39.2072C31.6171 39.1733 31.674 39.1288 31.7317 39.0795C31.7673 39.0504 31.8021 39.023 31.8337 38.9898C31.9096 38.905 31.9761 38.8064 32.0203 38.6957C32.0211 38.6933 32.0243 38.6917 32.0259 38.6893L34.9753 31.5283L34.6843 38.2562C34.6701 38.6764 34.614 39.3413 34.557 39.7509L32.2433 55.5822C32.1801 55.9918 32.4679 56.3441 32.8743 56.3634L34.3388 56.4386C34.3546 56.4386 34.3673 56.4386 34.3815 56.4386C34.7761 56.4386 35.1461 56.1413 35.2189 55.7413L37.7176 42.8891C37.7579 42.7008 37.8014 42.5974 37.8592 42.5966C37.9098 42.5974 37.9628 42.7008 37.9952 42.8891L40.4994 55.7413C40.5675 56.1413 40.9494 56.4386 41.3376 56.4386C41.3511 56.4386 41.3645 56.4386 41.3764 56.4386L42.8416 56.3634C43.2496 56.3449 43.5335 55.9918 43.4703 55.5822L41.1613 39.7509C41.1012 39.3413 41.0419 38.6764 41.0198 38.2562L40.739 31.2851L43.7771 38.6917C43.8253 38.8032 43.8917 38.901 43.9668 38.9866C44.0008 39.023 44.0396 39.0529 44.0783 39.0852C44.1329 39.132 44.1875 39.1724 44.2483 39.2056C44.2784 39.2209 44.2974 39.2484 44.329 39.2613C44.3519 39.2702 44.3741 39.267 44.3954 39.2742C44.4911 39.3098 44.5884 39.3284 44.6912 39.3332C44.703 39.3332 44.7149 39.3405 44.7275 39.3405C44.7299 39.3405 44.7315 39.3397 44.7339 39.3397C44.7362 39.3397 44.7378 39.3405 44.741 39.3405C44.7552 39.3405 44.7671 39.3332 44.7797 39.3332C44.8794 39.3276 44.9766 39.3098 45.0691 39.2751C45.0929 39.267 45.1166 39.2702 45.1371 39.2613C45.1703 39.2476 45.1893 39.2193 45.2194 39.204C45.2771 39.1733 45.3301 39.1337 45.3815 39.09C45.4234 39.0545 45.4669 39.0206 45.504 38.9802C45.5531 38.9228 45.5918 38.8541 45.6282 38.7846C45.6503 38.7467 45.6772 38.7111 45.693 38.6691L48.7271 31.2835L48.448 38.257C48.425 38.6747 48.3657 39.3397 48.3064 39.7493L45.9959 55.5805C45.931 55.9902 46.2173 56.34 46.6229 56.3618L48.089 56.437C48.1016 56.437 48.1159 56.4418 48.1277 56.4418C48.516 56.4418 48.8979 56.1396 48.9635 55.7397L51.4725 42.8875C51.5026 42.6992 51.5572 42.5982 51.6078 42.595C51.6615 42.5982 51.709 42.6992 51.7461 42.8875L54.2465 55.7397C54.32 56.1396 54.6909 56.4418 55.0862 56.4418C55.0981 56.4418 55.1115 56.437 55.125 56.437L56.591 56.3618C56.999 56.3408 57.2869 55.9902 57.2212 55.5805L54.9083 39.7493C54.8506 39.3397 54.7944 38.6747 54.7786 38.257L54.4884 31.5267L57.4426 38.6877C57.4434 38.6901 57.4458 38.6917 57.4466 38.6941C57.4537 38.7111 57.4632 38.7281 57.4711 38.7426C57.464 38.7281 57.4561 38.7143 57.4497 38.699C57.5193 38.8662 57.6316 38.9995 57.7629 39.1062C57.751 39.0965 57.7352 39.0908 57.721 39.0811C57.7376 39.0973 57.7605 39.1046 57.7755 39.1183C57.8182 39.149 57.8586 39.1781 57.9044 39.2023C57.9361 39.2201 57.959 39.2484 57.993 39.2613C58.0199 39.2726 58.0523 39.2783 58.08 39.2864C58.0705 39.2839 58.0642 39.2767 58.057 39.2742C58.1685 39.3146 58.2832 39.3397 58.4002 39.3397C58.5307 39.3397 58.6651 39.3138 58.7964 39.2605C59.1317 39.1135 59.338 38.8008 59.3965 38.4574C59.3863 38.522 59.3863 38.5883 59.3633 38.6497L62.3903 31.2835L62.108 38.2546C62.0866 38.6747 62.0258 39.3397 61.968 39.7493L59.6583 55.5805C59.5942 55.9902 59.8781 56.3424 60.283 56.3618L61.7506 56.437C61.7648 56.437 61.7751 56.437 61.7909 56.437C62.1792 56.437 62.5571 56.1396 62.6283 55.7397L65.1342 42.8875C65.1642 42.6992 65.2164 42.5958 65.2702 42.5934C65.3224 42.5958 65.369 42.6992 65.4101 42.8875L67.9089 55.7397C67.9832 56.1396 68.3509 56.437 68.7471 56.437C68.7613 56.437 68.7731 56.437 68.7882 56.437L70.2518 56.3618C70.6606 56.3433 70.9477 55.9902 70.8852 55.5805L68.5723 39.7493C68.5138 39.3397 68.4553 38.6747 68.4426 38.2546L68.1524 31.5267L71.1066 38.6861C71.2679 39.0973 71.6554 39.3397 72.065 39.3397C72.1955 39.3397 72.3299 39.3138 72.4572 39.2605C72.9728 39.0359 73.2258 38.4243 73.0091 37.8886ZM16.4024 38.1302C16.3945 38.1795 16.3756 38.2296 16.3748 38.2805C16.3756 38.2287 16.3953 38.1787 16.4024 38.1302ZM16.5068 37.7464L13.7875 31.1243C13.7242 30.97 13.5732 30.8723 13.4111 30.8723C13.3834 30.8723 13.3533 30.8755 13.3233 30.8836C13.1311 30.9256 12.9959 31.1025 13.0038 31.3045L13.2861 38.2813C13.3067 38.6828 13.3676 39.3664 13.43 39.8132L15.7414 55.6484C15.758 55.747 15.7248 55.8148 15.6931 55.8536C15.6473 55.9094 15.5785 55.9417 15.4939 55.9465L14.0294 56.0225C14.0239 56.0257 14.0176 56.0257 14.0128 56.0257C13.8112 56.0257 13.6072 55.8609 13.5716 55.6638L11.0689 42.8147C10.9843 42.3114 10.7439 42.191 10.5549 42.1805C10.5462 42.1805 10.5407 42.1805 10.5304 42.1805C10.5233 42.1805 10.5185 42.1805 10.5106 42.1805C10.1232 42.2007 10.0307 42.637 9.99191 42.8107L7.49396 55.6662C7.45679 55.8674 7.26069 56.0257 7.05747 56.0257C7.04798 56.0257 7.04086 56.0257 7.03612 56.0225L5.57009 55.9465C5.48706 55.9417 5.41748 55.9078 5.37082 55.852C5.3384 55.8116 5.30756 55.7445 5.32338 55.6436L7.63392 39.8132C7.69481 39.3963 7.75174 38.7208 7.76835 38.2772L8.05696 31.5485C8.06645 31.349 7.93361 31.1672 7.74146 31.1227C7.71062 31.1179 7.68215 31.1138 7.65132 31.1138C7.49317 31.1138 7.34135 31.2116 7.27888 31.3692L4.31914 38.5325C4.22188 38.7717 3.99572 38.9244 3.74032 38.9244C3.65729 38.9244 3.57821 38.9082 3.50784 38.8767C3.18759 38.7418 3.03656 38.3685 3.16545 38.0486C3.20815 37.9468 7.32316 27.9927 7.59359 27.339C7.65685 27.2518 7.76439 27.1791 7.89012 27.1411C7.90435 27.1354 9.38066 26.6959 10.5794 26.6959C11.7711 26.6959 13.2537 27.1354 13.2656 27.1395C13.3858 27.1766 13.5234 27.2825 13.5574 27.3293C13.6902 27.6396 15.6773 32.4551 17.1861 36.1087C16.8603 36.8948 16.612 37.4919 16.5068 37.7464ZM27.0751 30.8714C27.0442 30.8714 27.0134 30.8723 26.9865 30.8811C26.7928 30.9248 26.6615 31.1009 26.667 31.3037L26.9485 38.2805C26.9691 38.682 27.03 39.3655 27.0932 39.8124L29.4054 55.646C29.418 55.7486 29.3864 55.814 29.3555 55.8528C29.3097 55.907 29.2401 55.9433 29.1587 55.9457L27.6903 56.0217C27.6847 56.0217 27.6784 56.0217 27.6736 56.0217C27.472 56.0217 27.2696 55.8601 27.2332 55.6629L24.7313 42.8139C24.6451 42.3106 24.4055 42.1902 24.2173 42.1797C24.2102 42.1781 24.1999 42.1781 24.1936 42.1781C24.1889 42.1781 24.1778 42.1781 24.1722 42.1797C23.7872 42.1999 23.6923 42.6362 23.6543 42.8115L21.1548 55.6654C21.1184 55.8649 20.9231 56.0217 20.7167 56.0217C20.7104 56.0217 20.7049 56.0217 20.6985 56.0217L19.2317 55.9457C19.1503 55.9433 19.0791 55.907 19.034 55.8512C19.0024 55.8108 18.9708 55.7462 18.985 55.6444L21.2971 39.8124C21.3564 39.3954 21.4141 38.72 21.4292 38.2788L21.7217 31.5477C21.7304 31.3481 21.596 31.1664 21.4039 31.1219C21.3762 31.1171 21.3446 31.1146 21.3137 31.1146C21.1548 31.1146 21.0022 31.2124 20.9397 31.3667L17.9823 38.5358C17.8867 38.7709 17.6621 38.9236 17.4035 38.9236C17.3221 38.9236 17.2406 38.9074 17.1671 38.8767C16.8508 38.7402 16.6998 38.3677 16.8271 38.0478C16.8713 37.946 20.9856 27.9927 21.2584 27.3382C21.3193 27.251 21.4284 27.1758 21.5509 27.1411C21.5668 27.1346 23.0415 26.6951 24.241 26.6951C25.4343 26.6951 26.9161 27.1346 26.9264 27.1387C27.0498 27.1758 27.1865 27.2841 27.2198 27.3285C27.3542 27.638 29.3389 32.4518 30.8493 36.107C30.5258 36.8916 30.2783 37.4887 30.174 37.744L27.4522 31.1243C27.3842 30.9684 27.234 30.8714 27.0751 30.8714ZM58.6351 38.8783C58.5592 38.909 58.4785 38.9252 58.3971 38.9252C58.1385 38.9252 57.9139 38.7725 57.8167 38.5374L54.8609 31.3683C54.7984 31.214 54.6466 31.1163 54.4845 31.1163C54.456 31.1163 54.4252 31.1187 54.3959 31.1235C54.2022 31.1688 54.0693 31.3498 54.0788 31.5493L54.3698 38.2788C54.3856 38.7208 54.4434 39.3963 54.5027 39.8124L56.8148 55.6444C56.829 55.7462 56.7958 55.8108 56.765 55.8512C56.7207 55.907 56.6495 55.9433 56.5673 55.9457L55.1012 56.0217C55.0941 56.0217 55.087 56.0217 55.0831 56.0217C54.8767 56.0217 54.6806 55.8649 54.6434 55.6654L52.1447 42.8115C52.1067 42.6362 52.0118 42.1999 51.6252 42.1797C51.6204 42.1781 51.6093 42.1781 51.6046 42.1781C51.5951 42.1781 51.588 42.1781 51.5801 42.1797C51.3935 42.1902 51.1531 42.3106 51.0677 42.8139L48.5634 55.6629C48.5294 55.8601 48.3246 56.0217 48.1253 56.0217C48.1182 56.0217 48.1135 56.0217 48.1064 56.0217L46.6419 55.9457C46.5597 55.9433 46.4909 55.907 46.4442 55.8528C46.4142 55.814 46.3825 55.7486 46.3952 55.646L48.7065 39.8124C48.7714 39.3647 48.8291 38.682 48.852 38.2805L49.1335 31.3037C49.1407 31.1009 49.007 30.924 48.8141 30.8811C48.7856 30.8723 48.7564 30.8714 48.7247 30.8714C48.5642 30.8714 48.4155 30.9676 48.3499 31.1251L45.629 37.7472C45.5238 37.4927 45.2771 36.894 44.9537 36.1078C46.4632 32.4526 48.448 27.6388 48.5808 27.3293C48.6156 27.2841 48.754 27.1766 48.8734 27.1395C48.8845 27.1354 50.3687 26.6959 51.5587 26.6959C52.7575 26.6959 54.2362 27.1354 54.2504 27.1419C54.373 27.1766 54.4821 27.2518 54.5438 27.339C54.8158 27.9935 58.9308 37.9468 58.9727 38.0486C59.1 38.3693 58.9482 38.7418 58.6351 38.8783ZM59.3475 37.8886C59.3989 38.0171 59.4219 38.1504 59.4226 38.2821C59.4219 38.1504 59.3997 38.0171 59.3475 37.8886Z" fill="#3C0A6D"/>
<path d="M73.0091 37.8886C73.0091 37.8886 68.566 27.1419 68.5644 27.1411C68.4418 26.9399 68.2354 26.8074 68.0243 26.7411C68.0243 26.7411 66.4903 26.2814 65.2172 26.2814C63.952 26.2814 62.4132 26.7411 62.4132 26.7411C62.2053 26.8074 61.9459 26.9868 61.8731 27.1419C61.87 27.1419 59.6939 32.4163 58.3907 35.5754C58.4659 35.7604 58.5426 35.9382 58.6113 36.1095C60.1193 32.4559 62.1072 27.6396 62.2393 27.3269C62.2741 27.2817 62.4101 27.1758 62.5318 27.1395C62.5421 27.1354 64.0271 26.6959 65.2172 26.6959C66.4183 26.6959 67.8938 27.1354 67.9097 27.1411C68.0306 27.1791 68.1413 27.2518 68.2007 27.339C68.4735 27.9927 72.5916 37.9468 72.632 38.0486C72.7601 38.3685 72.6082 38.7418 72.2912 38.8767C72.2176 38.9082 72.1401 38.9244 72.0587 38.9244C71.8001 38.9244 71.5732 38.7717 71.4799 38.5366L68.5185 31.3692C68.4561 31.2116 68.3066 31.1138 68.1461 31.1138C68.1152 31.1138 68.0868 31.1179 68.0559 31.1227C67.8638 31.168 67.7309 31.349 67.7381 31.5485L68.0291 38.2772C68.0457 38.7216 68.1026 39.3971 68.1635 39.8132L70.474 55.6436C70.4906 55.747 70.4574 55.8116 70.4266 55.852C70.3776 55.9094 70.3096 55.9441 70.2265 55.9465L68.7613 56.0217C68.7565 56.0249 68.7494 56.0249 68.7431 56.0249C68.5375 56.0249 68.3414 55.8666 68.3034 55.6654L65.8055 42.8099C65.7668 42.6362 65.6735 42.1999 65.286 42.1797C65.2789 42.1797 65.2733 42.1797 65.267 42.1797C65.2583 42.1797 65.2512 42.1797 65.2433 42.1797C65.0543 42.1902 64.8139 42.3106 64.7293 42.8139L62.2266 55.6629C62.1902 55.8601 61.987 56.0249 61.7885 56.0249C61.7783 56.0249 61.7743 56.0249 61.7696 56.0217L60.3035 55.9457C60.2205 55.9433 60.1501 55.9086 60.1058 55.8528C60.0766 55.814 60.0418 55.7462 60.0576 55.6476L62.3674 39.8124C62.433 39.3647 62.4907 38.682 62.5129 38.2805L62.7944 31.3037C62.8015 31.1009 62.6678 30.924 62.4757 30.8828C62.4472 30.8747 62.4148 30.8714 62.3879 30.8714C62.2266 30.8714 62.0764 30.9692 62.0115 31.1235L59.2914 37.7472C59.3072 37.7884 59.3206 37.8175 59.3301 37.8425C59.0265 37.1105 54.9044 27.1427 54.9036 27.1387C54.781 26.9415 54.5762 26.8066 54.3627 26.7411C54.3627 26.7411 52.8295 26.2798 51.5572 26.2798C50.2912 26.2798 48.7548 26.7411 48.7548 26.7411C48.5429 26.8066 48.2867 26.986 48.2115 27.1427C48.2084 27.1427 46.0323 32.413 44.7291 35.5714C43.426 32.413 41.2506 27.1411 41.2459 27.1411C41.1747 26.986 40.9162 26.8066 40.705 26.7411C40.705 26.7411 39.1694 26.2806 37.9011 26.2806C36.6311 26.2806 35.0963 26.7411 35.0963 26.7411C34.8844 26.8066 34.678 26.9391 34.5562 27.1387C34.5555 27.1403 32.3754 32.4147 31.0699 35.573C29.7667 32.4147 27.589 27.1419 27.5867 27.1419C27.5108 26.9852 27.2553 26.8058 27.0434 26.7403C27.0434 26.7403 25.5062 26.279 24.2387 26.279C22.9687 26.279 21.4363 26.7403 21.4363 26.7403C21.222 26.8058 21.0156 26.9407 20.8946 27.1379C20.8938 27.1411 18.7114 32.4138 17.4051 35.5722C16.1035 32.4122 13.9266 27.1395 13.9227 27.1395C13.8491 26.9843 13.5914 26.805 13.3826 26.7387C13.3826 26.7387 11.843 26.279 10.5778 26.279C9.30713 26.279 7.77072 26.7387 7.77072 26.7387C7.56117 26.805 7.35558 26.9375 7.23222 27.1387C7.23064 27.1395 2.78747 37.8862 2.78747 37.8862C2.5716 38.4219 2.82148 39.0335 3.34416 39.2605C3.47146 39.313 3.60589 39.3397 3.73794 39.3397C4.14517 39.3397 4.53106 39.0957 4.69474 38.6861L7.64894 31.5267L7.35874 38.2546C7.3453 38.6707 7.28916 39.3397 7.23064 39.7493L4.91694 55.5822C4.85526 55.9918 5.1423 56.34 5.54953 56.3634L7.01556 56.4386C7.029 56.4386 7.04086 56.4386 7.05747 56.4386C7.45126 56.4386 7.81895 56.1413 7.89644 55.7413L10.392 42.8891C10.4331 42.7008 10.4782 42.5974 10.5312 42.595C10.5842 42.5974 10.6364 42.7008 10.668 42.8891L13.1754 55.7413C13.2426 56.1413 13.6238 56.4386 14.0144 56.4386C14.0263 56.4386 14.0373 56.4386 14.0516 56.4386L15.5176 56.3634C15.9248 56.3408 16.2071 55.9918 16.1454 55.5822L13.8341 39.7509C13.7764 39.3413 13.7171 38.6723 13.6949 38.2562L13.4126 31.2851L16.4396 38.6529C16.4175 38.5948 16.4183 38.5309 16.408 38.4719C16.4696 38.8081 16.6752 39.1167 17.0066 39.2621C17.137 39.3146 17.2699 39.3413 17.4027 39.3413C17.5182 39.3413 17.632 39.3171 17.742 39.2775C17.7356 39.2799 17.7301 39.2856 17.7222 39.288C17.7506 39.2799 17.7815 39.2734 17.81 39.2629C17.8432 39.2492 17.8677 39.2209 17.8985 39.204C17.9444 39.1797 17.9839 39.1514 18.0258 39.1199C18.0424 39.1062 18.0646 39.0997 18.0812 39.0828C18.0669 39.0933 18.0511 39.0989 18.0393 39.1078C18.1737 38.9987 18.2884 38.8622 18.3564 38.6893L21.3121 31.5283L21.0219 38.2586C21.0077 38.6764 20.9516 39.3413 20.8938 39.7509L18.5793 55.5822C18.5161 55.9918 18.8039 56.3416 19.2111 56.3634L20.678 56.4386C20.6898 56.4386 20.7049 56.4434 20.7167 56.4434C21.1113 56.4434 21.4829 56.1413 21.5549 55.7413L24.0568 42.8891C24.0971 42.7008 24.1406 42.5998 24.1944 42.5966C24.245 42.5998 24.2996 42.7008 24.3304 42.8891L26.8355 55.7413C26.905 56.1413 27.2854 56.4434 27.6752 56.4434C27.6863 56.4434 27.7013 56.4386 27.714 56.4386L29.18 56.3634C29.5857 56.3424 29.8695 55.9918 29.8071 55.5822L27.4949 39.7509C27.438 39.3413 27.3787 38.6764 27.355 38.2586L27.0751 31.2851L30.1123 38.678C30.1226 38.7022 30.1384 38.7216 30.1502 38.7467C30.1945 38.8355 30.2459 38.9171 30.3084 38.9882C30.3376 39.0214 30.3732 39.0488 30.408 39.0779C30.4673 39.1296 30.5298 39.1757 30.5986 39.2112C30.6239 39.225 30.6413 39.25 30.6705 39.2613C30.6887 39.2694 30.7093 39.2662 30.7299 39.2734C30.8255 39.309 30.926 39.3292 31.028 39.3332C31.039 39.334 31.0501 39.3405 31.0635 39.3405C31.0659 39.3405 31.0675 39.3397 31.0699 39.3397C31.0715 39.3397 31.073 39.3405 31.0754 39.3405C31.0873 39.3405 31.0983 39.334 31.1094 39.3332C31.2138 39.3284 31.3126 39.3098 31.4099 39.2742C31.4304 39.267 31.4518 39.2694 31.4739 39.2613C31.5032 39.2484 31.5222 39.2217 31.5506 39.2072C31.6171 39.1733 31.674 39.1288 31.7317 39.0795C31.7673 39.0504 31.8021 39.023 31.8337 38.9898C31.9096 38.905 31.9761 38.8064 32.0203 38.6957C32.0211 38.6933 32.0243 38.6917 32.0259 38.6893L34.9753 31.5283L34.6843 38.2562C34.6701 38.6764 34.614 39.3413 34.557 39.7509L32.2433 55.5822C32.1801 55.9918 32.4679 56.3441 32.8743 56.3634L34.3388 56.4386C34.3546 56.4386 34.3673 56.4386 34.3815 56.4386C34.7761 56.4386 35.1461 56.1413 35.2189 55.7413L37.7176 42.8891C37.7579 42.7008 37.8014 42.5974 37.8592 42.5966C37.9098 42.5974 37.9628 42.7008 37.9952 42.8891L40.4994 55.7413C40.5675 56.1413 40.9494 56.4386 41.3376 56.4386C41.3511 56.4386 41.3645 56.4386 41.3764 56.4386L42.8416 56.3634C43.2496 56.3449 43.5335 55.9918 43.4703 55.5822L41.1613 39.7509C41.1012 39.3413 41.0419 38.6764 41.0198 38.2562L40.739 31.2851L43.7771 38.6917C43.8253 38.8032 43.8917 38.901 43.9668 38.9866C44.0008 39.023 44.0396 39.0529 44.0783 39.0852C44.1329 39.132 44.1875 39.1724 44.2483 39.2056C44.2784 39.2209 44.2974 39.2484 44.329 39.2613C44.3519 39.2702 44.3741 39.267 44.3954 39.2742C44.4911 39.3098 44.5884 39.3284 44.6912 39.3332C44.703 39.3332 44.7149 39.3405 44.7275 39.3405C44.7299 39.3405 44.7315 39.3397 44.7339 39.3397C44.7362 39.3397 44.7378 39.3405 44.741 39.3405C44.7552 39.3405 44.7671 39.3332 44.7797 39.3332C44.8794 39.3276 44.9766 39.3098 45.0691 39.2751C45.0929 39.267 45.1166 39.2702 45.1371 39.2613C45.1703 39.2476 45.1893 39.2193 45.2194 39.204C45.2771 39.1733 45.3301 39.1337 45.3815 39.09C45.4234 39.0545 45.4669 39.0206 45.504 38.9802C45.5531 38.9228 45.5918 38.8541 45.6282 38.7846C45.6503 38.7467 45.6772 38.7111 45.693 38.6691L48.7271 31.2835L48.448 38.257C48.425 38.6747 48.3657 39.3397 48.3064 39.7493L45.9959 55.5805C45.931 55.9902 46.2173 56.34 46.6229 56.3618L48.089 56.437C48.1016 56.437 48.1159 56.4418 48.1277 56.4418C48.516 56.4418 48.8979 56.1396 48.9635 55.7397L51.4725 42.8875C51.5026 42.6992 51.5572 42.5982 51.6078 42.595C51.6615 42.5982 51.709 42.6992 51.7461 42.8875L54.2465 55.7397C54.32 56.1396 54.6909 56.4418 55.0862 56.4418C55.0981 56.4418 55.1115 56.437 55.125 56.437L56.591 56.3618C56.999 56.3408 57.2869 55.9902 57.2212 55.5805L54.9083 39.7493C54.8506 39.3397 54.7944 38.6747 54.7786 38.257L54.4884 31.5267L57.4426 38.6877C57.4434 38.6901 57.4458 38.6917 57.4466 38.6941C57.4537 38.7111 57.4632 38.7281 57.4711 38.7426C57.464 38.7281 57.4561 38.7143 57.4497 38.699C57.5193 38.8662 57.6316 38.9995 57.7629 39.1062C57.751 39.0965 57.7352 39.0908 57.721 39.0811C57.7376 39.0973 57.7605 39.1046 57.7755 39.1183C57.8182 39.149 57.8586 39.1781 57.9044 39.2023C57.9361 39.2201 57.959 39.2484 57.993 39.2613C58.0199 39.2726 58.0523 39.2783 58.08 39.2864C58.0705 39.2839 58.0642 39.2767 58.057 39.2742C58.1685 39.3146 58.2832 39.3397 58.4002 39.3397C58.5307 39.3397 58.6651 39.3138 58.7964 39.2605C59.1317 39.1135 59.338 38.8008 59.3965 38.4574C59.3863 38.522 59.3863 38.5883 59.3633 38.6497L62.3903 31.2835L62.108 38.2546C62.0866 38.6747 62.0258 39.3397 61.968 39.7493L59.6583 55.5805C59.5942 55.9902 59.8781 56.3424 60.283 56.3618L61.7506 56.437C61.7648 56.437 61.7751 56.437 61.7909 56.437C62.1792 56.437 62.5571 56.1396 62.6283 55.7397L65.1342 42.8875C65.1642 42.6992 65.2164 42.5958 65.2702 42.5934C65.3224 42.5958 65.369 42.6992 65.4101 42.8875L67.9089 55.7397C67.9832 56.1396 68.3509 56.437 68.7471 56.437C68.7613 56.437 68.7731 56.437 68.7882 56.437L70.2518 56.3618C70.6606 56.3433 70.9477 55.9902 70.8852 55.5805L68.5723 39.7493C68.5138 39.3397 68.4553 38.6747 68.4426 38.2546L68.1524 31.5267L71.1066 38.6861C71.2679 39.0973 71.6554 39.3397 72.065 39.3397C72.1955 39.3397 72.3299 39.3138 72.4572 39.2605C72.9728 39.0359 73.2258 38.4243 73.0091 37.8886ZM16.4024 38.1302C16.3945 38.1795 16.3756 38.2296 16.3748 38.2805C16.3756 38.2287 16.3953 38.1787 16.4024 38.1302ZM16.5068 37.7464L13.7875 31.1243C13.7242 30.97 13.5732 30.8723 13.4111 30.8723C13.3834 30.8723 13.3533 30.8755 13.3233 30.8836C13.1311 30.9256 12.9959 31.1025 13.0038 31.3045L13.2861 38.2813C13.3067 38.6828 13.3676 39.3664 13.43 39.8132L15.7414 55.6484C15.758 55.747 15.7248 55.8148 15.6931 55.8536C15.6473 55.9094 15.5785 55.9417 15.4939 55.9465L14.0294 56.0225C14.0239 56.0257 14.0176 56.0257 14.0128 56.0257C13.8112 56.0257 13.6072 55.8609 13.5716 55.6638L11.0689 42.8147C10.9843 42.3114 10.7439 42.191 10.5549 42.1805C10.5462 42.1805 10.5407 42.1805 10.5304 42.1805C10.5233 42.1805 10.5185 42.1805 10.5106 42.1805C10.1232 42.2007 10.0307 42.637 9.99191 42.8107L7.49396 55.6662C7.45679 55.8674 7.26069 56.0257 7.05747 56.0257C7.04798 56.0257 7.04086 56.0257 7.03612 56.0225L5.57009 55.9465C5.48706 55.9417 5.41748 55.9078 5.37082 55.852C5.3384 55.8116 5.30756 55.7445 5.32338 55.6436L7.63392 39.8132C7.69481 39.3963 7.75174 38.7208 7.76835 38.2772L8.05696 31.5485C8.06645 31.349 7.93361 31.1672 7.74146 31.1227C7.71062 31.1179 7.68215 31.1138 7.65132 31.1138C7.49317 31.1138 7.34135 31.2116 7.27888 31.3692L4.31914 38.5325C4.22188 38.7717 3.99572 38.9244 3.74032 38.9244C3.65729 38.9244 3.57821 38.9082 3.50784 38.8767C3.18759 38.7418 3.03656 38.3685 3.16545 38.0486C3.20815 37.9468 7.32316 27.9927 7.59359 27.339C7.65685 27.2518 7.76439 27.1791 7.89012 27.1411C7.90435 27.1354 9.38066 26.6959 10.5794 26.6959C11.7711 26.6959 13.2537 27.1354 13.2656 27.1395C13.3858 27.1766 13.5234 27.2825 13.5574 27.3293C13.6902 27.6396 15.6773 32.4551 17.1861 36.1087C16.8603 36.8948 16.612 37.4919 16.5068 37.7464ZM27.0751 30.8714C27.0442 30.8714 27.0134 30.8723 26.9865 30.8811C26.7928 30.9248 26.6615 31.1009 26.667 31.3037L26.9485 38.2805C26.9691 38.682 27.03 39.3655 27.0932 39.8124L29.4054 55.646C29.418 55.7486 29.3864 55.814 29.3555 55.8528C29.3097 55.907 29.2401 55.9433 29.1587 55.9457L27.6903 56.0217C27.6847 56.0217 27.6784 56.0217 27.6736 56.0217C27.472 56.0217 27.2696 55.8601 27.2332 55.6629L24.7313 42.8139C24.6451 42.3106 24.4055 42.1902 24.2173 42.1797C24.2102 42.1781 24.1999 42.1781 24.1936 42.1781C24.1889 42.1781 24.1778 42.1781 24.1722 42.1797C23.7872 42.1999 23.6923 42.6362 23.6543 42.8115L21.1548 55.6654C21.1184 55.8649 20.9231 56.0217 20.7167 56.0217C20.7104 56.0217 20.7049 56.0217 20.6985 56.0217L19.2317 55.9457C19.1503 55.9433 19.0791 55.907 19.034 55.8512C19.0024 55.8108 18.9708 55.7462 18.985 55.6444L21.2971 39.8124C21.3564 39.3954 21.4141 38.72 21.4292 38.2788L21.7217 31.5477C21.7304 31.3481 21.596 31.1664 21.4039 31.1219C21.3762 31.1171 21.3446 31.1146 21.3137 31.1146C21.1548 31.1146 21.0022 31.2124 20.9397 31.3667L17.9823 38.5358C17.8867 38.7709 17.6621 38.9236 17.4035 38.9236C17.3221 38.9236 17.2406 38.9074 17.1671 38.8767C16.8508 38.7402 16.6998 38.3677 16.8271 38.0478C16.8713 37.946 20.9856 27.9927 21.2584 27.3382C21.3193 27.251 21.4284 27.1758 21.5509 27.1411C21.5668 27.1346 23.0415 26.6951 24.241 26.6951C25.4343 26.6951 26.9161 27.1346 26.9264 27.1387C27.0498 27.1758 27.1865 27.2841 27.2198 27.3285C27.3542 27.638 29.3389 32.4518 30.8493 36.107C30.5258 36.8916 30.2783 37.4887 30.174 37.744L27.4522 31.1243C27.3842 30.9684 27.234 30.8714 27.0751 30.8714ZM58.6351 38.8783C58.5592 38.909 58.4785 38.9252 58.3971 38.9252C58.1385 38.9252 57.9139 38.7725 57.8167 38.5374L54.8609 31.3683C54.7984 31.214 54.6466 31.1163 54.4845 31.1163C54.456 31.1163 54.4252 31.1187 54.3959 31.1235C54.2022 31.1688 54.0693 31.3498 54.0788 31.5493L54.3698 38.2788C54.3856 38.7208 54.4434 39.3963 54.5027 39.8124L56.8148 55.6444C56.829 55.7462 56.7958 55.8108 56.765 55.8512C56.7207 55.907 56.6495 55.9433 56.5673 55.9457L55.1012 56.0217C55.0941 56.0217 55.087 56.0217 55.0831 56.0217C54.8767 56.0217 54.6806 55.8649 54.6434 55.6654L52.1447 42.8115C52.1067 42.6362 52.0118 42.1999 51.6252 42.1797C51.6204 42.1781 51.6093 42.1781 51.6046 42.1781C51.5951 42.1781 51.588 42.1781 51.5801 42.1797C51.3935 42.1902 51.1531 42.3106 51.0677 42.8139L48.5634 55.6629C48.5294 55.8601 48.3246 56.0217 48.1253 56.0217C48.1182 56.0217 48.1135 56.0217 48.1064 56.0217L46.6419 55.9457C46.5597 55.9433 46.4909 55.907 46.4442 55.8528C46.4142 55.814 46.3825 55.7486 46.3952 55.646L48.7065 39.8124C48.7714 39.3647 48.8291 38.682 48.852 38.2805L49.1335 31.3037C49.1407 31.1009 49.007 30.924 48.8141 30.8811C48.7856 30.8723 48.7564 30.8714 48.7247 30.8714C48.5642 30.8714 48.4155 30.9676 48.3499 31.1251L45.629 37.7472C45.5238 37.4927 45.2771 36.894 44.9537 36.1078C46.4632 32.4526 48.448 27.6388 48.5808 27.3293C48.6156 27.2841 48.754 27.1766 48.8734 27.1395C48.8845 27.1354 50.3687 26.6959 51.5587 26.6959C52.7575 26.6959 54.2362 27.1354 54.2504 27.1419C54.373 27.1766 54.4821 27.2518 54.5438 27.339C54.8158 27.9935 58.9308 37.9468 58.9727 38.0486C59.1 38.3693 58.9482 38.7418 58.6351 38.8783ZM59.3475 37.8886C59.3989 38.0171 59.4219 38.1504 59.4226 38.2821C59.4219 38.1504 59.3997 38.0171 59.3475 37.8886Z" stroke="#3C0A6D" stroke-width="0.6" mask="url(#path-9-outside-1_576_219)"/>
<path d="M65.218 25.7736C66.7584 25.7736 68.0028 24.5096 68.0028 22.9549C68.0028 21.3901 66.7588 20.1257 65.218 20.1257C63.6842 20.1257 62.438 21.3901 62.438 22.9549C62.438 24.5104 63.6846 25.7736 65.218 25.7736ZM65.218 20.841C66.3633 20.841 67.2979 21.788 67.2979 22.9557C67.2979 24.117 66.3633 25.0591 65.218 25.0591C64.078 25.0591 63.146 24.1175 63.146 22.9557C63.146 21.7875 64.0787 20.841 65.218 20.841Z" fill="#3C0A6D" stroke="#3C0A6D" stroke-width="0.3"/>
</g>
</svg>
