<svg width="51" height="51" viewBox="0 0 51 51" fill="none" xmlns="http://www.w3.org/2000/svg">
<circle cx="25.2227" cy="25.6047" r="25" fill="#D9D9D9"/>
<path d="M25.2077 32.5353L22.9745 37.3209L18.8363 28.5513V39.7156H13.8228V19.0602H18.9594L25.2077 32.5353Z" fill="#3C0A6D"/>
<path d="M31.4537 19.0602L25.2074 32.5353L22.9741 37.3209L23.531 38.4987H26.8837L31.5768 28.5513V39.7156H36.5904V19.0602H31.4537Z" fill="url(#paint0_linear_661_41)"/>
<path d="M16.3882 11.4938C18.0079 11.4938 19.1451 12.6092 19.1451 14.2454C19.1451 15.8815 18.0079 16.9774 16.3882 16.9774C14.7685 16.9774 13.6509 15.862 13.6509 14.2454C13.6509 12.6287 14.7685 11.4938 16.3882 11.4938Z" fill="#3C0A6D"/>
<path d="M34.0371 11.4938C35.6568 11.4938 36.794 12.6092 36.794 14.2454C36.794 15.8815 35.6568 16.9774 34.0371 16.9774C32.4174 16.9774 31.2998 15.862 31.2998 14.2454C31.2998 12.6287 32.4174 11.4938 34.0371 11.4938Z" fill="url(#paint1_linear_661_41)"/>
<defs>
<linearGradient id="paint0_linear_661_41" x1="27.0479" y1="39.9652" x2="38.9227" y2="21.8864" gradientUnits="userSpaceOnUse">
<stop stop-color="#521986"/>
<stop offset="1" stop-color="#984AD7"/>
</linearGradient>
<linearGradient id="paint1_linear_661_41" x1="35.8405" y1="12.2621" x2="32.407" y2="16.0538" gradientUnits="userSpaceOnUse">
<stop stop-color="#521986"/>
<stop offset="1" stop-color="#984AD7"/>
</linearGradient>
</defs>
</svg>
