<svg width="75" height="75" viewBox="0 0 75 75" fill="none" xmlns="http://www.w3.org/2000/svg">
<mask id="mask0_1291_695" style="mask-type:alpha" maskUnits="userSpaceOnUse" x="0" y="0" width="75" height="75">
<rect width="75" height="75" fill="#D9D9D9"/>
</mask>
<g mask="url(#mask0_1291_695)">
<path d="M68.9893 24.3086C68.5412 23.7764 67.9567 23.3761 67.2985 23.1507C66.6403 22.9253 65.9331 22.8832 65.2528 23.029C64.5725 23.1748 63.9447 23.5029 63.4366 23.9783C62.9286 24.4536 62.5594 25.0582 62.3687 25.7273L59.3268 35.3387C59.1138 35.2577 58.8829 35.2351 58.6582 35.2733C58.4334 35.3115 58.223 35.4091 58.0487 35.556L51.4153 41.4737C50.1452 42.6285 48.6217 43.4691 46.9675 43.9276C45.3563 44.3046 43.8529 45.0454 42.5723 46.0933C41.2918 47.1412 40.2682 48.4684 39.58 49.9731C38.8227 51.7267 38.5321 53.6465 38.7364 55.5457L39.2988 61.2716H36.7426L37.2666 55.5457C37.4698 53.6465 37.1792 51.7271 36.423 49.9731C35.7387 48.4727 34.721 47.1483 33.4474 46.1007C32.1739 45.053 30.6781 44.3098 29.0739 43.9276C27.4469 43.4581 25.9508 42.6182 24.7028 41.4737L18.0694 35.556C17.895 35.4091 17.6846 35.3115 17.4599 35.2733C17.2352 35.2351 17.0043 35.2577 16.7912 35.3387L13.7366 25.7273C13.5213 24.7104 12.9109 23.8206 12.0396 23.2538C11.1683 22.6869 10.1075 22.4893 9.09061 22.7046C8.07368 22.9198 7.18391 23.5303 6.61704 24.4015C6.05017 25.2728 5.85263 26.3336 6.06788 27.3505L8.03617 44.1321C8.27678 46.1823 9.13228 48.1116 10.4901 49.6664L15.7432 55.7118C16.2639 56.2974 16.6255 57.0068 16.7933 57.7722C16.9612 58.5376 16.9296 59.3333 16.7018 60.083L16.3439 61.3611H10.7586C10.4196 61.3611 10.0945 61.4958 9.85479 61.7354C9.6151 61.9751 9.48044 62.3002 9.48044 62.6392V69.5921C9.48044 69.9311 9.6151 70.2562 9.85479 70.4959C10.0945 70.7356 10.4196 70.8703 10.7586 70.8703H65.2828C65.6218 70.8703 65.9469 70.7356 66.1866 70.4959C66.4263 70.2562 66.5609 69.9311 66.5609 69.5921V62.5497C66.5609 62.2108 66.4263 61.8857 66.1866 61.646C65.9469 61.4063 65.6218 61.2716 65.2828 61.2716H59.7486L59.3907 59.9935C59.1722 59.2608 59.1408 58.4851 59.2993 57.7371C59.4578 56.9892 59.8012 56.2929 60.2982 55.7118L65.5512 49.6919C66.9091 48.1372 67.7646 46.2079 68.0052 44.1577L69.9735 27.3505C70.038 26.8025 69.9834 26.2471 69.8136 25.7221C69.6437 25.1971 69.3626 24.715 68.9893 24.3086ZM17.6731 53.9992L12.4584 48.0432C11.4464 46.8781 10.8094 45.4349 10.6307 43.9021L8.6241 27.0566C8.59802 26.8682 8.61431 26.6763 8.6718 26.495C8.72929 26.3137 8.82653 26.1475 8.95641 26.0085C9.07919 25.8649 9.23228 25.7503 9.40466 25.6729C9.57705 25.5956 9.76443 25.5574 9.95334 25.5612C10.2378 25.5612 10.5148 25.6516 10.7445 25.8193C10.9743 25.987 11.1448 26.2233 11.2315 26.4942L14.7207 37.5371C14.5074 37.9873 14.3569 38.4647 14.2734 38.9558C14.1379 39.8794 14.2186 40.8219 14.5091 41.709C14.7996 42.5961 15.2921 43.4037 15.9477 44.0682L22.0187 50.4588C22.2582 50.6968 22.5821 50.8305 22.9198 50.8305C23.2574 50.8305 23.5814 50.6968 23.8209 50.4588C23.9407 50.34 24.0357 50.1986 24.1006 50.0429C24.1655 49.8871 24.1989 49.7201 24.1989 49.5513C24.1989 49.3826 24.1655 49.2156 24.1006 49.0598C24.0357 48.9041 23.9407 48.7627 23.8209 48.6439L17.7498 42.2533C17.3701 41.8774 17.0826 41.4187 16.9096 40.9132C16.7367 40.4076 16.683 39.8689 16.7529 39.3392C16.8108 38.9483 16.9502 38.5738 17.1619 38.2401L22.9006 43.3525C24.4388 44.7646 26.2858 45.7975 28.2942 46.3688C29.5388 46.6469 30.7026 47.2077 31.6955 48.0078C32.6885 48.8079 33.4839 49.8259 34.0202 50.9828C34.5942 52.3369 34.8141 53.8148 34.6592 55.2773L34.1863 61.2716H19.0152L19.1557 60.7732C19.5016 59.6108 19.5471 58.3797 19.2878 57.195C19.0285 56.0103 18.473 54.9108 17.6731 53.9992ZM64.0047 68.2246H12.0367V63.8279H64.0047V68.2246ZM65.4618 43.8382C65.2811 45.3992 64.6253 46.8671 63.5829 48.0432L58.3171 54.0631C57.5261 54.977 56.9798 56.0766 56.7295 57.2591C56.4791 58.4416 56.5328 59.6682 56.8856 60.8243L57.0262 61.3228H41.855L41.3054 55.354C41.1506 53.8914 41.3705 52.4136 41.9445 51.0595C42.4808 49.9026 43.2762 48.8846 44.2692 48.0845C45.2621 47.2844 46.4259 46.7236 47.6704 46.4455C49.6788 45.8742 51.5259 44.8413 53.0641 43.4292L58.8028 38.3167C59.0145 38.6505 59.1539 39.0249 59.2118 39.4159C59.2816 39.9456 59.228 40.4843 59.055 40.9899C58.8821 41.4954 58.5945 41.9541 58.2149 42.33L52.1438 48.7206C52.024 48.8394 51.9289 48.9807 51.8641 49.1365C51.7992 49.2922 51.7658 49.4593 51.7658 49.628C51.7658 49.7968 51.7992 49.9638 51.8641 50.1196C51.9289 50.2753 52.024 50.4167 52.1438 50.5355C52.3833 50.7735 52.7072 50.9072 53.0449 50.9072C53.3825 50.9072 53.7065 50.7735 53.946 50.5355L60.017 44.1449C60.6726 43.4804 61.165 42.6728 61.4556 41.7857C61.7461 40.8985 61.8268 39.9561 61.6913 39.0325C61.6078 38.5413 61.4573 38.064 61.244 37.6138L64.861 26.4942C64.9477 26.2233 65.1182 25.987 65.3479 25.8193C65.5777 25.6516 65.8547 25.5612 66.1391 25.5612C66.3281 25.5574 66.5154 25.5956 66.6878 25.6729C66.8602 25.7503 67.0133 25.8649 67.1361 26.0085C67.266 26.1475 67.3632 26.3137 67.4207 26.495C67.4782 26.6763 67.4945 26.8682 67.4684 27.0566L65.4618 43.8382Z" fill="#3C0A6D" stroke="white" stroke-width="0.6"/>
<path d="M23.1433 35.6711C25.9038 37.4272 29.1264 38.3174 32.3969 38.2273C34.2899 38.2098 36.1755 37.9869 38.0205 37.5627C39.8656 37.9869 41.7512 38.2098 43.6442 38.2273C46.915 38.3198 50.1383 37.4293 52.8978 35.6711C56.7139 32.9612 59.3696 28.9137 60.3364 24.3342C60.367 24.166 60.3635 23.9934 60.3262 23.8265C60.2889 23.6597 60.2184 23.502 60.1191 23.3628C60.0191 23.2222 59.8917 23.1033 59.7445 23.0132C59.5974 22.9232 59.4335 22.8638 59.2628 22.8388C57.6593 22.5989 56.0401 22.4792 54.4187 22.4809C55.3035 19.3567 55.2009 16.0354 54.1248 12.9718C54.0292 12.7144 53.8533 12.4946 53.6231 12.345C53.3929 12.1954 53.1207 12.1239 52.8466 12.141C50.3721 12.3516 47.9516 12.9827 45.6892 14.0071C44.1683 8.63899 38.928 5.21365 38.6852 5.06028C38.4792 4.92815 38.2397 4.85791 37.995 4.85791C37.7503 4.85791 37.5107 4.92815 37.3048 5.06028C37.062 5.21365 31.8217 8.63899 30.3007 14.0071C28.0585 12.9869 25.6605 12.3517 23.2072 12.1282C22.9332 12.1111 22.661 12.1826 22.4308 12.3322C22.2006 12.4819 22.0247 12.7016 21.9291 12.959C20.8461 16.0252 20.739 19.3514 21.6224 22.4809C20.0007 22.4835 18.3815 22.6074 16.7783 22.8516C16.6076 22.8766 16.4437 22.936 16.2966 23.026C16.1494 23.1161 16.022 23.235 15.922 23.3756C15.8226 23.5148 15.7522 23.6724 15.7149 23.8393C15.6776 24.0061 15.6741 24.1788 15.7047 24.347C16.6744 28.9218 19.3299 32.9643 23.1433 35.6711ZM51.4663 33.5622C48.3221 35.6199 44.3089 36.2206 39.5287 35.326C40.2499 32.4417 41.9033 29.8762 44.2322 28.028C47.453 25.5484 51.9008 24.5898 57.4734 25.1905C56.4648 28.5749 54.3494 31.5229 51.4663 33.5622ZM51.5558 22.6343C48.3127 22.9019 45.2113 24.0805 42.609 26.0341C41.3227 27.0488 40.2054 28.261 39.2987 29.6256V28.3475C39.2665 25.8703 39.9212 23.4327 41.1903 21.3051C42.246 19.5869 43.6963 18.1454 45.4208 17.1001C47.4609 15.8906 49.7271 15.1119 52.0798 14.8123C52.804 17.4029 52.619 20.1634 51.5558 22.6343ZM38.0205 7.70597C39.452 8.80515 42.6601 11.6298 43.4142 15.3746C41.6507 16.5721 40.1538 18.1212 39.0175 19.9247C38.6349 20.5408 38.3015 21.1861 38.0205 21.8547C37.7395 21.1861 37.4062 20.5408 37.0236 19.9247C35.8929 18.1028 34.3956 16.5359 32.6269 15.3235C33.381 11.6298 36.5891 8.80515 38.0205 7.70597ZM24.0252 14.8123C26.3433 15.108 28.5778 15.8688 30.5947 17.049C32.3192 18.0943 33.7696 19.5358 34.8253 21.254C36.1056 23.3827 36.7693 25.8252 36.7424 28.3091V29.5872C35.8313 28.2144 34.7049 26.9974 33.4066 25.983C30.8012 24.0348 27.7014 22.8569 24.4598 22.5832C23.438 20.1171 23.2848 17.3769 24.0252 14.8123ZM31.8089 28.0407C34.1361 29.8928 35.7926 32.4562 36.5252 35.3388C31.7322 36.2334 27.719 35.6327 24.5748 33.575C21.6917 31.5356 19.5763 28.5877 18.5677 25.2033C24.1403 24.5898 28.6009 25.5484 31.8089 28.028V28.0407Z" fill="#3C0A6D" stroke="white" stroke-width="0.6"/>
</g>
</svg>
