<svg width="76" height="76" viewBox="0 0 76 76" fill="none" xmlns="http://www.w3.org/2000/svg">
<mask id="mask0_576_212" style="mask-type:alpha" maskUnits="userSpaceOnUse" x="0" y="0" width="76" height="76">
<rect x="0.398438" y="0.564453" width="75" height="75" fill="#D9D9D9"/>
</mask>
<g mask="url(#mask0_576_212)">
<path d="M65.9173 42.5068L61.5911 35.0793C61.384 34.6526 61.2782 34.182 61.2823 33.7056V29.0352C61.2768 28.7474 61.1611 28.4732 60.96 28.2717C60.7589 28.0701 60.4884 27.9572 60.2067 27.9572C59.925 27.9572 59.6545 28.0701 59.4534 28.2717C59.2523 28.4733 59.1367 28.7474 59.1312 29.0352C59.2402 30.8107 58.7605 34.5844 59.712 36.1466L64.0362 43.5703C64.0485 43.5928 64.0544 43.6183 64.0533 43.644C64.0522 43.6697 64.0441 43.6945 64.0299 43.7157C64.0165 43.74 63.997 43.7602 63.9733 43.774C63.9496 43.7878 63.9227 43.7947 63.8954 43.7941H61.5827C60.9313 43.7963 60.3073 44.0624 59.8477 44.5341C59.3881 45.0058 59.1305 45.6446 59.1312 46.3102V57.1348C59.1254 57.5907 58.9456 58.0261 58.6301 58.3485C58.3147 58.6708 57.8885 58.8546 57.4423 58.8605H51.6131C50.675 58.8616 49.7756 59.2428 49.1122 59.9206C48.4488 60.5985 48.0757 61.5175 48.0747 62.4761V66.5031L20.7887 63.4575C20.8072 60.7685 21.0814 57.4655 19.189 55.283L18.0968 53.927C15.3457 50.399 13.4164 46.2775 12.455 41.8748C11.4937 37.472 11.5255 32.9035 12.5481 28.5152C12.7456 27.6269 13.3437 26.3317 12.1393 25.939C10.8534 25.5895 10.6379 27.1595 10.4359 28.0961C9.89454 30.4216 9.61541 32.8028 9.60399 35.1931C9.55174 43.102 12.3694 50.7501 17.5129 56.6605C19.143 58.4413 18.5345 62.2489 18.6377 64.4427C18.6377 64.7135 18.7355 64.9749 18.9125 65.1765C19.0895 65.3781 19.3331 65.5059 19.5966 65.5352L49.0336 68.8212C49.1836 68.8368 49.3351 68.8201 49.4784 68.7724C49.6217 68.7247 49.7537 68.6469 49.8659 68.5441C49.9781 68.4412 50.0681 68.3156 50.1301 68.1752C50.192 68.0348 50.2246 67.8827 50.2257 67.7287V62.4761C50.2262 62.1003 50.3725 61.7399 50.6326 61.4742C50.8927 61.2084 51.2454 61.0589 51.6132 61.0584H57.4424C58.4604 61.0573 59.4365 60.6435 60.1564 59.908C60.8763 59.1724 61.2812 58.1751 61.2823 57.1349V46.3102C61.2809 46.2273 61.3118 46.1472 61.3681 46.0876C61.4244 46.0279 61.5016 45.9935 61.5827 45.992H63.8955C64.2945 45.9891 64.6859 45.8808 65.0319 45.6778C65.3778 45.4747 65.6666 45.1837 65.87 44.833C66.0734 44.4823 66.1847 44.0838 66.193 43.6763C66.2013 43.2687 66.1063 42.8658 65.9173 42.5068Z" fill="#3C0A6D"/>
<path d="M29.208 26.5403H34.3807L31.4336 38.8953C31.3768 39.1525 31.4122 39.4219 31.5333 39.6547C31.6544 39.8875 31.8531 40.0682 32.0935 40.1639C32.3339 40.2597 32.5999 40.2642 32.8432 40.1767C33.0866 40.0891 33.2911 39.9153 33.4197 39.6867L43.2317 21.5318C43.3199 21.3642 43.3643 21.1762 43.3607 20.9859C43.357 20.7957 43.3054 20.6096 43.2107 20.4457C43.1161 20.2818 42.9817 20.1456 42.8205 20.0503C42.6594 19.955 42.4768 19.9038 42.2906 19.9016H37.1473L40.0598 8.66646C40.1211 8.41113 40.0911 8.1418 39.9751 7.9071C39.8592 7.67241 39.6649 7.4878 39.4274 7.38663C39.1899 7.28545 38.9248 7.27436 38.6801 7.35537C38.4353 7.43638 38.2269 7.60415 38.0925 7.82838L28.2806 24.8844C28.187 25.0517 28.1379 25.2412 28.1379 25.4339C28.138 25.6266 28.1873 25.816 28.281 25.9832C28.3747 26.1505 28.5095 26.2899 28.6721 26.3876C28.8347 26.4853 29.0194 26.5379 29.208 26.5403ZM35.9709 15.8536L34.7095 20.7194C34.6688 20.8819 34.6649 21.0519 34.698 21.2162C34.731 21.3806 34.8003 21.5351 34.9005 21.6681C35.0007 21.8011 35.1292 21.909 35.2762 21.9838C35.4233 22.0585 35.5851 22.0981 35.7493 22.0995H40.4684L35.43 31.4211L36.7944 25.7016C36.8314 25.54 36.8324 25.372 36.7973 25.2099C36.7622 25.0478 36.6919 24.8959 36.5915 24.7654C36.4912 24.6349 36.3634 24.5291 36.2176 24.4559C36.0718 24.3827 35.9118 24.3439 35.7493 24.3424H31.088L35.9709 15.8536Z" fill="#3C0A6D"/>
<path d="M15.0561 31.8987H19.2941L16.8144 42.2946C16.7576 42.5518 16.7929 42.8212 16.914 43.054C17.0351 43.2868 17.2339 43.4676 17.4742 43.5633C17.7146 43.6591 17.9807 43.6636 18.224 43.576C18.4674 43.4885 18.6719 43.3146 18.8005 43.086L27.2113 27.5244C27.2996 27.3568 27.344 27.1688 27.3403 26.9786C27.3367 26.7883 27.285 26.6023 27.1904 26.4384C27.0958 26.2745 26.9614 26.1383 26.8002 26.043C26.639 25.9476 26.4565 25.8964 26.2703 25.8943H22.0606L24.5068 16.4621C24.5733 16.2053 24.5466 15.9326 24.4316 15.6944C24.3165 15.4562 24.121 15.2686 23.8811 15.1663C23.6412 15.064 23.3731 15.054 23.1265 15.138C22.8799 15.222 22.6714 15.3944 22.5396 15.6234L14.1287 30.2428C14.0352 30.4101 13.986 30.5995 13.9861 30.7922C13.9862 30.985 14.0355 31.1743 14.1292 31.3416C14.2228 31.5089 14.3576 31.6482 14.5202 31.7459C14.6828 31.8436 14.8675 31.8963 15.0561 31.8987ZM20.4169 23.6502L19.6229 26.7114C19.5821 26.8741 19.5781 27.044 19.6112 27.2085C19.6442 27.3729 19.7135 27.5275 19.8137 27.6605C19.9139 27.7936 20.0424 27.9016 20.1895 27.9763C20.3366 28.0511 20.4984 28.0907 20.6627 28.0921H24.448L20.8107 34.8215L21.7076 31.06C21.7447 30.8984 21.7457 30.7303 21.7106 30.5683C21.6755 30.4062 21.6051 30.2543 21.5048 30.1238C21.4044 29.9933 21.2766 29.8875 21.1308 29.8143C20.9851 29.741 20.825 29.7023 20.6626 29.7008H16.9362L20.4169 23.6502Z" fill="#3C0A6D"/>
<path d="M45.1758 31.9046H49.4148L46.935 42.3006C46.8782 42.5577 46.9136 42.8272 47.0347 43.0599C47.1558 43.2927 47.3545 43.4734 47.5949 43.5692C47.8353 43.665 48.1013 43.6695 48.3447 43.5819C48.588 43.4944 48.7926 43.3205 48.9211 43.092L57.331 27.5303C57.4192 27.3628 57.4636 27.1748 57.46 26.9845C57.4563 26.7942 57.4047 26.6082 57.31 26.4443C57.2154 26.2804 57.081 26.1442 56.9198 26.0489C56.7586 25.9536 56.5761 25.9023 56.3899 25.9002H52.1813L54.6264 16.4674C54.6928 16.2107 54.666 15.938 54.551 15.6999C54.4359 15.4618 54.2403 15.2743 54.0004 15.1721C53.7605 15.0699 53.4925 15.0599 53.246 15.1439C52.9994 15.228 52.791 15.4004 52.6592 15.6293L44.2483 30.2487C44.1548 30.4161 44.1056 30.6055 44.1057 30.7982C44.1058 30.9909 44.1551 31.1803 44.2488 31.3475C44.3425 31.5148 44.4773 31.6542 44.6398 31.7519C44.8024 31.8496 44.9872 31.9023 45.1758 31.9046ZM50.5376 23.6535L49.7435 26.7179C49.7028 26.8805 49.6989 27.0504 49.732 27.2148C49.7651 27.3792 49.8343 27.5337 49.9345 27.6667C50.0347 27.7997 50.1632 27.9076 50.3102 27.9824C50.4573 28.0571 50.6191 28.0967 50.7833 28.0981H54.5676L50.9314 34.8259L51.8283 31.066C51.8654 30.9044 51.8664 30.7363 51.8313 30.5743C51.7962 30.4122 51.7258 30.2603 51.6255 30.1298C51.5251 29.9993 51.3973 29.8935 51.2515 29.8203C51.1058 29.747 50.9457 29.7083 50.7833 29.7068H47.0558L50.5376 23.6535Z" fill="#3C0A6D"/>
</g>
</svg>
