<svg width="76" height="76" viewBox="0 0 76 76" fill="none" xmlns="http://www.w3.org/2000/svg">
<mask id="mask0_577_233" style="mask-type:alpha" maskUnits="userSpaceOnUse" x="0" y="0" width="76" height="76">
<rect x="0.398438" y="0.830566" width="75" height="75" fill="#D9D9D9"/>
</mask>
<g mask="url(#mask0_577_233)">
<path d="M18.4847 54.9667C23.071 54.9667 26.8045 51.2333 26.8045 46.647C26.8045 42.0608 23.071 38.3273 18.4847 38.3273C13.8985 38.3273 10.165 42.0608 10.165 46.647C10.165 51.2333 13.8985 54.9667 18.4847 54.9667ZM18.4847 41.1006C21.5422 41.1006 24.0312 43.5896 24.0312 46.647C24.0312 49.7045 21.5422 52.1935 18.4847 52.1935C15.4273 52.1935 12.9383 49.7045 12.9383 46.647C12.9383 43.5896 15.4273 41.1006 18.4847 41.1006Z" fill="#3C0A6D"/>
<path d="M27.1517 55.2543C26.6421 54.8591 25.928 54.8729 25.4288 55.282C21.4908 58.4989 15.4798 58.4989 11.5422 55.282C11.0431 54.8729 10.3289 54.8591 9.81938 55.2543C9.41033 55.5697 9.02901 55.9164 8.69278 56.2561C6.06517 58.8456 4.61963 62.3295 4.61963 66.0596C4.61963 69.1171 7.10862 71.6061 10.1661 71.6061H26.8055C29.863 71.6061 32.352 69.1171 32.352 66.0596C32.352 62.3296 30.9064 58.8492 28.2892 56.2667C27.9426 55.9166 27.5607 55.5662 27.1517 55.2543ZM26.8051 68.8329H10.1656C8.63685 68.8329 7.3924 67.5885 7.3924 66.0597C7.3924 63.0784 8.54678 60.2983 10.6544 58.2184L10.7342 58.1387C15.2823 61.2585 21.6851 61.2585 26.2368 58.1387C26.268 58.1699 26.2992 58.2011 26.3304 58.2323C28.4242 60.2948 29.5786 63.0784 29.5786 66.0597C29.5786 67.5885 28.3338 68.8329 26.8051 68.8329Z" fill="#3C0A6D"/>
<path d="M48.9902 46.647C48.9902 51.2333 52.7237 54.9667 57.3099 54.9667C61.8962 54.9667 65.6296 51.2333 65.6296 46.647C65.6296 42.0608 61.8962 38.3273 57.3099 38.3273C52.7237 38.3273 48.9902 42.0573 48.9902 46.647ZM57.3099 41.1006C60.3674 41.1006 62.8564 43.5896 62.8564 46.647C62.8564 49.7045 60.3674 52.1935 57.3099 52.1935C54.2525 52.1935 51.7635 49.7045 51.7635 46.647C51.7635 43.5896 54.2525 41.1006 57.3099 41.1006Z" fill="#3C0A6D"/>
<path d="M67.1139 56.2668C66.7672 55.9167 66.3859 55.5666 65.9769 55.2546C65.4639 54.8594 64.7498 54.8733 64.254 55.2824C60.316 58.4993 54.305 58.4993 50.3674 55.2824C49.8648 54.8733 49.1507 54.8594 48.6446 55.2546C48.2355 55.5701 47.8542 55.9167 47.518 56.2565C44.8904 58.846 43.4448 62.3299 43.4448 66.06C43.4448 69.1174 45.9338 71.6064 48.9913 71.6064H65.6307C68.6882 71.6064 71.1772 69.1174 71.1772 66.06C71.1772 62.33 69.7311 58.8458 67.1139 56.2668ZM65.6302 68.8329H48.9908C47.462 68.8329 46.2175 67.5885 46.2175 66.0597C46.2175 63.0784 47.3719 60.2983 49.4796 58.2184L49.5593 58.1387C54.1074 61.2585 60.5102 61.2585 65.0619 58.1387C65.0931 58.1699 65.1243 58.2011 65.1555 58.2323C67.2493 60.2948 68.4037 63.0785 68.4037 66.0597C68.4037 67.5885 67.159 68.8329 65.6302 68.8329Z" fill="#3C0A6D"/>
<path d="M53.3857 27.7198C53.663 27.0057 53.3094 26.2015 52.5953 25.9242C51.8812 25.6503 51.077 26.0004 50.8031 26.718C50.0994 28.5345 49.056 30.143 47.7006 31.4949C45.0799 34.1156 41.5995 35.5611 37.8971 35.5611C34.1947 35.5611 30.7144 34.119 28.0936 31.4949C26.7382 30.143 25.6982 28.5345 24.991 26.718C24.7761 26.1564 24.211 25.8271 23.6148 25.834C23.0116 25.8722 22.502 26.2916 22.3564 26.8775L21.2991 31.0546C21.1085 31.7965 21.5591 32.5522 22.3009 32.7394C23.067 32.9231 23.7985 32.4759 23.9856 31.7341L24.1555 31.065C24.7344 31.9178 25.393 32.7186 26.1315 33.4535C29.3761 36.6981 33.6365 38.3205 37.8971 38.3205C42.1577 38.3205 46.4179 36.6982 49.6627 33.4535C51.2885 31.8242 52.5433 29.8968 53.3857 27.7198Z" fill="#3C0A6D"/>
<path d="M23.1996 17.4486C23.366 17.511 23.5324 17.5422 23.7023 17.5422C24.2569 17.5422 24.7839 17.206 24.9953 16.6583C25.699 14.8418 26.7424 13.2333 28.0978 11.8814C30.715 9.2607 34.1955 7.81862 37.8978 7.81862C41.6001 7.81862 45.0805 9.2607 47.7013 11.8848C49.0566 13.2368 50.0966 14.8452 50.8038 16.6617C51.0188 17.2233 51.5907 17.5769 52.1801 17.5457C52.7832 17.5076 53.2928 17.0881 53.4384 16.5022L54.4957 12.3251C54.6864 11.5832 54.2357 10.8275 53.4939 10.6404C52.7209 10.4532 51.9929 10.9038 51.8092 11.6457L51.6359 12.3078C51.057 11.455 50.3983 10.6542 49.6599 9.91933C43.1705 3.43342 32.6185 3.43342 26.1287 9.91933C24.4994 11.5486 23.248 13.476 22.4056 15.653C22.1318 16.3705 22.4855 17.1713 23.1996 17.4486Z" fill="#3C0A6D"/>
</g>
</svg>
