<svg width="76" height="76" viewBox="0 0 76 76" fill="none" xmlns="http://www.w3.org/2000/svg">
<mask id="mask0_577_239" style="mask-type:alpha" maskUnits="userSpaceOnUse" x="0" y="0" width="76" height="76">
<rect x="0.398438" y="0.290527" width="75" height="75" fill="#D9D9D9"/>
</mask>
<g mask="url(#mask0_577_239)">
<path d="M72.2312 30.6292C71.6543 28.2773 70.4034 26.1473 68.6312 24.5026C66.8561 22.8551 64.6401 21.7651 62.2549 21.3685C57.3375 20.6003 52.5951 22.9494 49.0671 27.8502C45.5724 22.9966 40.8714 20.6392 36.0014 21.3491C33.6356 21.7208 31.4306 22.7692 29.6501 24.3722C27.8723 25.9725 26.5937 28.0554 25.9752 30.3685C25.035 33.9685 25.5065 37.7931 27.2981 41.055H24.0199C23.7647 41.0494 23.5179 41.1465 23.3348 41.324C23.1518 41.5015 23.0464 41.7456 23.0464 42.0035C23.0464 42.2587 23.1518 42.5027 23.3348 42.6802C23.5179 42.8605 23.7647 42.9548 24.0199 42.9492H28.3992C29.4809 44.5801 30.7429 46.0833 32.1629 47.4312H31.0785C30.5571 47.4312 30.1327 47.8556 30.1327 48.377V54.6174H16.5622V48.377C16.5622 47.8555 16.1379 47.4312 15.6165 47.4312H7.93412C7.4127 47.4312 6.98838 47.8556 6.98838 48.377V52.6371H5.69594C4.28699 52.6371 3.14713 53.7798 3.14429 55.1859V60.2503C3.14706 61.6564 4.28699 62.7991 5.69594 62.7991H6.98838V67.0592C6.98838 67.5834 7.40995 68.0049 7.93412 68.0049H15.6165C16.1379 68.0049 16.5622 67.5833 16.5622 67.0592V60.8215H30.1327V67.0619V67.0592C30.1327 67.5833 30.5571 68.0049 31.0785 68.0049H38.7608C39.285 68.0049 39.7066 67.5833 39.7066 67.0592V62.7991H40.999C42.408 62.7991 43.5478 61.6564 43.5478 60.2503V55.3273C45.3339 56.5199 46.9454 57.951 48.3432 59.5791C48.5235 59.7926 48.7897 59.9147 49.0671 59.9147C49.3472 59.9147 49.6107 59.7926 49.7909 59.5791C52.3509 56.5394 55.3851 54.7338 58.3196 52.9921C60.0032 52.0352 61.6256 50.9785 63.1788 49.8303C70.5921 44.1086 73.8926 37.111 72.2312 30.6292ZM5.69495 60.9078C5.33162 60.9051 5.03763 60.6138 5.03763 60.2505V55.1861C5.04317 54.8256 5.33439 54.5343 5.69495 54.5288H6.98739V60.9051L5.69495 60.9078ZM14.6674 66.1164H8.87915V49.3231H14.6702L14.6674 66.1164ZM16.5617 58.9304V56.5091H30.1322V58.9275L16.5617 58.9304ZM30.7095 42.9522H33.5662C33.9683 42.9522 34.3233 42.6998 34.4592 42.3226L35.7627 38.681L38.5612 47.4312H34.9973C33.3997 46.1083 31.9604 44.6052 30.7095 42.9522ZM37.8096 66.1136H32.0241V49.3231H37.8124L37.8096 66.1136ZM41.651 60.2504H41.6537C41.651 60.6138 41.3597 60.905 40.9964 60.9077H39.7067V54.5314H40.9992C41.3597 54.537 41.651 54.8282 41.6565 55.1888L41.651 60.2504ZM62.022 48.33C60.5298 49.4338 58.9684 50.4462 57.3542 51.3614C54.5502 53.0283 51.6575 54.7478 49.0698 57.5379C46.4821 54.7478 43.5893 53.0282 40.7853 51.3614C40.4303 51.1506 40.0698 50.9343 39.7092 50.7179L39.7064 48.7016C40.128 48.6822 40.4858 48.3855 40.5801 47.975L43.6393 35.0258L48.5955 51.0345H48.5928C48.7148 51.4283 49.0781 51.7001 49.4914 51.7001H49.4969H49.4941C49.9074 51.7029 50.2708 51.4366 50.3955 51.0456L53.6183 41.0052H60.3136C60.5687 41.0108 60.8183 40.9165 61.0014 40.7362C61.1844 40.5587 61.2871 40.3146 61.2871 40.0567C61.2871 39.8015 61.1844 39.5575 61.0014 39.38C60.8183 39.1997 60.5687 39.1054 60.3136 39.1109H52.928C52.5147 39.1109 52.1514 39.3772 52.0266 39.7682L49.5138 47.6033L44.4189 31.1423C44.2913 30.7346 43.9086 30.4628 43.4814 30.4766C43.0543 30.4905 42.691 30.79 42.5939 31.206L39.5237 44.2164L36.7141 35.4441C36.5921 35.0558 36.2343 34.7896 35.8266 34.784C35.4217 34.7757 35.0556 35.0309 34.9197 35.4136L32.9006 41.0577H29.4559C27.484 37.6685 26.8821 34.1628 27.7974 30.876C28.3188 28.918 29.3977 27.1512 30.9009 25.7922C32.4069 24.4331 34.2735 23.5401 36.2732 23.2212C40.7579 22.5666 45.1235 25.0572 48.266 30.0467V30.0495C48.4408 30.3241 48.7431 30.4905 49.0676 30.4905C49.3948 30.4905 49.6971 30.3241 49.8691 30.0495C53.0364 25.01 57.4464 22.5305 61.9642 23.2378C63.9833 23.5789 65.861 24.5081 67.3587 25.9031C68.8564 27.301 69.9131 29.1065 70.3984 31.0979C71.8628 36.8113 68.8088 43.0957 62.022 48.33ZM5.34008 30.2409H9.17856V34.0822C9.17856 34.6037 9.60291 35.028 10.1243 35.028H15.6741C16.1983 35.028 16.6226 34.6036 16.6226 34.0822V30.2409H20.4611C20.7134 30.2409 20.9547 30.1411 21.1322 29.9636C21.3097 29.7888 21.4096 29.5475 21.4096 29.2952V23.7454C21.4096 23.224 20.9852 22.7997 20.4611 22.7997H16.6226V18.9612C16.6226 18.437 16.1982 18.0127 15.6741 18.0127H10.1243C9.60291 18.0127 9.17859 18.437 9.17859 18.9612V22.7997H5.3401C4.81591 22.7997 4.39159 23.224 4.39159 23.7454V29.2979C4.39437 29.8193 4.81592 30.2409 5.34008 30.2409ZM6.28305 24.6912H10.1244C10.6486 24.6912 11.0729 24.2696 11.0729 23.7454V19.9069H14.7283V23.7483V23.7455C14.7283 24.2697 15.1527 24.6912 15.6741 24.6912H19.5125V28.3494H15.6741C15.4245 28.3494 15.1832 28.4493 15.0056 28.6268C14.8281 28.8043 14.7283 29.0456 14.7283 29.298V33.1365H11.0729V29.298C11.0729 29.0456 10.973 28.8043 10.7955 28.6268C10.618 28.4493 10.3767 28.3494 10.1243 28.3494H6.28301L6.28305 24.6912ZM42.6877 16.8505L45.1616 16.8532V19.3244C45.1616 19.8486 45.586 20.2702 46.1074 20.2702H50.0734C50.5976 20.2702 51.0192 19.8486 51.0192 19.3244V16.8532H53.4932C53.7455 16.8532 53.9841 16.7534 54.1616 16.5759C54.3391 16.3984 54.4389 16.1571 54.4389 15.9047V11.9442C54.4389 11.6946 54.3391 11.4533 54.1616 11.2758C53.9841 11.0983 53.7455 10.9984 53.4932 10.9984H51.0192V8.52167C51.0192 7.99748 50.5976 7.57593 50.0734 7.57593H46.1074C45.5859 7.57593 45.1616 7.9975 45.1616 8.52167V10.9929H42.6904C42.1662 10.9929 41.7419 11.4172 41.7419 11.9414V15.9075V15.9047C41.7419 16.1571 41.8418 16.3984 42.0193 16.5759C42.1968 16.7534 42.4381 16.8532 42.6904 16.8532L42.6877 16.8505ZM43.6334 12.8844H46.1046L46.1074 12.8872C46.357 12.8872 46.5983 12.7873 46.7758 12.6098C46.9533 12.4323 47.0531 12.191 47.0531 11.9414V9.46466H49.125V11.9386H49.1277C49.1277 12.4601 49.5493 12.8844 50.0735 12.8844H52.5475V14.9562H50.0735C49.5521 14.9562 49.1277 15.3805 49.1277 15.9019V18.3731L47.0559 18.3759V15.9047C47.0559 15.6551 46.9561 15.4138 46.7786 15.2363C46.6011 15.0588 46.3598 14.959 46.1074 14.959H43.6362L43.6334 12.8844Z" fill="#3C0A6D"/>
</g>
</svg>
