<svg width="76" height="76" viewBox="0 0 76 76" fill="none" xmlns="http://www.w3.org/2000/svg">
<mask id="mask0_577_231" style="mask-type:alpha" maskUnits="userSpaceOnUse" x="0" y="0" width="76" height="76">
<rect x="0.398438" y="0.753906" width="75" height="75" fill="#D9D9D9"/>
</mask>
<g mask="url(#mask0_577_231)">
<path fill-rule="evenodd" clip-rule="evenodd" d="M8.0437 52.0201V24.4877C8.0437 20.8797 9.44593 17.4169 11.9428 14.8623C14.4424 12.3076 17.8307 10.8789 21.363 10.8789C24.8952 10.8789 28.2835 12.3076 30.7832 14.8623C31.9286 16.0367 32.8456 17.3988 33.5001 18.8819C37.0098 16.6844 42.3391 15.2558 48.309 15.2558C54.6455 15.2558 60.257 16.8661 63.7385 19.2936C66.3115 21.0855 67.7532 23.3496 67.7532 25.7408C67.7532 28.1321 66.3115 30.3901 63.7385 32.1881C62.3843 33.1324 60.7085 33.9497 58.79 34.5974C62.7567 37.7817 65.3044 42.7216 65.3044 48.2668C65.3044 57.8498 57.6897 65.6289 48.309 65.6289C42.105 65.6289 36.6712 62.2267 33.7032 57.1416C33.0402 58.8124 32.0527 60.344 30.7832 61.6455C28.2835 64.2002 24.8952 65.6289 21.363 65.6289C17.8307 65.6289 14.4424 64.2002 11.9428 61.6455C9.44593 59.0909 8.0437 55.6281 8.0437 52.0201ZM31.7227 20.1956C31.1641 18.7911 30.3346 17.5017 29.2653 16.412C27.1691 14.269 24.3281 13.0643 21.363 13.0643C18.3978 13.0643 15.5568 14.269 13.4606 16.412C11.3644 18.555 10.1851 21.4548 10.1851 24.4877V37.1582H32.5409V31.9399C30.1795 30.1903 28.8647 28.0231 28.8647 25.7408C28.8647 23.737 29.8776 21.818 31.7227 20.1956ZM47.2369 17.4654C41.9329 17.6228 37.2524 18.9606 34.2393 21.0008C34.1885 21.031 34.1377 21.0673 34.0869 21.1037C33.4268 21.5638 32.8512 22.0541 32.3829 22.5747C31.5111 23.5373 31.0089 24.5967 31.0089 25.7408C31.0089 26.9455 31.5732 28.0655 32.5409 29.0704C32.9782 29.5305 33.5001 29.9663 34.0869 30.378C34.2788 30.5112 34.4791 30.6383 34.6822 30.7654C36.1831 31.6977 38.048 32.4665 40.1611 33.0295C42.2855 31.8369 44.6864 31.0984 47.2369 30.9349V17.4654ZM56.4596 33.0295C58.8634 32.3939 60.9398 31.4858 62.531 30.378C64.4185 29.0583 65.6118 27.4904 65.6118 25.7408C65.6118 23.9852 64.4185 22.4173 62.531 21.1037C59.5236 19.003 54.7753 17.6228 49.3811 17.4654V30.9349C51.9343 31.0984 54.3352 31.8369 56.4596 33.0295ZM34.5468 53.9694C35.1618 55.5252 36.0224 56.9478 37.0803 58.1949L58.0254 36.7889C57.4273 36.2622 56.7897 35.784 56.1154 35.3542C55.049 34.6822 53.8922 34.1434 52.6706 33.756C51.6183 33.4291 50.518 33.2111 49.3811 33.1324C49.0284 33.1022 48.6701 33.0901 48.309 33.0901C47.9507 33.0901 47.5923 33.1022 47.2369 33.1324C46.1027 33.2111 44.9996 33.4291 43.9501 33.756C42.7257 34.1434 41.5689 34.6822 40.5025 35.3542C37.9408 36.9766 35.8954 39.3738 34.6822 42.2252C33.8951 44.0776 33.4577 46.1177 33.4577 48.2668C33.4577 50.2827 33.8443 52.2078 34.5468 53.9694ZM38.5953 59.7386C41.1994 62.0451 44.5962 63.4435 48.309 63.4435C56.5076 63.4435 63.1602 56.6391 63.1602 48.2668C63.1602 44.4711 61.7947 41.0023 59.5405 38.3387L38.5953 59.7386ZM10.1851 39.3496V52.0201C10.1851 55.053 11.3644 57.9528 13.4606 60.0958C15.5568 62.2388 18.3978 63.4435 21.363 63.4435C24.3281 63.4435 27.1691 62.2388 29.2653 60.0958C30.8537 58.4734 31.9117 56.4151 32.3349 54.1995C31.6747 52.347 31.3136 50.3493 31.3136 48.2668C31.3136 45.9785 31.7509 43.787 32.5409 41.7832V39.3496H10.1851ZM34.6822 33.2717V37.8907C35.585 36.6557 36.643 35.5479 37.8279 34.5974C36.691 34.2161 35.6358 33.7681 34.6822 33.2717Z" fill="#3C0A6D"/>
</g>
</svg>
