<svg width="76" height="76" viewBox="0 0 76 76" fill="none" xmlns="http://www.w3.org/2000/svg">
<mask id="mask0_576_221" style="mask-type:alpha" maskUnits="userSpaceOnUse" x="0" y="0" width="76" height="76">
<rect x="0.398438" y="0.859375" width="75" height="75" fill="#D9D9D9"/>
</mask>
<g mask="url(#mask0_576_221)">
<path fill-rule="evenodd" clip-rule="evenodd" d="M38.8574 42.8895C38.8574 42.8895 44.3088 49.0207 51.5829 49.6408C56.9539 50.0983 61.834 47.4344 64.0115 46.0033C64.0179 45.9991 64.0248 45.9944 64.0318 45.9896C64.5338 45.6386 64.8553 45.0751 64.9059 44.455C64.9566 43.8356 64.7312 43.2251 64.2933 42.7937C64.2869 42.7883 64.2811 42.7824 64.2747 42.7764C62.3599 40.9973 57.9783 37.5437 52.6079 37.0861C49.5383 36.8243 46.6283 37.5764 44.2884 38.5452C43.8412 38.7296 43.6257 39.2509 43.8062 39.7073C43.9873 40.1636 44.4975 40.3844 44.9441 40.1993C47.0598 39.3235 49.688 38.6285 52.4629 38.8653C57.3511 39.2818 61.3251 42.4521 63.0826 44.0814C63.1432 44.1444 63.1717 44.2248 63.1647 44.3063C63.1583 44.3866 63.1187 44.4598 63.0564 44.508C61.0578 45.82 56.6214 48.2787 51.7285 47.8616C45.1049 47.2969 40.1526 41.6911 40.1526 41.6911C39.8288 41.3257 39.2755 41.2978 38.9186 41.6286C38.561 41.9595 38.5336 42.5241 38.8574 42.8895Z" fill="#3C0A6D"/>
<path fill-rule="evenodd" clip-rule="evenodd" d="M26.4763 25.6468C26.4763 25.6468 23.4178 29.1164 19.3245 29.4651C16.6428 29.6942 14.1847 28.516 12.8022 27.6865C12.7282 27.6383 12.6834 27.5616 12.6764 27.4777C12.67 27.3956 12.6997 27.3152 12.7573 27.2581C13.9907 26.2013 16.2252 24.6209 18.9099 24.3918C20.1025 24.2901 21.2509 24.4704 22.2782 24.7703C22.7417 24.9053 23.2257 24.6304 23.3578 24.1568C23.49 23.6831 23.2216 23.1887 22.758 23.0536C21.5403 22.6984 20.1782 22.4925 18.7649 22.6127C15.6528 22.8781 13.0468 24.678 11.6293 25.8943C11.6247 25.8985 11.62 25.9026 11.6159 25.9068C11.1349 26.337 10.8822 26.9749 10.9357 27.6258C10.9887 28.2768 11.341 28.8635 11.885 29.2062C11.8902 29.2098 11.8954 29.2128 11.9007 29.2158C13.4957 30.1756 16.3574 31.5096 19.4695 31.2442C24.2139 30.8402 27.7715 26.8452 27.7715 26.8452C28.0947 26.4804 28.0673 25.9151 27.7103 25.5849C27.3528 25.254 26.8001 25.282 26.4763 25.6468Z" fill="#3C0A6D"/>
<path fill-rule="evenodd" clip-rule="evenodd" d="M42.2811 31.9411C40.9732 31.781 39.5377 31.374 38.2128 30.491C35.4327 28.6375 33.8848 25.2392 33.2075 23.4285C33.1807 23.35 33.1889 23.2649 33.2291 23.1947C33.2669 23.1274 33.3304 23.0798 33.4038 23.0626C35.0838 22.8341 38.1651 22.7145 40.8101 24.4782C44.7281 27.0904 46.2195 32.7539 46.2195 32.7539C46.3471 33.2287 46.8275 33.5096 47.2928 33.3793C47.7575 33.2496 48.0324 32.7581 47.9049 32.2832C47.9049 32.2832 46.1817 25.9277 41.7646 22.9829C38.6804 20.927 35.0955 21.0288 33.1574 21.2947C33.1475 21.2959 33.137 21.2977 33.1271 21.2995C32.5366 21.4018 32.0207 21.7672 31.719 22.2962C31.4179 22.8252 31.3615 23.4636 31.5653 24.039C31.567 24.0438 31.5688 24.0486 31.5705 24.0533C32.3311 26.0889 34.1201 29.8942 37.2583 31.9863C38.8272 33.0318 40.5242 33.5233 42.0732 33.7137C42.5519 33.7726 42.9869 33.4227 43.0446 32.9336C43.1022 32.4445 42.7598 32 42.2811 31.9411Z" fill="#3C0A6D"/>
<path fill-rule="evenodd" clip-rule="evenodd" d="M26.6601 20.8983C27.3519 20.7109 28.0565 20.4152 28.7262 19.9689C30.51 18.78 31.6386 16.7557 32.2308 15.3592C32.2308 15.3586 32.2314 15.358 32.2314 15.3574C32.4871 14.751 32.4416 14.0566 32.1103 13.4896C31.7789 12.9231 31.2018 12.5542 30.5583 12.4971C30.5502 12.4959 30.5426 12.4953 30.535 12.4953C29.1927 12.4126 27.2354 12.5512 25.5128 13.6996C22.6133 15.6323 21.4748 19.7999 21.4748 19.7999C21.3479 20.2753 21.6221 20.7662 22.0874 20.8965C22.5522 21.0263 23.0332 20.746 23.1601 20.2706C23.1601 20.2706 24.0663 16.795 26.4673 15.1943C27.8166 14.2952 29.3546 14.2125 30.4116 14.2756C30.496 14.2857 30.5688 14.3339 30.6107 14.4059C30.6544 14.4803 30.6602 14.5713 30.627 14.6511C30.139 15.8019 29.241 17.4941 27.7718 18.4742C27.2663 18.811 26.734 19.0311 26.2122 19.1727C25.7463 19.2989 25.4686 19.788 25.592 20.264C25.7155 20.7401 26.1942 21.0245 26.6601 20.8983Z" fill="#3C0A6D"/>
<path fill-rule="evenodd" clip-rule="evenodd" d="M30.341 64.5057C36.2682 46.0615 44.286 32.2603 56.7832 28.0093C57.2409 27.854 57.4884 27.3483 57.3359 26.8806C57.1839 26.4135 56.6889 26.16 56.2312 26.3159C43.2972 30.7156 34.8152 44.8595 28.6807 63.9488C28.5305 64.4171 28.7803 64.9217 29.2386 65.0752C29.6964 65.2293 30.1902 64.974 30.341 64.5057Z" fill="#3C0A6D"/>
<path fill-rule="evenodd" clip-rule="evenodd" d="M34.3084 39.92C30.4113 27.7926 25.0077 18.7969 16.8507 15.8735C16.3959 15.7105 15.8968 15.955 15.7373 16.4204C15.5777 16.8851 15.8176 17.395 16.2725 17.5581C24.0037 20.3291 28.9549 28.9827 32.6487 40.477C32.799 40.9447 33.2934 41.1999 33.7511 41.0464C34.2094 40.8929 34.4593 40.3877 34.3084 39.92Z" fill="#3C0A6D"/>
<path fill-rule="evenodd" clip-rule="evenodd" d="M60.4005 19.7631C57.5522 19.7631 55.2403 22.1254 55.2403 25.0357C55.2403 27.9454 57.5522 30.3077 60.4005 30.3077C63.2482 30.3077 65.5601 27.9454 65.5601 25.0357C65.5601 22.1254 63.2482 19.7631 60.4005 19.7631ZM60.4005 21.5482C62.2838 21.5482 63.813 23.1108 63.813 25.0357C63.813 26.9601 62.2838 28.5226 60.4005 28.5226C58.5166 28.5226 56.9873 26.9601 56.9873 25.0357C56.9873 23.1108 58.5166 21.5482 60.4005 21.5482Z" fill="#3C0A6D"/>
<path fill-rule="evenodd" clip-rule="evenodd" d="M13.8363 11.5986C11.8493 11.5986 10.2368 13.2463 10.2368 15.2759C10.2368 17.3062 11.8493 18.9538 13.8363 18.9538C15.8227 18.9538 17.4352 17.3062 17.4352 15.2759C17.4352 13.2463 15.8227 11.5986 13.8363 11.5986ZM13.8363 13.3837C14.8583 13.3837 15.6881 14.2317 15.6881 15.2759C15.6881 16.3208 14.8583 17.1687 13.8363 17.1687C12.8137 17.1687 11.9838 16.3208 11.9838 15.2759C11.9838 14.2317 12.8137 13.3837 13.8363 13.3837Z" fill="#3C0A6D"/>
</g>
</svg>
