<svg width="76" height="76" viewBox="0 0 76 76" fill="none" xmlns="http://www.w3.org/2000/svg">
<mask id="mask0_576_222" style="mask-type:alpha" maskUnits="userSpaceOnUse" x="0" y="0" width="76" height="76">
<rect x="0.398438" y="0.707031" width="75" height="75" fill="#D9D9D9"/>
</mask>
<g mask="url(#mask0_576_222)">
<path d="M34.0024 39.7104C32.1425 38.4238 29.0425 37.2835 24.5672 38.7348V36.3919C24.5648 34.2251 23.7213 32.1477 22.2218 30.6155C20.7223 29.0833 18.6892 28.2214 16.5685 28.219H13.0135C12.8968 28.219 12.7812 28.2424 12.6734 28.2881C12.5655 28.3337 12.4675 28.4006 12.385 28.4849C12.3025 28.5692 12.237 28.6694 12.1923 28.7795C12.1477 28.8897 12.1247 29.0078 12.1248 29.1271C12.1271 31.2939 12.9706 33.3714 14.4702 34.9035C15.9697 36.4357 18.0028 37.2976 20.1235 37.3H22.7897V38.7346C18.3146 37.2826 15.2153 38.423 13.3546 39.7104C10.3585 41.7829 8.56976 45.6348 8.56976 50.0135C8.56976 57.7328 11.9625 64.3033 17.8791 68.0399C18.0193 68.1287 18.181 68.1757 18.346 68.1756H29.011C29.1759 68.1757 29.3377 68.1287 29.4779 68.0399C35.3945 64.3033 38.7872 57.7328 38.7872 50.0135C38.7872 45.6348 36.9984 41.7829 34.0024 39.7104ZM20.1235 35.4838C18.628 35.4819 17.183 34.9305 16.0524 33.9301C14.9219 32.9298 14.1812 31.5473 13.9656 30.0352H16.5685C18.064 30.0371 19.509 30.5886 20.6395 31.5889C21.7701 32.5892 22.5108 33.9717 22.7264 35.4838H20.1235ZM28.7549 66.3594H18.602C13.352 62.938 10.3473 56.9963 10.3473 50.0135C10.3473 46.2379 11.8444 42.9486 14.351 41.2145C16.7447 39.5588 19.8544 39.4391 23.3486 40.8677C23.5605 40.9537 23.7964 40.9537 24.0083 40.8677C27.5034 39.4391 30.6149 39.5588 33.0059 41.2145C35.5125 42.9486 37.0097 46.2379 37.0097 50.0135C37.0097 56.9963 34.005 62.938 28.7549 66.3594Z" fill="#3C0A6D"/>
<path d="M62.8234 12.2572C61.4334 10.8936 59.7848 9.83516 57.9793 9.14723C56.1737 8.45931 54.2495 8.1564 52.325 8.25719C48.717 8.47659 45.3218 10.0747 42.8139 12.7341C40.306 15.3935 38.8689 18.9195 38.7881 22.6117C38.7593 24.8163 39.2253 26.9983 40.1504 28.9901C41.0756 30.9819 42.4352 32.7306 44.1249 34.1018C45.2096 34.9523 46.0921 36.0421 46.7068 37.2899C47.3215 38.5378 47.6524 39.9113 47.6747 41.3081V41.8406C47.6755 42.5629 47.9566 43.2554 48.4565 43.7662C48.9563 44.2769 49.6341 44.5642 50.341 44.565V57.2784C49.6338 57.2784 48.9557 57.5654 48.4556 58.0764C47.9556 58.5873 47.6747 59.2802 47.6747 60.0027C47.6747 60.7253 47.9556 61.4182 48.4556 61.9291C48.9557 62.44 49.6338 62.727 50.341 62.727H55.6735C56.3806 62.727 57.0588 62.44 57.5588 61.9291C58.0588 61.4182 58.3397 60.7253 58.3397 60.0027C58.3397 59.2802 58.0588 58.5873 57.5588 58.0764C57.0588 57.5654 56.3806 57.2784 55.6735 57.2784V44.565C56.3804 44.5642 57.0581 44.2769 57.5579 43.7662C58.0578 43.2554 58.3389 42.5629 58.3397 41.8406V41.3072C58.3257 39.9643 58.6137 38.636 59.1815 37.4247C59.7492 36.2135 60.5816 35.1516 61.6144 34.3209C63.252 33.0499 64.6001 31.4307 65.5653 29.5752C66.5306 27.7198 67.09 25.6723 67.205 23.5743C67.3199 21.4763 66.9877 19.3778 66.2312 17.4238C65.4747 15.4698 64.3119 13.707 62.8234 12.2572ZM56.5622 60.0027C56.562 60.2435 56.4683 60.4743 56.3016 60.6446C56.135 60.8148 55.9091 60.9106 55.6735 60.9108H50.341C50.1053 60.9108 49.8792 60.8152 49.7125 60.6449C49.5459 60.4746 49.4522 60.2436 49.4522 60.0027C49.4522 59.7619 49.5459 59.5309 49.7125 59.3606C49.8792 59.1903 50.1053 59.0946 50.341 59.0946H55.6735C55.9091 59.0949 56.135 59.1906 56.3016 59.3609C56.4683 59.5311 56.562 59.762 56.5622 60.0027ZM53.896 57.2784H52.1185V44.565H53.896V57.2784ZM60.5381 32.8753C59.288 33.876 58.2793 35.1567 57.59 36.6186C56.9007 38.0805 56.549 39.6846 56.5622 41.3072V41.8406C56.562 42.0814 56.4683 42.3123 56.3016 42.4825C56.135 42.6528 55.9091 42.7485 55.6735 42.7487H50.341C50.1053 42.7485 49.8794 42.6528 49.7128 42.4825C49.5462 42.3123 49.4525 42.0814 49.4522 41.8406V41.3081C49.4307 39.6389 49.0403 37.9962 48.3102 36.5028C47.5801 35.0094 46.5291 33.7039 45.2359 32.6838C43.7573 31.4843 42.5675 29.9545 41.7579 28.2118C40.9483 26.4692 40.5404 24.5601 40.5656 22.6312C40.6361 19.4009 41.8933 16.3159 44.0873 13.9891C46.2813 11.6622 49.2517 10.2638 52.4083 10.0716C52.6106 10.0619 52.8122 10.057 53.0133 10.057C55.6164 10.0561 58.1541 10.8902 60.2686 12.4415C62.3831 13.9929 63.9676 16.1833 64.7988 18.7039C65.6301 21.2244 65.666 23.948 64.9016 26.4905C64.1371 29.0331 62.6109 31.2663 60.5381 32.8753Z" fill="#3C0A6D"/>
<path d="M57.4509 13.6893C57.3342 13.6893 57.2186 13.7128 57.1107 13.7584C57.0029 13.804 56.9049 13.8709 56.8224 13.9552C56.7398 14.0396 56.6744 14.1397 56.6297 14.2499C56.5851 14.3601 56.5621 14.4782 56.5621 14.5974V15.5055C56.5621 15.7464 56.6558 15.9774 56.8224 16.1477C56.9891 16.318 57.2152 16.4136 57.4509 16.4136C57.6866 16.4136 57.9126 16.318 58.0793 16.1477C58.246 15.9774 58.3396 15.7464 58.3396 15.5055V14.5974C58.3397 14.4782 58.3167 14.3601 58.272 14.2499C58.2274 14.1397 58.1619 14.0396 58.0794 13.9552C57.9969 13.8709 57.8989 13.804 57.791 13.7584C57.6832 13.7128 57.5676 13.6893 57.4509 13.6893Z" fill="#3C0A6D"/>
<path d="M57.4509 17.3214C57.3342 17.3214 57.2186 17.3448 57.1107 17.3905C57.0029 17.4361 56.9049 17.503 56.8224 17.5873C56.7398 17.6717 56.6744 17.7718 56.6297 17.882C56.5851 17.9922 56.5621 18.1103 56.5621 18.2295V19.1376C56.5621 19.3785 56.6558 19.6094 56.8224 19.7797C56.9891 19.95 57.2152 20.0457 57.4509 20.0457C57.6866 20.0457 57.9126 19.95 58.0793 19.7797C58.246 19.6094 58.3396 19.3785 58.3396 19.1376V18.2295C58.3397 18.1103 58.3167 17.9922 58.272 17.882C58.2274 17.7718 58.1619 17.6717 58.0794 17.5873C57.9969 17.503 57.8989 17.4361 57.791 17.3905C57.6832 17.3448 57.5676 17.3214 57.4509 17.3214Z" fill="#3C0A6D"/>
<path d="M57.4509 20.9545C57.3342 20.9544 57.2186 20.9779 57.1107 21.0235C57.0029 21.0692 56.9049 21.136 56.8224 21.2204C56.7398 21.3047 56.6744 21.4048 56.6297 21.515C56.5851 21.6252 56.5621 21.7433 56.5621 21.8626V22.7707C56.5621 23.0115 56.6558 23.2425 56.8224 23.4128C56.9891 23.5831 57.2152 23.6788 57.4509 23.6788C57.6866 23.6788 57.9126 23.5831 58.0793 23.4128C58.246 23.2425 58.3396 23.0115 58.3396 22.7707V21.8626C58.3397 21.7433 58.3167 21.6252 58.272 21.515C58.2274 21.4048 58.1619 21.3047 58.0794 21.2204C57.9969 21.136 57.8989 21.0692 57.791 21.0235C57.6832 20.9779 57.5676 20.9544 57.4509 20.9545Z" fill="#3C0A6D"/>
<path d="M60.1171 15.5056C60.0004 15.5056 59.8848 15.5291 59.777 15.5747C59.6692 15.6203 59.5712 15.6872 59.4886 15.7715C59.4061 15.8559 59.3406 15.956 59.296 16.0662C59.2513 16.1764 59.2284 16.2945 59.2284 16.4137V17.3218C59.2284 17.5627 59.322 17.7936 59.4887 17.964C59.6554 18.1343 59.8814 18.2299 60.1171 18.2299C60.3529 18.2299 60.5789 18.1343 60.7456 17.964C60.9123 17.7936 61.0059 17.5627 61.0059 17.3218V16.4137C61.0059 16.2945 60.983 16.1764 60.9383 16.0662C60.8936 15.956 60.8282 15.8559 60.7457 15.7715C60.6631 15.6872 60.5651 15.6203 60.4573 15.5747C60.3494 15.5291 60.2339 15.5056 60.1171 15.5056Z" fill="#3C0A6D"/>
<path d="M60.1171 19.1381C60.0004 19.138 59.8848 19.1615 59.777 19.2071C59.6692 19.2527 59.5712 19.3196 59.4886 19.404C59.4061 19.4883 59.3406 19.5884 59.296 19.6986C59.2513 19.8088 59.2284 19.9269 59.2284 20.0462V20.9543C59.2284 21.1951 59.322 21.4261 59.4887 21.5964C59.6554 21.7667 59.8814 21.8624 60.1171 21.8624C60.3529 21.8624 60.5789 21.7667 60.7456 21.5964C60.9123 21.4261 61.0059 21.1951 61.0059 20.9543V20.0462C61.0059 19.9269 60.983 19.8088 60.9383 19.6986C60.8936 19.5884 60.8282 19.4883 60.7457 19.404C60.6631 19.3196 60.5651 19.2527 60.4573 19.2071C60.3494 19.1615 60.2339 19.138 60.1171 19.1381Z" fill="#3C0A6D"/>
<path d="M54.7846 15.5056C54.6679 15.5056 54.5523 15.5291 54.4445 15.5747C54.3366 15.6203 54.2386 15.6872 54.1561 15.7715C54.0736 15.8559 54.0081 15.956 53.9635 16.0662C53.9188 16.1764 53.8958 16.2945 53.8959 16.4137V17.3218C53.8959 17.5627 53.9895 17.7936 54.1562 17.964C54.3229 18.1343 54.5489 18.2299 54.7846 18.2299C55.0203 18.2299 55.2464 18.1343 55.4131 17.964C55.5797 17.7936 55.6734 17.5627 55.6734 17.3218V16.4137C55.6734 16.2945 55.6504 16.1764 55.6058 16.0662C55.5611 15.956 55.4957 15.8559 55.4131 15.7715C55.3306 15.6872 55.2326 15.6203 55.1248 15.5747C55.0169 15.5291 54.9013 15.5056 54.7846 15.5056Z" fill="#3C0A6D"/>
<path d="M54.7846 19.1381C54.6679 19.138 54.5523 19.1615 54.4445 19.2071C54.3366 19.2527 54.2386 19.3196 54.1561 19.404C54.0736 19.4883 54.0081 19.5884 53.9635 19.6986C53.9188 19.8088 53.8958 19.9269 53.8959 20.0462V20.9543C53.8959 21.1951 53.9895 21.4261 54.1562 21.5964C54.3229 21.7667 54.5489 21.8624 54.7846 21.8624C55.0203 21.8624 55.2464 21.7667 55.4131 21.5964C55.5797 21.4261 55.6734 21.1951 55.6734 20.9543V20.0462C55.6734 19.9269 55.6504 19.8088 55.6058 19.6986C55.5611 19.5884 55.4957 19.4883 55.4131 19.404C55.3306 19.3196 55.2326 19.2527 55.1248 19.2071C55.0169 19.1615 54.9013 19.138 54.7846 19.1381Z" fill="#3C0A6D"/>
<path d="M21.901 27.3108H28.1222C28.2389 27.3109 28.3545 27.2874 28.4623 27.2418C28.5702 27.1962 28.6682 27.1293 28.7507 27.0449C28.8332 26.9606 28.8987 26.8605 28.9433 26.7503C28.988 26.6401 29.011 26.522 29.0109 26.4027C29.0131 24.4767 29.7629 22.6301 31.0958 21.2682C32.4287 19.9062 34.2359 19.1401 36.1209 19.1379C36.2376 19.1379 36.3532 19.1145 36.4611 19.0688C36.5689 19.0232 36.6669 18.9563 36.7494 18.872C36.832 18.7877 36.8974 18.6875 36.9421 18.5774C36.9867 18.4672 37.0097 18.3491 37.0097 18.2298V11.8731C37.0097 11.7538 36.9867 11.6357 36.9421 11.5255C36.8974 11.4153 36.832 11.3152 36.7494 11.2309C36.6669 11.1465 36.5689 11.0797 36.4611 11.034C36.3532 10.9884 36.2376 10.9649 36.1209 10.965C32.1152 10.9695 28.2749 12.5975 25.4424 15.4916C22.6099 18.3858 21.0167 22.3098 21.0122 26.4027C21.0122 26.522 21.0351 26.6401 21.0798 26.7503C21.1245 26.8605 21.1899 26.9606 21.2724 27.0449C21.355 27.1293 21.453 27.1962 21.5608 27.2418C21.6687 27.2874 21.7842 27.3109 21.901 27.3108ZM35.2322 12.8113V17.3669C33.1934 17.5794 31.2888 18.504 29.8396 19.9847C28.3905 21.4653 27.4856 23.4115 27.2777 25.4946H22.8192C23.0387 22.2047 24.417 19.1073 26.699 16.7756C28.981 14.4439 32.0124 13.0356 35.2322 12.8113Z" fill="#3C0A6D"/>
</g>
</svg>
