<svg width="76" height="76" viewBox="0 0 76 76" fill="none" xmlns="http://www.w3.org/2000/svg">
<mask id="mask0_577_237" style="mask-type:alpha" maskUnits="userSpaceOnUse" x="0" y="0" width="76" height="76">
<rect x="0.398438" y="0.137207" width="75" height="75" fill="#D9D9D9"/>
</mask>
<g mask="url(#mask0_577_237)">
<path d="M27.0261 20.4699C31.4367 20.4699 35.0245 16.8822 35.0245 12.4714C35.0245 8.06068 31.4368 4.47296 27.0261 4.47296C22.6195 4.47296 19.0276 8.06068 19.0276 12.4714C19.0276 16.8822 22.6195 20.4699 27.0261 20.4699ZM27.0261 6.09777C30.5397 6.09777 33.3993 8.95724 33.3993 12.471C33.3993 15.9847 30.5398 18.8443 27.0261 18.8443C23.5123 18.8443 20.6528 15.9848 20.6528 12.471C20.6569 8.95735 23.5123 6.09777 27.0261 6.09777Z" fill="#3C0A6D"/>
<path d="M49.165 27.6534C53.5756 27.6534 57.1635 24.0656 57.1635 19.6549C57.1635 15.2441 53.5757 11.6564 49.165 11.6564C44.7542 11.6564 41.1665 15.2441 41.1665 19.6549C41.1665 24.0656 44.7542 27.6534 49.165 27.6534ZM55.5341 19.6591C55.5341 20.0294 55.4971 20.3874 55.4354 20.737C51.4444 20.3544 47.725 17.75 46.0257 14.1169C46.9515 13.5902 48.0212 13.2858 49.1609 13.2858C52.6787 13.2817 55.5341 16.1453 55.5341 19.6591ZM44.7095 15.1086C46.6597 18.9885 50.6383 21.7862 54.9462 22.3212C53.934 24.51 51.7246 26.0323 49.1654 26.0323C45.6517 26.0323 42.7922 23.1729 42.7922 19.6591C42.788 17.8734 43.5245 16.2647 44.7095 15.1086Z" fill="#3C0A6D"/>
<path d="M68.3918 44.8273C67.2068 42.013 65.9807 39.1041 64.2609 36.4668C62.2901 33.4386 59.9613 31.2497 57.3322 29.9495C52.6953 27.6578 47.1902 28.1968 42.7631 28.6329C42.1295 28.6946 41.4259 28.7646 40.7182 28.925C40.9939 28.7934 41.1832 28.5218 41.1832 28.1968C41.1955 26.5757 40.171 24.9916 38.5171 24.0618C37.0935 23.2595 35.4765 23.0373 34.0735 22.8891C29.2184 22.3831 24.3182 22.5518 19.5043 23.3829C16.1223 23.9712 12.3618 27.0077 11.1192 30.1511C10.3868 32.0067 10.1112 33.6895 9.79025 35.6438C9.60099 36.7959 9.39115 38.096 9.05377 39.5813C7.8606 44.8437 7.28867 51.3655 7.01713 55.9116C6.94307 57.1664 7.3792 58.3678 8.24326 59.2854C9.09906 60.1946 10.3087 60.7172 11.5594 60.7172C13.7977 60.7172 15.7355 59.0468 16.0606 56.8291L16.9328 50.8631L17.2702 69.5422C17.2784 69.9866 17.6405 70.3404 18.0807 70.3404H18.0931C18.5416 70.3322 18.8954 69.9619 18.8913 69.5134L18.377 41.0124L18.702 38.8235C18.7678 38.3792 18.4593 37.9677 18.019 37.9019C17.5747 37.8361 17.1632 38.1447 17.0974 38.5849L14.4518 56.5941C14.242 58.0177 12.9995 59.0956 11.5594 59.0956C10.7406 59.0956 9.98357 58.7706 9.42406 58.174C8.86862 57.5857 8.58884 56.8162 8.63821 56.0098C8.90566 51.5251 9.46522 45.0988 10.6378 39.9429C10.9834 38.4083 11.2015 37.0792 11.3948 35.9067C11.7116 33.9689 11.9585 32.4423 12.6292 30.7473C13.6701 28.114 16.9453 25.4726 19.7801 24.9829C24.4458 24.1765 29.198 24.0119 33.9047 24.5015C35.1473 24.6332 36.5708 24.8266 37.7229 25.4725C38.8461 26.1062 39.5662 27.1677 39.5579 28.188C39.5538 28.6365 39.9159 29.0027 40.3644 29.0068H40.3685C40.3849 29.0068 40.4014 29.0027 40.4179 29.0027C39.7719 29.1714 39.13 29.4182 38.5499 29.8091C36.5504 31.171 35.9784 33.6067 35.567 35.9849C35.4889 36.4292 35.7851 36.8489 36.2253 36.9271C36.6697 37.0052 37.0894 36.709 37.1675 36.2688C37.5214 34.2321 37.9945 32.1626 39.4675 31.1586C40.4303 30.5003 41.7551 30.3728 42.9195 30.2617C47.1408 29.8461 52.3909 29.3318 56.608 31.4179C58.9697 32.5864 61.0845 34.5901 62.8907 37.3673C64.5283 39.8812 65.7255 42.7201 66.8817 45.4686C67.4536 46.8223 67.108 48.5708 65.849 50.6569C63.87 53.9443 61.1668 56.8449 58.0275 59.0503C57.2498 59.5975 55.8016 60.4328 54.8676 59.8567C54.234 59.4659 54.0612 58.5155 54.2175 57.7789C54.4191 56.8449 55.0322 55.9933 55.6246 55.1703L61.3231 47.2542C61.5083 46.9991 61.5247 46.6576 61.3725 46.382L57.5172 39.5479C57.2951 39.157 56.8013 39.0213 56.4104 39.2393C56.0196 39.4615 55.8838 39.9552 56.1019 40.3461L59.7061 46.7276L54.308 54.2241C53.6497 55.1375 52.905 56.1743 52.6293 57.4416C52.296 58.9762 52.8679 60.5397 54.0158 61.2474C54.2915 61.4161 54.6247 61.5519 55.0321 61.6259V69.538C55.0321 69.9864 55.3983 70.3485 55.8426 70.3485C56.287 70.3485 56.6532 69.9823 56.6532 69.538V61.5313C57.3156 61.3502 58.085 60.9964 58.9613 60.3792C62.2816 58.0463 65.1453 54.9728 67.2396 51.492C68.7949 48.9328 69.1775 46.6911 68.3918 44.8273Z" fill="#3C0A6D"/>
<path d="M45.5617 45.8932C45.5617 41.4826 41.9739 37.8947 37.5632 37.8947C33.1524 37.8947 29.5647 41.4824 29.5647 45.8932C29.5647 50.304 33.1524 53.8917 37.5632 53.8917C41.9739 53.8917 45.5617 50.304 45.5617 45.8932ZM31.1895 45.8932C31.1895 42.3795 34.049 39.52 37.5628 39.52C41.0764 39.52 43.936 42.3794 43.936 45.8932C43.936 49.407 41.0765 52.2665 37.5628 52.2665C34.0491 52.2665 31.1895 49.407 31.1895 45.8932Z" fill="#3C0A6D"/>
<path d="M46.7255 56.9401C45.162 55.9691 43.2405 55.7552 41.566 55.6276C38.9699 55.4301 36.3324 55.3766 33.724 55.4672C31.893 55.5289 29.7864 55.677 27.9926 56.6398C25.7667 57.8329 24.2567 60.2317 23.9482 63.0624C23.6807 65.5146 24.2773 67.9874 24.804 70.1721C24.9109 70.6083 25.3471 70.8798 25.7832 70.7728C26.2193 70.6659 26.4909 70.2298 26.3839 69.7936C25.8655 67.6417 25.3265 65.4117 25.561 63.2434C25.812 60.9476 27.0093 59.0179 28.758 58.0799C30.2474 57.2817 32.1276 57.1582 33.7775 57.1006C36.3244 57.0142 38.9041 57.0636 41.4426 57.257C42.928 57.3681 44.6148 57.5573 45.8656 58.3308C47.3098 59.2277 48.182 60.9517 48.2027 62.939C48.2191 64.9592 47.5896 67.9667 46.9683 69.7113C46.8161 70.131 47.0382 70.6 47.4579 70.7522C47.5484 70.7852 47.639 70.8016 47.7336 70.8016C48.0669 70.8016 48.3795 70.5959 48.4989 70.2626C49.1572 68.4112 49.8525 65.2142 49.8278 62.9267C49.8072 60.3634 48.6428 58.1333 46.7255 56.9401Z" fill="#3C0A6D"/>
<path d="M58.6445 29.0943C59.2411 29.7773 60.1463 30.1558 61.1214 30.1558C61.3724 30.1558 61.6234 30.1311 61.8744 30.0817C62.257 30.0035 62.5327 29.6662 62.5286 29.2794C62.5162 28.0739 62.508 26.712 62.0472 25.4366C61.4958 23.906 60.3191 22.7787 58.9737 22.4947C58.7638 22.4495 58.5375 22.4906 58.3606 22.6099C58.1796 22.7293 58.052 22.9144 58.0109 23.1284C57.9615 23.3793 57.8957 23.6303 57.8298 23.8895C57.657 24.5684 57.4596 25.3337 57.5089 26.1031C57.5624 26.926 57.8011 28.1233 58.6445 29.0943ZM59.3728 24.3997C59.9282 24.7865 60.3191 25.416 60.5206 25.9797C60.8045 26.7655 60.8745 27.6419 60.8951 28.5183C60.4754 28.4731 60.1133 28.3044 59.8706 28.0246C59.4468 27.535 59.1835 26.815 59.13 25.9921C59.1012 25.5107 59.2246 24.9716 59.3728 24.3997Z" fill="#3C0A6D"/>
</g>
</svg>
