<svg width="75" height="75" viewBox="0 0 75 75" fill="none" xmlns="http://www.w3.org/2000/svg">
<mask id="mask0_1291_711" style="mask-type:alpha" maskUnits="userSpaceOnUse" x="0" y="0" width="75" height="75">
<rect width="75" height="75" fill="#D9D9D9"/>
</mask>
<g mask="url(#mask0_1291_711)">
<path d="M70.8973 47.0821L64.3 32.7877V16.2833C64.3 15.8713 64.0733 15.4927 63.7104 15.2984C63.3475 15.1041 62.9075 15.1265 62.5647 15.3543L61.4324 16.1091L55.1802 6.73025C54.9714 6.41982 54.623 6.23333 54.25 6.23333H51.8112C51.3489 4.93688 50.1206 4 48.6667 4C46.8197 4 45.3167 5.50303 45.3167 7.35C45.3167 9.19697 46.8197 10.7 48.6667 10.7C50.1206 10.7 51.3489 9.76312 51.8112 8.46667H53.6526L58.8641 16.2833H48.1083L41.7433 7.79667C41.5323 7.51527 41.2017 7.35 40.85 7.35H33.9914C33.4923 5.42933 31.7581 4 29.6833 4C27.22 4 25.2167 6.0033 25.2167 8.46667C25.2167 10.93 27.22 12.9333 29.6833 12.9333C31.7581 12.9333 33.4923 11.504 33.9914 9.58333H40.2917L46.6567 18.07C46.8666 18.3514 47.1982 18.5167 47.55 18.5167H57.82L54.25 20.8974V20.75H42.429L39.4061 17.7272L39.3771 17.7562C39.5982 17.3096 39.7333 16.8138 39.7333 16.2833C39.7333 14.4364 38.2303 12.9333 36.3833 12.9333C34.5364 12.9333 33.0333 14.4364 33.0333 16.2833C33.0333 18.1303 34.5364 19.6333 36.3833 19.6333C36.9137 19.6333 37.4095 19.4982 37.8562 19.2771L37.8272 19.3061L41.1772 22.6562C41.386 22.8661 41.6707 22.9833 41.9667 22.9833H50.6141C48.8598 23.7125 46.9771 24.1 45.0509 24.1H43.0833C41.4318 24.1 39.8763 24.5076 38.5005 25.2167H34.15V20.75C34.15 20.1336 33.6497 19.6333 33.0333 19.6333H28.5667V16.2833C28.5667 15.6669 28.0664 15.1667 27.45 15.1667H18.5167V14.05C18.5167 13.4336 18.0164 12.9333 17.4 12.9333H12.9333C12.3169 12.9333 11.8167 13.4336 11.8167 14.05V18.5167C11.8167 19.1331 12.3169 19.6333 12.9333 19.6333H17.4C18.0164 19.6333 18.5167 19.1331 18.5167 18.5167V17.4H26.3333V20.75C26.3333 21.3664 26.8336 21.8667 27.45 21.8667H31.9167V26.3333C31.9167 26.9497 32.4169 27.45 33.0333 27.45H35.6139C34.4928 28.6996 33.6776 30.2249 33.2924 31.9167H26.3333V26.3333C26.3333 25.7169 25.8331 25.2167 25.2167 25.2167H22.7779C22.3156 23.9202 21.0872 22.9833 19.6333 22.9833C17.7864 22.9833 16.2833 24.4864 16.2833 26.3333C16.2833 28.1803 17.7864 29.6833 19.6333 29.6833C21.0872 29.6833 22.3156 28.7465 22.7779 27.45H24.1V33.0333C24.1 33.6497 24.6003 34.15 25.2167 34.15H33.0333V37.5H20.0465L12.6597 31.1685C12.8261 30.7017 12.9333 30.2071 12.9333 29.6833C12.9333 27.22 10.93 25.2167 8.46667 25.2167C6.0033 25.2167 4 27.22 4 29.6833C4 32.1467 6.0033 34.15 8.46667 34.15C9.59227 34.15 10.6107 33.7179 11.3968 33.0278L18.9064 39.4642C19.1085 39.6384 19.3664 39.7333 19.6333 39.7333H33.0333V47.55H29.6833V45.3167C29.6833 44.7003 29.1831 44.2 28.5667 44.2H25.2167V43.0833C25.2167 42.4669 24.7164 41.9667 24.1 41.9667H19.6333C19.0169 41.9667 18.5167 42.4669 18.5167 43.0833V47.55C18.5167 48.1664 19.0169 48.6667 19.6333 48.6667H24.1C24.7164 48.6667 25.2167 48.1664 25.2167 47.55V46.4333H27.45V48.6667C27.45 49.2831 27.9503 49.7833 28.5667 49.7833H33.0333V52.0167H20.0253L14.8339 47.8638C15.0416 47.4283 15.1667 46.947 15.1667 46.4333C15.1667 44.5864 13.6636 43.0833 11.8167 43.0833C9.9697 43.0833 8.46667 44.5864 8.46667 46.4333C8.46667 48.2803 9.9697 49.7833 11.8167 49.7833C12.4565 49.7833 13.0495 49.5935 13.5587 49.2808L13.3532 49.5388L18.9365 54.0054C19.1342 54.164 19.3798 54.25 19.6333 54.25H33.5068C34.3711 56.2187 36.3331 57.6 38.6167 57.6V69.8833C38.6167 70.4997 39.1169 71 39.7333 71H50.9C51.5164 71 52.0167 70.4997 52.0167 69.8833V58.0779L56.8083 59.821C58.5157 60.443 60.4274 60.1907 61.9193 59.1466C63.41 58.1025 64.3 56.3918 64.3 54.5727V48.6667H69.8833C70.2641 48.6667 70.6192 48.4724 70.8236 48.1519C71.029 47.8303 71.0569 47.4283 70.8973 47.0821ZM48.6667 8.46667C48.0514 8.46667 47.55 7.96528 47.55 7.35C47.55 6.73472 48.0514 6.23333 48.6667 6.23333C49.2819 6.23333 49.7833 6.73472 49.7833 7.35C49.7833 7.96528 49.2819 8.46667 48.6667 8.46667ZM29.6833 10.7C28.4516 10.7 27.45 9.69835 27.45 8.46667C27.45 7.23498 28.4516 6.23333 29.6833 6.23333C30.915 6.23333 31.9167 7.23498 31.9167 8.46667C31.9167 9.69835 30.915 10.7 29.6833 10.7ZM36.3833 17.4C35.768 17.4 35.2667 16.8986 35.2667 16.2833C35.2667 15.668 35.768 15.1667 36.3833 15.1667C36.9986 15.1667 37.5 15.668 37.5 16.2833C37.5 16.8986 36.9986 17.4 36.3833 17.4ZM16.2833 17.4H14.05V15.1667H16.2833V17.4ZM19.6333 27.45C19.018 27.45 18.5167 26.9486 18.5167 26.3333C18.5167 25.7181 19.018 25.2167 19.6333 25.2167C20.2486 25.2167 20.75 25.7181 20.75 26.3333C20.75 26.9486 20.2486 27.45 19.6333 27.45ZM8.46667 31.9167C7.23498 31.9167 6.23333 30.915 6.23333 29.6833C6.23333 28.4517 7.23498 27.45 8.46667 27.45C9.69835 27.45 10.7 28.4517 10.7 29.6833C10.7 30.915 9.69835 31.9167 8.46667 31.9167ZM22.9833 46.4333H20.75V44.2H22.9833V46.4333ZM11.8167 47.55C11.2014 47.55 10.7 47.0486 10.7 46.4333C10.7 45.8181 11.2014 45.3167 11.8167 45.3167C12.4319 45.3167 12.9333 45.8181 12.9333 46.4333C12.9333 47.0486 12.4319 47.55 11.8167 47.55ZM63.1833 46.4333C62.5669 46.4333 62.0667 46.9336 62.0667 47.55V54.5727C62.0667 55.6805 61.5463 56.681 60.6384 57.3175C59.7306 57.9518 58.6117 58.1003 57.571 57.7217L51.2808 55.4348C50.9402 55.312 50.5572 55.3611 50.2579 55.5699C49.9609 55.7776 49.7833 56.1193 49.7833 56.4833V68.7667H40.85V56.4833C40.85 55.8669 40.3497 55.3667 39.7333 55.3667H38.6167C36.7697 55.3667 35.2667 53.8636 35.2667 52.0167V34.15C35.2667 29.8397 38.773 26.3333 43.0833 26.3333H45.0498C48.3674 26.3333 51.58 25.3607 54.3404 23.5205L62.0667 18.3704V33.0333C62.0667 33.1952 62.1013 33.3549 62.1694 33.5012L68.138 46.4333H63.1833Z" fill="#3C0A6D"/>
<path d="M55.3666 27.4501C52.9032 27.4501 50.8999 29.4534 50.8999 31.9167C50.8999 34.3801 52.9032 36.3834 55.3666 36.3834C57.8299 36.3834 59.8332 34.3801 59.8332 31.9167C59.8332 29.4534 57.8299 27.4501 55.3666 27.4501ZM55.3666 34.1501C54.1349 34.1501 53.1332 33.1484 53.1332 31.9167C53.1332 30.6851 54.1349 29.6834 55.3666 29.6834C56.5983 29.6834 57.5999 30.6851 57.5999 31.9167C57.5999 33.1484 56.5983 34.1501 55.3666 34.1501Z" fill="#3C0A6D"/>
</g>
</svg>
