<svg width="76" height="76" viewBox="0 0 76 76" fill="none" xmlns="http://www.w3.org/2000/svg">
<mask id="mask0_577_232" style="mask-type:alpha" maskUnits="userSpaceOnUse" x="0" y="0" width="76" height="76">
<rect x="0.398438" y="0.753906" width="75" height="75" fill="#D9D9D9"/>
</mask>
<g mask="url(#mask0_577_232)">
<path fill-rule="evenodd" clip-rule="evenodd" d="M38.9609 43.274C38.9609 43.274 45.0016 50.068 53.062 50.755C59.0136 51.2621 64.4213 48.3101 66.834 46.7244C66.8411 46.7198 66.8489 46.7145 66.8566 46.7092C67.4129 46.3202 67.7691 45.6958 67.8252 45.0087C67.8814 44.3224 67.6316 43.6459 67.1464 43.1678C67.1393 43.1619 67.1328 43.1553 67.1257 43.1487C65.004 41.1772 60.1487 37.3503 54.1978 36.8433C50.7964 36.5532 47.5718 37.3866 44.979 38.46C44.4834 38.6644 44.2446 39.242 44.4447 39.7477C44.6454 40.2535 45.2106 40.4981 45.7056 40.293C48.05 39.3225 50.9622 38.5523 54.0371 38.8148C59.4537 39.2763 63.8573 42.7894 65.8048 44.5947C65.8719 44.6646 65.9035 44.7536 65.8958 44.8439C65.8887 44.9329 65.8448 45.014 65.7758 45.0674C63.5611 46.5213 58.6452 49.2458 53.2233 48.7836C45.8837 48.1578 40.396 41.946 40.396 41.946C40.0373 41.5412 39.4242 41.5102 39.0286 41.8768C38.6324 42.2434 38.6021 42.8691 38.9609 43.274Z" fill="#3C0A6D"/>
<path fill-rule="evenodd" clip-rule="evenodd" d="M25.2415 24.1668C25.2415 24.1668 21.8524 28.0115 17.3166 28.3979C14.345 28.6517 11.6212 27.3462 10.0892 26.4271C10.0073 26.3737 9.95758 26.2886 9.94984 26.1956C9.94274 26.1047 9.97565 26.0156 10.0395 25.9523C11.4063 24.7813 13.8823 23.0301 16.8571 22.7762C18.1787 22.6635 19.4513 22.8633 20.5896 23.1956C21.1032 23.3453 21.6395 23.0406 21.786 22.5158C21.9324 21.9909 21.635 21.443 21.1213 21.2933C19.772 20.8997 18.2626 20.6716 16.6965 20.8048C13.248 21.0988 10.3602 23.0934 8.78958 24.4411C8.78442 24.4457 8.77926 24.4503 8.77474 24.4549C8.24172 24.9317 7.96166 25.6385 8.02103 26.3598C8.07975 27.0812 8.47016 27.7313 9.07287 28.1111C9.07868 28.115 9.08449 28.1183 9.09029 28.1216C10.8578 29.1852 14.0288 30.6634 17.4773 30.3694C22.7346 29.9217 26.6767 25.4948 26.6767 25.4948C27.0348 25.0906 27.0045 24.4642 26.6089 24.0982C26.2127 23.7316 25.6003 23.7626 25.2415 24.1668Z" fill="#3C0A6D"/>
<path fill-rule="evenodd" clip-rule="evenodd" d="M42.755 31.1419C41.3056 30.9646 39.7149 30.5136 38.2469 29.5351C35.1662 27.4812 33.451 23.7156 32.7005 21.7092C32.6708 21.6222 32.6799 21.5279 32.7244 21.4501C32.7663 21.3756 32.8367 21.3228 32.918 21.3037C34.7797 21.0505 38.194 20.918 41.1249 22.8723C45.4665 25.7669 47.1191 32.0426 47.1191 32.0426C47.2605 32.5688 47.7928 32.88 48.3084 32.7356C48.8234 32.5919 49.128 32.0472 48.9866 31.5211C48.9866 31.5211 47.0772 24.4785 42.1826 21.2153C38.7651 18.9373 34.7926 19.05 32.645 19.3448C32.6341 19.3461 32.6224 19.348 32.6115 19.35C31.9571 19.4634 31.3854 19.8683 31.0511 20.4544C30.7175 21.0406 30.6549 21.7481 30.8808 22.3857C30.8827 22.391 30.8846 22.3963 30.8866 22.4015C31.7293 24.6572 33.7117 28.8738 37.1892 31.1921C38.9277 32.3505 40.8081 32.8952 42.5246 33.1062C43.055 33.1714 43.5371 32.7837 43.601 32.2418C43.6648 31.6998 43.2854 31.2072 42.755 31.1419Z" fill="#3C0A6D"/>
<path fill-rule="evenodd" clip-rule="evenodd" d="M25.4452 18.9052C26.2118 18.6976 26.9926 18.3699 27.7347 17.8753C29.7113 16.5579 30.9619 14.3148 31.6181 12.7673C31.6181 12.7666 31.6188 12.766 31.6188 12.7653C31.9021 12.0934 31.8517 11.324 31.4845 10.6956C31.1174 10.0679 30.4779 9.6591 29.7648 9.5958C29.7558 9.59448 29.7474 9.59383 29.739 9.59383C28.2516 9.50217 26.0827 9.6558 24.1739 10.9284C20.961 13.0699 19.6994 17.6881 19.6994 17.6881C19.5587 18.2149 19.8627 18.7589 20.3783 18.9033C20.8932 19.047 21.4262 18.7365 21.5669 18.2096C21.5669 18.2096 22.571 14.3583 25.2316 12.5847C26.7267 11.5884 28.431 11.4967 29.6022 11.5666C29.6958 11.5778 29.7764 11.6312 29.8229 11.711C29.8713 11.7934 29.8777 11.8943 29.841 11.9827C29.3002 13.2579 28.3051 15.1331 26.6771 16.219C26.1169 16.5922 25.5271 16.8362 24.9489 16.9931C24.4327 17.1329 24.1249 17.6749 24.2617 18.2024C24.3985 18.7299 24.9289 19.045 25.4452 18.9052Z" fill="#3C0A6D"/>
<path fill-rule="evenodd" clip-rule="evenodd" d="M29.5239 67.2266C36.0918 46.7886 44.9763 31.4955 58.8245 26.785C59.3317 26.6129 59.6059 26.0525 59.4368 25.5342C59.2684 25.0166 58.7199 24.7357 58.2127 24.9085C43.8806 29.7838 34.4818 45.4567 27.6841 66.6095C27.5177 67.1284 27.7945 67.6875 28.3023 67.8576C28.8096 68.0284 29.3568 67.7455 29.5239 67.2266Z" fill="#3C0A6D"/>
<path fill-rule="evenodd" clip-rule="evenodd" d="M33.9205 39.9829C29.6021 26.5446 23.6144 16.5765 14.5756 13.337C14.0717 13.1564 13.5186 13.4274 13.3418 13.943C13.165 14.458 13.4309 15.023 13.9349 15.2037C22.5019 18.2743 27.9882 27.8633 32.0814 40.6001C32.2479 41.1183 32.7957 41.4012 33.3029 41.2311C33.8108 41.061 34.0876 40.5012 33.9205 39.9829Z" fill="#3C0A6D"/>
<path fill-rule="evenodd" clip-rule="evenodd" d="M62.8328 17.6476C59.6766 17.6476 57.1147 20.2653 57.1147 23.4902C57.1147 26.7144 59.6766 29.3321 62.8328 29.3321C65.9883 29.3321 68.5501 26.7144 68.5501 23.4902C68.5501 20.2653 65.9883 17.6476 62.8328 17.6476ZM62.8328 19.6257C64.9197 19.6257 66.6142 21.3572 66.6142 23.4902C66.6142 25.6226 64.9197 27.354 62.8328 27.354C60.7452 27.354 59.0507 25.6226 59.0507 23.4902C59.0507 21.3572 60.7452 19.6257 62.8328 19.6257Z" fill="#3C0A6D"/>
<path fill-rule="evenodd" clip-rule="evenodd" d="M11.2352 8.60034C9.03342 8.60034 7.24658 10.4261 7.24658 12.6752C7.24658 14.9249 9.03342 16.7506 11.2352 16.7506C13.4363 16.7506 15.2232 14.9249 15.2232 12.6752C15.2232 10.4261 13.4363 8.60034 11.2352 8.60034ZM11.2352 10.5784C12.3677 10.5784 13.2872 11.518 13.2872 12.6752C13.2872 13.833 12.3677 14.7726 11.2352 14.7726C10.102 14.7726 9.18249 13.833 9.18249 12.6752C9.18249 11.518 10.102 10.5784 11.2352 10.5784Z" fill="#3C0A6D"/>
</g>
</svg>
