<svg width="76" height="76" viewBox="0 0 76 76" fill="none" xmlns="http://www.w3.org/2000/svg">
<mask id="mask0_576_206" style="mask-type:alpha" maskUnits="userSpaceOnUse" x="0" y="0" width="76" height="76">
<rect x="0.398438" y="0.0349121" width="75" height="75" fill="#D9D9D9"/>
</mask>
<g mask="url(#mask0_576_206)">
<path d="M67.6838 26.7826H65.0717C64.6551 26.7826 64.3163 27.1288 64.3163 27.5472C64.3163 27.9656 64.6551 28.319 65.0717 28.319H66.9354V63.2688H41.1248L43.271 62.5619C51.9122 59.7269 61.2947 60.4194 61.69 60.4483C61.9018 60.4771 62.0995 60.405 62.2619 60.2535C62.4242 60.102 62.5089 59.9001 62.5089 59.6909V22.7718C62.516 22.541 62.403 22.3174 62.2124 22.1659C62.0218 22.0144 61.7959 21.9639 61.5841 22.0216L55.075 23.6879V18.9342C55.082 18.7106 54.9691 18.4869 54.7785 18.3355C54.5949 18.184 54.3619 18.1335 54.1572 18.1912C52.5193 18.5952 50.8603 19.1362 49.2224 19.7998C48.8411 19.9585 48.6576 20.4058 48.8059 20.8025C48.9612 21.192 49.3989 21.3796 49.7801 21.2281C50.8885 20.7736 52.011 20.3841 53.1194 20.0523L53.5712 19.9224V38.9302C53.5712 39.3558 53.9101 39.6948 54.3266 39.6948C54.7431 39.6948 55.075 39.3558 55.075 38.9302V25.2677L61.0052 23.7529V58.8685L60.6381 58.8541C57.2423 58.7026 48.4811 58.7026 40.6518 61.8838L39.2257 62.4681L40.2635 61.3067C43.631 57.5484 51.0438 55.067 54.489 54.2807C54.8349 54.2013 55.075 53.8984 55.075 53.5377V43.0347C55.0608 42.4793 54.6655 42.2773 54.3266 42.2773C53.9595 42.2773 53.5853 42.5154 53.5712 43.0419V52.9318L53.31 53.0039C51.0015 53.6098 43.158 55.9254 39.261 60.167L38.6468 60.8306V37.3144C38.6397 36.7661 38.2373 36.5642 37.8984 36.5642C37.5596 36.5642 37.1572 36.7661 37.1501 37.3216V60.8306L36.5359 60.167C32.6248 55.911 24.7954 53.6026 22.4869 53.0039L22.2257 52.9318V19.9224L22.6704 20.0523C23.7506 20.3697 24.8731 20.7664 26.0168 21.2281C26.518 21.4229 26.8498 21.1199 26.9769 20.8025C27.111 20.449 27.0404 20.0018 26.5674 19.7998C24.8943 19.1145 23.2352 18.5735 21.6467 18.1912C21.4279 18.1335 21.1949 18.1912 21.0043 18.3427C20.8207 18.4942 20.7149 18.7106 20.7219 18.927V23.6879L14.2198 22.0288C14.001 21.9639 13.7609 22.0288 13.5703 22.1803C13.3868 22.3318 13.2809 22.541 13.2879 22.7574V59.6909C13.2879 59.9001 13.3726 60.1093 13.528 60.2535C13.6833 60.3978 13.8951 60.4771 14.0927 60.4483C14.1845 60.4411 23.6941 59.662 32.5259 62.5619L34.6721 63.2688H8.86143V28.319H10.7323C11.2688 28.3046 11.4665 27.9007 11.4665 27.5544C11.4665 27.1793 11.2335 26.7898 10.7252 26.7826H8.11309C7.70362 26.7826 7.36475 27.1288 7.36475 27.5544V64.0334C7.36475 64.459 7.70362 64.8053 8.11309 64.8053C11.6077 64.7981 15.9142 64.7981 20.6584 64.7981H39.6916C50.2461 64.8053 60.624 64.8053 67.6838 64.8053C68.0933 64.8053 68.4321 64.459 68.4321 64.0334V27.5544C68.4321 27.1288 68.0933 26.7826 67.6838 26.7826ZM35.1381 61.891C27.2946 58.7026 18.5546 58.7026 15.1588 58.8541L14.7917 58.8685V23.7529L20.7219 25.2677V53.5449C20.7219 53.8984 20.969 54.2086 21.3079 54.2879C24.7531 55.0742 32.1588 57.5484 35.5263 61.3067L36.5712 62.4681L35.1381 61.891Z" fill="#3C0A6D"/>
<path d="M40.0376 31.6518H33.5496C33.3096 31.6518 33.0837 31.594 32.8789 31.4858C32.6742 31.3776 32.4977 31.2189 32.3636 31.0097C32.2294 30.8078 32.1447 30.5769 32.1165 30.3461C32.0882 30.1153 32.1165 29.8772 32.2082 29.6464L33.0837 27.3669C33.1119 27.302 33.119 27.2298 33.1048 27.1649C33.0907 27.1 33.0625 27.0423 33.0131 26.9918C31.947 25.9242 31.1069 24.8349 30.4715 23.7529C29.2925 21.7259 28.8336 19.7061 28.9819 17.8666C29.1302 16.0055 29.8997 14.3248 31.1704 13.0047L31.1987 12.9758C31.707 12.4492 32.3 11.9803 32.9566 11.5764C34.9898 10.3501 37.3266 10.0183 39.4163 10.4366C40.4682 10.653 41.4637 11.057 42.332 11.6413C43.2074 12.2256 43.9417 12.9902 44.4853 13.9136C45.3113 15.3274 45.6501 17.102 45.2477 19.1578C45.2407 19.2011 45.2407 19.2444 45.2477 19.2733C45.2477 19.3021 45.2618 19.3382 45.283 19.3815L46.6809 22.1948C46.7797 22.3967 46.8291 22.6059 46.8362 22.8223C46.8362 23.0387 46.8009 23.2479 46.7091 23.4571L46.695 23.4932C46.6032 23.688 46.4832 23.8539 46.3349 23.9837C46.1726 24.1208 45.9819 24.229 45.7701 24.2867L45.5513 24.3444C45.4877 24.3588 45.4383 24.3877 45.403 24.4238C45.3677 24.4598 45.3324 24.5103 45.3183 24.5752L44.45 27.403C44.3582 27.7131 44.1746 27.9656 43.9275 28.146C43.6875 28.3263 43.391 28.4273 43.0804 28.4273H41.8096C41.7178 28.4273 41.6331 28.4634 41.5766 28.5283C41.5131 28.5932 41.4778 28.6798 41.4778 28.7735V30.2018C41.4778 30.6058 41.3154 30.9737 41.0542 31.2406C40.793 31.5075 40.4329 31.6734 40.0376 31.6734V31.6518ZM33.5496 30.5264H40.0376C40.1293 30.5264 40.2141 30.4904 40.2705 30.4254C40.3341 30.3677 40.3694 30.2812 40.3694 30.1874V28.7591C40.3694 28.3551 40.5318 27.9873 40.793 27.7204C41.0542 27.4535 41.4142 27.2875 41.8096 27.2875H43.0804C43.158 27.2875 43.2286 27.2659 43.278 27.2226C43.3274 27.1866 43.3769 27.1216 43.398 27.0495L44.2664 24.2218C44.3441 23.9837 44.4711 23.7673 44.6406 23.6014C44.81 23.4355 45.0218 23.3129 45.2618 23.2479L45.4807 23.1902C45.5372 23.1758 45.5795 23.1542 45.6148 23.1253C45.6501 23.0965 45.6713 23.0604 45.6925 23.0243V23.0027C45.7207 22.9522 45.7348 22.9017 45.7348 22.8512C45.7348 22.8079 45.7207 22.7574 45.6925 22.7069L44.2946 19.8936C44.217 19.7421 44.1746 19.5907 44.1534 19.4247C44.1323 19.2661 44.1393 19.1074 44.1676 18.9414C44.5135 17.1741 44.2311 15.6665 43.5392 14.4835C43.0945 13.7116 42.4661 13.0696 41.7319 12.5791C40.9906 12.0813 40.1293 11.7279 39.2045 11.5403C37.3619 11.1652 35.3075 11.461 33.5214 12.5502C32.9425 12.9037 32.4271 13.3149 31.9894 13.7693L31.9611 13.7982C30.8739 14.9307 30.2174 16.3734 30.0832 17.9676C29.9491 19.5834 30.3656 21.3724 31.4175 23.1902C32.0035 24.1929 32.7801 25.2028 33.7755 26.1983C33.9873 26.4075 34.1214 26.6672 34.185 26.9413C34.2415 27.2154 34.2203 27.5039 34.1144 27.7853L33.239 30.0648C33.2178 30.1225 33.2107 30.1802 33.2178 30.2307C33.2178 30.2812 33.246 30.3317 33.2743 30.3822C33.3096 30.4327 33.3519 30.4687 33.3943 30.4976C33.4366 30.5192 33.4931 30.5336 33.5496 30.5336V30.5264ZM34.8486 13.4303C35.2016 13.4303 35.5405 13.5168 35.844 13.6683C35.9641 13.7332 36.0841 13.8054 36.19 13.8919C36.2959 13.8054 36.4159 13.7332 36.5359 13.6683C36.8324 13.5168 37.1713 13.4303 37.5313 13.4303C37.8914 13.4303 38.2232 13.5168 38.5197 13.6683C38.5974 13.7044 38.668 13.7477 38.7386 13.7982C38.8656 13.6467 39.0068 13.5096 39.1692 13.3942C39.5363 13.1345 39.974 12.983 40.447 12.983C41.0612 12.983 41.619 13.2355 42.0214 13.6539C42.4238 14.0651 42.6779 14.6349 42.6779 15.2625C42.6779 15.7963 42.4944 16.2941 42.1908 16.6836C41.9861 16.9433 41.7319 17.1525 41.4354 17.304V17.4266C41.4354 18.0542 41.1883 18.624 40.7859 19.0352L40.7506 19.0713C40.3482 19.468 39.8046 19.7061 39.2045 19.7061C38.9292 19.7061 38.6609 19.6556 38.4138 19.5618V23.5148C38.4138 23.825 38.1667 24.0775 37.8632 24.0775C37.5596 24.0775 37.3125 23.825 37.3125 23.5148V19.5618C37.0654 19.6556 36.7971 19.7061 36.5218 19.7061H36.3594V21.4013C36.3594 21.7115 36.1123 21.9639 35.8087 21.9639C35.5052 21.9639 35.2581 21.7115 35.2581 21.4013V20.2255C34.9757 20.3553 34.6651 20.4274 34.3403 20.4274C33.7261 20.4274 33.1684 20.175 32.766 19.7566C32.3636 19.3382 32.1094 18.7755 32.1094 18.1479C32.1094 17.7512 32.2153 17.3689 32.3918 17.0371C32.4906 16.8495 32.6177 16.6836 32.766 16.5393L32.7165 16.3878C32.653 16.1714 32.6177 15.9406 32.6177 15.7098C32.6177 15.0822 32.8648 14.5123 33.2743 14.1011C33.6767 13.69 34.2344 13.4303 34.8486 13.4303ZM35.3499 14.6782C35.2016 14.5989 35.0322 14.5556 34.8486 14.5556C34.538 14.5556 34.2556 14.6854 34.0509 14.8946C33.8461 15.1038 33.719 15.3924 33.719 15.7098C33.719 15.8324 33.7402 15.9478 33.7685 16.056C33.8038 16.1714 33.8532 16.2724 33.9167 16.3662L33.9308 16.3878C34.0932 16.6547 34.0085 17.001 33.7543 17.1597C33.592 17.2607 33.4508 17.4122 33.359 17.5781C33.2672 17.744 33.2178 17.9315 33.2178 18.1407C33.2178 18.4581 33.3449 18.7467 33.5496 18.9559C33.7543 19.1651 34.0367 19.2949 34.3474 19.2949C34.5592 19.2949 34.7568 19.2372 34.9192 19.1362C35.0816 19.0352 35.2157 18.8982 35.3146 18.7322C35.3993 18.5375 35.5899 18.4076 35.8158 18.4076C35.9076 18.4076 35.9923 18.4293 36.0629 18.4653C36.1264 18.4942 36.1829 18.5158 36.2465 18.5303H36.2818C36.3594 18.5519 36.4441 18.5663 36.5288 18.5663C36.7124 18.5663 36.8818 18.5231 37.0301 18.4509C37.1783 18.3716 37.3125 18.2634 37.4113 18.1335C37.5102 17.982 37.6796 17.8883 37.8702 17.8883C38.0608 17.8883 38.2303 17.9892 38.3291 18.1335C38.4279 18.2634 38.5621 18.3716 38.7103 18.4509C38.8586 18.5303 39.028 18.5663 39.2116 18.5663C39.5151 18.5663 39.7834 18.4509 39.9882 18.2561L40.0093 18.2345C40.2141 18.0253 40.3411 17.7368 40.3411 17.4194C40.3411 17.3617 40.3411 17.304 40.327 17.2535C40.327 17.1958 40.3058 17.1453 40.2917 17.0876V17.0515C40.2141 16.7485 40.4047 16.4455 40.7012 16.3806C40.9553 16.3229 41.1742 16.1786 41.3366 15.9767C41.4919 15.7819 41.5837 15.5294 41.5837 15.2553C41.5837 14.9379 41.4566 14.6494 41.2519 14.4402C41.0471 14.231 40.7647 14.1011 40.4541 14.1011C40.2141 14.1011 39.9882 14.1805 39.8046 14.3031C39.614 14.4402 39.4728 14.6277 39.3881 14.8586C39.3528 14.9595 39.2892 15.0461 39.2045 15.111C38.9645 15.2986 38.6185 15.2481 38.435 15.0028C38.3291 14.8658 38.195 14.7504 38.0396 14.6638C37.8914 14.5844 37.722 14.5484 37.5384 14.5484C37.3548 14.5484 37.1854 14.5917 37.0372 14.671C36.8818 14.7504 36.7477 14.8658 36.6418 15.0028C36.6136 15.0461 36.5712 15.0822 36.5288 15.1182C36.2888 15.3058 35.9429 15.2553 35.7593 15.01C35.6534 14.8658 35.5193 14.7504 35.3569 14.671L35.3499 14.6782Z" fill="#3C0A6D"/>
</g>
</svg>
