<svg width="75" height="75" viewBox="0 0 75 75" fill="none" xmlns="http://www.w3.org/2000/svg">
<mask id="mask0_1291_710" style="mask-type:alpha" maskUnits="userSpaceOnUse" x="0" y="0" width="75" height="75">
<rect width="75" height="75" fill="#D9D9D9"/>
</mask>
<g mask="url(#mask0_1291_710)">
<path d="M15.6544 55.0414C15.6304 55.0579 15.6064 55.0726 15.5806 55.0873C15.5548 55.102 15.5289 55.1167 15.5013 55.1296L10.1052 58.2337C9.43188 58.6178 8.57405 58.3881 8.18665 57.7173C7.80108 57.0465 8.03168 56.19 8.70503 55.8059L12.9831 53.3451C12.1327 51.6892 11.4519 49.934 10.9612 48.1072C10.3635 45.8834 10.0444 43.5494 10.0444 41.1491C10.0444 33.7335 13.0624 27.0217 17.9401 22.1624C22.5078 17.6119 28.7063 14.6861 35.5874 14.3332V9.40595C35.5874 8.62854 36.2202 8 36.9987 8C37.7772 8 38.4099 8.63038 38.4099 9.40595V15.7024V29.3024L44.2081 23.5261C44.7579 22.9766 45.6526 22.9766 46.2042 23.5261C46.7558 24.0756 46.7558 24.9651 46.2042 25.5146L37.9949 33.693C37.4433 34.2425 36.5504 34.2425 35.9988 33.693L27.7894 25.5146C27.2379 24.9669 27.2379 24.0756 27.7894 23.5261C28.341 22.9766 29.2339 22.9766 29.7855 23.5261L35.5837 29.3024V17.1488C29.483 17.4998 23.9892 20.1077 19.9325 24.1491C15.5658 28.4993 12.865 34.509 12.865 41.1491C12.865 43.3104 13.1491 45.4001 13.6823 47.3831C14.1103 48.9747 14.6969 50.5001 15.4238 51.9409L26.0037 45.8559L18.0748 43.7387C17.3221 43.5383 16.8756 42.7683 17.0767 42.0203C17.2778 41.2704 18.0508 40.8257 18.8034 41.026L30.0161 44.018C30.7688 44.2183 31.2152 44.9884 31.0142 45.7382L28.009 56.9086C27.8079 57.6585 27.0349 58.1032 26.2841 57.9029C25.5333 57.7026 25.085 56.9325 25.2861 56.1845L27.4113 48.2818L15.6544 55.0432V55.0414ZM65.2942 55.8059C65.9675 56.19 66.1999 57.0465 65.8125 57.7173C65.4251 58.3881 64.5655 58.6197 63.894 58.2337L58.4979 55.1296C58.4702 55.1167 58.4444 55.102 58.4186 55.0873C58.3928 55.0726 58.3688 55.0561 58.3448 55.0414L46.5879 48.28L48.7131 56.1827C48.9142 56.9325 48.4678 57.7026 47.7151 57.9011C46.9624 58.1014 46.1894 57.6566 45.9902 56.9068L42.985 45.7364C42.7839 44.9866 43.2304 44.2165 43.9831 44.0162L55.1957 41.0242C55.9484 40.8238 56.7214 41.2686 56.9225 42.0184C57.1235 42.7664 56.6771 43.5365 55.9244 43.7368L47.9955 45.854L58.5754 51.9391C59.3022 50.4982 59.8889 48.9728 60.3169 47.3794C60.85 45.3964 61.1341 43.3086 61.1341 41.1473C61.1341 35.5511 59.2192 30.4033 56.0093 26.3233C52.7274 22.1532 48.0933 19.0895 42.7637 17.7902C42.0091 17.6082 41.5442 16.851 41.7269 16.0994C41.9095 15.3477 42.6696 14.8846 43.4241 15.0665C49.3791 16.5184 54.5574 19.9405 58.223 24.5975C61.8149 29.1609 63.9548 34.9078 63.9548 41.1473C63.9548 43.5494 63.6357 45.8816 63.038 48.1054C62.5472 49.934 61.8665 51.6873 61.0161 53.3432L65.2942 55.8041V55.8059ZM54.4228 57.7871C54.9614 57.2284 55.8525 57.2119 56.4133 57.7485C56.9741 58.2852 56.9907 59.1729 56.452 59.7316C53.9542 62.3266 50.9361 64.4236 47.5657 65.8552C44.317 67.2355 40.7436 68 37.0005 68C33.2556 68 29.6841 67.2355 26.4354 65.8552C23.0649 64.4217 20.0468 62.3266 17.549 59.7316C17.0103 59.1729 17.0269 58.2852 17.5877 57.7485C18.1485 57.2119 19.0396 57.2284 19.5783 57.7871C21.8178 60.112 24.5205 61.9903 27.5386 63.2731C30.4386 64.5044 33.6374 65.1881 37.0005 65.1881C40.3654 65.1881 43.5625 64.5063 46.4643 63.2731C49.4824 61.9903 52.185 60.112 54.4246 57.7871H54.4228Z" fill="#3C0A6D"/>
</g>
</svg>
