<svg width="76" height="76" viewBox="0 0 76 76" fill="none" xmlns="http://www.w3.org/2000/svg">
<mask id="mask0_577_229" style="mask-type:alpha" maskUnits="userSpaceOnUse" x="0" y="0" width="76" height="76">
<rect x="0.398438" y="0.628418" width="75" height="75" fill="#D9D9D9"/>
</mask>
<g mask="url(#mask0_577_229)">
<path fill-rule="evenodd" clip-rule="evenodd" d="M51.0258 16.1149C54.1375 16.1149 56.6705 18.6466 56.6705 21.7596C56.6705 24.8728 54.1375 27.4047 51.0258 27.4047C47.9122 27.4047 45.3811 24.8728 45.3811 21.7596C45.3811 18.6466 47.9122 16.1149 51.0258 16.1149ZM51.0258 29.5477C55.3186 29.5477 58.8136 26.0546 58.8136 21.7596C58.8136 17.4648 55.3186 13.9718 51.0258 13.9718C46.7311 13.9718 43.238 17.4648 43.238 21.7596C43.238 26.0546 46.7311 29.5477 51.0258 29.5477ZM15.6691 29.7493C23.2766 29.7493 29.4659 23.5584 29.4659 15.9504C29.4659 11.8829 27.689 8.11249 24.7243 5.5366C31.0151 6.80804 35.7652 12.3786 35.7652 19.0395C35.7652 26.6346 29.5864 32.814 21.9911 32.814C18.6395 32.814 15.4755 31.6137 13.0099 29.4906C13.8827 29.6622 14.7745 29.7493 15.6691 29.7493ZM21.9911 34.9571C30.7675 34.9571 37.9083 27.816 37.9083 19.0395C37.9083 9.71914 29.9017 2.36485 20.5861 3.18338C19.482 3.28042 19.2399 4.79948 20.2579 5.23492C24.5498 7.07526 27.3228 11.2814 27.3228 15.9504C27.3228 22.377 22.0955 27.6062 15.6691 27.6062C13.6987 27.6062 11.75 27.1048 10.0348 26.1546C9.07 25.6212 8.01708 26.7474 8.61656 27.6748C11.567 32.2352 16.5656 34.9571 21.9911 34.9571ZM71.1162 70.9925V30.6335C71.1162 30.2892 70.8344 30.0095 70.49 30.0095H65.4004C65.0559 30.0095 64.7761 30.2892 64.7761 30.6335V55.0963C64.7761 55.6878 64.2951 56.1677 63.7041 56.1677H4.68042V70.9925H7.85664L10.9788 63.8573C11.1486 63.4675 11.5338 63.2158 11.9597 63.2158H63.8359C64.2609 63.2158 64.6471 63.4675 64.8169 63.8573L67.939 70.9925H71.1162ZM8.93056 46.9768H51.1538L56.5234 54.0247H4.68042V51.2275C4.68042 48.8843 6.58822 46.9768 8.93056 46.9768ZM39.2355 43.8351C38.6568 43.1677 38.413 42.0864 38.5088 40.6132H46.7349C47.0195 40.6132 47.2927 40.5002 47.4938 40.3005L54.9562 32.8366H59.2481C60.5269 33.378 61.6606 34.0639 62.633 34.8781V54.0247H59.2178L53.1044 46.0011L58.0982 41.0061C58.5167 40.5877 58.5167 39.9103 58.0982 39.4915C57.679 39.0731 57.0025 39.0731 56.5832 39.4915L51.2402 44.8338H42.2201C40.816 44.8338 39.8113 44.4981 39.2355 43.8351ZM70.49 27.866C72.0165 27.866 73.2593 29.1078 73.2593 30.6335V72.0638C73.2593 72.6553 72.7792 73.1355 72.1882 73.1355H67.2389C66.8129 73.1355 66.4278 72.8839 66.257 72.4941L63.1358 65.3589H12.6608L9.53962 72.4941C9.3679 72.8839 8.98369 73.1355 8.55771 73.1355H3.60937C3.01642 73.1355 2.53735 72.6553 2.53735 72.0638V51.2275C2.53735 47.7025 5.40523 44.8338 8.93056 44.8338H37.3068C36.4198 43.5464 36.1485 41.7606 36.4843 39.3918C36.5583 38.863 37.0108 38.4702 37.544 38.4702H46.2918L53.7542 31.0078C53.9563 30.8065 54.2286 30.6935 54.5132 30.6935H59.4606C59.601 30.6935 59.7386 30.7206 59.8666 30.7721C60.8608 31.1794 61.7839 31.6637 62.633 32.2181V30.6335C62.633 29.1078 63.8739 27.866 65.4004 27.866H70.49Z" fill="#3C0A6D"/>
</g>
</svg>
