<svg width="75" height="75" viewBox="0 0 75 75" fill="none" xmlns="http://www.w3.org/2000/svg">
<mask id="mask0_1291_708" style="mask-type:alpha" maskUnits="userSpaceOnUse" x="0" y="0" width="75" height="75">
<rect width="75" height="75" fill="#D9D9D9"/>
</mask>
<g mask="url(#mask0_1291_708)">
<path d="M35.8344 43.0341H16.2287C15.677 43.0341 15.2263 43.4878 15.2263 44.0433V56.2785C15.2263 56.8339 15.677 57.2876 16.2287 57.2876H35.8344C36.3861 57.2876 36.8368 56.8339 36.8368 56.2785V44.0354C36.8368 43.48 36.3861 43.0341 35.8344 43.0341ZM34.8319 55.2615H17.2312V45.0446H34.8319V55.2615ZM66.4978 61.1835H63.8713V31.6829C66.288 31.2527 68.1296 29.1326 68.1296 26.5823V22.4048C68.1296 22.3892 68.1219 22.3814 68.1219 22.3735C68.1141 22.2562 68.0986 22.1389 68.0519 22.0293C68.0442 22.0059 68.0286 21.9902 68.0209 21.9668C67.9898 21.912 67.9665 21.8494 67.9276 21.8025L57.1651 7.40814C56.489 6.50067 55.4944 6 54.3676 6H19.6479C18.5211 6 17.5265 6.50067 16.8504 7.40814L6.09568 21.7946C6.05682 21.8494 6.03351 21.9042 6.00243 21.9589C5.99466 21.9824 5.97912 21.998 5.97134 22.0215C5.92472 22.131 5.90918 22.2484 5.90141 22.3657C5.90141 22.3814 5.89364 22.3892 5.89364 22.397V26.5745C5.89364 29.1248 7.73531 31.2448 10.152 31.6751V61.1835H7.50995C6.12676 61.1835 5 62.3178 5 63.7103V67.4732C5 68.8657 6.12676 70 7.50995 70H66.49C67.8732 70 69 68.8657 69 67.4732V63.7103C69.0077 62.3178 67.881 61.1835 66.4978 61.1835ZM66.1248 26.5745C66.1248 28.3269 64.7105 29.7428 62.9776 29.7428H62.8688H61.237C59.4963 29.7428 58.0898 28.319 58.0898 26.5745V23.4062H66.1326V26.5745H66.1248ZM38.0723 27.216C38.0335 27.0126 38.0102 26.7935 38.0102 26.5745V23.4062H46.0451V26.5745C46.0451 28.3269 44.6309 29.7428 42.898 29.7428H41.1651C39.642 29.7506 38.3676 28.6632 38.0723 27.216ZM47.8246 21.3957L44.5221 8.01834H48.8659L55.4711 21.3957H47.8246ZM45.7654 21.3957H38.0102V8.01051H42.4628L45.7654 21.3957ZM36.0053 21.3957H28.2501L31.5527 8.01834H36.0053V21.3957ZM26.1909 21.3957H18.5133L24.8387 8.01834H29.4857L26.1909 21.3957ZM17.9305 23.4062H25.9733V26.5745C25.9733 28.3269 24.559 29.7428 22.8261 29.7428H21.0932C19.3526 29.7428 17.9461 28.319 17.9461 26.5745V23.4062H17.9305ZM27.9704 23.4062H36.0053V26.5745C36.0053 28.3269 34.591 29.7428 32.8582 29.7428H31.1253C29.3846 29.7428 27.9781 28.319 27.9781 26.5745V23.4062H27.9704ZM48.0422 23.4062H56.0772V26.5745C56.0772 28.3269 54.6629 29.7428 52.93 29.7428H51.1972C49.4565 29.7428 48.05 28.319 48.05 26.5745V23.4062H48.0422ZM55.5643 8.61288L65.1146 21.3879H57.7013L51.0961 8.01051H54.3676C54.865 8.01051 55.269 8.21391 55.5643 8.61288ZM18.4512 8.61288C18.7465 8.21391 19.1506 8.01051 19.6479 8.01051H22.6319L16.3065 21.3879H8.90092L18.4512 8.61288ZM7.89849 26.5745V23.4062H15.9335V26.5745C15.9335 28.3269 14.5192 29.7428 12.7863 29.7428H11.1544H11.0457C9.31277 29.7506 7.89849 28.3269 7.89849 26.5745ZM12.1491 31.7612H12.7785C12.9728 31.7612 13.1671 31.7455 13.3613 31.722C13.4235 31.7142 13.4857 31.7064 13.5401 31.6907C13.6722 31.6673 13.7965 31.6516 13.9286 31.6203C13.9985 31.6047 14.0607 31.589 14.1306 31.5656C14.2472 31.5343 14.3638 31.4952 14.4803 31.4561C14.5425 31.4326 14.6124 31.4091 14.6746 31.3856C14.7912 31.3387 14.9077 31.284 15.0243 31.2292C15.0787 31.2057 15.1331 31.1823 15.1797 31.151C15.3429 31.0649 15.4983 30.971 15.6459 30.8693C15.6459 30.8693 15.6537 30.8693 15.6537 30.8615C15.8091 30.7598 15.949 30.6425 16.0966 30.5251C16.1355 30.486 16.1744 30.4469 16.221 30.4156C16.3142 30.3295 16.4075 30.2357 16.5007 30.1418C16.5473 30.0949 16.5862 30.0479 16.6328 29.9932C16.7105 29.8993 16.7882 29.8054 16.8659 29.7115C16.8893 29.6802 16.9126 29.6568 16.9359 29.6255C16.9592 29.6568 16.9825 29.6802 17.0058 29.7115C17.0758 29.8054 17.1535 29.8993 17.2389 29.9932C17.2856 30.0401 17.3244 30.0949 17.371 30.1418C17.4565 30.2357 17.5498 30.3217 17.643 30.4078C17.6819 30.4469 17.7285 30.486 17.7674 30.5251C17.9072 30.6425 18.0549 30.7598 18.2025 30.8615C18.2103 30.8615 18.2181 30.8693 18.2181 30.8693C18.3657 30.971 18.5211 31.0571 18.6765 31.1431C18.7309 31.1744 18.7853 31.1979 18.8397 31.2214C18.9563 31.2761 19.0728 31.3309 19.1894 31.3778C19.2516 31.4013 19.3215 31.4248 19.3837 31.4482C19.5002 31.4873 19.6168 31.5265 19.7334 31.5578C19.8033 31.5734 19.8655 31.5969 19.9354 31.6125C20.0597 31.6438 20.1918 31.6673 20.3239 31.6829C20.3861 31.6907 20.4405 31.7064 20.5027 31.7142C20.6969 31.7377 20.8912 31.7533 21.0855 31.7533H22.8183C23.0126 31.7533 23.2069 31.7377 23.4012 31.7142C23.4633 31.7064 23.5255 31.6986 23.5799 31.6829C23.712 31.6595 23.8363 31.6438 23.9684 31.6125C24.0384 31.5969 24.1005 31.5812 24.1705 31.5578C24.287 31.5265 24.4036 31.4873 24.5201 31.4482C24.5823 31.4248 24.6522 31.4013 24.7144 31.3778C24.831 31.3309 24.9475 31.2761 25.0641 31.2214C25.1185 31.1979 25.1729 31.1744 25.2273 31.1431C25.3827 31.0571 25.5381 30.971 25.6858 30.8693C25.6935 30.8693 25.7013 30.8615 25.7013 30.8615C25.8567 30.7598 25.9966 30.6425 26.1365 30.5251C26.1831 30.486 26.2219 30.4469 26.2608 30.4078C26.354 30.3217 26.4473 30.2357 26.5328 30.1418C26.5794 30.0949 26.626 30.0401 26.6649 29.9932C26.7426 29.8993 26.8203 29.8132 26.898 29.7115C26.9213 29.6802 26.9446 29.6568 26.9679 29.6255C26.9912 29.6568 27.0146 29.6802 27.0379 29.7115C27.1156 29.8054 27.1855 29.8993 27.271 29.9932C27.3176 30.0401 27.3565 30.0949 27.4031 30.1418C27.4963 30.2357 27.5896 30.3217 27.6828 30.4156C27.7217 30.4547 27.7606 30.4938 27.8072 30.5251C27.9471 30.6425 28.0947 30.7598 28.2501 30.8615C28.2501 30.8615 28.2579 30.8615 28.2579 30.8693C28.4055 30.971 28.5609 31.0649 28.7241 31.151C28.7785 31.1823 28.8329 31.2057 28.8795 31.2292C28.9961 31.284 29.1127 31.3387 29.2292 31.3856C29.2914 31.4091 29.3536 31.4326 29.4235 31.4561C29.5401 31.4952 29.6566 31.5343 29.7732 31.5656C29.8431 31.5812 29.9053 31.6047 29.9752 31.6203C30.0995 31.6516 30.2317 31.6751 30.3638 31.6907C30.4259 31.6986 30.4803 31.7142 30.5425 31.722C30.7367 31.7455 30.931 31.7612 31.1253 31.7612H32.8582C33.0524 31.7612 33.2467 31.7455 33.441 31.722C33.5031 31.7142 33.5653 31.7064 33.6197 31.6907C33.7518 31.6673 33.8761 31.6516 34.0082 31.6203C34.0782 31.6047 34.1403 31.589 34.2103 31.5656C34.3268 31.5343 34.4434 31.4952 34.56 31.4561C34.6221 31.4326 34.6921 31.4091 34.7542 31.3856C34.8708 31.3387 34.9874 31.284 35.1039 31.2292C35.1583 31.2057 35.2127 31.1823 35.2593 31.151C35.4225 31.0649 35.5779 30.971 35.7256 30.8693C35.7256 30.8693 35.7333 30.8693 35.7333 30.8615C35.8888 30.7598 36.0286 30.6425 36.1763 30.5251C36.2151 30.486 36.254 30.4469 36.3006 30.4156C36.3939 30.3295 36.4871 30.2357 36.5804 30.1418C36.627 30.0949 36.6658 30.0479 36.7125 29.9932C36.7902 29.8993 36.8679 29.8054 36.9456 29.7115C36.9689 29.6802 36.9922 29.6568 37.0155 29.6255C37.0388 29.6568 37.0621 29.6802 37.0855 29.7115C37.1554 29.8054 37.2331 29.8993 37.3108 29.9932C37.3574 30.0401 37.3963 30.0949 37.4429 30.1418C37.5284 30.2357 37.6216 30.3217 37.7149 30.4078C37.7615 30.4469 37.8004 30.486 37.847 30.5251C37.9869 30.6425 38.1345 30.7598 38.2822 30.8615C38.2899 30.8693 38.2977 30.8693 38.3055 30.8772C38.4531 30.971 38.6008 31.0649 38.7562 31.1431C38.8106 31.1744 38.865 31.1979 38.9194 31.2214C39.0281 31.2761 39.1447 31.3309 39.2613 31.3778C39.3234 31.4013 39.3934 31.4248 39.4555 31.4482C39.5721 31.4873 39.6809 31.5265 39.7975 31.5578C39.8674 31.5734 39.9373 31.5969 40.0073 31.6125C40.1316 31.6438 40.2559 31.6673 40.388 31.6829C40.4502 31.6907 40.5124 31.7064 40.5745 31.7142C40.761 31.7377 40.9553 31.7455 41.1496 31.7533H42.8824C43.0767 31.7533 43.271 31.7377 43.4653 31.7142C43.5274 31.7064 43.5896 31.6986 43.644 31.6829C43.7761 31.6595 43.9004 31.6438 44.0325 31.6125C44.1025 31.5969 44.1646 31.5812 44.2346 31.5578C44.3511 31.5265 44.4677 31.4873 44.5842 31.4482C44.6464 31.4248 44.7163 31.4013 44.7785 31.3778C44.8951 31.3309 45.0116 31.2761 45.1282 31.2214C45.1826 31.1979 45.237 31.1744 45.2914 31.1431C45.4468 31.0571 45.6022 30.971 45.7499 30.8693C45.7576 30.8693 45.7654 30.8615 45.7654 30.8615C45.9208 30.7598 46.0607 30.6425 46.2006 30.5251C46.2472 30.486 46.286 30.4469 46.3249 30.4078C46.4181 30.3217 46.5114 30.2357 46.5969 30.1418C46.6435 30.0949 46.6901 30.0401 46.729 29.9932C46.8067 29.8993 46.8844 29.8132 46.9621 29.7115C46.9854 29.6802 47.0087 29.6568 47.032 29.6255C47.0553 29.6568 47.0787 29.6802 47.102 29.7115C47.1797 29.8054 47.2496 29.8993 47.3351 29.9932C47.3817 30.0401 47.4206 30.0949 47.4672 30.1418C47.5604 30.2357 47.6537 30.3217 47.7469 30.4156C47.7858 30.4547 47.8246 30.4938 47.8713 30.5251C48.0111 30.6425 48.1588 30.7598 48.3142 30.8615C48.3142 30.8615 48.322 30.8615 48.322 30.8693C48.4696 30.971 48.625 31.0649 48.7882 31.151C48.8426 31.1823 48.897 31.2057 48.9436 31.2292C49.0602 31.284 49.1768 31.3387 49.2933 31.3856C49.3555 31.4091 49.4177 31.4326 49.4876 31.4561C49.6042 31.4952 49.7207 31.5343 49.8373 31.5656C49.9072 31.5812 49.9694 31.6047 50.0393 31.6203C50.1636 31.6516 50.2957 31.6751 50.4278 31.6907C50.49 31.6986 50.5444 31.7142 50.6066 31.722C50.8008 31.7455 50.9951 31.7612 51.1894 31.7612H52.9223C53.1165 31.7612 53.3108 31.7455 53.5051 31.722C53.5672 31.7142 53.6294 31.7064 53.6838 31.6907C53.8159 31.6673 53.9402 31.6516 54.0723 31.6203C54.1423 31.6047 54.2044 31.589 54.2744 31.5656C54.3909 31.5343 54.5075 31.4952 54.6241 31.4561C54.6862 31.4326 54.7562 31.4091 54.8183 31.3856C54.9349 31.3387 55.0515 31.284 55.168 31.2292C55.2224 31.2057 55.2768 31.1823 55.3234 31.151C55.4866 31.0649 55.642 30.971 55.7897 30.8693C55.7897 30.8693 55.7974 30.8693 55.7974 30.8615C55.9529 30.7598 56.0927 30.6425 56.2404 30.5251C56.2792 30.486 56.3181 30.4469 56.3647 30.4156C56.458 30.3295 56.5512 30.2357 56.6445 30.1418C56.6911 30.0949 56.7299 30.0479 56.7766 29.9932C56.8543 29.8993 56.932 29.8054 57.0097 29.7115C57.033 29.6802 57.0563 29.6568 57.0796 29.6255C57.1029 29.6568 57.1262 29.6802 57.1496 29.7115C57.2195 29.8054 57.2972 29.8993 57.3827 29.9932C57.4293 30.0401 57.4682 30.0949 57.5148 30.1418C57.6003 30.2357 57.6935 30.3217 57.7868 30.4078C57.8256 30.4469 57.8722 30.486 57.9111 30.5251C58.051 30.6425 58.1986 30.7598 58.3463 30.8615C58.354 30.8615 58.3618 30.8693 58.3618 30.8693C58.5094 30.971 58.6649 31.0571 58.8203 31.1431C58.8747 31.1744 58.9291 31.1979 58.9835 31.2214C59.1 31.2761 59.2166 31.3309 59.3331 31.3778C59.3953 31.4013 59.4652 31.4248 59.5274 31.4482C59.644 31.4873 59.7605 31.5265 59.8771 31.5578C59.947 31.5734 60.0092 31.5969 60.0791 31.6125C60.2035 31.6438 60.3356 31.6673 60.4677 31.6829C60.5298 31.6907 60.5842 31.7064 60.6464 31.7142C60.8407 31.7377 61.0349 31.7533 61.2292 31.7533H61.8664V61.1835H58.7814V38.1213C58.7814 37.5658 58.3307 37.1121 57.779 37.1121H42.1675C41.6158 37.1121 41.1651 37.5658 41.1651 38.1213V61.1835H12.1491V31.7612ZM56.7843 61.1835H43.17V39.1226H56.7843V61.1835ZM67.0107 67.4732C67.0107 67.7548 66.7775 67.9817 66.4978 67.9817H7.50995C7.23798 67.9817 7.00486 67.747 7.00486 67.4732V63.7103C7.00486 63.4365 7.23798 63.2018 7.50995 63.2018H11.1467H42.1675H57.779H62.8611H66.49C66.7698 63.2018 67.0029 63.4287 67.0029 63.7103V67.4732H67.0107Z" fill="#3C0A6D"/>
</g>
</svg>
