<svg width="176" height="42" viewBox="0 0 176 42" fill="none" xmlns="http://www.w3.org/2000/svg">
<path d="M112.438 36.8257C112.14 36.7026 111.831 36.639 111.513 36.639C111.075 36.639 110.674 36.7436 110.308 36.9549C109.943 37.1662 109.655 37.4534 109.441 37.8165C109.227 38.1817 109.12 38.5796 109.12 39.0104C109.12 39.4412 109.227 39.8392 109.441 40.2003C109.655 40.5613 109.945 40.8485 110.308 41.0619C110.672 41.2752 111.075 41.3819 111.513 41.3819C111.827 41.3819 112.132 41.3203 112.43 41.1993C112.728 41.0783 112.993 40.9101 113.225 40.6926L113.566 41.0578C113.285 41.3162 112.964 41.5214 112.6 41.6732C112.238 41.825 111.866 41.8988 111.488 41.8988C110.952 41.8988 110.461 41.7696 110.012 41.5111C109.564 41.2526 109.209 40.9018 108.946 40.4587C108.683 40.0156 108.553 39.5335 108.553 39.0104C108.553 38.4873 108.685 38.0073 108.95 37.5703C109.215 37.1334 109.573 36.7867 110.025 36.5303C110.477 36.2738 110.97 36.1446 111.505 36.1446C111.889 36.1446 112.259 36.2164 112.617 36.36C112.974 36.5036 113.287 36.7026 113.558 36.9549L113.225 37.3426C112.997 37.1211 112.736 36.9488 112.438 36.8236V36.8257Z" fill="#373737"/>
<path d="M117.362 41.8537L117.354 41.1419C117.186 41.3901 116.968 41.5747 116.697 41.6958C116.425 41.8168 116.115 41.8783 115.763 41.8783C115.476 41.8783 115.225 41.823 115.005 41.7122C114.785 41.6014 114.616 41.4496 114.497 41.2547C114.378 41.0598 114.318 40.8424 114.318 40.5983C114.318 40.2311 114.46 39.9418 114.744 39.7326C115.028 39.5233 115.418 39.4166 115.915 39.4166H117.344V39.0925C117.344 38.7581 117.243 38.4996 117.044 38.315C116.844 38.1324 116.553 38.0401 116.168 38.0401C115.714 38.0401 115.258 38.2104 114.797 38.5509L114.555 38.1776C114.841 37.9786 115.114 37.8309 115.375 37.7365C115.634 37.6422 115.932 37.595 116.267 37.595C116.781 37.595 117.177 37.7222 117.459 37.9806C117.741 38.2371 117.885 38.592 117.889 39.0453L117.897 41.8537H117.362ZM116.822 41.1603C117.085 40.986 117.262 40.7378 117.352 40.4198V39.8372H115.981C115.607 39.8372 115.324 39.8987 115.13 40.0239C114.937 40.149 114.838 40.3336 114.838 40.5818C114.838 40.8301 114.931 41.0393 115.118 41.1932C115.305 41.347 115.552 41.4229 115.86 41.4229C116.238 41.4229 116.559 41.3347 116.822 41.1603Z" fill="#373737"/>
<path d="M119.389 35.8451H119.932V41.8517H119.389V35.8451Z" fill="#373737"/>
<path d="M128.165 38.0319C128.447 38.3232 128.587 38.7273 128.587 39.2464V41.8537H128.036V39.3756C128.036 38.9715 127.927 38.6555 127.707 38.4319C127.487 38.2083 127.187 38.0955 126.803 38.0955C126.348 38.1058 125.993 38.2637 125.736 38.5653C125.479 38.8668 125.352 39.2669 125.352 39.7633V41.8517H124.801V39.3735C124.801 38.9694 124.692 38.6535 124.472 38.4299C124.252 38.2063 123.952 38.0934 123.568 38.0934C123.113 38.1037 122.756 38.2617 122.497 38.5632C122.238 38.8648 122.108 39.2648 122.108 39.7613V41.8496H121.566V37.6073H122.108V38.6022C122.248 38.2678 122.458 38.0175 122.737 37.8493C123.015 37.6832 123.356 37.595 123.755 37.5909C124.159 37.5909 124.497 37.6914 124.764 37.8904C125.031 38.0893 125.208 38.3704 125.294 38.7314C125.424 38.354 125.633 38.0709 125.923 37.8822C126.213 37.6934 126.568 37.597 126.99 37.5909C127.493 37.5909 127.884 37.7365 128.165 38.0278V38.0319Z" fill="#373737"/>
<path d="M88.6573 36.8257C88.3593 36.7026 88.051 36.639 87.7324 36.639C87.2946 36.639 86.8938 36.7436 86.528 36.9549C86.1621 37.1662 85.8744 37.4534 85.6606 37.8165C85.4469 38.1817 85.34 38.5796 85.34 39.0104C85.34 39.4412 85.4469 39.8392 85.6606 40.2003C85.8744 40.5613 86.1642 40.8485 86.528 41.0619C86.8938 41.2752 87.2946 41.3819 87.7324 41.3819C88.0469 41.3819 88.3511 41.3203 88.6491 41.1993C88.9471 41.0783 89.2123 40.9101 89.4445 40.6926L89.7857 41.0578C89.5041 41.3162 89.1835 41.5214 88.8197 41.6732C88.458 41.825 88.0859 41.8988 87.7077 41.8988C87.1713 41.8988 86.6801 41.7696 86.232 41.5111C85.7839 41.2526 85.4284 40.9018 85.1653 40.4587C84.9022 40.0156 84.7727 39.5335 84.7727 39.0104C84.7727 38.4873 84.9042 38.0073 85.1694 37.5703C85.4345 37.1334 85.7922 36.7867 86.2443 36.5303C86.6965 36.2738 87.1898 36.1446 87.7242 36.1446C88.1085 36.1446 88.4785 36.2164 88.8361 36.36C89.1938 36.5036 89.5062 36.7026 89.7775 36.9549L89.4445 37.3426C89.2164 37.1211 88.9553 36.9488 88.6573 36.8236V36.8257Z" fill="#373737"/>
<path d="M90.9511 35.8451H91.4937V41.8517H90.9511V35.8451Z" fill="#373737"/>
<path d="M96.2889 38.2227C96.6342 38.6412 96.7945 39.2033 96.7678 39.911H93.2223C93.2593 40.3644 93.4278 40.7295 93.7258 41.0085C94.0239 41.2875 94.3918 41.4249 94.8296 41.4249C95.1009 41.4249 95.3516 41.3757 95.5839 41.2793C95.8161 41.1829 96.0155 41.0454 96.184 40.867L96.4923 41.1747C96.2868 41.3962 96.0402 41.5665 95.7504 41.6896C95.4606 41.8106 95.144 41.8722 94.7967 41.8722C94.3856 41.8722 94.0197 41.7819 93.7012 41.6014C93.3826 41.4208 93.1318 41.1685 92.951 40.8444C92.7701 40.5203 92.6797 40.151 92.6797 39.7346C92.6797 39.3181 92.7701 38.9571 92.951 38.6289C93.1318 38.3027 93.3826 38.0483 93.7012 37.8678C94.0197 37.6872 94.3794 37.597 94.7802 37.597C95.44 37.597 95.9436 37.8062 96.2889 38.2247V38.2227ZM96.2806 39.4884C96.2539 39.0453 96.1059 38.6945 95.8387 38.4319C95.5715 38.1693 95.2201 38.0401 94.7885 38.0401C94.3568 38.0401 94.0033 38.1714 93.7176 38.436C93.4319 38.7007 93.2654 39.0514 93.2223 39.4884H96.2806Z" fill="#373737"/>
<path d="M100.572 41.8537L100.564 41.1419C100.395 41.3901 100.178 41.5747 99.9063 41.6958C99.635 41.8168 99.3246 41.8783 98.9732 41.8783C98.6854 41.8783 98.4347 41.823 98.2147 41.7122C97.9948 41.6014 97.8263 41.4496 97.7071 41.2547C97.5879 41.0598 97.5283 40.8424 97.5283 40.5983C97.5283 40.2311 97.6701 39.9418 97.9537 39.7326C98.2374 39.5233 98.6279 39.4166 99.1253 39.4166H100.554V39.0925C100.554 38.7581 100.453 38.4996 100.254 38.315C100.054 38.1324 99.7624 38.0401 99.3781 38.0401C98.9238 38.0401 98.4676 38.2104 98.0072 38.5509L97.7646 38.1776C98.0503 37.9786 98.3237 37.8309 98.5847 37.7365C98.8437 37.6422 99.1417 37.595 99.4767 37.595C99.9906 37.595 100.387 37.7222 100.669 37.9806C100.95 38.2371 101.094 38.592 101.098 39.0453L101.107 41.8537H100.572ZM100.034 41.1603C100.297 40.986 100.474 40.7378 100.564 40.4198V39.8372H99.1931C98.819 39.8372 98.5354 39.8987 98.3422 40.0239C98.149 40.149 98.0503 40.3336 98.0503 40.5818C98.0503 40.8301 98.1428 41.0393 98.3298 41.1932C98.5169 41.347 98.7635 41.4229 99.0718 41.4229C99.45 41.4229 99.7707 41.3347 100.034 41.1603Z" fill="#373737"/>
<path d="M103.707 37.8576C103.97 37.6873 104.284 37.5991 104.652 37.595V38.1058C104.204 38.0996 103.842 38.2309 103.569 38.4976C103.296 38.7643 103.139 39.1274 103.102 39.5869V41.8537H102.56V37.6114H103.102V38.5981C103.242 38.274 103.444 38.0278 103.707 37.8576Z" fill="#373737"/>
<path d="M136.374 36.8257C136.076 36.7026 135.768 36.639 135.45 36.639C135.012 36.639 134.611 36.7436 134.245 36.9549C133.879 37.1662 133.592 37.4534 133.378 37.8165C133.164 38.1817 133.057 38.5796 133.057 39.0104C133.057 39.4412 133.164 39.8392 133.378 40.2003C133.592 40.5613 133.881 40.8485 134.245 41.0619C134.611 41.2752 135.012 41.3819 135.45 41.3819C135.764 41.3819 136.068 41.3203 136.366 41.1993C136.664 41.0783 136.929 40.9101 137.162 40.6926L137.503 41.0578C137.221 41.3162 136.901 41.5214 136.537 41.6732C136.175 41.825 135.803 41.8988 135.425 41.8988C134.888 41.8988 134.397 41.7696 133.949 41.5111C133.501 41.2526 133.146 40.9018 132.882 40.4587C132.619 40.0156 132.49 39.5335 132.49 39.0104C132.49 38.4873 132.621 38.0073 132.887 37.5703C133.152 37.1334 133.509 36.7867 133.961 36.5303C134.414 36.2738 134.907 36.1446 135.441 36.1446C135.826 36.1446 136.196 36.2164 136.553 36.36C136.911 36.5036 137.223 36.7026 137.495 36.9549L137.162 37.3426C136.934 37.1211 136.673 36.9488 136.374 36.8236V36.8257Z" fill="#373737"/>
<path d="M141.289 37.8658C141.614 38.0463 141.868 38.2986 142.051 38.6227C142.234 38.9469 142.327 39.3141 142.327 39.7243C142.327 40.1346 142.234 40.51 142.051 40.8383C141.868 41.1645 141.614 41.4188 141.289 41.5994C140.964 41.7799 140.596 41.8701 140.185 41.8701C139.774 41.8701 139.406 41.7799 139.081 41.5994C138.757 41.4188 138.502 41.1645 138.319 40.8383C138.136 40.5121 138.043 40.1408 138.043 39.7243C138.043 39.3079 138.136 38.9469 138.319 38.6227C138.502 38.2986 138.757 38.0463 139.081 37.8658C139.406 37.6852 139.774 37.595 140.185 37.595C140.596 37.595 140.964 37.6852 141.289 37.8658ZM139.359 38.274C139.116 38.4135 138.925 38.6104 138.792 38.8648C138.656 39.1192 138.588 39.4064 138.588 39.7305C138.588 40.0546 138.656 40.3521 138.792 40.6044C138.927 40.8588 139.116 41.0557 139.359 41.1952C139.601 41.3347 139.879 41.4065 140.187 41.4065C140.495 41.4065 140.771 41.3368 141.015 41.1952C141.26 41.0537 141.447 40.8588 141.583 40.6044C141.718 40.35 141.786 40.0587 141.786 39.7305C141.786 39.4023 141.718 39.1171 141.583 38.8648C141.447 38.6104 141.258 38.4135 141.015 38.274C140.773 38.1345 140.495 38.0627 140.187 38.0627C139.879 38.0627 139.603 38.1324 139.359 38.274Z" fill="#373737"/>
<path d="M146.898 38.036C147.188 38.3294 147.332 38.7335 147.332 39.2463V41.8537H146.781V39.3756C146.781 38.9756 146.67 38.6637 146.448 38.436C146.226 38.2104 145.917 38.0955 145.523 38.0955C145.085 38.1017 144.736 38.235 144.473 38.4996C144.209 38.7643 144.059 39.1212 144.022 39.5684V41.8517H143.48V37.6093H144.022V38.596C144.168 38.2678 144.384 38.0196 144.668 37.8514C144.951 37.6852 145.297 37.597 145.702 37.5929C146.209 37.5929 146.608 37.7406 146.898 38.034V38.036Z" fill="#373737"/>
<path d="M152.203 38.036C152.493 38.3294 152.636 38.7335 152.636 39.2463V41.8537H152.086V39.3756C152.086 38.9756 151.975 38.6637 151.753 38.436C151.531 38.2104 151.222 38.0955 150.828 38.0955C150.39 38.1017 150.041 38.235 149.777 38.4996C149.514 38.7643 149.364 39.1212 149.327 39.5684V41.8517H148.785V37.6093H149.327V38.596C149.473 38.2678 149.689 38.0196 149.973 37.8514C150.256 37.6852 150.602 37.597 151.007 37.5929C151.514 37.5929 151.913 37.7406 152.203 38.034V38.036Z" fill="#373737"/>
<path d="M157.253 38.2227C157.598 38.6412 157.758 39.2033 157.732 39.911H154.186C154.223 40.3644 154.392 40.7295 154.69 41.0085C154.988 41.2875 155.356 41.4249 155.793 41.4249C156.065 41.4249 156.316 41.3757 156.548 41.2793C156.78 41.1829 156.979 41.0454 157.148 40.867L157.456 41.1747C157.251 41.3962 157.004 41.5665 156.714 41.6896C156.424 41.8106 156.108 41.8722 155.761 41.8722C155.35 41.8722 154.984 41.7819 154.665 41.6014C154.347 41.4208 154.096 41.1685 153.915 40.8444C153.734 40.5203 153.644 40.151 153.644 39.7346C153.644 39.3181 153.734 38.9571 153.915 38.6289C154.096 38.3027 154.347 38.0483 154.665 37.8678C154.984 37.6872 155.343 37.597 155.744 37.597C156.404 37.597 156.907 37.8062 157.253 38.2247V38.2227ZM157.245 39.4884C157.218 39.0453 157.07 38.6945 156.803 38.4319C156.535 38.1693 156.184 38.0401 155.752 38.0401C155.321 38.0401 154.967 38.1714 154.682 38.436C154.396 38.7007 154.229 39.0514 154.186 39.4884H157.245Z" fill="#373737"/>
<path d="M160.554 38.073C160.252 38.073 159.978 38.1427 159.734 38.2842C159.491 38.4237 159.302 38.6207 159.166 38.871C159.031 39.1212 158.963 39.4084 158.963 39.7326C158.963 40.0567 159.031 40.3459 159.166 40.5983C159.302 40.8526 159.491 41.0496 159.734 41.1891C159.976 41.3286 160.249 41.4004 160.554 41.4004C160.829 41.4004 161.082 41.3511 161.312 41.2547C161.542 41.1583 161.736 41.0167 161.892 40.8342L162.2 41.1583C162.011 41.384 161.773 41.5604 161.487 41.6835C161.199 41.8086 160.88 41.8701 160.529 41.8701C160.124 41.8701 159.76 41.7799 159.442 41.5994C159.123 41.4188 158.872 41.1645 158.692 40.8383C158.511 40.5121 158.42 40.1428 158.42 39.7326C158.42 39.3223 158.511 38.9551 158.692 38.6268C158.872 38.3007 159.123 38.0463 159.442 37.8658C159.76 37.6852 160.122 37.595 160.529 37.595C160.858 37.595 161.16 37.6483 161.433 37.757C161.707 37.8658 161.941 38.0155 162.134 38.2104L161.826 38.5756C161.481 38.2412 161.055 38.073 160.552 38.073H160.554Z" fill="#373737"/>
<path d="M165.558 41.5624C165.267 41.7614 164.952 41.8681 164.617 41.8783C164.292 41.8783 164.035 41.7778 163.846 41.5788C163.657 41.3798 163.563 41.0803 163.563 40.6803V38.155H162.954L162.946 37.7345H163.563V36.6411H164.105V37.7345L165.484 37.7263V38.155H164.105V40.5921C164.105 41.1152 164.301 41.3778 164.689 41.3778C164.905 41.3778 165.141 41.3019 165.394 41.1501L165.556 41.5624H165.558Z" fill="#373737"/>
<path d="M169.638 38.2227C169.984 38.6412 170.144 39.2033 170.117 39.911H166.572C166.609 40.3644 166.777 40.7295 167.075 41.0085C167.373 41.2875 167.741 41.4249 168.179 41.4249C168.45 41.4249 168.701 41.3757 168.933 41.2793C169.166 41.1829 169.365 41.0454 169.534 40.867L169.842 41.1747C169.636 41.3962 169.39 41.5665 169.1 41.6896C168.81 41.8106 168.494 41.8722 168.146 41.8722C167.735 41.8722 167.369 41.7819 167.051 41.6014C166.732 41.4208 166.481 41.1685 166.3 40.8444C166.12 40.5203 166.029 40.151 166.029 39.7346C166.029 39.3181 166.12 38.9571 166.3 38.6289C166.481 38.3027 166.732 38.0483 167.051 37.8678C167.369 37.6872 167.729 37.597 168.13 37.597C168.79 37.597 169.293 37.8062 169.638 38.2247V38.2227ZM169.63 39.4884C169.603 39.0453 169.455 38.6945 169.188 38.4319C168.921 38.1693 168.57 38.0401 168.138 38.0401C167.706 38.0401 167.353 38.1714 167.067 38.436C166.781 38.7007 166.615 39.0514 166.572 39.4884H169.63Z" fill="#373737"/>
<path d="M175.122 35.8451V41.8517H174.579V40.8793C174.417 41.1972 174.191 41.4455 173.899 41.6198C173.607 41.7963 173.266 41.8824 172.878 41.8824C172.489 41.8824 172.121 41.7901 171.807 41.6075C171.492 41.425 171.25 41.1685 171.077 40.8382C170.904 40.51 170.818 40.1367 170.818 39.7202C170.818 39.3038 170.907 38.9345 171.081 38.6104C171.256 38.2863 171.501 38.0339 171.811 37.8493C172.121 37.6667 172.475 37.5744 172.869 37.5744C173.264 37.5744 173.601 37.6626 173.895 37.8411C174.189 38.0196 174.417 38.2678 174.579 38.5858V35.841H175.122V35.8451ZM173.8 41.2013C174.043 41.0577 174.234 40.8608 174.372 40.6064C174.51 40.3521 174.579 40.0649 174.579 39.7407C174.579 39.4166 174.512 39.1274 174.372 38.8709C174.234 38.6145 174.043 38.4135 173.8 38.2678C173.558 38.1222 173.28 38.0483 172.972 38.0483C172.664 38.0483 172.388 38.1222 172.144 38.2678C171.901 38.4135 171.708 38.6145 171.568 38.8709C171.429 39.1274 171.357 39.4166 171.357 39.7407C171.357 40.0649 171.424 40.3541 171.564 40.6064C171.702 40.8608 171.893 41.0577 172.14 41.2013C172.386 41.3449 172.662 41.4167 172.97 41.4167C173.278 41.4167 173.554 41.3449 173.798 41.2013H173.8Z" fill="#373737"/>
<path d="M86.3492 19.0583C86.3492 12.8732 91.2162 8.18982 97.5879 8.18982C102.171 8.18982 105.051 10.672 106.557 13.0681L105.008 14.2005C103.328 11.6731 100.644 10.0628 97.5879 10.0628C92.285 10.0628 88.4004 13.9605 88.4004 19.0583C88.4004 24.1561 92.2193 28.0969 97.4789 28.0969C100.839 28.0969 103.524 26.2013 105.182 23.9366L106.666 25.0259C104.767 27.945 101.472 29.9698 97.4789 29.9698C91.1073 29.9698 86.3492 25.1777 86.3492 19.0583Z" fill="#9D4EDD"/>
<path d="M110.452 0.271301H112.481V29.9329H110.452V0.271301Z" fill="#9D4EDD"/>
<path d="M125.298 17.2284C128.178 17.2284 130.776 17.9259 132.586 19.1896V16.7935C132.586 12.8302 129.619 10.0423 125.407 10.0423C122.811 10.0423 120.213 11.2834 118.468 13.3533L117.159 12.0691C119.122 9.65251 122.221 8.19189 125.387 8.19189C130.994 8.19189 134.595 11.4147 134.595 16.4038V29.9596H132.675V25.2023C131.082 28.2302 128.048 29.9719 124.338 29.9719C119.886 29.9719 116.549 27.4897 116.549 23.7643C116.549 20.0389 120.281 17.2305 125.298 17.2305V17.2284ZM118.6 23.7622C118.6 26.5275 121.066 28.2261 124.513 28.2261C128.724 28.2261 132.521 25.0895 132.586 21.0379C130.862 19.7537 128.178 18.925 125.473 18.925C121.305 18.925 118.6 20.841 118.6 23.7602V23.7622Z" fill="#9D4EDD"/>
<path d="M139.332 0.271301C140.292 0.271301 141.011 0.9893 141.011 1.9268C141.011 2.8643 140.292 3.5823 139.332 3.5823C138.372 3.5823 137.673 2.8643 137.673 1.9268C137.673 0.9893 138.393 0.271301 139.332 0.271301ZM140.358 8.62676V29.9595H138.329V8.62676H140.358Z" fill="#9D4EDD"/>
<path d="M144.086 8.62677H146.115V12.067C147.14 9.56222 150.065 8.18982 152.509 8.18982C153.732 8.18982 154.801 8.38676 155.345 8.62472L155.171 10.432C154.538 10.2146 153.709 10.0402 152.464 10.0402C148.797 10.0402 146.135 12.6537 146.135 17.6633V29.9575H144.084V8.62472L144.086 8.62677Z" fill="#9D4EDD"/>
<path d="M155.054 19.0809C155.054 12.8527 159.832 8.19189 165.834 8.19189C172.185 8.19189 175.938 12.5696 175.959 17.9054C175.959 18.3854 175.936 18.9516 175.872 19.4727H157.084C157.236 24.6997 161.382 28.0969 166.118 28.0969C169.194 28.0969 171.944 26.7901 173.778 24.5253L175.262 25.6577C173.167 28.5543 169.655 29.9698 166.097 29.9698C159.637 29.9698 155.056 25.3521 155.056 19.0809H155.054ZM173.951 17.7741C173.951 13.1563 170.504 10.0648 165.92 10.0648C161.337 10.0648 157.541 13.1789 157.148 17.7741H173.951Z" fill="#9D4EDD"/>
<path d="M12.7386 22.4062L10.3893 27.4404L6.03611 18.2152V29.9596H0.762062V8.23087H6.16559L12.7386 22.4062Z" fill="#3C0A6D"/>
<path d="M19.3096 8.23087L12.7386 22.4062L10.3894 27.4404L10.9751 28.6795H14.5021L19.4391 18.2152V29.9596H24.7131V8.23087H19.3096Z" fill="url(#paint0_linear_661_171)"/>
<path d="M33.8122 29.9575H28.5382V8.22879H33.8122V29.9575Z" fill="#3C0A6D"/>
<path d="M37.6763 29.9575V8.22879H42.1652L53.1305 21.4769V8.22879H58.4045V29.9575H53.8355L42.9503 16.8366V29.9575H37.6763Z" fill="#3C0A6D"/>
<path d="M62.2686 29.9575V8.22879H71.7911C77.9468 8.22879 82.8838 13.0619 82.8838 19.0767C82.8838 25.0915 77.9468 29.9575 71.7911 29.9575H62.2686ZM71.2772 25.5428C74.9316 25.5428 77.433 22.599 77.433 19.0788C77.433 15.5585 74.9316 12.6619 71.2772 12.6619H67.5426V25.5428H71.2772Z" fill="#3C0A6D"/>
<path d="M3.46075 0.271301C5.16464 0.271301 6.36085 1.44472 6.36085 3.16586C6.36085 4.88701 5.16464 6.03991 3.46075 6.03991C1.75686 6.03991 0.581192 4.8665 0.581192 3.16586C0.581192 1.46523 1.75686 0.271301 3.46075 0.271301Z" fill="#3C0A6D"/>
<path d="M22.0268 0.271301C23.7307 0.271301 24.9269 1.44472 24.9269 3.16586C24.9269 4.88701 23.7307 6.03991 22.0268 6.03991C20.3229 6.03991 19.1472 4.8665 19.1472 3.16586C19.1472 1.46523 20.3229 0.271301 22.0268 0.271301Z" fill="url(#paint1_linear_661_171)"/>
<defs>
<linearGradient id="paint0_linear_661_171" x1="14.6748" y1="30.2221" x2="27.1667" y2="11.204" gradientUnits="userSpaceOnUse">
<stop stop-color="#521986"/>
<stop offset="1" stop-color="#984AD7"/>
</linearGradient>
<linearGradient id="paint1_linear_661_171" x1="23.9239" y1="1.07956" x2="20.312" y2="5.06826" gradientUnits="userSpaceOnUse">
<stop stop-color="#521986"/>
<stop offset="1" stop-color="#984AD7"/>
</linearGradient>
</defs>
</svg>
