<?xml version="1.0" encoding="UTF-8"?>
<svg xmlns="http://www.w3.org/2000/svg" version="1.1" viewBox="0 0 1200 429">
  <defs>
    <style>
      .cls-1 {
        fill: silver;
      }

      .cls-2 {
        fill: none;
        stroke: silver;
        stroke-width: 6px;
      }
    </style>
  </defs>
  <!-- Generator: Adobe Illustrator 28.7.1, SVG Export Plug-In . SVG Version: 1.2.0 Build 142)  -->
  <g>
    <g id="Layer_1">
      <rect class="cls-2" x="6.5" y="7.5" width="1187" height="414"/>
      <g>
        <rect class="cls-1" x="643.1" y="98.8" width="5.6" height="231.4"/>
        <g>
          <path class="cls-1" d="M812.7,236.4h8.6c4,0,7,.6,8.8,1.8,1.8,1.2,2.7,3.1,2.7,5.7s-.5,3.3-1.5,4.5c-1,1.2-2.5,1.9-4.4,2.3v.2c4.6.8,6.9,3.2,6.9,7.3s-.9,4.8-2.8,6.4c-1.8,1.5-4.4,2.3-7.7,2.3h-10.6v-30.5ZM816.2,249.4h5.8c2.5,0,4.3-.4,5.4-1.2,1.1-.8,1.6-2.1,1.6-4s-.6-2.9-1.8-3.7c-1.2-.8-3.2-1.1-5.8-1.1h-5.2v10ZM816.2,252.4v11.4h6.4c2.5,0,4.3-.5,5.5-1.4,1.3-1,1.9-2.5,1.9-4.5s-.6-3.3-1.9-4.2c-1.3-.9-3.2-1.3-5.8-1.3h-6.1Z"/>
          <path class="cls-1" d="M841.6,244v14.8c0,1.9.4,3.3,1.3,4.2.8.9,2.2,1.4,4,1.4s4.1-.7,5.2-2c1.1-1.3,1.7-3.4,1.7-6.4v-12h3.5v22.8h-2.9l-.5-3.1h-.2c-.7,1.1-1.7,2-3,2.6-1.3.6-2.7.9-4.3.9-2.8,0-4.9-.7-6.3-2-1.4-1.3-2.1-3.4-2.1-6.3v-14.9h3.5Z"/>
          <path class="cls-1" d="M877.8,260.6c0,2.1-.8,3.8-2.4,4.9-1.6,1.2-3.8,1.7-6.7,1.7s-5.4-.5-7.1-1.4v-3.2c1.1.6,2.3,1,3.5,1.3,1.3.3,2.5.5,3.6.5,1.8,0,3.2-.3,4.2-.9,1-.6,1.5-1.5,1.5-2.6s-.4-1.6-1.2-2.3c-.8-.6-2.3-1.4-4.5-2.3-2.1-.8-3.6-1.5-4.5-2.1-.9-.6-1.6-1.3-2-2-.4-.8-.6-1.6-.6-2.7,0-1.9.8-3.3,2.3-4.4,1.5-1.1,3.6-1.6,6.2-1.6s4.9.5,7.2,1.5l-1.2,2.8c-2.3-.9-4.4-1.4-6.2-1.4s-2.9.3-3.7.8c-.8.5-1.3,1.2-1.3,2.1s.2,1.1.5,1.6c.3.4.8.8,1.5,1.2.7.4,2,1,4,1.7,2.7,1,4.5,2,5.5,3,1,1,1.4,2.3,1.4,3.8Z"/>
          <path class="cls-1" d="M885.4,266.9h-3.5v-22.8h3.5v22.8ZM881.7,237.8c0-.8.2-1.4.6-1.7.4-.4.9-.6,1.5-.6s1,.2,1.4.6c.4.4.6,1,.6,1.7s-.2,1.4-.6,1.8c-.4.4-.9.6-1.4.6s-1.1-.2-1.5-.6c-.4-.4-.6-1-.6-1.8Z"/>
          <path class="cls-1" d="M906.9,266.9v-14.8c0-1.9-.4-3.3-1.3-4.2-.8-.9-2.2-1.4-4-1.4s-4.1.6-5.3,1.9c-1.1,1.3-1.7,3.4-1.7,6.4v12h-3.5v-22.8h2.8l.6,3.1h.2c.7-1.1,1.7-2,3-2.6,1.3-.6,2.7-.9,4.3-.9,2.8,0,4.8.7,6.2,2,1.4,1.3,2.1,3.4,2.1,6.4v14.9h-3.5Z"/>
          <path class="cls-1" d="M925.6,267.3c-3.4,0-6-1-8-3.1-1.9-2.1-2.9-4.9-2.9-8.6s.9-6.6,2.7-8.8c1.8-2.2,4.3-3.2,7.3-3.2s5.1.9,6.8,2.8c1.7,1.9,2.5,4.4,2.5,7.4v2.2h-15.7c0,2.7.7,4.7,2,6.1,1.3,1.4,3.1,2.1,5.4,2.1s4.9-.5,7.3-1.5v3.1c-1.2.5-2.4.9-3.5,1.1-1.1.2-2.4.4-3.9.4ZM924.7,246.5c-1.8,0-3.3.6-4.4,1.8-1.1,1.2-1.7,2.8-1.9,5h11.9c0-2.2-.5-3.8-1.5-5-1-1.2-2.4-1.8-4.2-1.8Z"/>
          <path class="cls-1" d="M953.2,260.6c0,2.1-.8,3.8-2.4,4.9-1.6,1.2-3.8,1.7-6.7,1.7s-5.4-.5-7.1-1.4v-3.2c1.1.6,2.3,1,3.5,1.3,1.3.3,2.5.5,3.6.5,1.8,0,3.2-.3,4.2-.9,1-.6,1.5-1.5,1.5-2.6s-.4-1.6-1.2-2.3c-.8-.6-2.3-1.4-4.5-2.3-2.1-.8-3.6-1.5-4.5-2.1-.9-.6-1.6-1.3-2-2-.4-.8-.6-1.6-.6-2.7,0-1.9.8-3.3,2.3-4.4,1.5-1.1,3.6-1.6,6.2-1.6s4.9.5,7.2,1.5l-1.2,2.8c-2.3-.9-4.4-1.4-6.2-1.4s-2.9.3-3.7.8c-.8.5-1.3,1.2-1.3,2.1s.2,1.1.5,1.6c.3.4.8.8,1.5,1.2.7.4,2,1,4,1.7,2.7,1,4.5,2,5.5,3,1,1,1.4,2.3,1.4,3.8Z"/>
          <path class="cls-1" d="M972.1,260.6c0,2.1-.8,3.8-2.4,4.9-1.6,1.2-3.8,1.7-6.7,1.7s-5.4-.5-7.1-1.4v-3.2c1.1.6,2.3,1,3.5,1.3,1.3.3,2.5.5,3.6.5,1.8,0,3.2-.3,4.2-.9,1-.6,1.5-1.5,1.5-2.6s-.4-1.6-1.2-2.3c-.8-.6-2.3-1.4-4.5-2.3-2.1-.8-3.6-1.5-4.5-2.1-.9-.6-1.6-1.3-2-2-.4-.8-.6-1.6-.6-2.7,0-1.9.8-3.3,2.3-4.4,1.5-1.1,3.6-1.6,6.2-1.6s4.9.5,7.2,1.5l-1.2,2.8c-2.3-.9-4.4-1.4-6.2-1.4s-2.9.3-3.7.8c-.8.5-1.3,1.2-1.3,2.1s.2,1.1.5,1.6c.3.4.8.8,1.5,1.2.7.4,2,1,4,1.7,2.7,1,4.5,2,5.5,3,1,1,1.4,2.3,1.4,3.8Z"/>
          <path class="cls-1" d="M825.7,290.7c-3.3,0-6,1.1-7.9,3.4-1.9,2.2-2.9,5.3-2.9,9.1s.9,7.1,2.8,9.3c1.9,2.2,4.5,3.2,8,3.2s4.5-.4,7.3-1.1v3.1c-2.1.8-4.7,1.2-7.8,1.2-4.5,0-8-1.4-10.4-4.1-2.4-2.7-3.6-6.6-3.6-11.6s.6-5.9,1.8-8.3c1.2-2.4,2.9-4.2,5.1-5.5,2.2-1.3,4.8-1.9,7.8-1.9s6,.6,8.4,1.8l-1.5,3c-2.3-1.1-4.6-1.6-6.9-1.6Z"/>
          <path class="cls-1" d="M857.3,307c0,3.7-.9,6.6-2.8,8.7-1.9,2.1-4.5,3.1-7.8,3.1s-3.9-.5-5.4-1.4-2.8-2.3-3.7-4.1c-.9-1.8-1.3-3.9-1.3-6.3,0-3.7.9-6.6,2.8-8.7,1.9-2.1,4.4-3.1,7.8-3.1s5.7,1.1,7.6,3.2c1.9,2.1,2.8,5,2.8,8.6ZM839.9,307c0,2.9.6,5.1,1.8,6.7,1.2,1.5,2.9,2.3,5.1,2.3s4-.8,5.1-2.3c1.2-1.5,1.8-3.8,1.8-6.7s-.6-5.1-1.8-6.6c-1.2-1.5-2.9-2.3-5.2-2.3s-4,.7-5.1,2.2c-1.2,1.5-1.7,3.7-1.7,6.6Z"/>
          <path class="cls-1" d="M865.2,295.6v14.8c0,1.9.4,3.2,1.3,4.2.8.9,2.2,1.4,4,1.4s4.1-.7,5.2-2c1.1-1.3,1.7-3.4,1.7-6.4v-12h3.5v22.8h-2.9l-.5-3.1h-.2c-.7,1.1-1.7,2-3,2.6-1.3.6-2.7.9-4.3.9-2.8,0-4.9-.7-6.3-2-1.4-1.3-2.1-3.4-2.1-6.3v-14.9h3.5Z"/>
          <path class="cls-1" d="M902.3,318.5v-14.8c0-1.9-.4-3.2-1.3-4.2s-2.2-1.4-4-1.4-4.1.6-5.3,1.9c-1.1,1.3-1.7,3.4-1.7,6.4v12h-3.5v-22.8h2.8l.6,3.1h.2c.7-1.1,1.7-2,3-2.6,1.3-.6,2.7-.9,4.3-.9,2.7,0,4.8.7,6.2,2,1.4,1.3,2.1,3.4,2.1,6.4v14.9h-3.5Z"/>
          <path class="cls-1" d="M920.5,318.9c-3.3,0-5.9-1-7.7-3-1.8-2-2.7-4.9-2.7-8.6s.9-6.8,2.8-8.9c1.8-2.1,4.5-3.1,7.9-3.1s2.2.1,3.3.4c1.1.2,2,.5,2.6.8l-1.1,2.9c-.8-.3-1.6-.6-2.5-.8-.9-.2-1.7-.3-2.4-.3-4.6,0-7,3-7,8.9s.6,5,1.7,6.5c1.1,1.5,2.8,2.2,5,2.2s3.9-.4,5.9-1.2v3.1c-1.5.8-3.5,1.2-5.8,1.2Z"/>
          <path class="cls-1" d="M933.7,318.5h-3.5v-22.8h3.5v22.8ZM929.9,289.4c0-.8.2-1.4.6-1.7.4-.4.9-.6,1.5-.6s1,.2,1.4.6c.4.4.6,1,.6,1.7s-.2,1.4-.6,1.8c-.4.4-.9.6-1.4.6s-1.1-.2-1.5-.6c-.4-.4-.6-1-.6-1.8Z"/>
          <path class="cls-1" d="M943,318.5h-3.5v-32.4h3.5v32.4Z"/>
          <path class="cls-1" d="M760.2,226.3h4v102.2h-4v-102.2Z"/>
          <path class="cls-1" d="M961.2,126c-5.5,0-9.9,1.4-14.6,3.7,0-13.3.2-24.8.5-29.3l-27,5.4v2.6l2.5.2c3.7.5,5.3,2.8,5.5,7.7.9,9.8.7,62,0,70.5,7.2,1.6,15,2.8,22.9,2.8,21.5,0,34.2-13.3,34.2-34.6.5-16.9-10.2-29-24-29ZM951.7,185.5c-1.6,0-3.5-.2-4.6-.5-.5-5.9-.7-30-.7-51.3,2.5-.9,4.2-.9,6.2-.9,8.8,0,13.9,10.3,13.9,23.4.2,16.6-6,29.3-14.8,29.3ZM818.7,126.7l-4.2,1.2c-3.7-12.4-9.5-19.4-20.3-19.4h-14.1c-.7,8-.9,21.1-.9,34.9l9.5-.2c6.2-.2,8.8-4.9,10.4-11.9h3.5v29h-3.5c-1.6-7-4.2-11.7-10.4-11.9l-9.5-.2c0,10.5.5,19.2.7,24.6.7,7.7,2.8,11.2,8.1,11.9l4.9.5v3.5h-45.5v-3.5l3.7-.5c5.3-.7,7.4-4.2,8.1-11.9,1.2-12.6,1.2-39.3,0-54.1-.7-7.7-2.8-11.2-8.1-11.9l-3.7-.5v-3.5h70.9l.5,24.1ZM841.3,125.3c20.1,0,30.3,13.8,30.3,32.1s-11.3,32.3-31.4,32.3-30.3-13.8-30.3-32.1,11.3-32.3,31.4-32.3ZM840.4,129.3c-9,0-11.3,12.2-11.3,28.3s3.9,28.3,12.2,28.3,11.3-12.2,11.3-28.3-3.9-28.3-12.2-28.3ZM990.5,158.1c0-16.9,10.4-32.8,31.2-32.8s24.9,12.6,24.9,29.3h-37.7c-.5,15,7.2,26.2,21.5,26.2s9.7-1.6,13.6-4.4l1.8,2.1c-4.2,5.9-12.9,11.5-24.5,11.5-18,0-31-13.1-31-31.8ZM1009.2,150.4l18.9-.5c0-8.4-1.2-20.6-8.1-20.6s-10.6,11.5-10.9,21.1ZM1095.4,144.3l-3,.7c-3.2-10.8-8.3-15.5-15.5-15.5s-8.3,3.7-8.3,9.1,3.9,8.2,15.2,12.6c10.6,4.2,14.8,8.9,14.8,17.6,0,12.9-9.7,20.8-25.9,20.8s-16.2-1.6-21.3-3.7l-.5-17.8,3-.7c4.4,12.4,10.2,17.1,17.8,17.1s9.9-4.7,9.9-9.6-2.8-7.7-12.9-11.5c-9.5-3.5-16.4-7.7-16.4-18.5s9.2-19.4,24.3-19.4,13.6,1.2,18.2,3.3l.5,15.5ZM917.5,143.8c-8.1-5.6-16.9-3-18.7,0-.7,10.1-.5,25.3.2,33,.5,5.1,1.8,7.3,5.5,7.7l4.9.2v3.5h-37.4v-3.3l2.5-.2c3.7-.5,5.3-2.8,5.5-7.7.7-8.4.9-25.8,0-35.6-.5-5.1-1.8-7.3-5.5-8l-2.5-.2v-2.6l26.8-5.4-.2,14.3c6.2-14.8,18.7-16.6,25.4-12.4l-6.5,16.6Z"/>
        </g>
        <g>
          <path class="cls-1" d="M172.6,183v5h-71.3v-5h71.3Z"/>
          <path class="cls-1" d="M533.9,183v5h-71.3v-5h71.3Z"/>
          <path class="cls-1" d="M105.2,266.3c0-9,6.2-15.7,15.3-15.7s15.3,6.7,15.3,15.7-6.2,15.7-15.3,15.7-15.3-6.7-15.3-15.7ZM131.1,266.3c0-6.7-4.2-11.6-10.6-11.6s-10.6,4.9-10.6,11.6,4.1,11.6,10.6,11.6,10.6-5,10.6-11.6ZM149.2,281.4h-4.5v-30.3h20.3v4h-15.8v8.9h15.5v4h-15.5v13.4ZM177.8,281.4h-4.5v-30.3h20.3v4h-15.8v8.9h15.5v4h-15.5v13.4ZM206.4,281.4h-4.5v-30.3h4.5v30.3ZM230.9,282c-8.6,0-15.5-6.4-15.5-15.7s6.9-15.7,15.5-15.7,9.7,2.9,12,6.4l-3.9,2c-1.6-2.5-4.6-4.4-8.2-4.4-6.1,0-10.9,4.8-10.9,11.6s4.7,11.6,10.9,11.6,6.6-1.9,8.2-4.4l3.9,2c-2.4,3.5-6.1,6.4-12,6.4ZM255.4,281.4h-4.5v-30.3h4.5v30.3ZM292.1,281.4h-5l-2.5-6.3h-14.8l-2.5,6.3h-5l12-30.3h5.7l12,30.3ZM283.4,271.1l-6.1-16-6.1,16h12.2ZM317.5,281.4h-18.3v-30.3h4.5v26.3h13.8v4ZM371.6,281.4h-4.5v-24.1l-9.8,24.1h-1.9l-9.8-24.1v24.1h-4.5v-30.3h6.5l8.8,21.7,8.8-21.7h6.5v30.3ZM402.1,281.4h-20.3v-30.3h20.3v4h-15.8v8.9h15.5v4h-15.5v9.4h15.8v4ZM441.8,281.4h-4.5v-24.1l-9.8,24.1h-1.9l-9.8-24.1v24.1h-4.5v-30.3h6.5l8.8,21.7,8.8-21.7h6.5v30.3ZM466.5,281.4h-14.6v-30.3h14.2c5.4,0,8.5,3.3,8.5,7.7s-2.5,6.4-5.3,6.9c3.2.5,5.9,3.8,5.9,7.4s-3.2,8.2-8.8,8.2ZM456.4,255.1v8.9h8.8c3,0,4.7-1.9,4.7-4.4s-1.7-4.4-4.7-4.4h-8.8ZM456.4,268v9.4h9c3.2,0,5.1-1.8,5.1-4.8s-1.7-4.7-5.1-4.7h-9ZM504.6,281.4h-20.3v-30.3h20.3v4h-15.8v8.9h15.5v4h-15.5v9.4h15.8v4ZM536.4,281.4h-5.3l-7.2-11.7h-5.7v11.7h-4.5v-30.3h12.8c5.8,0,9.7,3.7,9.7,9.3s-3.7,8.4-7.5,8.9l7.8,12.1ZM531.5,260.4c0-3.2-2.4-5.3-5.6-5.3h-7.6v10.6h7.6c3.3,0,5.6-2.1,5.6-5.3Z"/>
          <path class="cls-1" d="M256.4,213.1h-45.8v-7.7c24.4-18.7,35.6-28.5,35.6-38.7s-6.3-10.9-12.7-10.9-13.7,3.2-17.6,8l-5.8-6.3c5.4-6.7,14.2-10.3,23.3-10.3s22.7,6.6,22.7,19.6-12.2,24.1-30,37.8h30.3v8.6ZM267.5,180.6c0-16.1,7.4-33.5,25.4-33.5s25.4,17.5,25.4,33.5-7.4,33.6-25.4,33.6-25.4-17.6-25.4-33.6ZM308.5,180.6c0-12.7-4-24.9-15.5-24.9s-15.5,12.2-15.5,24.9,4,25,15.5,25,15.5-12.3,15.5-25ZM373.9,213.1h-45.8v-7.7c24.4-18.7,35.6-28.5,35.6-38.7s-6.3-10.9-12.7-10.9-13.7,3.2-17.6,8l-5.8-6.3c5.4-6.7,14.2-10.3,23.3-10.3s22.7,6.6,22.7,19.6-12.2,24.1-30,37.8h30.3v8.6ZM424.2,213.1h-9.8v-15.6h-30.9v-8l27.3-41.4h13.4v40.9h9v8.6h-9v15.6ZM414.4,188.9v-32l-21.3,32h21.3Z"/>
        </g>
      </g>
    </g>
  </g>
</svg>