<svg width="272" height="81" viewBox="0 0 272 81" fill="none" xmlns="http://www.w3.org/2000/svg">
<path d="M170.075 61.8395C169.652 61.6645 169.213 61.574 168.76 61.574C168.137 61.574 167.567 61.7228 167.047 62.0233C166.527 62.3238 166.118 62.7323 165.814 63.2487C165.51 63.768 165.358 64.334 165.358 64.9466C165.358 65.5593 165.51 66.1253 165.814 66.6388C166.118 67.1522 166.53 67.5607 167.047 67.8641C167.565 68.1675 168.137 68.3192 168.76 68.3192C169.207 68.3192 169.64 68.2317 170.064 68.0596C170.488 67.8874 170.865 67.6482 171.195 67.3389L171.68 67.8583C171.28 68.2259 170.824 68.5176 170.306 68.7335C169.792 68.9494 169.263 69.0544 168.725 69.0544C167.962 69.0544 167.263 68.8706 166.626 68.503C165.989 68.1354 165.483 67.6365 165.109 67.0064C164.735 66.3762 164.551 65.6906 164.551 64.9466C164.551 64.2027 164.738 63.52 165.115 62.8986C165.492 62.2771 166.001 61.7841 166.644 61.4194C167.287 61.0547 167.988 60.8709 168.748 60.8709C169.295 60.8709 169.821 60.973 170.33 61.1772C170.838 61.3815 171.283 61.6645 171.669 62.0233L171.195 62.5747C170.871 62.2596 170.499 62.0146 170.075 61.8366V61.8395Z" fill="white"/>
<path d="M177.079 68.9903L177.067 67.9779C176.828 68.3309 176.518 68.5935 176.132 68.7656C175.746 68.9377 175.305 69.0253 174.805 69.0253C174.396 69.0253 174.039 68.9465 173.726 68.789C173.414 68.6314 173.174 68.4155 173.004 68.1384C172.835 67.8612 172.75 67.552 172.75 67.2048C172.75 66.6825 172.952 66.2712 173.355 65.9736C173.759 65.676 174.314 65.5243 175.021 65.5243H177.053V65.0633C177.053 64.5878 176.91 64.2202 176.626 63.9576C176.343 63.698 175.927 63.5667 175.381 63.5667C174.735 63.5667 174.086 63.8088 173.431 64.2931L173.086 63.7622C173.493 63.4792 173.881 63.2691 174.253 63.1349C174.621 63.0007 175.045 62.9336 175.521 62.9336C176.252 62.9336 176.816 63.1145 177.217 63.4821C177.617 63.8468 177.822 64.3515 177.827 64.9962L177.839 68.9903H177.079ZM176.31 68.0042C176.685 67.7562 176.936 67.4032 177.065 66.951V66.1224H175.115C174.583 66.1224 174.179 66.2099 173.905 66.3879C173.63 66.5658 173.49 66.8284 173.49 67.1814C173.49 67.5344 173.621 67.832 173.887 68.0508C174.153 68.2696 174.504 68.3776 174.942 68.3776C175.48 68.3776 175.936 68.2521 176.31 68.0042Z" fill="white"/>
<path d="M179.962 60.4449H180.733V68.9873H179.962V60.4449Z" fill="white"/>
<path d="M192.443 63.555C192.843 63.9693 193.042 64.544 193.042 65.2821V68.9902H192.259V65.4659C192.259 64.8912 192.104 64.4419 191.791 64.1239C191.478 63.8059 191.051 63.6454 190.505 63.6454C189.859 63.66 189.353 63.8847 188.988 64.3135C188.622 64.7424 188.441 65.3113 188.441 66.0173V68.9873H187.658V65.463C187.658 64.8883 187.503 64.439 187.19 64.121C186.877 63.803 186.45 63.6425 185.904 63.6425C185.258 63.6571 184.749 63.8817 184.381 64.3106C184.013 64.7395 183.828 65.3084 183.828 66.0144V68.9844H183.057V62.9511H183.828V64.3661C184.027 63.8905 184.325 63.5346 184.723 63.2953C185.118 63.059 185.603 62.9336 186.17 62.9277C186.746 62.9277 187.225 63.0707 187.605 63.3537C187.985 63.6367 188.236 64.0364 188.359 64.5498C188.543 64.013 188.842 63.6104 189.254 63.342C189.666 63.0736 190.172 62.9365 190.771 62.9277C191.487 62.9277 192.042 63.1349 192.443 63.5492V63.555Z" fill="white"/>
<path d="M136.256 61.8395C135.832 61.6645 135.393 61.574 134.94 61.574C134.318 61.574 133.748 61.7228 133.227 62.0233C132.707 62.3238 132.298 62.7323 131.994 63.2487C131.69 63.768 131.538 64.334 131.538 64.9466C131.538 65.5593 131.69 66.1253 131.994 66.6388C132.298 67.1522 132.71 67.5607 133.227 67.8641C133.748 68.1675 134.318 68.3192 134.94 68.3192C135.387 68.3192 135.82 68.2317 136.244 68.0596C136.668 67.8874 137.045 67.6482 137.375 67.3389L137.86 67.8583C137.46 68.2259 137.004 68.5176 136.487 68.7335C135.972 68.9494 135.443 69.0544 134.905 69.0544C134.142 69.0544 133.444 68.8706 132.806 68.503C132.169 68.1354 131.664 67.6365 131.289 67.0064C130.915 66.3762 130.731 65.6906 130.731 64.9466C130.731 64.2027 130.918 63.52 131.295 62.8986C131.672 62.2771 132.181 61.7841 132.824 61.4194C133.467 61.0547 134.169 60.8709 134.929 60.8709C135.475 60.8709 136.001 60.973 136.51 61.1772C137.019 61.3815 137.463 61.6645 137.849 62.0233L137.375 62.5747C137.051 62.2596 136.679 62.0146 136.256 61.8366V61.8395Z" fill="white"/>
<path d="M139.518 60.445H140.289V68.9874H139.518V60.445Z" fill="white"/>
<path d="M147.109 63.8264C147.6 64.4215 147.828 65.2209 147.79 66.2274H142.748C142.8 66.8722 143.04 67.3915 143.464 67.7883C143.888 68.1851 144.411 68.3805 145.034 68.3805C145.419 68.3805 145.776 68.3105 146.106 68.1734C146.437 68.0363 146.72 67.8408 146.96 67.587L147.398 68.0246C147.106 68.3397 146.755 68.5818 146.343 68.7569C145.931 68.929 145.481 69.0165 144.987 69.0165C144.402 69.0165 143.882 68.8882 143.429 68.6314C142.976 68.3747 142.619 68.0158 142.362 67.5549C142.105 67.0939 141.976 66.5688 141.976 65.9765C141.976 65.3843 142.105 64.8708 142.362 64.404C142.619 63.9401 142.976 63.5784 143.429 63.3216C143.882 63.0649 144.393 62.9365 144.963 62.9365C145.902 62.9365 146.618 63.2341 147.109 63.8293V63.8264ZM147.097 65.6264C147.059 64.9963 146.849 64.4974 146.469 64.1239C146.089 63.7505 145.589 63.5667 144.975 63.5667C144.361 63.5667 143.859 63.7534 143.452 64.1298C143.046 64.5061 142.809 65.005 142.748 65.6264H147.097Z" fill="white"/>
<path d="M153.201 68.9903L153.189 67.9779C152.949 68.3309 152.639 68.5935 152.254 68.7656C151.868 68.9377 151.426 69.0253 150.926 69.0253C150.517 69.0253 150.161 68.9465 149.848 68.789C149.535 68.6314 149.295 68.4155 149.126 68.1384C148.956 67.8612 148.872 67.552 148.872 67.2048C148.872 66.6825 149.073 66.2712 149.477 65.9736C149.88 65.676 150.435 65.5243 151.143 65.5243H153.174V65.0633C153.174 64.5878 153.031 64.2202 152.748 63.9576C152.464 63.698 152.049 63.5667 151.502 63.5667C150.856 63.5667 150.207 63.8088 149.553 64.2931L149.208 63.7622C149.614 63.4792 150.003 63.2691 150.374 63.1349C150.742 63.0007 151.166 62.9336 151.643 62.9336C152.373 62.9336 152.938 63.1145 153.338 63.4821C153.738 63.8468 153.943 64.3515 153.949 64.9962L153.961 68.9903H153.201ZM152.435 68.0042C152.809 67.7562 153.06 67.4032 153.189 66.951V66.1224H151.239C150.707 66.1224 150.304 66.2099 150.029 66.3879C149.754 66.5658 149.614 66.8284 149.614 67.1814C149.614 67.5344 149.746 67.832 150.012 68.0508C150.278 68.2696 150.628 68.3776 151.067 68.3776C151.605 68.3776 152.061 68.2521 152.435 68.0042Z" fill="white"/>
<path d="M157.658 63.307C158.032 63.0649 158.48 62.9394 159.003 62.9336V63.66C158.366 63.6513 157.851 63.838 157.462 64.2173C157.074 64.5966 156.852 65.1129 156.799 65.7665V68.9903H156.027V62.9569H156.799V64.3602C156.998 63.8993 157.284 63.5492 157.658 63.307Z" fill="white"/>
<path d="M204.117 61.8395C203.694 61.6645 203.255 61.574 202.802 61.574C202.179 61.574 201.609 61.7228 201.089 62.0233C200.569 62.3238 200.16 62.7323 199.856 63.2487C199.552 63.768 199.4 64.334 199.4 64.9466C199.4 65.5593 199.552 66.1253 199.856 66.6388C200.16 67.1522 200.572 67.5607 201.089 67.8641C201.609 68.1675 202.179 68.3192 202.802 68.3192C203.249 68.3192 203.682 68.2317 204.106 68.0596C204.53 67.8874 204.907 67.6482 205.237 67.3389L205.722 67.8583C205.322 68.2259 204.866 68.5176 204.348 68.7335C203.834 68.9494 203.305 69.0544 202.767 69.0544C202.004 69.0544 201.305 68.8706 200.668 68.503C200.031 68.1354 199.525 67.6365 199.151 67.0064C198.777 66.3762 198.593 65.6906 198.593 64.9466C198.593 64.2027 198.78 63.52 199.157 62.8986C199.534 62.2771 200.043 61.7841 200.686 61.4194C201.329 61.0547 202.03 60.8709 202.79 60.8709C203.337 60.8709 203.863 60.973 204.372 61.1772C204.88 61.3815 205.325 61.6645 205.711 62.0233L205.237 62.5747C204.913 62.2596 204.541 62.0146 204.117 61.8366V61.8395Z" fill="white"/>
<path d="M211.106 63.3187C211.568 63.5754 211.931 63.9343 212.191 64.3952C212.451 64.8562 212.583 65.3784 212.583 65.9619C212.583 66.5454 212.451 67.0793 212.191 67.5461C211.931 68.01 211.568 68.3718 211.106 68.6285C210.645 68.8852 210.121 69.0136 209.537 69.0136C208.952 69.0136 208.429 68.8852 207.967 68.6285C207.505 68.3718 207.143 68.01 206.883 67.5461C206.622 67.0822 206.491 66.5542 206.491 65.9619C206.491 65.3697 206.622 64.8562 206.883 64.3952C207.143 63.9343 207.505 63.5754 207.967 63.3187C208.429 63.062 208.952 62.9336 209.537 62.9336C210.121 62.9336 210.645 63.062 211.106 63.3187ZM208.362 63.8993C208.017 64.0977 207.745 64.3777 207.555 64.7395C207.362 65.1013 207.266 65.5097 207.266 65.9707C207.266 66.4316 207.362 66.8547 207.555 67.2135C207.748 67.5753 208.017 67.8554 208.362 68.0538C208.707 68.2521 209.101 68.3543 209.54 68.3543C209.978 68.3543 210.37 68.2551 210.718 68.0538C211.066 67.8525 211.332 67.5753 211.524 67.2135C211.717 66.8518 211.814 66.4375 211.814 65.9707C211.814 65.5039 211.717 65.0984 211.524 64.7395C211.332 64.3777 211.063 64.0977 210.718 63.8993C210.373 63.7009 209.978 63.5988 209.54 63.5988C209.101 63.5988 208.71 63.698 208.362 63.8993Z" fill="white"/>
<path d="M219.084 63.5608C219.496 63.978 219.7 64.5528 219.7 65.2822V68.9903H218.917V65.4659C218.917 64.897 218.759 64.4536 218.443 64.1297C218.128 63.8088 217.689 63.6454 217.128 63.6454C216.505 63.6542 216.008 63.8438 215.634 64.2202C215.26 64.5965 215.047 65.1042 214.994 65.7402V68.9873H214.222V62.954H214.994V64.3573C215.202 63.8905 215.509 63.5375 215.912 63.2983C216.315 63.062 216.806 62.9365 217.382 62.9307C218.104 62.9307 218.671 63.1407 219.084 63.5579V63.5608Z" fill="white"/>
<path d="M226.628 63.5608C227.04 63.978 227.245 64.5528 227.245 65.2822V68.9903H226.461V65.4659C226.461 64.897 226.303 64.4536 225.988 64.1297C225.672 63.8088 225.234 63.6454 224.672 63.6454C224.05 63.6542 223.553 63.8438 223.179 64.2202C222.805 64.5965 222.591 65.1042 222.539 65.7402V68.9873H221.767V62.954H222.539V64.3573C222.746 63.8905 223.053 63.5375 223.456 63.2983C223.86 63.062 224.351 62.9365 224.927 62.9307C225.649 62.9307 226.216 63.1407 226.628 63.5579V63.5608Z" fill="white"/>
<path d="M233.81 63.8264C234.301 64.4215 234.529 65.2209 234.491 66.2274H229.449C229.501 66.8722 229.741 67.3915 230.165 67.7883C230.589 68.1851 231.112 68.3805 231.735 68.3805C232.12 68.3805 232.477 68.3105 232.807 68.1734C233.138 68.0363 233.421 67.8408 233.661 67.587L234.099 68.0246C233.807 68.3397 233.456 68.5818 233.044 68.7569C232.632 68.929 232.182 69.0165 231.688 69.0165C231.103 69.0165 230.583 68.8882 230.13 68.6314C229.677 68.3747 229.32 68.0158 229.063 67.5549C228.806 67.0939 228.677 66.5688 228.677 65.9765C228.677 65.3843 228.806 64.8708 229.063 64.404C229.32 63.9401 229.677 63.5784 230.13 63.3216C230.583 63.0649 231.094 62.9365 231.664 62.9365C232.603 62.9365 233.319 63.2341 233.81 63.8293V63.8264ZM233.798 65.6264C233.76 64.9963 233.55 64.4974 233.17 64.1239C232.79 63.7505 232.29 63.5667 231.676 63.5667C231.062 63.5667 230.559 63.7534 230.153 64.1298C229.747 64.5061 229.51 65.005 229.449 65.6264H233.798Z" fill="white"/>
<path d="M238.504 63.6134C238.075 63.6134 237.686 63.7126 237.338 63.9139C236.993 64.1123 236.724 64.3923 236.531 64.7483C236.338 65.1042 236.242 65.5126 236.242 65.9736C236.242 66.4346 236.338 66.8459 236.531 67.2048C236.724 67.5665 236.993 67.8466 237.338 68.045C237.683 68.2434 238.072 68.3455 238.504 68.3455C238.896 68.3455 239.256 68.2755 239.583 68.1384C239.91 68.0012 240.185 67.7999 240.407 67.5403L240.846 68.0012C240.577 68.3222 240.238 68.5731 239.831 68.7481C239.422 68.9261 238.969 69.0136 238.469 69.0136C237.893 69.0136 237.376 68.8852 236.923 68.6285C236.47 68.3718 236.113 68.01 235.856 67.5461C235.599 67.0822 235.47 66.5571 235.47 65.9736C235.47 65.3901 235.599 64.8679 235.856 64.4011C236.113 63.9372 236.47 63.5754 236.923 63.3187C237.376 63.062 237.89 62.9336 238.469 62.9336C238.937 62.9336 239.367 63.0094 239.755 63.1641C240.144 63.3187 240.477 63.5317 240.752 63.8088L240.314 64.3281C239.823 63.8526 239.218 63.6134 238.501 63.6134H238.504Z" fill="white"/>
<path d="M245.622 68.576C245.207 68.859 244.76 69.0107 244.283 69.0253C243.821 69.0253 243.456 68.8823 243.187 68.5993C242.918 68.3163 242.784 67.8904 242.784 67.3215V63.7301H241.919L241.907 63.132H242.784V61.577H243.555V63.132L245.517 63.1203V63.7301H243.555V67.196C243.555 67.94 243.833 68.3134 244.386 68.3134C244.692 68.3134 245.029 68.2055 245.388 67.9896L245.619 68.576H245.622Z" fill="white"/>
<path d="M251.424 63.8264C251.915 64.4215 252.143 65.2209 252.105 66.2274H247.063C247.116 66.8722 247.355 67.3915 247.779 67.7883C248.203 68.1851 248.726 68.3805 249.349 68.3805C249.735 68.3805 250.091 68.3105 250.422 68.1734C250.752 68.0363 251.036 67.8408 251.275 67.587L251.714 68.0246C251.421 68.3397 251.071 68.5818 250.658 68.7569C250.246 68.929 249.796 69.0165 249.302 69.0165C248.718 69.0165 248.197 68.8882 247.744 68.6314C247.291 68.3747 246.934 68.0158 246.677 67.5549C246.42 67.0939 246.291 66.5688 246.291 65.9765C246.291 65.3843 246.42 64.8708 246.677 64.404C246.934 63.9401 247.291 63.5784 247.744 63.3216C248.197 63.0649 248.709 62.9365 249.279 62.9365C250.217 62.9365 250.933 63.2341 251.424 63.8293V63.8264ZM251.413 65.6264C251.375 64.9963 251.164 64.4974 250.784 64.1239C250.404 63.7505 249.904 63.5667 249.29 63.5667C248.677 63.5667 248.174 63.7534 247.768 64.1298C247.361 64.5061 247.124 65.005 247.063 65.6264H251.413Z" fill="white"/>
<path d="M259.223 60.445V68.9873H258.451V67.6045C258.22 68.0567 257.899 68.4097 257.484 68.6577C257.069 68.9086 256.583 69.0311 256.031 69.0311C255.479 69.0311 254.955 68.8998 254.508 68.6402C254.061 68.3805 253.716 68.0158 253.47 67.5461C253.225 67.0793 253.102 66.5483 253.102 65.9561C253.102 65.3638 253.228 64.8387 253.476 64.3777C253.725 63.9168 254.073 63.5579 254.514 63.2954C254.955 63.0357 255.458 62.9044 256.019 62.9044C256.581 62.9044 257.06 63.0299 257.478 63.2837C257.896 63.5375 258.22 63.8905 258.451 64.3427V60.4391H259.223V60.445ZM257.343 68.0625C257.688 67.8583 257.96 67.5782 258.156 67.2164C258.352 66.8547 258.451 66.4462 258.451 65.9853C258.451 65.5243 258.355 65.1129 258.156 64.7483C257.96 64.3836 257.688 64.0977 257.343 63.8905C256.999 63.6834 256.604 63.5783 256.165 63.5783C255.727 63.5783 255.335 63.6834 254.987 63.8905C254.643 64.0977 254.368 64.3836 254.169 64.7483C253.97 65.1129 253.868 65.5243 253.868 65.9853C253.868 66.4462 253.964 66.8576 254.163 67.2164C254.359 67.5782 254.631 67.8583 254.982 68.0625C255.332 68.2667 255.724 68.3688 256.163 68.3688C256.601 68.3688 256.993 68.2667 257.341 68.0625H257.343Z" fill="white"/>
<path d="M132.973 36.5713C132.973 27.7752 139.895 21.1146 148.956 21.1146C155.475 21.1146 159.57 24.6447 161.713 28.0523L159.509 29.6628C157.12 26.0684 153.303 23.7782 148.956 23.7782C141.415 23.7782 135.89 29.3214 135.89 36.5713C135.89 43.8212 141.321 49.4257 148.801 49.4257C153.581 49.4257 157.398 46.73 159.757 43.5091L161.868 45.0583C159.167 49.2098 154.481 52.0894 148.801 52.0894C139.74 52.0894 132.973 45.2742 132.973 36.5713Z" fill="white"/>
<path d="M167.252 9.85309H170.137V52.0368H167.252V9.85309Z" fill="white"/>
<path d="M188.365 33.969C192.46 33.969 196.155 34.9609 198.73 36.7581V33.3505C198.73 27.7139 194.509 23.7491 188.52 23.7491C184.828 23.7491 181.133 25.5141 178.652 28.4579L176.79 26.6315C179.581 23.1947 183.989 21.1175 188.491 21.1175C196.465 21.1175 201.586 25.7008 201.586 32.7961V52.0748H198.856V45.3092C196.591 49.6154 192.276 52.0923 187 52.0923C180.669 52.0923 175.922 48.5622 175.922 43.264C175.922 37.9659 181.23 33.9719 188.365 33.9719V33.969ZM178.839 43.2611C178.839 47.1939 182.346 49.6095 187.248 49.6095C193.238 49.6095 198.637 45.1487 198.73 39.3867C196.278 37.5604 192.46 36.3817 188.614 36.3817C182.686 36.3817 178.839 39.1066 178.839 43.2582V43.2611Z" fill="white"/>
<path d="M208.324 9.85309C209.689 9.85309 210.712 10.8742 210.712 12.2075C210.712 13.5408 209.689 14.5619 208.324 14.5619C206.959 14.5619 205.965 13.5408 205.965 12.2075C205.965 10.8742 206.988 9.85309 208.324 9.85309ZM209.782 21.7359V52.0747H206.897V21.7359H209.782Z" fill="white"/>
<path d="M215.085 21.736H217.97V26.6286C219.428 23.0664 223.588 21.1146 227.063 21.1146C228.803 21.1146 230.323 21.3946 231.097 21.7331L230.849 24.3034C229.949 23.9941 228.771 23.7461 226.999 23.7461C221.784 23.7461 217.999 27.463 217.999 34.5874V52.0719H215.082V21.7331L215.085 21.736Z" fill="white"/>
<path d="M230.682 36.6034C230.682 27.746 237.478 21.1175 246.014 21.1175C255.046 21.1175 260.383 27.3434 260.413 34.9317C260.413 35.6144 260.381 36.4196 260.29 37.1607H233.57C233.787 44.5944 239.682 49.4257 246.417 49.4257C250.793 49.4257 254.704 47.5673 257.311 44.3464L259.422 45.9569C256.443 50.0763 251.448 52.0894 246.388 52.0894C237.201 52.0894 230.685 45.5221 230.685 36.6034H230.682ZM257.557 34.745C257.557 28.1778 252.655 23.7811 246.136 23.7811C239.618 23.7811 234.219 28.2099 233.661 34.745H257.557Z" fill="white"/>
<path d="M28.2865 41.3326L24.9454 48.4921L18.7544 35.3722V52.0748H11.2538V21.1729H18.9385L28.2865 41.3326Z" fill="white"/>
<path d="M37.6315 21.1729L28.2865 41.3326L24.9454 48.4921L25.7785 50.2543H30.7945L37.8157 35.3722V52.0748H45.3163V21.1729H37.6315Z" fill="url(#paint0_linear_1009_4)"/>
<path d="M58.2567 52.0718H50.7561V21.17H58.2567V52.0718Z" fill="white"/>
<path d="M63.752 52.0718V21.17H70.136L85.7305 40.011V21.17H93.2311V52.0718H86.7331L71.2526 33.4117V52.0718H63.752Z" fill="white"/>
<path d="M98.7264 52.0718V21.17H112.269C121.024 21.17 128.045 28.0435 128.045 36.5976C128.045 45.1516 121.024 52.0718 112.269 52.0718H98.7264ZM111.538 45.7934C116.735 45.7934 120.293 41.6069 120.293 36.6005C120.293 31.5941 116.735 27.4746 111.538 27.4746H106.227V45.7934H111.538Z" fill="white"/>
<path d="M15.0918 9.85309C17.515 9.85309 19.2162 11.5219 19.2162 13.9696C19.2162 16.4174 17.515 18.057 15.0918 18.057C12.6686 18.057 10.9966 16.3882 10.9966 13.9696C10.9966 11.5511 12.6686 9.85309 15.0918 9.85309Z" fill="white"/>
<path d="M41.4958 9.85309C43.919 9.85309 45.6203 11.5219 45.6203 13.9696C45.6203 16.4174 43.919 18.057 41.4958 18.057C39.0726 18.057 37.4006 16.3882 37.4006 13.9696C37.4006 11.5511 39.0726 9.85309 41.4958 9.85309Z" fill="url(#paint1_linear_1009_4)"/>
<defs>
<linearGradient id="paint0_linear_1009_4" x1="31.04" y1="52.4482" x2="48.8056" y2="25.4012" gradientUnits="userSpaceOnUse">
<stop stop-color="#521986"/>
<stop offset="1" stop-color="#984AD7"/>
</linearGradient>
<linearGradient id="paint1_linear_1009_4" x1="44.1938" y1="11.0026" x2="39.0571" y2="16.6752" gradientUnits="userSpaceOnUse">
<stop stop-color="#521986"/>
<stop offset="1" stop-color="#984AD7"/>
</linearGradient>
</defs>
</svg>
